<?xml version="1.0" encoding="UTF-8"?>
<svg version="1.1" xmlns="http://www.w3.org/2000/svg" width="819" height="819">
<path d="M0 0 C3.30844688 0.0031417 6.61598051 -0.02031155 9.92431641 -0.0456543 C24.29136962 -0.08846196 38.1597333 1.05004891 52.34228516 3.31567383 C53.56496094 3.50379639 54.78763672 3.69191895 56.04736328 3.88574219 C95.8792241 10.39623061 134.81852339 27.53129023 167.34228516 51.31567383 C168.38384766 52.06333008 169.42541016 52.81098633 170.49853516 53.58129883 C182.61554968 62.44585156 193.51539042 72.30878125 204.15478516 82.87817383 C205.46177368 84.17126465 205.46177368 84.17126465 206.79516602 85.49047852 C212.73080653 91.45491364 218.14129556 97.70319863 223.34228516 104.31567383 C223.84542236 104.9541626 224.34855957 105.59265137 224.86694336 106.25048828 C247.59714089 135.58815286 263.97457396 169.43970596 273.34228516 205.31567383 C273.61032959 206.32839355 273.61032959 206.32839355 273.88378906 207.36157227 C278.66726881 225.69176296 281.44931642 244.61921548 281.54541016 263.57348633 C281.55256042 264.51126419 281.55971069 265.44904205 281.56707764 266.41523743 C282.04122544 346.90515393 253.84812661 417.26135914 197.02978516 474.87817383 C190.41974557 481.49842535 183.59347103 487.50527266 176.06054688 493.04614258 C174.31665435 494.33461105 172.59634696 495.65035564 170.87744141 496.97192383 C135.02306843 524.26001941 91.96859492 542.81562784 47.34228516 549.44067383 C46.25689453 549.60954102 45.17150391 549.7784082 44.05322266 549.95239258 C31.23017642 551.89574207 18.54474935 552.55535091 5.59228516 552.56567383 C4.44027115 552.56668594 4.44027115 552.56668594 3.26498413 552.56771851 C-10.23102313 552.54900975 -23.34626643 551.66244315 -36.65771484 549.31567383 C-38.10283447 549.06624023 -38.10283447 549.06624023 -39.57714844 548.81176758 C-59.89817761 545.20032912 -79.70191837 539.48933558 -98.65771484 531.31567383 C-100.11443509 530.7094572 -101.57143494 530.10391168 -103.02880859 529.49926758 C-143.58920997 512.26785297 -182.98346744 482.59883386 -209.65771484 447.31567383 C-210.18075195 446.63134277 -210.70378906 445.94701172 -211.24267578 445.24194336 C-219.06975774 434.97244513 -226.42576639 424.63063538 -232.65771484 413.31567383 C-233.11887695 412.48616211 -233.58003906 411.65665039 -234.05517578 410.80200195 C-241.39476771 397.49809622 -247.53426191 384.02116855 -252.75732422 369.75561523 C-253.51353686 367.7063774 -254.30780033 365.67123716 -255.11083984 363.63989258 C-271.7751357 320.44983464 -274.54052333 265.30000695 -264.65771484 220.31567383 C-264.43809082 219.26283203 -264.2184668 218.20999023 -263.9921875 217.12524414 C-260.96709297 202.78548253 -256.91846066 188.98834636 -251.65771484 175.31567383 C-251.3834668 174.58977051 -251.10921875 173.86386719 -250.82666016 173.1159668 C-234.284481 129.64580783 -203.97680779 87.31830277 -166.65771484 59.31567383 C-165.46279506 58.38194056 -164.26886043 57.44694579 -163.07568359 56.51098633 C-126.33412064 27.98062339 -82.39461763 9.95164199 -36.65771484 2.31567383 C-35.59939453 2.12803467 -34.54107422 1.94039551 -33.45068359 1.74707031 C-22.32375935 -0.00673151 -11.2417887 -0.02222999 0 0 Z " fill="#E6B231" transform="translate(403.65771484375,129.684326171875)"/>
<path d="M0 0 C0.96040192 0.00398804 1.92080383 0.00797607 2.91030884 0.01208496 C17.17482849 0.08146045 31.16028396 0.56955679 45.1875 3.375 C45.90083496 3.50890137 46.61416992 3.64280273 47.34912109 3.78076172 C88.07739587 11.59309064 126.33767614 30.81748777 157.1875 58.375 C157.72858398 58.85437012 158.26966797 59.33374023 158.82714844 59.82763672 C186.32875996 84.28874749 207.20205005 114.89386171 220.1875 149.375 C220.74824219 150.79039062 220.74824219 150.79039062 221.3203125 152.234375 C231.62839903 179.01916677 235.35185018 207.22864406 235.375 235.75 C235.37608765 236.46980042 235.37717529 237.18960083 235.3782959 237.93121338 C235.37793404 240.04538623 235.36861912 242.15930824 235.35546875 244.2734375 C235.34797607 245.49724121 235.3404834 246.72104492 235.33276367 247.98193359 C235.20063059 254.12435192 234.65675384 260.25111796 234.1875 266.375 C232.95832352 266.37864563 231.72914703 266.38229126 230.46272278 266.38604736 C218.88251528 266.42297828 207.30257417 266.48073029 195.72256947 266.55890274 C189.76905522 266.59842264 183.8156899 266.6305891 177.86206055 266.64599609 C172.1171449 266.66113276 166.37263853 266.69552557 160.62790489 266.74330902 C158.43548832 266.75815362 156.24301332 266.76604277 154.05054665 266.76688385 C150.98092567 266.76924593 147.91244274 266.79626536 144.84301758 266.82910156 C143.93527084 266.8240712 143.02752411 266.81904083 142.0922699 266.81385803 C138.00395831 266.88158232 135.75047499 267.03234115 132.19366455 269.19721985 C129.53145824 272.08716228 128.21251923 275.22047026 126.83984375 278.83984375 C126.54619934 279.57777664 126.25255493 280.31570953 125.95001221 281.07600403 C125.32139625 282.6607874 124.69944943 284.2482295 124.08358765 285.8380127 C123.1179824 288.33061515 122.1354166 290.81588627 121.14770508 293.29980469 C119.80570916 296.67732558 118.46975358 300.05712831 117.13867188 303.43896484 C114.528804 310.05684411 111.85871844 316.6494823 109.15261841 323.22854614 C108.38511912 325.1003215 107.62676567 326.97562722 106.86889648 328.85131836 C106.41071533 329.96772705 105.95253418 331.08413574 105.48046875 332.234375 C105.0836792 333.20858398 104.68688965 334.18279297 104.27807617 335.18652344 C103.1875 337.375 103.1875 337.375 101.1875 338.375 C99.47847831 334.48826022 97.79915178 330.58937181 96.125 326.6875 C95.63966797 325.58470703 95.15433594 324.48191406 94.65429688 323.34570312 C93.97270508 321.7456543 93.97270508 321.7456543 93.27734375 320.11328125 C92.64107056 318.64435425 92.64107056 318.64435425 91.99194336 317.14575195 C90.65687431 312.54736087 92.14053769 309.25654954 94.0625 305.0625 C101.79621586 285.95401228 101.44362459 264.10820479 93.4921875 245.20703125 C83.84553055 223.77894557 66.07212855 213.24381487 45.1875 204.375 C36.9375 201.735 28.6875 199.095 20.1875 196.375 C20.1875 170.305 20.1875 144.235 20.1875 117.375 C30.44663623 120.79471208 37.43962112 126.76109411 42.3359375 136.44921875 C43.39444005 138.60691685 44.41893596 140.77087955 45.39794922 142.96582031 C47.03196258 146.71212186 47.03196258 146.71212186 49.83911133 149.56738281 C53.08911314 150.68506719 56.22397481 150.68029787 59.62109375 150.67578125 C60.33604507 150.68006638 61.0509964 150.6843515 61.78761292 150.68876648 C63.29630476 150.69449654 64.80502423 150.6950198 66.3137207 150.69067383 C68.61392661 150.68751521 70.91284371 150.71098258 73.21289062 150.73632812 C74.68229005 150.73860151 76.15169292 150.73930443 77.62109375 150.73828125 C78.64631386 150.75209587 78.64631386 150.75209587 79.69224548 150.76618958 C84.03554429 150.72440143 86.71560722 149.99307724 90.1875 147.375 C93.07144751 143.8943737 93.49207459 141.10736168 93.41723633 136.63793945 C93.00233485 132.55109371 91.59549017 128.87535364 90.125 125.0625 C89.80772949 124.22726807 89.49045898 123.39203613 89.16357422 122.53149414 C81.61843272 103.31432084 67.80705075 89.77428212 49.0625 81.5 C39.67102172 77.52072989 30.1641359 75.34193345 20.1875 73.375 C20.16562622 72.31587402 20.16562622 72.31587402 20.14331055 71.23535156 C20.06876833 68.03135326 19.97212795 64.82838984 19.875 61.625 C19.85244141 60.51382813 19.82988281 59.40265625 19.80664062 58.2578125 C19.77119141 57.18789062 19.73574219 56.11796875 19.69921875 55.015625 C19.67303467 54.03110352 19.64685059 53.04658203 19.61987305 52.03222656 C19.12257195 48.97597298 18.32875246 47.5866697 16.1875 45.375 C11.62449872 43.85399957 7.09276326 44.10864154 2.3125 44.0625 C1.31863281 44.03349609 0.32476562 44.00449219 -0.69921875 43.97460938 C-6.61728778 43.9078952 -6.61728778 43.9078952 -11.9453125 46.26953125 C-14.78752883 49.4744572 -14.96721376 51.39755778 -15.12890625 55.6015625 C-15.17080078 56.6328125 -15.21269531 57.6640625 -15.25585938 58.7265625 C-15.29517578 59.80679688 -15.33449219 60.88703125 -15.375 62 C-15.43977539 63.63195312 -15.43977539 63.63195312 -15.50585938 65.296875 C-15.6121453 67.9894517 -15.71418057 70.68212253 -15.8125 73.375 C-16.94945312 73.53355469 -18.08640625 73.69210938 -19.2578125 73.85546875 C-43.13776239 77.37937908 -64.76619199 86.73875327 -79.8125 106.375 C-89.38347582 120.93877729 -95.23501415 136.15049469 -95.0625 153.6875 C-95.05355713 154.70787354 -95.04461426 155.72824707 -95.03540039 156.77954102 C-94.74331575 175.72569436 -89.21658552 192.5682365 -75.8125 206.375 C-67.37535796 214.44837488 -57.36557967 219.60377959 -46.8125 224.375 C-45.81734375 224.83519531 -44.8221875 225.29539062 -43.796875 225.76953125 C-34.66376386 229.78758992 -25.4347831 232.33638428 -15.8125 235.375 C-15.8125 261.115 -15.8125 286.855 -15.8125 313.375 C-19.51323648 309.67426352 -21.79190019 307.16694902 -24.40625 302.8828125 C-25.04433594 301.84769531 -25.68242187 300.81257813 -26.33984375 299.74609375 C-26.99082031 298.67488281 -27.64179688 297.60367187 -28.3125 296.5 C-35.34605444 283.05541371 -35.34605444 283.05541371 -46.8125 274.375 C-51.10270048 273.68719231 -53.78761199 273.85911678 -57.72265625 275.83984375 C-61.76695579 279.15811227 -63.78353776 282.81985406 -66.25 287.375 C-66.72300537 288.21844971 -67.19601074 289.06189941 -67.68334961 289.9309082 C-69.07112821 292.40613054 -70.44261555 294.88984313 -71.8125 297.375 C-73.15367703 299.77874931 -74.50988676 302.17212389 -75.875 304.5625 C-76.40222656 305.50480469 -76.92945313 306.44710938 -77.47265625 307.41796875 C-77.91480469 308.06378906 -78.35695313 308.70960938 -78.8125 309.375 C-79.4725 309.375 -80.1325 309.375 -80.8125 309.375 C-81.67607019 306.4964327 -82.53961716 303.61785846 -83.40307617 300.73925781 C-84.18922622 298.11867346 -84.9759172 295.49825222 -85.76293945 292.87792969 C-87.87933503 285.82977121 -89.99122988 278.78032581 -92.09133911 271.72729492 C-93.13546525 268.22178372 -94.18184508 264.71694689 -95.22839355 261.2121582 C-95.73455115 259.51503686 -96.23971244 257.81761799 -96.74377441 256.11987305 C-98.1667987 251.32790599 -99.60830641 246.54229556 -101.07952881 241.76489258 C-101.58126091 240.12896769 -102.07745759 238.49133768 -102.56890869 236.85229492 C-103.31661074 234.3698502 -104.08712711 231.89555114 -104.86328125 229.421875 C-105.08509567 228.6710968 -105.3069101 227.9203186 -105.53544617 227.14678955 C-107.03895396 222.46270802 -108.66194701 220.0271689 -112.8125 217.375 C-115.19879084 216.18185458 -116.83695596 216.1399852 -119.5 216.0625 C-120.74330078 216.00642578 -120.74330078 216.00642578 -122.01171875 215.94921875 C-125.91446509 216.54252328 -128.87208355 217.7808696 -131.8125 220.375 C-133.83627898 223.40560434 -135.18160425 226.63643927 -136.5625 230 C-137.17931641 231.42566284 -137.17931641 231.42566284 -137.80859375 232.88012695 C-139.16673861 236.03562154 -140.49084711 239.20406123 -141.8125 242.375 C-142.8165156 244.75180627 -143.82174893 247.12809847 -144.828125 249.50390625 C-146.30583274 252.9925399 -147.77922394 256.48244307 -149.23339844 259.98095703 C-149.67200195 261.0326709 -150.11060547 262.08438477 -150.5625 263.16796875 C-151.14257812 264.56825317 -151.14257812 264.56825317 -151.734375 265.99682617 C-152.8125 268.375 -152.8125 268.375 -154.8125 271.375 C-157.86233521 271.73576355 -157.86233521 271.73576355 -161.83251953 271.71557617 C-162.91560394 271.71623329 -162.91560394 271.71623329 -164.02056885 271.71690369 C-166.41242308 271.71480999 -168.8035804 271.69145257 -171.1953125 271.66796875 C-172.85154843 271.66237484 -174.50778932 271.65810377 -176.16403198 271.65510559 C-180.5272996 271.64364063 -184.89026852 271.61415948 -189.25341797 271.58099365 C-193.70406045 271.55032818 -198.15475111 271.53660781 -202.60546875 271.52148438 C-211.34128304 271.48929116 -220.07685439 271.43807515 -228.8125 271.375 C-230.19046905 263.41529442 -231.12156452 255.71078326 -231.11328125 247.6328125 C-231.11756638 246.6625412 -231.1218515 245.6922699 -231.12626648 244.69259644 C-231.1319578 242.65412162 -231.13254894 240.61562651 -231.12817383 238.57714844 C-231.12504192 235.54064021 -231.14844275 232.50513651 -231.17382812 229.46875 C-231.23241088 211.62153289 -229.75457362 193.74951777 -225.1875 176.4375 C-224.93444092 175.45918213 -224.68138184 174.48086426 -224.4206543 173.47290039 C-215.81777986 141.49858598 -200.9295162 110.93853077 -179.8125 85.375 C-179.338125 84.79911133 -178.86375 84.22322266 -178.375 83.62988281 C-168.78780565 72.0640813 -158.65603511 61.67153831 -146.8125 52.375 C-145.7915625 51.5603125 -144.770625 50.745625 -143.71875 49.90625 C-136.07315973 43.85904912 -128.16109978 38.40548452 -119.8125 33.375 C-119.15717285 32.97812988 -118.5018457 32.58125977 -117.82666016 32.17236328 C-97.62971311 20.08679397 -75.449776 11.37684643 -52.625 5.75 C-51.84874268 5.55559326 -51.07248535 5.36118652 -50.27270508 5.16088867 C-33.57650927 1.22775462 -17.11425241 -0.14490222 0 0 Z " fill="#FEEAAE" transform="translate(407.8125,170.625)"/>
<path d="M0 0 C2.3643546 2.3643546 2.764562 3.9587115 3.72412109 7.14550781 C4.21505753 8.75924286 4.21505753 8.75924286 4.71591187 10.40557861 C5.06489532 11.57626892 5.41387878 12.74695923 5.7734375 13.953125 C6.13845367 15.16007019 6.50346985 16.36701538 6.87954712 17.61053467 C7.85256096 20.83259332 8.81990824 24.05624755 9.784729 27.28076172 C10.56126397 29.87140635 11.34320769 32.46040149 12.12552452 35.04930496 C16.24357348 48.67844253 20.30169 62.31992079 24.125 76.03515625 C24.41375 77.03417969 24.7025 78.03320312 25 79.0625 C25.28875 80.08472656 25.5775 81.10695313 25.875 82.16015625 C27.37920988 85.9572416 29.47223334 88.854175 32.75 91.3125 C36.16835755 92.35699814 39.51301068 92.73214366 43 92 C47.61069742 89.3388756 50.15335698 86.82532705 52.875 82.2734375 C53.55046875 81.15839844 54.2259375 80.04335938 54.921875 78.89453125 C55.61490123 77.72154193 56.30760814 76.54836389 57 75.375 C57.69150923 74.22453882 58.38420962 73.07479273 59.078125 71.92578125 C61.06431011 68.62431707 63.0333634 65.31313523 65 62 C66.16549942 60.05398794 67.3320433 58.10860074 68.5 56.1640625 C69.22703125 54.95290771 69.22703125 54.95290771 69.96875 53.71728516 C70.3090625 53.15058105 70.649375 52.58387695 71 52 C74.91732311 53.30577437 75.45786095 54.90579387 77.625 58.375 C87.15792621 73.29754349 87.15792621 73.29754349 100.93360901 83.92567444 C106.55955238 86.79301128 106.55955238 86.79301128 107.73152161 90.00463867 C107.98971477 92.47290877 108.00392453 94.83572234 107.9296875 97.31640625 C107.93582062 98.20988266 107.94195374 99.10335907 107.94827271 100.02391052 C107.96117861 102.8715605 107.92025202 105.71523313 107.875 108.5625 C107.8615333 111.4123896 107.85924113 114.26188991 107.86599731 117.11180115 C107.86677656 118.88257225 107.85401199 120.65341353 107.82614136 122.42396545 C107.82018951 123.2283757 107.81423767 124.03278595 107.80810547 124.86157227 C107.7972995 125.56596939 107.78649353 126.27036652 107.77536011 126.99610901 C108.1632666 130.45641301 109.40402109 132.49439025 112.03515625 134.7265625 C116.20986343 136.51965149 119.94222791 136.43729014 124.4375 136.375 C125.68756836 136.39240234 125.68756836 136.39240234 126.96289062 136.41015625 C132.03171458 136.3861144 135.64601152 135.8667683 140 133 C142.53760827 129.19358759 142.34977475 126.03139645 142.4140625 121.61328125 C142.43342865 120.79627243 142.4527948 119.97926361 142.4727478 119.13749695 C142.53250352 116.52927066 142.57891258 113.92100014 142.625 111.3125 C142.6631835 109.5436006 142.70223546 107.77471972 142.7421875 106.00585938 C142.83820168 101.67072341 142.92224735 97.3355004 143 93 C144.26972656 92.78085937 145.53945313 92.56171875 146.84765625 92.3359375 C164.10366968 89.21470346 179.17812863 84.23027049 193 73 C193.66 73 194.32 73 195 73 C197.80385174 79.63383094 200.52293483 86.29319091 203.15625 92.99609375 C203.98864626 95.0986639 204.82241503 97.20068404 205.65673828 99.30249023 C206.22319726 100.73667778 206.78531228 102.172588 207.34326172 103.61010742 C208.16471105 105.72291711 209.00260957 107.82855907 209.84375 109.93359375 C210.08661743 110.57010361 210.32948486 111.20661346 210.57971191 111.8624115 C212.32545573 116.17069289 214.4640825 118.99452254 218 122 C220.66847507 122.78086004 220.66847507 122.78086004 223.4375 122.625 C224.34371094 122.63789062 225.24992187 122.65078125 226.18359375 122.6640625 C230.50278516 121.64566785 233.72491628 119.05518354 236.05027771 115.30715942 C236.98361252 113.35063777 237.8028122 111.37765959 238.59375 109.359375 C239.05691368 108.23872902 239.05691368 108.23872902 239.5294342 107.09544373 C240.53509429 104.65297824 241.51734734 102.20180087 242.5 99.75 C243.19865615 98.04264483 243.8991192 96.33602801 244.60131836 94.63012695 C246.03871805 91.13509789 247.46874199 87.63718606 248.89404297 84.13720703 C252.0331351 76.45183111 255.30116848 68.82156905 258.5625 61.1875 C263.12456075 50.49119158 267.5719868 39.75374635 272 29 C297.74 29 323.48 29 350 29 C345.35312204 47.58751183 345.35312204 47.58751183 342.25 55 C341.73566406 56.25417725 341.73566406 56.25417725 341.2109375 57.53369141 C337.86512404 65.56089623 334.10095153 73.33415572 330 81 C329.38640625 82.15628906 328.7728125 83.31257812 328.140625 84.50390625 C320.05430816 99.18959324 310.07658655 112.45665085 299 125 C298.28714844 125.8353125 297.57429688 126.670625 296.83984375 127.53125 C280.64780497 146.17479372 261.08791777 160.39669237 240 173 C239.37335449 173.37608398 238.74670898 173.75216797 238.10107422 174.13964844 C222.38853013 183.41819541 204.57823951 190.22099006 187 195 C185.97003906 195.32226562 184.94007813 195.64453125 183.87890625 195.9765625 C153.17479177 205.10763854 116.49799851 206.76022784 85.02587891 200.40576172 C83.10219179 200.02046791 81.16626098 199.69786062 79.23046875 199.37890625 C41.47324312 192.79286798 3.65343275 174.44309832 -25 149 C-25.83273437 148.26394531 -26.66546875 147.52789063 -27.5234375 146.76953125 C-29.19781017 145.27289968 -30.86469267 143.76784003 -32.5234375 142.25390625 C-34.20252205 140.7257804 -35.89580823 139.21314142 -37.6015625 137.71484375 C-42.84131921 133.10037523 -47.58174528 128.40204106 -52 123 C-52.43038574 122.48195801 -52.86077148 121.96391602 -53.30419922 121.43017578 C-71.13603763 99.92689892 -99 63.20786895 -99 34 C-97.53540848 33.99453156 -97.53540848 33.99453156 -96.04122925 33.98895264 C-86.83059366 33.95197917 -77.62029169 33.89418084 -68.4099102 33.81609726 C-63.67495226 33.77662182 -58.94018032 33.74443368 -54.20507812 33.72900391 C-49.63368638 33.71383773 -45.06280596 33.679393 -40.491642 33.63169098 C-38.74942601 33.61687676 -37.00713701 33.60895896 -35.26485825 33.60811615 C-32.82038895 33.6057448 -30.37733081 33.57865361 -27.93310547 33.54589844 C-27.21596878 33.5509288 -26.49883209 33.55595917 -25.75996399 33.56114197 C-20.73941608 33.45734784 -17.88954783 32.11765652 -14 29 C-12.62452038 27.34336572 -12.62452038 27.34336572 -11.83984375 25.53125 C-11.52345947 24.88293213 -11.2070752 24.23461426 -10.88110352 23.56665039 C-10.41401978 22.54365845 -10.41401978 22.54365845 -9.9375 21.5 C-9.60097412 20.79673584 -9.26444824 20.09347168 -8.91772461 19.36889648 C-6.39746556 14.04284964 -4.08444952 8.63642709 -1.91015625 3.16015625 C-1 1 -1 1 0 0 Z " fill="#FEEAAE" transform="translate(285,436)"/>
<path d="M0 0 C12.24135038 3.67240512 22.46705962 7.79633866 29.20703125 19.0078125 C33.76353149 27.47678468 34.36728188 37.65778889 32.3515625 47.0078125 C29.20525706 56.66186081 22.76590601 63.92296815 13.80859375 68.703125 C12.69613281 69.21359375 11.58367187 69.7240625 10.4375 70.25 C8.76494141 71.03117187 8.76494141 71.03117187 7.05859375 71.828125 C4 73 4 73 0 73 C0 48.91 0 24.82 0 0 Z " fill="#FEE9AD" transform="translate(428,416)"/>
<path d="M0 0 C0 23.43 0 46.86 0 71 C-10.15350224 67.61549925 -10.15350224 67.61549925 -14.75 64.5625 C-15.63171875 63.98628906 -16.5134375 63.41007812 -17.421875 62.81640625 C-24.27715216 57.98655189 -29.99363292 53.08153088 -31.71484375 44.4921875 C-33.03808697 32.9274043 -32.66178571 22.79830124 -25.4375 13.3125 C-19.34133067 6.78419714 -9.18848227 0 0 0 Z " fill="#FEEAAF" transform="translate(392,285)"/>
<path d="M0 0 C26.4 0 52.8 0 80 0 C77.16482513 2.83517487 74.41048184 2.3074878 70.61279297 2.31884766 C69.85172241 2.32889328 69.09065186 2.3389389 68.30651855 2.34928894 C65.78508272 2.38023702 63.26375361 2.39718808 60.7421875 2.4140625 C58.99625727 2.43276483 57.25033615 2.45233753 55.50442505 2.4727478 C50.90461598 2.52417395 46.30477757 2.56374339 41.70483398 2.60089111 C37.01278361 2.64086523 32.32085639 2.69198755 27.62890625 2.7421875 C18.41935721 2.83907081 9.2097388 2.92343572 0 3 C0 2.01 0 1.02 0 0 Z " fill="#F9E4A3" transform="translate(186,470)"/>
<path d="M0 0 C3.91732311 1.30577437 4.45786095 2.90579387 6.625 6.375 C10.66875729 12.63053614 15.18410535 18.3143145 20 24 C21.02171491 25.22843397 22.04273617 26.45744589 23.0625 27.6875 C23.701875 28.450625 24.34125 29.21375 25 30 C21.0524294 28.43203971 18.54010295 25.71217232 15.75 22.625 C15.27199951 22.10131836 14.79399902 21.57763672 14.30151367 21.03808594 C9.58605691 15.74845714 5.72882504 10.02595222 2 4 C-0.475 5.485 -0.475 5.485 -3 7 C-1.125 2.25 -1.125 2.25 0 0 Z " fill="#FDEFBA" transform="translate(356,488)"/>
</svg>
