<svg id="_x35_" xmlns="http://www.w3.org/2000/svg" viewBox="0 0 512 512"><g><g><g><rect x="205.135" y="126.02" style="fill:#EAEAE3;" width="77.82" height="41.194"/><path style="fill:#EAEAE3;" d="M255.924 144.219v4.797c0 10.051-8.148 18.198-18.275 18.198H18.275C8.148 167.214.0 159.067.0 149.016v-4.797c0-10.051 8.148-18.199 18.275-18.199h219.374C247.776 126.02 255.924 134.168 255.924 144.219z"/><path style="fill:#C98383;" d="M112.009 146.275c0 7.158-.152 14.163-.304 20.94-1.066 31.448-4.492 58.404-9.137 75.003-1.675 5.787-3.502 10.279-5.406 13.325-1.599 2.589-3.198 4.112-4.95 4.416-.304.152-.533.152-.838.152H44.925c-3.274.0-6.396-4.34-9.213-12.031-5.635-15.686-9.823-45.382-11.041-80.866-.153-6.777-.304-13.782-.304-20.94.0-6.929.076-13.706.304-20.254 1.447-42.794 7.158-77.288 14.62-89.09 1.295-2.056 2.665-3.503 4.036-4.035.533-.229 1.066-.381 1.599-.381h46.449c.304.0.533.0.838.152 1.751.304 3.35 1.827 4.95 4.417 1.904 3.046 3.731 7.615 5.406 13.402 4.645 16.752 8.071 43.859 9.137 75.536C111.933 132.568 112.009 139.346 112.009 146.275z"/><path style="fill:#7897AB;" d="M110.791 146.275c0 7.158-.076 14.163-.304 20.94-.914 31.448-3.883 58.404-7.919 75.003-1.599 6.396-3.35 11.269-5.178 14.315-1.447 2.36-2.97 3.579-4.492 3.579-.229.0-.457.0-.686-.152-8.452-1.979-15.382-41.27-16.904-92.745-.229-6.777-.305-13.782-.305-20.94.0-6.929.076-13.706.305-20.254 1.447-51.779 8.376-91.374 16.904-93.354.229-.152.457-.152.686-.152 1.522.0 3.046 1.219 4.492 3.579 1.827 3.046 3.579 7.919 5.178 14.392 4.112 16.752 7.081 43.859 7.919 75.536C110.715 132.568 110.791 139.346 110.791 146.275z"/><g><path style="fill:#C98383;" d="M188.459 146.275c0 7.081-.076 14.087-.305 20.94.0 4.188-.152 8.376-.304 12.488-2.284 61.602-10.736 108.202-21.092 112.543-.533.304-1.066.381-1.599.381h-52.54c-5.863.0-11.193-13.63-15.229-36.093-.152-.305-.152-.686-.228-.99-3.96-22.387-6.777-53.378-7.463-88.329-.228-6.853-.304-13.858-.304-20.94.0-6.853.076-13.63.228-20.254.762-35.179 3.503-66.399 7.539-88.938.076-.305.076-.686.228-.99C101.425 13.63 106.755.0 112.618.0h52.54c.533.0 1.066.076 1.599.381 10.356 4.34 18.884 51.246 21.092 113.075.152 4.112.304 8.3.381 12.564C188.383 132.645 188.459 139.422 188.459 146.275z"/><path style="fill:#7897AB;" d="M191.581 146.275c0 7.081-.076 14.087-.304 20.94.0 4.112-.152 8.148-.304 12.107-2.361 64.952-11.574 113.304-22.615 113.304-.533.0-1.066-.076-1.599-.381-11.041-4.645-19.95-57.338-21.397-125.031-.228-6.853-.305-13.858-.305-20.94.0-6.853.076-13.63.229-20.254 1.523-67.998 10.432-120.995 21.473-125.64C167.291.076 167.824.0 168.357.0c11.117.0 20.331 48.656 22.615 113.837.152 3.96.304 8.072.381 12.184C191.505 132.645 191.581 139.422 191.581 146.275z"/></g><rect x="200.795" y="126.02" style="opacity:0.1;fill:#040000;" width="14.772" height="41.194"/><path style="fill:#EAEAE3;" d="M204.678 125.716v41.804c0 6.168-3.96 11.269-8.833 11.269l-4.873.533-3.122.381-23.224 2.741h-.076c-.304.0-.457-.228-.457-.609.0.0-1.294-4.036-2.132-14.62-.381-5.178-.685-11.955-.685-20.635.0-7.843.381-14.848.914-20.559.837-8.985 1.904-14.696 1.904-14.696.0-.305.152-.533.457-.533.0-.076.0-.076.076-.076l23.224 2.741 3.122.381 4.873.609C200.718 114.446 204.678 119.548 204.678 125.716z"/></g><g><rect x="229.045" y="126.02" style="fill:#EAEAE3;" width="77.82" height="41.194"/><path style="fill:#EAEAE3;" d="M512 144.219v4.797c0 10.051-8.148 18.198-18.275 18.198H274.351c-.99.0-1.98-.076-2.894-.228-8.756-1.371-15.381-8.909-15.381-17.97v-4.797c0-10.051 8.148-18.199 18.275-18.199h219.374C503.852 126.02 512 134.168 512 144.219z"/><path style="fill:#C98383;" d="M487.633 146.275c0 7.158-.152 14.163-.304 20.94-.076 1.675-.152 3.274-.229 4.95.0 1.599-.076 3.198-.228 4.797-.229 4.797-.533 9.442-.837 14.01-.229 2.285-.381 4.493-.609 6.625-.152 2.056-.381 4.112-.609 6.092-.914 8.985-2.132 17.209-3.427 24.366-.304 1.752-.685 3.503-.99 5.102-2.741 12.64-6.015 21.473-9.67 25.128-.305.304-.609.533-.914.761-.838.685-1.828 1.066-2.741 1.066h-46.448c-.152.0-.304-.076-.457-.076-.152.0-.229.0-.381-.076-.076.076-.152.0-.229.0-1.675-.457-3.198-1.979-4.721-4.416-1.904-3.046-3.731-7.538-5.33-13.325-4.721-16.6-8.148-43.555-9.213-75.003-.152-6.777-.305-13.782-.305-20.94.0-6.929.076-13.706.305-20.254 1.066-31.677 4.492-58.784 9.213-75.536 1.599-5.787 3.427-10.356 5.33-13.402 1.523-2.437 3.046-3.96 4.721-4.417.076.0.152-.076.229.0.152-.076.228-.076.381-.076.152-.076.304-.076.457-.076h46.448c.305.0.609.076.914.152.229.0.381.076.533.152 1.295.457 2.513 1.599 3.655 3.274.381.457.685.99.99 1.523 1.218 2.132 2.436 4.797 3.502 8.071.305.761.533 1.522.762 2.361 1.904 6.091 3.579 13.63 4.949 22.463.229 1.142.381 2.284.533 3.426.229 1.37.457 2.817.609 4.264.533 3.427.914 7.081 1.294 10.813.152 1.371.304 2.817.457 4.264.304 2.894.533 5.863.762 8.833.228 3.046.457 6.092.609 9.29.305 4.797.533 9.67.686 14.62C487.557 132.568 487.633 139.346 487.633 146.275z"/><path style="fill:#7897AB;" d="M436.997 146.275c0 7.158-.076 14.163-.305 20.94-1.523 51.017-8.3 90.08-16.676 92.745-.076.0-.152.076-.228.0-.152.076-.229.152-.381.076-.076.0-.152.076-.305.076-.457.0-.914-.152-1.371-.381-.304-.152-.609-.304-.914-.609-.761-.533-1.447-1.371-2.132-2.513l-.076-.076c-1.828-3.046-3.579-7.919-5.102-14.315-4.112-16.6-7.081-43.555-7.995-75.003-.228-6.777-.304-13.782-.304-20.94.0-6.929.076-13.706.304-20.254.838-31.677 3.807-58.784 7.995-75.536 1.523-6.473 3.274-11.346 5.102-14.392l.076-.076c.686-1.142 1.371-1.98 2.132-2.513.304-.304.609-.457.914-.609.457-.229.914-.381 1.371-.381.152.0.229.0.305.076.152-.076.228.0.381.076.076-.076.152.0.228.0 8.376 2.665 15.229 42.032 16.676 93.354C436.921 132.568 436.997 139.346 436.997 146.275z"/><g><path style="fill:#C98383;" d="M422.606 146.275c0 7.081-.076 14.087-.305 20.94-.685 34.951-3.502 65.942-7.462 88.329.0.304-.076.609-.152.914.0.076-.076.076-.076.076-.076.914-.229 1.827-.457 2.665-.305 1.827-.686 3.579-1.066 5.254-.305 1.218-.533 2.437-.837 3.655-.533 2.36-1.142 4.645-1.752 6.701.0.0.0.076.0.153-.609 1.98-1.218 3.807-1.751 5.482-.686 1.752-1.371 3.35-2.056 4.721-.609 1.371-1.294 2.589-1.98 3.579-.381.533-.685.99-1.066 1.371-.305.457-.686.761-.99 1.066-.305.304-.609.533-.914.685-.229.152-.457.305-.685.381-.152.076-.381.152-.609.228-.304.076-.685.152-1.066.152h-52.54c-.533.0-1.066-.076-1.599-.381-.076.0-.076.0-.152-.076-10.28-4.721-18.656-51.17-20.94-112.467-.152-4.112-.305-8.3-.305-12.488-.228-6.853-.304-13.858-.304-20.94.0-6.853.076-13.63.228-20.254.076-3.96.152-7.843.305-11.651.0-.304.076-.609.076-.914 2.208-61.83 10.736-108.735 21.092-113.075C345.775.076 346.308.0 346.841.0h52.54c5.635.0 10.812 12.564 14.772 33.427.076.381.152.838.228 1.219.153.457.229.914.229 1.447.0.0.076.0.076.076.076.304.152.609.152.914 4.036 22.539 6.777 53.758 7.538 88.938C422.529 132.645 422.606 139.422 422.606 146.275z"/><path style="fill:#7897AB;" d="M366.943 146.275c0 7.081-.076 14.087-.305 20.94-1.447 67.389-10.279 119.929-21.244 124.955-.076.076-.076.076-.152.076-.533.304-1.066.381-1.599.381-.381.0-.686-.076-1.066-.152-.152-.076-.304-.076-.533-.228-.304-.076-.533-.229-.761-.381-2.589-1.599-5.026-5.939-7.31-12.412-1.142-3.35-2.284-7.31-3.35-11.802.0.0.0-.076.0-.152-.533-2.208-1.066-4.645-1.523-7.158-.761-3.807-1.447-7.919-2.132-12.184-.914-5.787-1.752-12.031-2.437-18.731.0-.381-.076-.838-.152-1.295-.228-2.893-.533-5.863-.838-8.909-.685-7.005-1.218-14.392-1.675-22.082-.076-1.979-.228-3.883-.304-5.863-.228-3.883-.381-7.919-.533-11.955-.152-3.96-.304-7.995-.304-12.107-.229-6.853-.304-13.858-.304-20.94.0-6.853.076-13.63.228-20.254.076-2.817.152-5.635.229-8.376.0-1.294.076-2.589.152-3.807C323.312 48.656 332.526.0 343.643.0c.533.0 1.066.076 1.599.381 8.071 3.35 14.925 32.438 18.732 74.165 1.371 15.61 2.361 32.971 2.741 51.474C366.867 132.645 366.943 139.422 366.943 146.275z"/></g><rect x="296.433" y="126.02" style="opacity:0.1;fill:#040000;" width="14.772" height="41.194"/><path style="fill:#EAEAE3;" d="M350.725 146.579c0 8.68-.305 15.457-.685 20.635-.837 10.584-2.132 14.62-2.132 14.62.0.381-.152.609-.457.609h-.076l-23.224-2.741-3.122-.381-4.873-.533c-4.873.0-8.833-5.102-8.833-11.269v-41.804c0-6.168 3.96-11.27 8.833-11.27l4.873-.609 3.122-.381.914-.076 22.31-2.665c.076.0.076.0.076.076.304.0.457.228.457.533.0.0 1.066 5.711 1.904 14.696C350.344 131.731 350.725 138.736 350.725 146.579z"/></g></g><path style="opacity:0.1;fill:#040000;" d="M512 144.219v4.797c0 10.051-8.148 18.198-18.275 18.198h-6.396c-.076 1.675-.152 3.274-.229 4.95.0 1.599-.076 3.198-.228 4.797-.229 4.797-.533 9.442-.837 14.01-.229 2.209-.381 4.417-.609 6.625-.152 2.056-.381 4.112-.609 6.092-.914 8.985-2.132 17.209-3.427 24.366-.304 1.752-.685 3.503-.99 5.102-2.741 12.64-6.015 21.473-9.67 25.128-.305.304-.609.533-.914.761-.838.685-1.828 1.066-2.741 1.066h-46.448c-.152.0-.304-.076-.457-.076.0.0-.076-.076-.152-.076s-.152-.076-.228-.076-.152.076-.229.076c0 0-.076.076-.152.076-.076.0-.152.076-.305.076-.457.0-.914-.152-1.371-.381-.304-.152-.609-.304-.914-.609-.761-.609-1.447-1.523-2.132-2.665.0.076.0.076.0.152-.228.914-.381 1.752-.533 2.589-.305 1.827-.686 3.579-1.066 5.254-.305 1.218-.533 2.437-.837 3.655-.533 2.36-1.142 4.569-1.752 6.701.0.0.0.076.0.153-.609 1.98-1.218 3.807-1.751 5.482-.686 1.752-1.371 3.35-2.056 4.721-.609 1.371-1.294 2.589-1.98 3.579-.381.533-.685.99-1.066 1.371-.305.457-.686.761-.99 1.066-.305.304-.609.533-.914.685-.229.152-.457.305-.685.381-.152.076-.381.152-.609.228-.304.076-.685.152-1.066.152h-52.54c-.457.0-.99-.229-1.447-.457-.076.0-.076-.076-.152-.076-.076.0-.076.076-.152.076-.457.228-.99.457-1.447.457-.381.0-.686-.076-1.066-.152-.152-.076-.304-.076-.533-.228-.304-.076-.533-.229-.761-.381-2.589-1.599-5.026-5.939-7.31-12.412-1.142-3.35-2.284-7.31-3.35-11.802.0.0.0-.076.0-.152-.533-2.208-1.066-4.645-1.523-7.158-.761-3.807-1.447-7.919-2.132-12.184-.837-5.787-1.675-12.031-2.437-18.731.0-.381-.076-.838-.152-1.295-.228-2.893-.533-5.863-.838-8.909-.685-7.005-1.218-14.392-1.675-22.082-.076-1.979-.228-3.883-.304-5.863-.228-3.883-.381-7.919-.533-11.955l-4.873-.533c-4.873.0-8.833-5.102-8.833-11.269v-.305h-36.093l41.194-41.194 8.453-8.376 3.198-3.274.99-.99 38.91-38.834 48.581-48.581c.533 2.361 1.066 4.873 1.599 7.462.076.381.152.838.228 1.219.076.457.153.914.304 1.37.0.076.0.076.0.153.686-1.142 1.371-2.056 2.132-2.665.304-.304.609-.457.914-.609.457-.229.914-.381 1.371-.381.152.0.229.0.305.076.076.0.152.076.152.076.076.0.152.076.229.076s.152-.076.228-.076.152-.076.152-.076c.152-.076.304-.076.457-.076h46.448c.305.0.609.076.914.152.229.0.381.076.533.152 1.295.457 2.513 1.599 3.655 3.274.381.457.685.99.99 1.523 1.218 2.132 2.436 4.797 3.502 8.071.305.761.533 1.522.762 2.361 1.904 6.091 3.579 13.63 4.949 22.463.229 1.142.381 2.284.533 3.426.229 1.37.457 2.817.609 4.264.533 3.427.914 7.081 1.294 10.813.152 1.371.304 2.817.457 4.264.304 2.894.533 5.863.762 8.833.228 3.046.457 6.168.609 9.29.305 4.797.533 9.67.686 14.62h6.396C503.852 126.02 512 134.168 512 144.219z"/></g></svg>