<svg id="Uploaded to svgrepo.com" xmlns="http://www.w3.org/2000/svg" width="800" height="800" viewBox="0 0 32 32"><style>.avocado_een{fill:#231F20;}
.avocado_zes{fill:#FFFAEE;}
.avocado_drie{fill:#716558;}
.avocado_zeventien{fill:#CC4121;}
.avocado_acht{fill:#A3AEB5;}
.st0{fill:#3D3935;}
.st1{fill:#E0A838;}
.st2{fill:#DBD2C1;}
.st3{fill:#788287;}
.st4{fill:#EAD13F;}
.st5{fill:#D1712A;}
.st6{fill:#8D3E93;}
.st7{fill:#248EBC;}
.st8{fill:#6F9B45;}
.st9{fill:#AF9480;}
.st10{fill:#C3CC6A;}</style><g><path class="avocado_zes" d="M31.5 28.5H.5V9c0-.828.672-1.5 1.5-1.5h28c.828.0 1.5.672 1.5 1.5V28.5z"/><polygon class="avocado_drie" points="11.5,3.5 11.5,7.5 13.5,7.5 13.5,5.5 18.5,5.5 18.5,7.5 20.5,7.5 20.5,3.5"/><polygon class="avocado_zeventien" points="20.5,19.5 17.5,19.5 17.5,16.5 14.5,16.5 14.5,19.5 11.5,19.5 11.5,22.5 14.5,22.5 14.5,25.5 17.5,25.5 17.5,22.5 20.5,22.5"/><g><path class="avocado_acht" d="M7.5 15.5h-2v-3h2v3zm19-3h-2v3h2v-3z"/></g><path class="avocado_een" d="M30 7h-9V3H11v4H2C.895 7 0 7.895.0 9v20h32V9c0-1.105-.895-2-2-2zM12 4h8v3h-1V5h-6v2h-1V4zm6 2v1h-4V6h4zM31 28H1V14h4v2h3v-2h16v2h3v-2h4V28zM6 15v-2h1v2H6zm19 0v-2h1v2H25zm6-2h-4v-1h-3v1H8v-1H5v1H1V9c0-.551.449-1 1-1h28c.551.0 1 .449 1 1v4zM18 16h-4v3h-3v4h3v3h4v-3h3v-4h-3V16zm2 4v2h-3v3h-2v-3h-3v-2h3v-3h2v3h3z"/></g></svg>