<svg height="800" width="800" id="_x35_" xmlns="http://www.w3.org/2000/svg" viewBox="0 0 512 512"><g><path style="fill:#5E4F4F;" d="M471.675 444.169v6.384c0 13.752-.082 42.973-.082 42.973h-41.336l-27.094-20.708-147.909-.082H108.736l-27.012 20.627H40.306s0-4.175.0-10.069v-39.289l203.652.082h11.296l197.513.082H471.675z"/><path style="fill:#BD603F;" d="M508.345 409.953l-56.152-97.241-4.584-8.023L294.052 38.421l-3.52-6.057-10.887-18.909c-4.83-8.267-12.933-12.77-21.364-13.342-9.822-.9-19.972 3.602-25.538 13.342l-9.577 16.617-4.666 7.94-43.874 75.96-4.502 7.858-22.101 38.143L18.042 385.07H17.96l-4.584 7.94-9.659 16.78c-4.011 6.958-4.584 14.57-2.537 21.283.246.818.491 1.637.9 2.455.573 1.556 1.392 3.029 2.292 4.502 2.537 3.929 6.057 7.121 10.232 9.331 1.309.654 2.701 1.309 4.175 1.719 2.619.818 5.402 1.31 8.349 1.31h13.178l416.144.163h28.403c20.873.0 33.888-22.51 23.492-40.6zM248.133 185.92c4.42-7.613 11.541-7.613 15.961.0l91.185 166.163c4.339 7.613.818 13.834-7.94 13.834l-182.616-.082c-8.758-.082-12.36-6.221-7.94-13.834l91.35-166.081z"/><path style="fill:#D37A3E;" d="M484.864 450.58l-19.201-.009L260.956 95.615l33.062-57.205 153.579 266.301 4.597 7.962 56.124 97.319C518.723 428.035 505.689 450.589 484.864 450.58z"/><path style="fill:#D37A3E;" d="M452.767 444.169l-30.122-52.305c1.801-.982 2.947-2.456 3.438-4.257.573-1.883.409-4.093-.737-6.467-.245-.573-.491-1.063-.818-1.637l-38.553-66.792-4.584-7.941L264.094 101.366c-.327-.492-.654-.982-.9-1.473-.9-1.311-1.883-2.292-2.947-3.03-.367-.23-.756-.274-1.133-.444-.305-.15-.609-.342-.914-.457-.135-.042-.277-.029-.413-.063-.377-.094-.741-.144-1.119-.172-.834-.059-1.67-.018-2.479.235-.655.164-1.228.41-1.801.736.0.0-.082.0-.082.082-.409.246-.818.573-1.228.901-.409.327-.737.654-1.146 1.063l1.801-3.109 4.584-8.021L289.14 30.97l.246-.491-9.741-17.025c-4.83-8.267-12.933-12.77-21.364-13.342-9.822-.9-19.972 3.602-25.538 13.342l-9.577 16.617-4.666 7.94-43.874 75.96-4.502 7.858-22.101 38.143L17.96 385.07h.082l67.611.082c-.082 1.802.409 3.438 1.473 4.748 1.637 1.964 4.42 3.192 8.349 3.192h-1.228l-80.871-.082h-.082l-9.659 16.78c-4.011 6.958-4.502 14.57-2.456 21.283.246.818.491 1.637.9 2.455.573 1.556 1.392 3.029 2.292 4.502 2.537 3.929 6.057 7.121 10.232 9.331 1.309.654 2.701 1.309 4.175 1.719 2.619.818 5.402 1.31 8.349 1.31h13.178l416.144.163L452.767 444.169zM347.339 365.917l-182.616-.082c-8.758-.082-12.36-6.221-7.94-13.834l91.349-166.081c4.42-7.613 11.541-7.613 15.961.0l91.185 166.163C359.617 359.696 356.097 365.917 347.339 365.917z"/><polygon style="fill:#BD603F;" points="248.714,49.113 241.27,36.206 248.726,23.306 263.626,23.312 271.07,36.22 263.614,49.12"/><polygon style="fill:#BD603F;" points="26.44,435.094 18.996,422.187 26.452,409.287 41.351,409.294 48.795,422.201 41.34,435.101"/><polygon style="fill:#BD603F;" points="474.615,435.3 467.171,422.393 474.626,409.492 489.526,409.499 496.97,422.406 489.514,435.307"/><path style="fill:#EED581;" d="M425.346 381.141c-.245-.573-.491-1.063-.818-1.637l-38.553-66.792-4.584-7.941L264.094 101.366c-.327-.492-.654-.982-.9-1.473-.327-.41-.655-.819-.982-1.065-.327-.409-.655-.736-.982-.981-.327-.41-.737-.655-1.064-.901-.655-.41-1.309-.736-1.964-.982-1.31-.409-2.701-.409-4.011.0-.573.164-1.228.491-1.801.818h-.082c-.409.246-.818.573-1.228.901-.409.327-.819.817-1.228 1.227-.573.655-1.146 1.474-1.719 2.456l-40.436 69.985-4.584 7.858L87.454 379.422c-1.228 2.046-1.801 4.011-1.801 5.729-.082 1.802.409 3.438 1.473 4.748.765.99 1.912 1.746 3.28 2.308.092.036.222.038.318.073 1.056.396 2.172.744 3.524.811.328.081.737.081 1.146.081h28.731l292.381.164c2.456.0 4.502-.491 6.058-1.391.0.0.081.0.081-.082 1.801-.982 2.947-2.456 3.438-4.257C426.574 385.725 426.41 383.515 425.346 381.141zM317.299 335.957l-122.617-.082c-8.758.0-12.278-6.22-7.94-13.751l61.39-106.164c4.338-7.531 11.541-7.531 15.879.0l61.227 106.246C329.659 329.737 326.057 335.957 317.299 335.957z"/><path style="opacity:0.06;fill:#2E1919;" d="M264.012 101.366c-.573-.982-1.146-1.882-1.801-2.538-.327-.409-.655-.736-.982-.981-.327-.328-.737-.573-1.064-.819-.655-.41-1.309-.736-1.964-1.064-1.31-.409-2.701-.409-4.011.0-.655.164-1.228.41-1.801.736v.082h-.082c-.409.246-.818.573-1.228.901-.409.327-.819.817-1.228 1.227-.573.655-1.146 1.474-1.719 2.456l-40.436 69.985-4.584 7.858L87.454 379.422c-1.228 2.046-1.801 4.011-1.801 5.729-.082 1.802.409 3.438 1.473 4.748.765.99 1.912 1.746 3.28 2.308.092.036.222.038.318.073 1.056.396 2.172.744 3.524.811.328.081.737.081 1.146.081h28.731c-6.303.0-9.904-3.273-9.823-8.021.082-1.719.655-3.683 1.882-5.729l115.659-200.214 4.584-7.858 33.969-58.853L264.012 101.366z"/></g></svg>