<svg height="800" width="800" id="_x35_" xmlns="http://www.w3.org/2000/svg" viewBox="0 0 512 512"><g><g><polygon style="opacity:0.6;fill:#E5DCB6;" points="340.904,156.427 339.074,180.447 338.998,180.447 335.566,224.979 325.272,357.128 321.841,401.66 317.647,455.572 317.113,462.282 26.128,462.282 25.594,455.572 5.692,199.892 2.641,160.087 2.336,156.427"/><path style="opacity:0.6;fill:#E5DCB6;" d="M314.596 512H29.254c-1.677.0-3.279-.229-4.728-.61-6.558-1.677-11.438-6.863-13.116-13.115-.991-3.584-.839-7.55.61-11.362l14.107-24.63h290.986l14.336 25.164C336.024 499.266 327.255 512 314.596 512z"/><polygon style="fill:#E2C448;" points="287.436,432.589 55.807,432.589 32.05,186.112 311.192,186.112"/><path style="opacity:0.6;fill:#E5DCB6;" d="M448.624 220.545v141.056c0 22.108-17.981 40.09-40.09 40.09h-86.699l3.459-44.544h78.786V224.999h-68.525l3.46-44.544h69.52C430.643 180.456 448.624 198.436 448.624 220.545z"/><circle style="fill:#F9F5E9;" cx="56.917" cy="143.036" r="56.917"/><circle style="fill:#F9F5E9;" cx="67.223" cy="56.918" r="56.917"/><circle style="fill:#F9F5E9;" cx="113.835" cy="170.752" r="56.917"/><circle style="fill:#F9F5E9;" cx="193.431" cy="152.935" r="56.917"/><circle style="fill:#F9F5E9;" cx="254.308" cy="163.823" r="56.917"/><path style="fill:#F9F5E9;" d="M284.552 71.251c0 14.564-5.49 27.909-14.564 37.898-6.939 7.854-16.09 13.802-26.536 16.776-.305.076-.61.153-.991.229-4.728 1.297-9.684 1.983-14.793 1.983-5.414.0-10.676-.762-15.632-2.211-13.192-3.736-24.401-12.125-31.798-23.257-.915-1.372-1.83-2.898-2.592-4.347-4.347-8.083-6.863-17.31-6.863-27.07.0-10.828 2.974-20.894 8.236-29.434 9.913-16.547 27.985-27.528 48.65-27.528 28.138.0 51.472 20.36 55.97 47.201C284.248 64.693 284.552 67.896 284.552 71.251z"/><path style="fill:#F9F5E9;" d="M355.393 116.394c0 15.632-6.329 29.815-16.547 40.033-7.625 7.702-17.386 13.192-28.29 15.556-3.889.839-7.93 1.297-12.125 1.297-15.785.0-30.044-6.406-40.415-16.852-3.126-3.127-5.872-6.634-8.159-10.523-3.66-5.948-6.253-12.582-7.396-19.75-.229-.915-.381-1.754-.381-2.669-.382-2.287-.534-4.728-.534-7.092.0-2.745.229-5.491.61-8.159 3.203-22.647 19.75-41.025 41.482-46.744 4.728-1.373 9.684-2.059 14.793-2.059 7.321.0 14.259 1.373 20.665 3.965 14.793 5.643 26.613 17.462 32.332 32.332C354.02 102.134 355.393 109.073 355.393 116.394z"/><path style="fill:#F9F5E9;" d="M188.472 73.31c0 8.465-1.83 16.471-5.262 23.715-.839 1.906-1.83 3.813-2.974 5.643-6.71 11.285-17.386 20.055-30.044 24.325-2.669.991-5.49 1.754-8.388 2.211-3.279.686-6.71.991-10.218.991-7.092.0-13.954-1.296-20.207-3.813-5.948-2.135-11.438-5.338-16.242-9.379-1.22-.991-2.364-1.983-3.431-3.127-1.373-1.296-2.592-2.669-3.736-4.041-4.957-5.795-8.693-12.582-10.904-19.979-1.602-5.262-2.44-10.828-2.44-16.548.0-24.096 14.946-44.685 36.144-52.997 6.482-2.592 13.497-3.965 20.817-3.965 15.861.0 30.273 6.558 40.567 17.081 2.593 2.593 4.88 5.414 6.863 8.388C184.965 50.891 188.472 61.72 188.472 73.31z"/><circle style="fill:#E5DCB6;" cx="72.245" cy="243.004" r="6.929"/><circle style="fill:#E5DCB6;" cx="119.757" cy="304.437" r="6.929"/><circle style="fill:#E5DCB6;" cx="138.163" cy="261.52" r="6.929"/><circle style="fill:#E5DCB6;" cx="195.41" cy="239.634" r="6.929"/><circle style="fill:#E5DCB6;" cx="231.834" cy="291.073" r="6.929"/><circle style="fill:#E5DCB6;" cx="254.308" cy="241.98" r="6.929"/><polygon style="opacity:0.1;fill:#E5DCB6;" points="317.647,455.572 317.113,462.282 26.128,462.282 25.594,455.572"/></g><path style="opacity:0.2;fill:#FFFFFF;" d="M179.017 41.817c-1.983-2.974-4.27-5.795-6.863-8.388-10.294-10.523-24.706-17.081-40.567-17.081-7.317.0-14.33 1.372-20.81 3.962C100.336 7.901 84.709.0 67.223.0 35.788.0 10.305 25.483 10.305 56.917c0 14.945 5.805 28.501 15.226 38.657C10.153 105.764.0 123.206.0 143.036c0 5.989.936 11.756 2.651 17.177l3.041 39.679 19.902 255.68.534 6.71-14.107 24.63c-1.449 3.813-1.601 7.778-.61 11.362 1.677 6.252 6.558 11.438 13.115 13.115 1.449.381 3.05.61 4.728.61h175.228V19.291c-10.608 4.753-19.522 12.606-25.465 22.526z"/></g></svg>