<svg height="800" width="800" id="_x35_" xmlns="http://www.w3.org/2000/svg" viewBox="0 0 512 512"><g><path style="fill:#F6E96F;" d="M453.481 402.747c-28.353-17.478-41.329-72.613-41.329-90.987v-77.245c0-84.141-60.354-154.138-140.122-169.171 2.114-2.739 3.914-5.743 5.283-8.997 2.064-4.853 3.197-10.223 3.197-15.786.007-8.359-2.559-16.23-6.932-22.682-4.373-6.474-10.539-11.592-17.829-14.682C250.89 1.133 245.52.0 239.957.0c-8.352.0-16.223 2.566-22.682 6.939-6.467 4.366-11.592 10.539-14.682 17.829-2.058 4.861-3.19 10.223-3.19 15.793-.007 8.344 2.566 16.223 6.932 22.682.487.717 1.004 1.42 1.542 2.101-79.76 15.04-140.115 85.037-140.115 169.171v77.245c0 18.374-12.976 73.509-41.332 90.987C-62.877 457.789 90.723 512 239.957 512s302.834-54.211 213.524-109.253zM227.34 32.067c1.649-2.438 3.986-4.38 6.703-5.52 1.813-.767 3.785-1.197 5.914-1.197 3.19.007 6.058.954 8.495 2.595 2.438 1.642 4.38 3.986 5.528 6.703.76 1.807 1.183 3.778 1.183 5.915-.007 3.19-.946 6.05-2.588 8.487-1.642 2.438-3.986 4.38-6.696 5.528-1.814.76-3.786 1.19-5.922 1.19-3.19-.007-6.05-.946-8.495-2.588-2.43-1.649-4.373-3.993-5.52-6.71-.76-1.807-1.19-3.771-1.19-5.907C224.759 37.364 225.698 34.504 227.34 32.067z"/><path style="fill:#EBD75C;" d="M476.393 444.247c0 37.414-106.55 67.753-237.999 67.753-131.44.0-237.988-30.339-237.988-67.753s106.548-67.753 237.988-67.753c131.449.0 237.999 30.339 237.999 67.753z"/><path style="fill:#F6D85D;" d="M254.166 35.084c4.373 11.19-4.854 19.858-14.209 20.367V512c24.016.0 48.046-1.362 71.904-4.043 26.159-2.939 52.211-7.406 77.696-14.073 20.267-5.327 40.59-11.914 59.043-21.972 11.47-6.237 24.754-14.782 29.708-27.543 4.559-11.75-1.771-22.832-10.309-30.812-6.933-6.481-15.65-10.523-22.475-17.047-8.129-7.778-14.043-17.693-18.718-27.829-8.115-17.542-14.66-38.168-14.66-57.645v-72.95c0-38.26-10.882-75.194-33.83-106.092-25.629-34.532-63.975-58.713-106.264-66.671C292.24 39.156 272.977-.014 239.957.0v25.665c5.456-.294 10.969 2.193 13.836 8.559l.086.201c.036.071.072.143.101.229.036.101.093.186.122.287C254.144 35.035 254.166 35.084 254.166 35.084z"/><g><path style="fill:#AD8A43;" d="M195.396 397.599c-99.816 4.667-174.91 24.905-174.91 49.193.0 27.658 97.472 50.082 217.908 50.204V396.588C223.684 396.603 209.296 396.94 195.396 397.599z"/><path style="fill:#9D7A3B;" d="M288.031 397.829c-15.657-.824-31.915-1.248-48.633-1.248-.33.0-.667.007-1.004.007v100.408c.337.0.674.007 1.004.007 120.91.0 218.923-22.474 218.923-50.21C458.321 422.891 385.535 402.89 288.031 397.829z"/></g><path style="fill:#EDC953;" d="M295.337 424.841c0 29.657-24.044 53.702-53.688 53.702-29.643.0-53.68-24.044-53.68-53.702.0-9.943 2.71-19.263 7.427-27.242 14.223-.674 28.941-1.018 44.002-1.018 16.718.0 32.977.424 48.633 1.248C292.684 405.757 295.337 414.998 295.337 424.841z"/><circle style="fill:#FFFFFF;" cx="222.329" cy="448.799" r="11.047"/><g><path style="fill:#FFFFFF;" d="M114.499 218.615c.007-25.005 7.947-48.11 21.474-67.058 13.52-18.933 32.625-33.657 54.834-41.715 5.262-1.914 7.979-7.721 6.072-12.99-1.915-5.262-7.729-7.972-12.99-6.058-26.145 9.484-48.54 26.747-64.423 48.984-15.882 22.224-25.256 49.494-25.248 78.836.0 5.592 4.541 10.13 10.136 10.13C109.957 228.744 114.499 224.206 114.499 218.615z"/></g></g></svg>