<svg width="800" height="800" viewBox="0 0 32 32" id="_x3C_Layer_x3E_" xmlns="http://www.w3.org/2000/svg"><style>.st0{fill:#E3F2FD;}
.st1{fill:#80D8FF;}
.st2{fill:#1AD2A4;}
.st3{fill:#ECEFF1;}
.st4{fill:#55FB9B;}
.st5{fill:#BBDEFB;}
.st6{fill:#C1AEE1;}
.st7{fill:#FF5252;}
.st8{fill:#FF8A80;}
.st9{fill:#FFB74D;}
.st10{fill:#FFF176;}
.st11{fill:#FFFFFF;}
.st12{fill:#65C7EA;}
.st13{fill:#CFD8DC;}
.st14{fill:#37474F;}
.st15{fill:#78909C;}
.st16{fill:#42A5F5;}
.st17{fill:#455A64;}</style><g id="Bitcoin_x2C__BTC"><g id="XMLID_159_"><g id="XMLID_175_"><circle class="st9" cx="16" cy="16" id="XMLID_94_" r="14.5"/></g><g id="Bitcoin_x2C__BTC_x2C__cryptocurrency_3_"><path class="st11" d="M22.64 14.14c.3-2-1.22-3.07-3.3-3.79l.67-2.7-1.65-.41-.66 2.63c-.43-.11-.88-.21-1.32-.31l.66-2.65-1.63-.41-.67 2.7c-.36-.08-3.32-.82-3.32-.82l-.44 1.76s1.22.28 1.2.3c.67.17.79.61.77.96l-1.85 7.41c-.08.2-.29.51-.75.39.02.02-1.2-.3-1.2-.3l-.82 1.89s2.93.74 3.32.84l-.68 2.74 1.64.41.68-2.71c.45.12.89.23 1.31.34l-.67 2.69 1.65.41.68-2.73c2.81.53 4.92.32 5.81-2.22.72-2.04-.03-3.22-1.51-3.99C21.61 16.31 22.42 15.6 22.64 14.14zm-3.76 5.27c-.51 2.04-3.95.94-5.07.66l.9-3.62C15.83 16.73 19.41 17.28 18.88 19.41zM19.39 14.11c-.46 1.86-3.33.91-4.26.68l.82-3.29C16.88 11.74 19.87 12.17 19.39 14.11z"/></g></g><g id="XMLID_91_"><g id="Bitcoin_x2C__BTC_x2C__cryptocurrency_2_"><path class="st17" d="M15.67 25.63c-.04.0-.08.0-.12-.01-.27-.07-.43-.34-.37-.6l.58-2.36c.06-.26.32-.42.58-.37 3.09.58 4.56.05 5.24-1.9.57-1.61.19-2.63-1.27-3.38-.19-.1-.29-.3-.27-.51.03-.21.18-.38.38-.42 1.01-.23 1.55-.87 1.72-2 .22-1.46-.7-2.46-2.97-3.24-.24-.08-.38-.34-.32-.59L19.41 8c.07-.27.34-.43.6-.37.27.07.43.34.37.6l-.45 1.82c1.25.47 3.59 1.59 3.2 4.18-.17 1.14-.69 1.97-1.51 2.45 1.2.97 1.5 2.33.9 4.05-1.02 2.91-3.5 3.02-5.9 2.63l-.47 1.91C16.1 25.48 15.89 25.63 15.67 25.63zM12.71 24.89c-.04.0-.08.0-.12-.01-.27-.07-.43-.34-.37-.6l.57-2.34c.03-.13.12-.24.23-.31.12-.07.25-.09.39-.05.45.12.88.23 1.3.34.27.07.43.34.36.61s-.34.43-.61.36-.55-.14-.83-.21l-.45 1.84C13.14 24.74 12.93 24.89 12.71 24.89zm-1.07-2.77c-.04.0-.08.0-.12-.02C11.13 22 8.2 21.26 8.2 21.26 8.06 21.23 7.94 21.13 7.87 21c-.06-.13-.07-.29-.01-.42l.82-1.89c.1-.23.35-.35.59-.28.0.0.9.24 1.11.28.03.0.05.01.08.01.09.02.12.03.17-.09l1.83-7.34c0-.12-.06-.27-.4-.35-.03-.01-.06-.02-.09-.03-.22-.07-1.1-.26-1.1-.26-.13-.03-.24-.11-.31-.23-.07-.11-.09-.25-.06-.38l.44-1.76c.03-.13.11-.24.23-.31s.25-.09.38-.06c0 0 2.95.74 3.31.82.27.06.44.33.38.6-.06.27-.33.44-.6.38-.27-.06-1.99-.49-2.84-.7l-.19.78c.35.08.58.14.73.19.75.19 1.17.74 1.12 1.47l-1.86 7.5c-.25.64-.76.91-1.36.76-.17-.03-.42-.09-.79-.19l-.41.95c.87.22 2.47.62 2.75.69.27.07.43.34.36.61C12.07 21.97 11.86 22.12 11.64 22.12zm5.21-1c-1.03.0-2.13-.29-2.85-.48l-.31-.08c-.13-.03-.24-.11-.31-.23-.07-.11-.09-.25-.06-.38l.5-2.01c.07-.27.34-.43.61-.36s.43.34.36.61l-.38 1.53c.96.25 2.7.67 3.54.18.23-.13.36-.32.43-.6.08-.3.04-.55-.1-.79-.53-.86-2.39-1.27-3.28-1.47-.16-.04-.3-.07-.42-.1-.27-.07-.43-.34-.36-.61s.34-.43.61-.36l.39.09c1.18.27 3.16.71 3.91 1.92.29.47.36.99.22 1.55-.13.54-.44.95-.89 1.22C18.01 21.02 17.44 21.12 16.85 21.12zM17.59 15.74c-.85.0-1.74-.24-2.31-.39l-.27-.07c-.13-.03-.24-.11-.31-.23-.07-.11-.09-.25-.06-.38l.42-1.68c.07-.27.34-.43.61-.36s.43.34.36.61l-.3 1.2c.78.2 2.1.51 2.78.11.2-.12.33-.3.39-.56.07-.28.04-.51-.09-.73-.44-.7-1.86-1.02-2.63-1.19l-.36-.08c-.27-.07-.43-.34-.36-.61s.34-.43.61-.36l.33.08c.98.22 2.61.58 3.27 1.64.27.44.34.95.21 1.49-.13.52-.42.92-.86 1.18C18.6 15.65 18.1 15.74 17.59 15.74zM17.71 10.37c-.04.0-.08.0-.12-.02-.43-.11-.87-.21-1.31-.31-.13-.03-.24-.11-.32-.22-.07-.11-.09-.25-.06-.38l.54-2.2c.07-.27.34-.43.6-.37.27.07.43.34.37.6L17 9.19c.28.06.56.13.83.2.27.07.43.34.36.61C18.14 10.22 17.94 10.37 17.71 10.37z" id="XMLID_682_"/></g><g id="XMLID_173_"><path class="st17" d="M16 31C7.73 31 1 24.27 1 16S7.73 1 16 1s15 6.73 15 15-6.73 15-15 15zM16 2C8.28 2 2 8.28 2 16s6.28 14 14 14 14-6.28 14-14S23.72 2 16 2z" id="XMLID_673_"/></g></g></g></svg>