<svg id="_x35_" xmlns="http://www.w3.org/2000/svg" viewBox="0 0 512 512"><g><path style="fill:#F0D9C1;" d="M467.725 284.825H44.275c0-2.552.071-5.105.138-7.651.415-11.173 1.657-22.07 3.725-32.691 16.278-84.55 82.967-151.171 167.446-167.517 8.621-1.657 17.383-2.829 26.28-3.381 4.688-.343 9.375-.485 14.137-.485 4.761.0 9.449.141 14.137.485 26.967 1.792 52.552 8.621 75.794 19.586 2.21 1.037 4.344 2.068 6.486 3.172.478.209.963.418 1.448.694 1.65.896 3.24 1.724 4.896 2.62.135.134.276.209.478.276 1.933 1.105 3.792 2.203 5.725 3.381 2.068 1.239 4.068 2.478 6.068 3.792 2.694 1.791 5.314 3.583 7.934 5.374 2.552 1.866 5.105 3.799 7.583 5.724.141.142.276.277.417.35 2.344 1.859 4.688 3.792 6.964 5.718 2.411 2.075 4.761 4.21 7.106 6.351.343.343.687.687 1.03.963 1.933 1.933 3.866 3.792 5.725 5.725 2.209 2.276 4.343 4.62 6.486 6.963 2.135 2.411 4.135 4.829 6.135 7.24.276.343.552.694.829 1.037.485.485.895 1.03 1.313 1.583 1.65 2.142 3.307 4.351 4.897 6.553 3.448 4.829 6.754 9.725 9.793 14.83 1.583 2.552 3.03 5.105 4.478 7.725 1.933 3.516 3.724 7.031 5.448 10.688 2.694 5.449 5.038 11.032 7.105 16.689 1.381 3.792 2.687 7.658 3.933 11.517.62 1.932 1.172 3.933 1.724 5.859.828 3.105 1.65 6.277 2.411 9.523 1.515 6.412 2.688 12.891 3.516 19.511.896 6.628 1.522 13.315 1.724 20.144C467.657 279.721 467.725 282.273 467.725 284.825z"/><g><path style="fill:#FFFFFF;" d="M109.456 208.398c21.441-42.161 61.651-73.296 109.462-82.287l-4.283-22.697C159.597 113.8 113.503 149.501 88.87 197.925l20.586 10.473z"/></g><path style="fill:#99B8A6;" d="M512 304.067c0 14.898-12.069 26.967-26.966 26.967H26.966c-5.792.0-11.173-1.859-15.588-4.963-2.482-1.724-4.62-3.866-6.344-6.344C1.862 315.307.0 309.933.0 304.067c0-7.381 3.034-14.137 7.863-19.032 4.897-4.829 11.655-7.86 19.103-7.86h458.068C499.931 277.174 512 289.243 512 304.067z"/><rect x="241.863" y="61.584" style="fill:#F0D9C1;" width="28.273" height="16.689"/><path style="fill:#99B8A6;" d="M290.617 34.617c0 1.179-.067 2.418-.202 3.523-.067 1.239-.276 2.411-.552 3.583-.209 1.037-.418 2.068-.761 3.037.0.068.0.135-.068.202-.276.97-.619 2.001-1.037 2.97-1.582 3.792-3.792 7.24-6.546 10.203l-1.246 1.246c-1.172 1.172-2.479 2.276-3.927 3.306-.552.486-1.179.896-1.798 1.239-1.374.903-2.829 1.657-4.344 2.351-4.344 1.926-9.099 3.03-14.137 3.03s-9.792-1.105-14.137-3.03c-3.516-1.523-6.688-3.657-9.382-6.21-6.829-6.345-11.099-15.376-11.099-25.452C221.383 15.517 236.9.0 256 0c13.032.0 24.414 7.24 30.348 17.928.0.075.068.141.134.209C289.102 23.033 290.617 28.691 290.617 34.617z"/><g style="opacity:0.09;"><path style="fill:#595758;" d="M512 304.067c0 14.898-12.069 26.967-26.966 26.967H256V0c13.032.0 24.414 7.24 30.348 17.928.0.075.068.141.134.209 2.62 4.896 4.135 10.554 4.135 16.48.0 1.179-.067 2.418-.202 3.523-.067 1.239-.276 2.411-.552 3.583-.209 1.037-.418 2.068-.761 3.037.0.068.0.135-.068.202-.276.97-.619 2.001-1.037 2.97-1.582 3.792-3.792 7.24-6.546 10.203l-1.246 1.246c-1.172 1.172-2.479 2.276-3.927 3.306-.552.486-1.179.896-1.798 1.239-1.374.903-2.829 1.657-4.344 2.351v7.375c26.967 1.798 52.485 8.621 75.794 19.518 8.688 4.068 17.1 8.762 25.101 13.934 2.694 1.791 5.314 3.583 7.934 5.374 2.552 1.866 5.105 3.799 7.583 5.724.141.142.276.277.417.35 2.344 1.859 4.688 3.792 6.964 5.718 2.411 2.075 4.761 4.21 7.106 6.351.343.343.687.687 1.03.963 1.933 1.933 3.866 3.792 5.725 5.725 2.209 2.276 4.343 4.62 6.486 6.963 2.135 2.411 4.135 4.829 6.135 7.24.552.694 1.172 1.448 1.657 2.142 7.381 9.24 13.928 19.168 19.652 29.586 7.657 13.995 13.793 29.034 18.211 44.754.828 3.105 1.65 6.277 2.411 9.523 1.448 6.412 2.62 12.891 3.516 19.511.828 6.628 1.381 13.315 1.657 20.144h17.518C499.931 277.174 512 289.243 512 304.067z"/></g></g></svg>