<svg id="Uploaded to svgrepo.com" xmlns="http://www.w3.org/2000/svg" width="800" height="800" viewBox="0 0 32 32"><style>.isometric_zeven{fill:#FF7344;}
.isometric_acht{fill:#F05A28;}
.isometric_negen{fill:#BE1E2D;}
.isometric_twaalf{fill:#569080;}
.isometric_dertien{fill:#225B49;}
.st0{fill:#7BD6C4;}
.st1{fill:#72C0AB;}
.st2{fill:#F29227;}
.st3{fill:#F5DF89;}
.st4{fill:#F2D76C;}
.st5{fill:#F28103;}
.st6{fill:#F8F7C5;}
.st7{fill:#AD9A74;}</style><g><path class="isometric_acht" d="M19.646 7.332c.028-.193.021-.371-.019-.527l.436.283C20.062 7.087 19.651 7.332 19.646 7.332zM16.164 6.028c.17-.483.503-.717.825-.763l-.864-.504-.867.497C15.604 5.274 15.98 5.505 16.164 6.028zM22.062 12.8 26 10.525 22.05 8.22l-1.07.622c.353.564.538 1.265.339 1.89l-1.496.868 2.239 1.2zm-2 1.158-2.522-1.362c-.088.022-.202.041-.371.041h-2c-.177.0-.335-.058-.479-.139l-2.612 1.468h0l3.985 2.333 3.999-2.341zm-10-1.125 2.34-1.294-1.395-.809c-.239-.749.137-1.559.277-1.802l-1.213-.701-4.009 2.297 4 2.309zm2.001-5.745.675.392c-.077-.345-.065-.593.009-.784L12.063 7.088z"/><path class="isometric_twaalf" d="M12.062 7.088l-1.991 1.13-.009-.005 2-1.125.675.392L12.062 7.088zm-1.99 1.13-.009.005 1.222.706-1.213-.711zM21.32 10.731c.199-.625.014-1.326-.339-1.89l1.07-.622-1.988-1.132s-.412.245-.416.244c.075-.511-.099-.916-.482-1.098l-1.712-.901c-.4-.196-1.031-.034-1.287.695-.257-.73-.888-.892-1.287-.695-.101.049-1.332.681-1.642.86-.406.234-.665.528-.497 1.286l-.675-.392-1.991 1.13 1.213.711c-.14.243-.516 1.053-.277 1.802l1.395.809-2.34 1.294V25.55l2 1.188.016-12.771 2.612-1.468c.144.081.302.139.479.139h2c.169.0.284-.019.371-.041l2.522 1.362v12.718l2-1.162V12.8l-2.239-1.201 1.494-.868z"/><path class="isometric_zeven" d="M10.062 25.55l-4-2.323V10.525l4 2.309V25.55zm2.016-11.584-.016 12.771 4 2.263V16.298l-3.984-2.332z"/><path class="isometric_negen" d="M20.062 13.958v12.718l-4 2.324V16.298l4-2.34zm2-1.158v12.714L26 23.226V10.525L22.062 12.8z"/><path class="isometric_dertien" d="M19.824 11.599l-.403.234v-.001c.657-.738-.232-2.733-1.366-3.08.0.0-.001.0-.001-.001C18.489 8.417 19 8.163 19.414 8.03c.535-1.254.029-1.887-.562-1.844-.006.0-.012.0-.019.0-1.075.103-1.883 1.984-2.289 2.996-.003.008-.007.017-.01.025h.635c.552.0 1 .448 1 1 0 .314.036 1.254.0 1.548-.047.379-.284.714-.629.841l2.522 1.362v12.718l2-1.162V12.8l-2.238-1.201zM15.793 9.208h-.624c-.552.0-1 .448-1 1 0 .31-.012 1.249.023 1.542-.985.57-1.508.16-1.508-.626.0-.953.781-2.127 1.589-2.373-.364-.28-1.671-1.014-2.062-.788-.35.202-.687.55-.927.965l-1.222-.706 2-1.135.675.392c-.238-.753.23-1.331.739-1.293.006.0.012.0.017.001C14.562 6.289 15.394 8.212 15.793 9.208z"/></g></svg>