<svg width="800" height="800" viewBox="0 0 64 64" xmlns="http://www.w3.org/2000/svg"><g fill="none" fill-rule="evenodd"><rect width="21" height="11" x="22" y="9" stroke="#9F5757" stroke-linecap="round" stroke-width="2" rx="3"/><path fill="#9F5757" d="M7 16H58V51.0023401C58 52.657902 56.6620883 54 55.0001194 54H9.9998806C8.34309229 54 7 52.6475599 7 51.0023401V16z"/><path fill="#BD7575" d="M3 16H62V27.9734067c0 2.2090284-1.7979678 3.9997998-4.0089246 3.9997998H7.00892456C4.79485666 31.9732065 3 30.1873717 3 27.9734067V16z"/><path fill="#FFF" d="M18 29h6v3c0 1.6568542-1.3465171 3-3 3-1.6568542.0-3-1.3465171-3-3V29zm23 0h6v3c0 1.6568542-1.3465171 3-3 3-1.6568542.0-3-1.3465171-3-3V29z"/></g></svg>