<svg width="800" height="800" viewBox="0 0 64 64" xmlns="http://www.w3.org/2000/svg"><g fill="none" fill-rule="evenodd"><rect width="17" height="11" x="24" y="10" stroke="#595959" stroke-linecap="round" stroke-width="2" rx="3"/><rect width="59" height="38" x="3" y="17" fill="#595959"/><circle cx="15" cy="44" r="9" fill="#FFAF40"/><path fill="#FFF" d="M16.6992327 46.9647635C16.7650563 46.6876119 16.9023107 46.4980259 17.111 46.396 17.321001 46.2933328 17.5333323 46.2746663 17.748 46.34 18.2520025 46.5173342 18.4340007 46.876664 18.294 47.418 17.9113314 48.351338 17.2673379 48.915999 16.362 49.112 16.1753324 49.112 15.9746677 49.0980001 15.76 49.07S15.3213345 48.9953337 15.088 48.93C14.9573327 48.9019999 14.8266673 48.8763334 14.696 48.853 14.5653327 48.8296666 14.4393339 48.818 14.318 48.818 14.1499992 48.818 13.9960007 48.8413331 13.856 48.888L13.31 49.056C12.917998 49.1120003 12.5493351 49.1306668 12.204 49.112 11.811998 48.9906661 11.5670005 48.8366676 11.469 48.65 11.3709995 48.4633324 11.3499997 48.2580011 11.406 48.034 11.4246668 47.9499996 11.4573331 47.877667 11.504 47.817S11.6019997 47.688667 11.658 47.614C11.7046669 47.539333 11.758333 47.4670003 11.819 47.397 11.879667 47.3269997 11.9286665 47.2500004 11.966 47.166L11.952 47.194C12.0546672 46.6713307 12.1549995 46.1790023 12.253 45.717S12.4466662 44.7673359 12.54 44.254C12.4373328 44.2633334 12.3416671 44.2656667 12.253 44.261 12.1643329 44.2563333 12.0686672 44.254 11.966 44.254H11.77C11.6019992 44.254 11.4690005 44.1770008 11.371 44.023 11.2729995 43.8689992 11.224 43.7126675 11.224 43.554 11.224 43.4326661 11.2379999 43.2996674 11.266 43.155 11.2940001 43.0103326 11.345333 42.8866672 11.42 42.784 11.4760003 42.7466665 11.5693327 42.7093335 11.7 42.672 11.8306673 42.6346665 11.9613327 42.6066668 12.092 42.588 12.2226673 42.5693332 12.3393328 42.5576667 12.442 42.553 12.5446672 42.5483333 12.596 42.5506666 12.596 42.56 12.596 42.5506666 12.6239997 42.5436667 12.68 42.539 12.7360003 42.5343333 12.8106662 42.532 12.904 42.532L13.744 38.276C13.8280004 37.9586651 14.0286651 37.7253341 14.346 37.576S15.0786641 37.3753331 15.592 37.422H15.662L16.236 37.478C17.1226711 37.7020011 17.603333 38.2853286 17.678 39.228 17.6966668 39.3493339 17.6873335 39.4613328 17.65 39.564 17.5846663 39.760001 17.4586676 39.9046662 17.272 39.998 17.0853324 40.0913338 16.8893344 40.1146669 16.684 40.068 16.5066658 40.0119997 16.3666672 39.9140007 16.264 39.774S16.11 39.4566677 16.11 39.242C16.1380001 39.1019993 16.0213346 38.9993337 15.76 38.934 15.6573328 38.9433334 15.5803336 38.9549999 15.529 38.969 15.4776664 38.9830001 15.4286669 39.0179997 15.382 39.074 15.3446665 39.1860006 15.2676672 39.5219972 15.151 40.082 15.0343327 40.6420028 14.878001 41.4539947 14.682 42.518 14.8500008 42.4993332 14.9993327 42.49 15.13 42.49H15.536C15.928002 42.4806666 16.2733318 42.5086663 16.572 42.574 16.7773344 42.6393337 16.9313328 42.7839989 17.034 43.008 17.1366672 43.2320011 17.1693335 43.4653321 17.132 43.708 17.0199994 44.2586694 16.7166691 44.4453342 16.222 44.268 16.1846665 44.2493332 16.1473335 44.2376667 16.11 44.233 16.0726665 44.2283333 16.0306669 44.2213334 15.984 44.212 15.7599989 44.1466663 15.4706684 44.1279999 15.116 44.156L14.332 44.226 13.758 47.026C13.9073341 47.0073332 14.0473327 46.9933334 14.178 46.984 14.3086673 46.9746666 14.4439993 46.97 14.584 46.97 14.8640014 46.97 15.1276654 46.9979997 15.375 47.054S15.8673321 47.2033327 16.11 47.334H16.096C16.3412946 47.361255 16.5423703 47.2381773 16.6992327 46.9647635z"/><polygon fill="#868686" points="3 17 62 17 62 26.5 32.5 36 3 26.5"/><path fill="#FFAF40" d="M29 33h6v3.9907455C35 38.6527109 33.6534829 40 32 40c-1.6568542.0-3-1.3496704-3-3.0092545V33z"/></g></svg>