<svg width="800" height="800" viewBox="0 0 73 73" xmlns="http://www.w3.org/2000/svg"><title>progressive-webapps/audits/performance-budgets</title><desc>Created with Sketch.</desc><defs/><g id="progressive-webapps/audits/performance-budgets" stroke="none" stroke-width="1" fill="none" fill-rule="evenodd"><g id="container" transform="translate(2.000000, 2.000000)" fill="#FFF" fill-rule="nonzero" stroke="#7A5107" stroke-width="2"><rect id="mask" x="-1" y="-1" width="71" height="71" rx="14"/></g><g id="money-bag" transform="translate(16.000000, 13.000000)" fill-rule="nonzero"><path d="M40.2356892 37.7881675c0 9.1105309-8.961178 8.5877956-20.087974 8.5877956-11.12679601.0-20.0879740133.4480589-20.0879740133-8.5877956.0-9.110531 8.9611780033-24.2698571 20.0879740133-24.2698571C31.2745112 13.5929869 40.2356892 28.752313 40.2356892 37.7881675z" id="Shape" fill="#F2B233"/><path d="M20.1477152 13.5929869c11.126796.0 20.087974 15.1593261 20.087974 24.2698571.0 9.1105309-8.961178 8.5877955-20.087974 8.5877955" id="Shape" fill="#DD981D"/><path d="M10.3650959 4.18374998c0-4.405912518 4.4059125-4.18188306792 9.7826193-4.18188306792S29.9303345-.222162538 29.9303345 4.18374998c0 4.40591252-4.4059125 11.79888432-9.7826193 11.79888432S10.3650959 8.5896625 10.3650959 4.18374998z" id="Shape" fill="#F2B233"/><path d="M20.1477152.00186691208c5.3767068.0 9.7826193-.22402945008 9.7826193 4.18188306792.0 4.40591252-4.4059125 11.79888432-9.7826193 11.79888432" id="Shape" fill="#DD981D"/><path d="M28.7355108 14.4144282C28.7355108 15.161193 28.1380989 15.7586049 27.3913341 15.7586049H12.9040963C12.1573315 15.7586049 11.5599196 15.161193 11.5599196 14.4144282V14.0410458c0-.746764899999999.597411899999999-1.3441767 1.3441767-1.3441767H27.4660106c.746764800000001.0 1.3441767.5974118 1.3441767 1.3441767V14.4144282H28.7355108z" id="Shape" fill="#04AF76"/><path d="M12.6800669 12.7715456H27.4660106c.746764800000001.0 1.3441767.5974118 1.3441767 1.3441767V14.4891047C28.8101873 15.2358695 28.0634224 15.8332814 27.3166576 15.8332814" id="Shape" fill="#008C61"/><circle id="Oval" fill="#04AF76" cx="20.1477152" cy="31.6646958" r="8.961178"/><path d="M13.8002141 25.3171948c3.5097947-3.5097948 9.1852075-3.5097948 12.6950022.0 3.5097947 3.5097947 3.5097947 9.1852074.0 12.6950021" id="Shape" fill="#008C61"/><path d="M19.4009504 38.9083147V37.0414026C17.9074207 36.9667262 17.0859794 36.6680202 16.413891 36.2946378l.4480589-2.016265C17.6087148 34.6517552 18.5795091 35.0251376 19.6996563 35.0251376 20.6704506 35.0251376 21.3425389 34.6517552 21.3425389 33.9796668c0-.672088299999999-.522735300000001-1.0454707-1.866912-1.4935296C17.6087148 31.8887253 16.413891 30.9926075 16.413891 29.3497249c0-1.4935297.6720884-2.6883534 2.9123829-3.0617359V24.7197829h1.4935297v1.4935297C22.3133332 26.287989 22.8360686 26.5120185 23.358804 26.8107244l-.4480589 1.9415886C22.4626862 28.5282835 21.7159214 28.1549011 20.4464211 28.1549011c-1.1201472.0-1.4935296.4480589-1.4935296.970794300000001.0.597411899999997.5974118.896117799999999 2.0909415 1.4935297C23.0600981 31.3659899 23.8815394 32.2621077 23.8815394 33.8303139c0 1.5682061-.8214413 2.8377063-3.0617358 3.2110887v1.8669121H19.4009504z" id="Shape" fill="#FFF6E1"/><g id="Group" transform="translate(20.069305, 24.643239)" fill="#FFEEBD"><path d="M.0784103075.0765433954V3.51166163s.2240294505.0.3733824165.0c1.269500216.0 2.016265046.37338242 2.464323946.59741187l.4480589-1.94158857C2.76676371 1.868779 2.31870481 1.57007306.825175141 1.57007306V.0765433954H.0784103075z" id="Shape"/><path d="M1.04920459 5.9013091C.675822174 5.75195613.302439758 5.60260316.0784103075 5.52792668V8.06692711C.825175141 8.44030953 1.27323404 8.81369195 1.27323404 9.33642733c0 .59741187-.448058899.89611777-1.1948237325 1.04547077v3.8831771H.825175141V12.3234867C3.06546964 11.9501042 3.88691096 10.680604 3.88691096 9.11239788c0-1.56820615-.82144132-2.46432395-2.83770637-3.21108878z" id="Shape"/></g></g></g></svg>