<svg width="800" height="800" viewBox="0 0 64 64" xmlns="http://www.w3.org/2000/svg"><g fill="none" fill-rule="evenodd"><path fill="#E43535" d="M1 35.0023695c0-2.2104476 1.78716697-4.2081467 3.96428975-4.458824L18 29.0425936l13.0357102 1.5009519C33.225127 30.7956384 35 32.7918218 35 35.0023695V42H1V35.0023695z"/><path fill="#FFDD95" d="M12 24.3164468C8.98979073 21.470456 7 16.8615543 7 13 7 6.92486775 11.9248678 2 18 2S29 6.92486775 29 13c0 3.8615543-1.9897907 8.470456-5 11.3164468V31s-4.0674222 1.4486507-6 1.4486507S12 31 12 31V24.3164468z"/><circle cx="9" cy="18" r="3" fill="#FFDD95"/><circle cx="27" cy="18" r="3" fill="#FFDD95"/><path fill="#BD7575" d="M29 49.0023695c0-2.2104476 1.787167-4.2081467 3.9642898-4.458824L46 43.0425936l13.0357102 1.5009519C61.225127 44.7956384 63 46.7918218 63 49.0023695V56H29V49.0023695z"/><path fill="#FFDD95" d="M40 38.3164468C36.9897907 35.470456 35 30.8615543 35 27c0-6.0751322 4.9248678-11 11-11s11 4.9248678 11 11c0 3.8615543-1.9897907 8.470456-5 11.3164468V45s-4.0674222 1.4486507-6 1.4486507S40 45 40 45V38.3164468z"/><circle cx="37" cy="32" r="3" fill="#FFDD95"/><circle cx="55" cy="32" r="3" fill="#FFDD95"/><circle cx="15" cy="53" r="8" fill="#22BA8E"/><polyline stroke="#FFF" stroke-linecap="round" stroke-linejoin="round" stroke-width="2" points="10.947 55.101 14.028 57.179 19.25 49.433"/></g></svg>