<svg width="800" height="800" viewBox="0 0 64 64" xmlns="http://www.w3.org/2000/svg"><g fill="none" fill-rule="evenodd"><path fill="#595959" d="M9 46.9138849c0-2.2097258 1.7750001-4.2144512 3.9692715-4.4782443L32.875 40.0425936l19.9057285 2.393047C54.9728966 42.6991808 56.75 44.6992053 56.75 46.9138849V63.0425936H9V46.9138849z"/><polygon fill="#D8D8D8" points="33 62.899 25 50.875 41 50.875"/><path fill="#FFDD95" d="M24.9659091 37.0820517C20.997906 33.3171352 18.375 27.2233999 18.375 22.1331692c0-8.0081289 6.4918711-14.49999999 14.5-14.49999999s14.5 6.49187109 14.5 14.49999999c0 5.0902307-2.622906 11.183966-6.5909091 14.9488825v8.8238448S35.4224889 47.8154815 32.875 47.8154815c-2.5474889.0-7.9090909-1.909585-7.9090909-1.909585V37.0820517z"/><polygon fill="#D8D8D8" points="33 50.899 25 44 41 44" transform="matrix(1 0 0 -1 0 94.9)"/><polygon fill="#4796E7" points="30.001 44 35.992 44 36.992 47 34.98 49 31.042 49 29.001 47"/><polygon fill="#FFF" points="25 41 32.998 44.105 25 50.922"/><polygon fill="#FFF" points="33 41 41.081 44.061 33 50.922" transform="matrix(-1 0 0 1 74.081 0)"/><circle cx="18.875" cy="25" r="3" fill="#FFDD95"/><circle cx="46.875" cy="25" r="3" fill="#FFDD95"/><path fill="#FFAF40" d="M18.875 10.5c0-3.03756612 2.4578519-5.5 5.5009961-5.5H50.875v5.5c0 3.0375661-2.4578519 5.5-5.5009961 5.5H18.875V10.5z"/><polygon fill="#4796E7" points="31 49 35 49 36 63 30 63"/></g></svg>