<svg width="800" height="800" viewBox="0 0 1024 1024" class="icon" xmlns="http://www.w3.org/2000/svg"><path d="M512 512m-480 0a480 480 0 10960 0 480 480 0 10-960 0z" fill="#DEFCF9"/><path d="M326.4 748.8c0-12.8 6.4-19.2 19.2-19.2H672c12.8.0 19.2 6.4 19.2 19.2.0 12.8-6.4 19.2-19.2 19.2H345.6c-6.4-6.4-19.2-12.8-19.2-19.2zM697.6 339.2c32 0 57.6 25.6 57.6 57.6v249.6c0 32-25.6 57.6-57.6 57.6H326.4c-32 0-57.6-25.6-57.6-57.6V396.8c0-32 25.6-57.6 57.6-57.6h371.2z" fill="#18DFB7"/><path d="M652.8 640c0 12.8-6.4 19.2-19.2 19.2H339.2c-12.8-6.4-19.2-12.8-19.2-19.2V409.6c0-12.8 6.4-19.2 19.2-19.2H640c6.4.0 19.2 6.4 19.2 19.2V640z" fill="#7CF7DA"/><path d="M704 460.8m-25.6.0a25.6 25.6.0 1051.2.0 25.6 25.6.0 10-51.2.0z" fill="#FFF"/><path d="M704 537.6m-25.6.0a25.6 25.6.0 1051.2.0 25.6 25.6.0 10-51.2.0z" fill="#FFF"/><path d="M537.6 390.4h-12.8L518.4 384l-6.4 6.4c-12.8 6.4-25.6.0-32-6.4L409.6 275.2c-6.4-12.8-6.4-25.6 6.4-32 12.8-12.8 25.6-6.4 32 6.4L518.4 352l70.4-140.8c6.4-12.8 19.2-19.2 32-12.8 12.8 6.4 19.2 19.2 12.8 32L556.8 377.6c-6.4 6.4-12.8 12.8-19.2 12.8z" fill="#18DFB7"/></svg>