<svg height="800" width="800" id="_x35_" xmlns="http://www.w3.org/2000/svg" viewBox="0 0 512 512"><g><g><polygon style="fill:#F1F1B2;" points="188.09,382.642 204.481,399.034 171.639,431.876 134.021,431.876 113.856,452.041 128.715,466.9 112.972,482.642 68.868,481.227 56.545,480.815 36.144,480.107 35.024,480.048 0,445.025 242.512,202.513 280.13,236.121 309.67,262.595 229.01,343.256 229.009,382.642"/><path style="opacity:0.1;fill:#040000;" d="M309.67 262.595l-51.121 51.121c-11.203-6.722-21.816-14.859-31.486-24.529-12.441-12.441-22.406-26.415-29.953-41.274l45.401-45.401 37.618 33.609L309.67 262.595z"/><polygon style="opacity:0.2;fill:#040000;" points="208.107,300.357 32.26,476.205 31.137,476.174 16.9,461.937 193.293,285.543"/><polygon style="opacity:0.2;fill:#040000;" points="175.517,374.52 68.842,481.195 56.523,480.789 169.155,368.158"/></g><path style="fill:#625B44;" d="M487.126 129.327 382.644 24.845c-33.137-33.137-87.382-33.136-120.578.059L170.38 116.59c-13.738 13.738-13.738 36.026.0 49.764L345.616 341.59c13.737 13.737 36.085 13.797 49.823.059l91.686-91.686C520.321 216.768 520.262 162.463 487.126 129.327zM367.078 230.033l-83.726-83.726c-9.493-9.493-9.434-25.118.059-34.61 2.83-2.83 6.19-4.777 9.847-5.956.589-3.067 2.182-6.073 4.599-8.49l11.733-11.733c19.576-19.576 51.179-19.576 70.755.0l46.167 46.167c19.516 19.516 19.576 51.179.0 70.755l-11.733 11.733c-1.946 1.946-4.186 3.243-6.604 4.009-1.002 4.304-3.065 8.491-6.426 11.852C392.255 239.527 376.571 239.527 367.078 230.033z"/><path style="fill:#454129;" d="M391.166 214.186l-93.358-93.358c-4.09-4.09-5.605-9.775-4.557-15.052-3.601 1.146-7.01 3.035-9.854 5.877-9.526 9.526-9.526 25.114.0 34.64l83.696 83.696c9.526 9.526 25.114 9.526 34.64.0 3.362-3.362 5.472-7.493 6.461-11.832C402.398 220.075 395.777 218.797 391.166 214.186z"/><path style="fill:none;" d="M391.166 214.186c4.611 4.611 11.233 5.889 17.028 3.972 1.814-7.956-.297-16.645-6.461-22.809l-41.848-41.848-14.702 14.702 45.983 45.983z"/><path style="fill:none;" d="M293.25 105.776c-1.048 5.277.467 10.961 4.557 15.052l47.376 47.376 14.702-14.702-41.848-41.848C311.354 104.97 301.714 103.082 293.25 105.776z"/><path style="opacity:0.1;fill:#040000;" d="M487.125 249.964l-91.686 91.686c-13.738 13.738-36.086 13.678-49.823-.059l-57.488-57.488-59.139 59.139-.001 39.386h-40.92l16.392 16.392-32.842 32.842H134l-20.165 20.165 14.859 14.859-15.743 15.743-44.104-1.416L56.524 480.8l-20.4-.707-1.121-.059-.825-.825 311.026-311.026 45.99 45.99c4.598 4.598 11.203 5.897 16.98 4.009 2.418-.766 4.659-2.063 6.604-4.009l11.733-11.733c19.576-19.576 19.516-51.239.0-70.755l-22.405-22.405 31.486-31.486 51.533 51.533C520.262 162.463 520.321 216.768 487.125 249.964z"/></g></svg>