<svg height="800" width="800" id="_x35_" xmlns="http://www.w3.org/2000/svg" viewBox="0 0 512 512"><g><g><circle style="fill:#997951;" cx="68.291" cy="163.868" r="48.827"/><circle style="fill:#997951;" cx="430.586" cy="163.868" r="48.827"/><path style="fill:#60BAD0;" d="M510.592 150.432c-3.598 2.001-21.717 2.666-25.781-6.327-4.064-9.061-15.788-39.838-54.226-40.704-38.438-.932-56.558 34.44-57.89 56.491-.466 7.794-6.528 10.859-17.654 10.859-3.73.0-51.961.465-101.391.932-2.065.0-4.13.067-6.195.067-4.13.0-8.261.067-12.391.133-1.999.0-4.064.0-6.062.067-6.129.0-12.058.067-17.92.132-1.932.0-3.864.068-5.729.068-16.188.198-30.644.398-41.503.532-10.925.133-18.186.267-19.918.333-9.926.467-13.123-6.328-13.59-11.324-.4-4.93-10.392-58.623-57.357-58.69-39.637-.067-58.49 31.51-70.214 48.164-.067.0-.067.067-.067.067-1.532 2.332-3.464 2.399-2.398-2.531.0-.133.067-.267.067-.4 3.398-14.855 10.126-43.434 12.457-46.698 19.786-28.178 134.7-43.901 145.559-43.901L196.36 6.008c11.791-5.861 74.611-7.994 144.692-3.863 5.929.332 11.924 1.265 17.92 2.664 3.53.865 7.128 1.865 10.659 3.064 1.865.6 3.73 1.265 5.596 1.932 1.798.732 3.664 1.465 5.529 2.199 3.664 1.532 7.261 3.198 10.859 5.063 1.799.932 3.598 1.865 5.396 2.864 3.531 1.932 7.061 3.998 10.526 6.128 3.464 2.132 6.862 4.398 10.193 6.728 3.331 2.266 6.595 4.663 9.792 7.128 1.199.865 2.332 1.799 3.464 2.664l.067.067c5.196 4.064 10.059 8.127 14.722 12.325 1.466 1.265 2.864 2.532 4.264 3.798 4.597 4.129 8.86 8.327 12.857 12.323 2.132 2.132 4.197 4.264 6.062 6.328 8.46 8.861 15.188 16.921 19.852 22.984.0.0.0.065.067.065 2.132 2.799 3.797 5.198 4.996 6.997C507.195 128.05 515.455 147.702 510.592 150.432z"/><circle style="fill:#D7C8A8;" cx="68.291" cy="163.868" r="28.733"/><circle style="fill:#D7C8A8;" cx="430.586" cy="163.868" r="28.733"/><path style="fill:#C4E6F4;" d="M231.812 15.565c-17.293.0-30.856 3.632-41.324 24.753-11.313 22.827-5.104 23.278 7.799 23.396 13.462.124 63.652.48 76.971.0 10.865-.391 16.615-2.035 16.954-15.937s.127-17.89.0-22.986c-.214-8.575-5.809-9.227-20.006-9.227C256.959 15.565 231.812 15.565 231.812 15.565z"/><path style="fill:#C4E6F4;" d="M303.71 28.142c-.116 7.12-.308 19.975.37 23.705.678 3.73.339 11.529 12.207 11.868s69.511.339 74.258.0c4.747-.339 12.278-6.757 6.782-16.615-9.256-16.599-24.628-31.534-85.787-31.534C305.547 15.565 303.826 21.032 303.71 28.142z"/></g><g style="opacity:0.1;"><circle style="fill:#040000;" cx="430.586" cy="163.868" r="48.827"/><path style="fill:#040000;" d="M510.592 150.432c-3.598 2.001-21.717 2.666-25.781-6.327-4.064-9.061-15.788-39.838-54.226-40.704-38.438-.932-56.558 34.44-57.89 56.491-.466 7.794-6.528 10.859-17.654 10.859-3.73.0-51.961.465-101.391.932-2.065.0-4.13.067-6.195.067-4.13.0-8.261.067-12.391.133-1.999.0-4.064.0-6.062.067-6.129.0-12.058.067-17.92.132-1.932.0-3.864.068-5.729.068L369.631 7.873c1.865.6 3.73 1.265 5.596 1.932 1.798.732 3.664 1.465 5.529 2.199 3.664 1.599 7.261 3.264 10.859 5.063 1.799.932 3.598 1.865 5.396 2.864 3.531 1.932 7.061 3.998 10.526 6.128 3.464 2.132 6.862 4.398 10.193 6.728 3.331 2.266 6.595 4.663 9.792 7.128 1.199.865 2.332 1.799 3.464 2.664l.067.067c5.196 4.064 10.059 8.127 14.722 12.325 1.466 1.265 2.864 2.532 4.264 3.798 4.597 4.129 8.86 8.327 12.857 12.323 2.065 2.132 4.13 4.264 6.062 6.328 8.46 8.861 15.188 16.921 19.852 22.984.0.0.0.065.067.065 2.132 2.799 3.797 5.198 4.996 6.997C507.195 128.05 515.455 147.702 510.592 150.432z"/></g></g></svg>