<svg width="800" height="800" viewBox="0 0 48 48" xmlns="http://www.w3.org/2000/svg"><title>70 Basic icons by Xicons.co</title><rect x="1" y="7" width="46" height="32" rx="2" ry="2" fill="#4dbe86"/><path d="M24 15a7 7 0 107 7 7 7 0 00-7-7zm0 10a3 3 0 113-3 3 3 0 01-3 3z" fill="#b7e4ce"/><path d="M42 14H34a1 1 0 010-2h8a1 1 0 010 2z" fill="#b7e4ce"/><path d="M42 35H34a1 1 0 010-2h8a1 1 0 010 2z" fill="#b7e4ce"/><path d="M14 14H6a1 1 0 010-2h8a1 1 0 010 2z" fill="#b7e4ce"/><path d="M14 35H6a1 1 0 010-2h8a1 1 0 010 2z" fill="#b7e4ce"/></svg>