<svg width="800" height="800" viewBox="0 0 64 64" xmlns="http://www.w3.org/2000/svg"><g fill="none" fill-rule="evenodd"><path fill="#B6B6B6" d="M5 28H59V60H5V28zM32 13 59 28H5L32 13z"/><rect width="23" height="44" x="19" y="6" fill="#22BA8E"/><circle cx="31" cy="28" r="10" fill="#80D25B"/><path fill="#325AA6" d="M33.152 17.85C33.4293347 17.9713339 33.568 18.1879984 33.568 18.5 33.568 18.9680023 33.3513355 19.305999 32.918 19.514 32.6406653 19.6526674 32.2506692 19.722 31.748 19.722 31.2973311 19.722 30.8380023 19.6483341 30.37 19.501 29.9019977 19.3536659 29.6420003 19.2193339 29.59 19.098 29.2953319 18.2659958 29.4426637 17.6680018 30.032 17.304 30.1706674 17.2173329 30.4393313 17.174 30.838 17.174 31.9300055 17.174 32.7013311 17.3993311 33.152 17.85zm3.666 9.542c0 1.2653397-.675993200000001 2.8166575-2.028 4.654-1.3000065 1.6640083-2.547994 2.496-3.744 2.496-1.1786726.0-2.3746606-.363996400000005-3.588-1.092C26.4179948 32.6873295 25.9153332 31.9853365 25.95 31.344 25.9846668 30.9799982 26.4266624 30.798 27.276 30.798 27.9866702 30.798 28.6453303 30.9193321 29.252 31.162 29.460001 31.3353342 29.7979977 31.5519987 30.266 31.812 30.5606681 31.8293334 30.9809973 31.4913368 31.527 30.798 32.0730027 30.1046632 32.346 29.5673352 32.346 29.186 32.346 28.9606655 32.1986681 28.848 31.904 28.848 31.7479992 28.848 31.0893391 28.8999995 29.928 29.004 28.7666609 29.1080005 27.8913363 29.16 27.302 29.16c-1.3173399.0-2.140665-.389996100000001-2.47-1.17C24.8146666 27.9726666 24.806 27.8860008 24.806 27.73c0-.9013378.779992199999999-2.2706575 2.34-4.108 1.7160086-1.9586765 3.1979938-2.938 4.446-2.938.884004400000002.0 1.7766622.3379966 2.678 1.014C35.2233381 22.3046697 35.6653337 22.772665 35.596 23.102 35.387999 24.2113389 34.686006 24.766 33.49 24.766 33.2993324 24.766 33.0913345 24.735667 32.866 24.675 32.6406655 24.614333 32.4066679 24.4236683 32.164 24.103 31.9213321 23.7823317 31.6613347 23.622 31.384 23.622 31.0719984 23.622 30.513004 24.0596623 29.707 24.935 28.900996 25.8103377 28.498 26.4386648 28.498 26.82 28.498 26.8720003 28.5673326 26.898 28.706 26.898 28.9660013 26.898 29.8239927 26.7420016 31.28 26.43s2.5913293-.468 3.406-.468c1.4213404.0 2.132.4766619 2.132 1.43zm-3.64 9.568C33.178 37.6880036 32.6840049 38.216665 31.696 38.546 31.4359987 38.6153337 30.9723367 38.5243346 30.305 38.273S29.2953334 37.792001 29.278 37.584C29.1913329 36.8559964 29.3386648 36.3620013 29.72 36.102 29.928001 35.9459992 30.2659977 35.868 30.734 35.868 31.3060029 35.868 31.8346642 35.9459992 32.32 36.102 32.8053358 36.2580008 33.0696664 36.4183325 33.113 36.583 33.1563335 36.7476675 33.178 36.8733329 33.178 36.96z"/><polygon fill="#D8D8D8" points="30 47.5 5 60 5 28"/><polygon fill="#D8D8D8" points="59 47.5 34 60 34 28" transform="matrix(-1 0 0 1 93 0)"/><polygon fill="#ECECEC" points="32 45 59 60 5 60"/></g></svg>