<svg id="_x35_" xmlns="http://www.w3.org/2000/svg" viewBox="0 0 512 512"><g><g><g><g><rect x="56.393" y="53.526" transform="matrix(0.9704 -0.2416 0.2416 0.9704 -32.9774 70.4523)" style="fill:#BDB7A1;" width="428.744" height="232.315"/><path style="fill:#78743D;" d="M497.291 174.76 468.517 59.003 456.016 8.797 453.832.0l-5.292 1.323-53.71 13.361L88.504 91.018l-59.003 14.684 9.723 38.96.992 4.167 1.058 4.101 2.91 11.708 6.548 26.392 22.291 89.364 12.832 51.595 1.852 7.341 7.276-1.786 51.661-12.898 279.536-69.587 26.856-6.681 11.444-2.844 4.167-1.059 4.102-.992 39.225-9.789L497.291 174.76zM432.6 244.677l-160.34 39.952-27.65 6.88-100.014 24.938L93.928 329.08l-12.634-50.735-24.408-97.897-4.432-17.859-2.91-11.708-1.058-4.1-.992-4.168-7.673-30.758L90.555 99.22l306.392-76.267 50.668-12.634 12.634 50.735 28.84 115.757 12.634 50.669-31.022 7.739-4.167.992-4.101 1.059-11.444 2.844L432.6 244.677z"/></g><g><g><path style="fill:#78743D;" d="M288.449 240.704c-39.161 9.751-78.953-14.175-88.705-53.336-9.751-39.161 14.175-78.953 53.336-88.705 39.161-9.751 78.953 14.175 88.705 53.336C351.536 191.16 327.61 230.953 288.449 240.704z"/></g></g><g><path style="fill:#BDB7A1;" d="M297.958 169.475c-1.542-2.386-3.532-4.224-5.965-5.514-1.977-1.188-4.174-1.952-6.593-2.298-2.419-.346-5.373-.343-8.861.015l-.674.063-8.418.779c-1.627.19-3.035.171-4.222-.044-.495-.086-.968-.202-1.421-.342-.627-.195-1.205-.439-1.745-.729-.947-.564-1.679-1.256-2.215-2.071-.529-.816-.917-1.704-1.157-2.667-.634-2.545-.266-4.951 1.101-7.224.187-.311.396-.61.634-.89 1.47-1.813 3.868-3.13 7.19-3.957 1.803-.449 3.721-.754 5.757-.91.682-.053 1.375-.09 2.083-.113 2.824-.081 5.645.694 8.459 2.326l6.832-11.224c-3.928-2.303-7.942-3.636-12.046-4-2.631-.231-5.469-.134-8.499.306-.491-1.725-1.62-3.118-3.066-3.983-1.507-.911-3.363-1.243-5.194-.787-3.663.912-5.92 4.657-5.006 8.326l.1.4c-.845.438-1.652.904-2.419 1.409-2.886 1.882-5.183 4.079-6.894 6.58-1.709 2.506-2.814 5.262-3.304 8.265-.495 3.004-.326 6.157.496 9.455 1.556 6.249 4.504 10.624 8.842 13.114 2.046 1.171 4.32 1.971 6.835 2.404 1.986.337 4.24.44 6.783.293.687-.036 1.388-.087 2.116-.158l9.092-.842c1.022-.101 1.907-.155 2.66-.17.669-.007 1.234.013 1.692.071.978.12 1.929.431 2.859.926 1.884 1.137 3.148 2.977 3.78 5.516.736 2.956.199 5.497-1.605 7.62-.693.825-1.579 1.569-2.652 2.23-1.706 1.059-3.887 1.916-6.548 2.579-2.261.563-4.502.906-6.713 1.025-1.075.058-2.138.065-3.202.022-3.242-.141-6.322-1.085-9.239-2.84l-6.966 11.578c4.478 2.757 9.071 4.291 13.786 4.613 2.806.194 5.763.079 8.872-.338.966 3.582 4.668 5.769 8.285 4.868 3.669-.914 5.918-4.662 5.006-8.326l-.023-.093c1.275-.564 2.497-1.194 3.667-1.886 3.086-1.821 5.608-3.982 7.577-6.479 1.97-2.497 3.299-5.291 3.989-8.38s.587-6.419-.302-9.989C300.683 174.706 299.502 171.867 297.958 169.475z"/></g><g><circle style="fill:#78743D;" cx="154.893" cy="209.476" r="23.609"/></g><g><path style="fill:#78743D;" d="M85.793 133.087c-.794 1.72-1.72 3.373-2.646 5.027v.066c-1.191 1.852-2.381 3.572-3.77 5.292-4.697 6.085-10.65 11.245-17.661 15.015-2.91 1.654-6.02 3.043-9.261 4.101-1.323.397-2.712.795-4.101 1.191-1.389.33-2.778.595-4.167.86l-2.91-11.708-1.058-4.101-.992-4.167-9.723-38.96 59.003-14.684c.397 1.323.794 2.646 1.124 4.035.397 1.389.662 2.778.926 4.167C92.605 111.06 90.754 122.834 85.793 133.087z"/></g><g><path style="fill:#78743D;" d="M145.792 320.508c.345 1.384.632 2.772.871 4.163L87.712 339.35l-14.679-58.951c1.331-.438 2.692-.836 4.085-1.183 1.384-.345 2.772-.632 4.162-.871 27.579-4.736 54.58 11.499 63.33 38.078C145.05 317.763 145.448 319.124 145.792 320.508z"/></g><g><path style="fill:#78743D;" d="M468.517 59.003c-1.389.396-2.712.793-4.101 1.124-1.389.397-2.778.662-4.167.926-11.973 2.05-23.813.132-34.132-4.895-3.241-1.521-6.284-3.374-9.128-5.556-9.128-6.681-16.272-16.206-20.042-27.65-.463-1.323-.86-2.712-1.191-4.101-.397-1.389-.662-2.778-.926-4.167l53.711-13.361L453.832.0l2.183 8.797 12.502 50.206z"/></g><g><path style="fill:#78743D;" d="M497.321 174.748 512 233.699l-58.951 14.679c-.441-1.34-.838-2.701-1.183-4.085-.345-1.384-.632-2.772-.871-4.163-4.736-27.579 11.499-54.579 38.078-63.329 1.331-.438 2.692-.836 4.085-1.183C494.542 175.275 495.93 174.987 497.321 174.748z"/></g><g><circle style="fill:#78743D;" cx="387.221" cy="151.625" r="23.609"/></g></g><g><g><rect x="26.844" y="102.305" transform="matrix(0.9704 -0.2416 0.2416 0.9704 -45.6392 64.7579)" style="fill:#C6CFB4;" width="428.745" height="232.315"/><path style="fill:#78743D;" d="M472.751 243.486l-.992-4.166-1.058-4.102-2.91-11.708-6.549-26.393-22.291-89.364-12.832-51.594-1.852-7.342-7.276 1.786-51.661 12.898L85.793 133.087l-26.856 6.681-11.444 2.844-4.167 1.059-4.101.992L0 154.452l14.685 58.937 28.774 115.757 10.055 40.349 4.63 18.654 11.245-2.779 47.758-11.907 306.325-76.333 59.003-14.684L472.751 243.486zM79.376 143.473l160.339-39.953 27.649-6.88 100.014-24.938 50.669-12.633 12.634 50.734 24.408 97.897 4.432 17.859 2.91 11.708 1.058 4.101.992 4.167 7.673 30.758-50.734 12.634-306.392 76.267L64.361 377.83l-12.634-50.734-28.84-115.757L10.253 160.67l31.023-7.739 4.167-.992 4.101-1.059 11.444-2.844L79.376 143.473z"/></g><g><g><path style="fill:#78743D;" d="M258.901 289.483c-39.161 9.751-78.953-14.175-88.705-53.336-9.751-39.161 14.175-78.953 53.336-88.705 39.161-9.751 78.953 14.175 88.705 53.336C321.988 239.939 298.061 279.731 258.901 289.483z"/></g></g><g><path style="fill:#C6CFB4;" d="M268.41 218.253c-1.542-2.386-3.532-4.223-5.965-5.514-1.977-1.188-4.173-1.952-6.593-2.298-2.419-.346-5.373-.343-8.861.015l-.674.063-8.418.779c-1.627.19-3.035.171-4.222-.045-.496-.086-.968-.202-1.421-.342-.627-.195-1.205-.439-1.745-.729-.947-.564-1.679-1.256-2.215-2.071-.529-.816-.917-1.704-1.157-2.667-.634-2.545-.266-4.951 1.101-7.224.187-.311.396-.61.634-.89 1.47-1.813 3.868-3.13 7.19-3.957 1.803-.449 3.721-.754 5.757-.91.682-.053 1.375-.09 2.083-.113 2.824-.081 5.645.693 8.459 2.326l6.833-11.225c-3.928-2.303-7.942-3.636-12.046-4-2.631-.231-5.469-.134-8.499.306-.491-1.724-1.62-3.118-3.066-3.982-1.507-.911-3.363-1.243-5.195-.787-3.663.912-5.92 4.657-5.006 8.326l.1.4c-.845.438-1.652.904-2.419 1.409-2.886 1.882-5.183 4.079-6.893 6.58-1.709 2.506-2.814 5.262-3.304 8.265-.495 3.004-.326 6.157.495 9.455 1.556 6.249 4.504 10.624 8.842 13.114 2.046 1.171 4.32 1.971 6.835 2.404 1.986.336 4.24.44 6.783.293.687-.036 1.388-.087 2.116-.158l9.092-.842c1.022-.101 1.907-.155 2.66-.17.669-.007 1.234.013 1.692.071.978.12 1.929.431 2.859.926 1.884 1.137 3.148 2.977 3.781 5.516.736 2.956.199 5.497-1.605 7.62-.693.825-1.579 1.569-2.652 2.23-1.706 1.059-3.887 1.916-6.548 2.578-2.261.563-4.502.906-6.713 1.025-1.075.058-2.138.064-3.202.021-3.242-.141-6.321-1.085-9.239-2.839l-6.966 11.578c4.478 2.757 9.071 4.291 13.786 4.613 2.806.194 5.763.079 8.873-.338.966 3.582 4.668 5.769 8.285 4.868 3.669-.914 5.918-4.662 5.006-8.326l-.023-.093c1.275-.564 2.497-1.194 3.667-1.886 3.086-1.821 5.608-3.982 7.577-6.479 1.97-2.497 3.299-5.291 3.989-8.38.69-3.09.587-6.419-.302-9.989C271.134 223.484 269.953 220.645 268.41 218.253z"/></g><g><circle style="fill:#78743D;" cx="125.344" cy="258.255" r="23.609"/></g><g><path style="fill:#78743D;" d="M61.715 158.487c-.066 7.673-1.786 15.148-4.829 21.96-.86 1.985-1.852 3.903-2.91 5.756-.992 1.654-2.051 3.307-3.241 4.828-6.681 9.26-16.272 16.471-27.848 20.308-1.323.463-2.646.859-4.035 1.19h-.066c-1.389.331-2.778.661-4.101.86L0 154.452l39.225-9.79 4.101-.992 4.167-1.059 11.444-2.844c.463 1.323.86 2.712 1.19 4.101.331 1.389.595 2.779.86 4.167C61.583 151.542 61.847 155.048 61.715 158.487z"/></g><g><path style="fill:#78743D;" d="M117.146 373.464l-47.758 11.907-11.245 2.779-4.63-18.654-10.055-40.349c1.389-.396 2.712-.794 4.101-1.125 1.389-.397 2.778-.661 4.167-.925 11.972-2.051 23.813-.132 34.132 4.895 3.242 1.521 6.284 3.373 9.128 5.555 9.128 6.681 16.272 16.206 20.043 27.65.463 1.323.86 2.712 1.191 4.101C116.617 370.686 116.881 372.075 117.146 373.464z"/></g><g><path style="fill:#78743D;" d="M424.264 48.799l14.679 58.951c-1.341.441-2.701.838-4.085 1.183-1.393.347-2.782.634-4.163.871-27.579 4.736-54.58-11.498-63.329-38.078-.441-1.34-.838-2.701-1.183-4.085-.345-1.384-.632-2.772-.871-4.163l58.952-14.679z"/></g><g><path style="fill:#78743D;" d="M467.772 223.526l14.679 58.951-58.951 14.68c-.441-1.34-.838-2.701-1.182-4.085-.345-1.384-.632-2.772-.871-4.163-4.736-27.579 11.499-54.579 38.078-63.329 1.331-.438 2.692-.836 4.085-1.182C464.993 224.053 466.382 223.766 467.772 223.526z"/></g><g><circle style="fill:#78743D;" cx="357.673" cy="200.403" r="23.609"/></g></g></g><path style="opacity:0.06;fill:#040000;" d="M497.29 182.789l-28.773-115.75-12.502-50.206-2.183-8.798-5.011 1.253L63.167 394.943l6.221-1.537 47.758-11.907 306.326-76.332.02-.005c.003.01.006.019.009.031l58.952-14.68-.006-.024.029-.007-9.723-38.961 23.03-5.747L512 241.735l-14.679-58.952C497.31 182.784 497.3 182.788 497.29 182.789z"/></g></svg>