<svg id="Uploaded to svgrepo.com" xmlns="http://www.w3.org/2000/svg" width="800" height="800" viewBox="0 0 32 32"><style>.isometric_acht{fill:#F05A28;}
.isometric_negen{fill:#BE1E2D;}
.isometric_tien{fill:#7BD6C4;}
.isometric_twaalf{fill:#569080;}
.isometric_dertien{fill:#225B49;}
.st0{fill:#FF7344;}
.st1{fill:#72C0AB;}
.st2{fill:#F29227;}
.st3{fill:#225B49;}
.st4{fill:#F28103;}
.st5{fill:#F8F7C5;}
.st6{fill:#BE1E2D;}
.st7{fill:#AD9A74;}
.st8{fill:#F2D76C;}
.st9{fill:#F5DF89;}
.st10{fill:#7BD6C4;}
.st11{fill:#80CCBE;}</style><g><path class="isometric_negen" d="M7.567 17.033c-2.318-1.338-3.493-3.083-3.534-4.831C4.015 13.619 4 18.612 4.043 19.3c.107 1.689 1.282 3.362 3.524 4.656 5.304 3.062 14.195 2.647 18.423-1.002V16.03c-4.234 3.655-13.126 4.061-18.423 1.003z"/><path class="isometric_acht" d="M16.217 12.091l8.356-4.765c-.032-.019-.059-.04-.092-.059-4.7-2.714-12.297-2.727-16.967-.031s-4.647 7.083.053 9.796c5.34 3.083 14.304 2.637 18.498-1.062L16.217 12.091z"/><path class="isometric_tien" d="M24.573 7.326l-8.356 4.765h11.776C27.951 10.37 26.824 8.655 24.573 7.326z"/><path class="isometric_twaalf" d="M16.217 12.091l9.848 3.88c1.181-1.041 1.824-2.227 1.929-3.428.013-.15.004-.301.0-.451H16.217z"/><path class="isometric_dertien" d="M27.993 12.091c.039 1.559-.764 2.852-1.929 3.88-.023.02-.051.039-.075.059v6.923c.023-.02.052-.039.075-.059 1.181-1.041 1.824-2.227 1.928-3.428C28.006 19.316 27.997 12.242 27.993 12.091z"/></g></svg>