<svg id="_x35_" xmlns="http://www.w3.org/2000/svg" viewBox="0 0 512 512"><g><path style="fill:#50555B;" d="M512 16.015v406.666H.239V65.175H0V19.52h.478C.16 18.406.0 17.209.0 16.015.0 7.17 7.171.0 16.015.0h479.97C504.829.0 512 7.17 512 16.015z"/><rect x="9.269" y="62.678" style="fill:#FFFFFF;" width="493.462" height="349.392"/><rect x="9.269" y="62.678" style="opacity:0.06;fill:#191919;" width="493.462" height="20.763"/><g><polygon style="fill:#F9CCAE;" points="462.397,115.971 462.397,178.019 420.747,178.019 379.338,216.11 311.44,153.665 273.396,188.647 237.87,188.647 237.87,115.971"/><polygon style="fill:#F4A891;" points="462.397,178.019 462.397,247.189 237.87,247.189 237.87,188.647 273.396,188.647 311.44,153.665 379.338,216.11 420.747,178.019"/><polygon style="fill:#FBFAD5;" points="462.397,174.365 462.397,182.337 422.755,182.337 379.423,222.075 311.326,159.631 274.966,192.965 237.87,192.965 237.87,184.994 271.36,184.994 311.326,148.364 379.423,210.808 419.149,174.365"/><ellipse style="fill:#FFFFFD;" cx="312.427" cy="156.878" rx="7.995" ry="7.807"/><ellipse style="fill:#FFFFFD;" cx="420.747" cy="178.019" rx="7.995" ry="7.807"/><ellipse style="fill:#FFFFFD;" cx="379.251" cy="215.814" rx="7.995" ry="7.807"/><ellipse style="fill:#FFFFFD;" cx="274.243" cy="186.484" rx="7.995" ry="7.807"/></g><g><ellipse style="fill:#97CB78;" cx="125.815" cy="32.559" rx="12.141" ry="12.923"/><ellipse style="fill:#F7E778;" cx="81.65" cy="32.559" rx="12.141" ry="12.923"/><ellipse style="fill:#EB6D81;" cx="37.485" cy="32.559" rx="12.141" ry="12.923"/></g><g><g><rect x="53.699" y="305.567" style="opacity:0.5;fill:#95A8A5;" width="76.66" height="64.006"/><g style="opacity:0.5;"><rect x="142.537" y="356.288" style="fill:#95A8A5;" width="51.228" height="8.816"/><rect x="142.537" y="308.167" style="fill:#95A8A5;" width="105.815" height="9.216"/><rect x="142.537" y="332.127" style="fill:#95A8A5;" width="105.815" height="9.216"/></g></g><g><rect x="271.77" y="305.567" style="opacity:0.5;fill:#95A8A5;" width="76.66" height="64.006"/><g style="opacity:0.5;"><rect x="360.607" y="356.288" style="fill:#95A8A5;" width="51.228" height="8.816"/><rect x="360.607" y="308.167" style="fill:#95A8A5;" width="105.815" height="9.216"/><rect x="360.607" y="332.127" style="fill:#95A8A5;" width="105.815" height="9.216"/></g></g></g><g><path style="fill:#F4A24C;" d="M206.196 171.055c-3.329-14.232-10.237-27.39-19.96-38.229-9.73-10.846-22.283-19.363-36.956-24.252-1.514-.505-3.046-.978-4.604-1.404-13.785-3.769-27.696-3.962-40.773-1.183-15.467 3.287-29.758 10.751-41.264 21.503l63.837 64.49 78.9 21.573C209.31 199.163 209.372 184.628 206.196 171.055z"/><path style="fill:#F1EF84;" d="M205.375 213.554c3.935-14.391 3.996-28.926.821-42.499l-79.721 20.927 57.984 58.577C194.098 240.489 201.44 227.945 205.375 213.554z"/><path style="fill:#759EAC;" d="M98.992 274.254c-13.645-3.731-25.617-10.54-35.395-19.455-.11-.085-.206-.178-.303-.271-11.651-10.701-20.154-24.399-24.59-39.512-4.359-14.87-4.799-31.097-.411-47.145s13.023-29.793 24.341-40.377l63.841 64.488-22.805 83.408C102.111 275.051 100.55 274.68 98.992 274.254z"/><path style="fill:#85CDD9;" d="M103.67 275.389c15.116 3.257 30.262 2.31 44.152-2.073.123-.044.256-.085.379-.129 13.74-4.401 26.239-12.169 36.26-22.631l-57.682-58.27-.067-.24-.09.086-.147-.151-.113.413L63.597 254.8c9.778 8.914 21.75 15.724 35.395 19.455C100.55 274.68 102.111 275.051 103.67 275.389z"/></g><g><rect x="429.489" y="256.97" style="fill:#8FD1DA;" width="32.908" height="20.313"/><rect x="387.246" y="256.97" style="fill:#EFF09A;" width="32.908" height="20.313"/><rect x="345.004" y="256.97" style="fill:#F2B47D;" width="32.908" height="20.313"/><rect x="302.761" y="256.97" style="fill:#759EAC;" width="32.908" height="20.313"/></g></g></svg>