<svg height="800" width="800" id="_x35_" xmlns="http://www.w3.org/2000/svg" viewBox="0 0 512 512"><g><g><g><path style="fill:#90C428;" d="M466.131 370.8c-.758 1.674-1.549 3.334-2.348 4.991C464.586 374.133 465.37 372.47 466.131 370.8z"/><path style="fill:#90C428;" d="M335.897 494.238c-.402.161-.804.316-1.206.475C335.093 494.555 335.495 494.398 335.897 494.238z"/><path style="fill:#90C428;" d="M243.842 511.974c-1.216.001-2.432-.004-3.647-.021C241.411 511.968 242.626 511.977 243.842 511.974z"/><path style="fill:#90C428;" d="M258.258 511.544c-.105.006-.211.012-.316.018C258.046 511.557 258.152 511.551 258.258 511.544z"/><path style="fill:#90C428;" d="M251.104 511.859c-.691.021-1.383.039-2.074.054C249.722 511.898 250.413 511.881 251.104 511.859z"/><path style="fill:#90C428;" d="M466.639 369.664c10.715-23.869 17.093-48.842 19.33-73.944-.93 10.25-2.539 20.425-4.818 30.457C477.77 341.065 472.907 355.632 466.639 369.664z"/><path style="fill:#90C428;" d="M236.576 511.88c-1.738-.049-3.475-.111-5.209-.196C233.103 511.766 234.839 511.834 236.576 511.88z"/><path style="fill:#90C428;" d="M485.996 295.426c.107-1.215.235-2.43.322-3.645l-.055-.004C486.174 292.994 486.104 294.212 485.996 295.426z"/><path style="fill:#90C428;" d="M344.08 490.792c-1.003.445-2.01.873-3.017 1.303C342.072 491.667 343.077 491.234 344.08 490.792z"/><path style="fill:#90C428;" d="M353.56 486.36c18.901-9.309 36.689-21.085 52.812-35.235-9.829 8.596-20.504 16.53-32.011 23.675C367.553 479.025 360.609 482.87 353.56 486.36z"/><path style="fill:#90C428;" d="M460.748 381.85c.55-1.057 1.093-2.115 1.626-3.176C461.843 379.737 461.295 380.793 460.748 381.85z"/><path style="fill:#90C428;" d="M458.238 386.571c-.224.41-.452.817-.678 1.225C457.787 387.388 458.013 386.98 458.238 386.571z"/><path style="fill:#90C428;" d="M419.962 438.243c-.192.197-.379.397-.572.593C419.583 438.641 419.771 438.44 419.962 438.243z"/><path style="fill:#90C428;" d="M349.961 488.129c.786-.371 1.559-.772 2.341-1.151-1.638.799-3.285 1.565-4.934 2.326C348.231 488.908 349.103 488.534 349.961 488.129z"/><path style="fill:#90C428;" d="M226.218 511.416c1.033.07 2.066.104 3.1.161-1.034-.059-2.064-.143-3.096-.215L226.218 511.416z"/><path style="fill:#90C428;" d="M411.037 446.911c-1.333 1.229-2.664 2.459-4.03 3.662C408.365 449.373 409.703 448.146 411.037 446.911z"/><path style="fill:#90C428;" d="M415.517 442.666c-.738.716-1.464 1.44-2.212 2.148C414.049 444.107 414.781 443.383 415.517 442.666z"/><path style="fill:#E7669A;" d="M486.45 260.594c.007.102.013.205.019.308C486.463 260.799 486.457 260.697 486.45 260.594z"/><path style="fill:#E7669A;" d="M486.381 290.295c0 .456.0.986-.078 1.517h-.078C486.224 291.282 486.302 290.751 486.381 290.295z"/><path style="fill:#BDC03E;" d="M243.413 275.044l-1.325.228-6.938 1.289-15.823 3.035L8.787 319.128l-4.365.834c-3.586-18.057-4.989-36.495-4.209-55.009.078-2.276.234-4.475.39-6.752 2.884-40.138 16.291-80.124 41.157-115.936l179.283 118.061 10.757 7.132 5.613 3.642 4.755 3.111L243.413 275.044z"/><path style="fill:#EEDF95;" d="M260.64 38.62l-15.823 217.532-1.404 18.893-1.247-.835-4.755-3.111-5.613-3.642-10.757-7.132L41.759 142.264c3.04-4.325 6.236-8.574 9.51-12.67 23.463-29.516 52.927-52.278 85.666-67.681 19.176-9.104 39.52-15.63 60.332-19.574 20.345-3.794 41.235-5.085 62.048-3.794C259.783 38.545 260.172 38.62 260.64 38.62z"/><path style="fill:#F6C552;" d="M176.182 502.743c14.865 4.171 29.976 6.912 45.144 8.248-10.244-.915-20.414-2.445-30.444-4.604C185.944 505.324 181.044 504.102 176.182 502.743z"/><path style="fill:#F6C552;" d="M166.322 499.755c-1.739-.565-3.474-1.139-5.2-1.742C162.85 498.619 164.585 499.189 166.322 499.755z"/><path style="fill:#F6C552;" d="M153.87 495.37c.981.379 1.973.712 2.957 1.078-.984-.364-1.971-.718-2.951-1.095L153.87 495.37z"/><path style="fill:#F6C552;" d="M223.128 511.147c1.03.083 2.059.198 3.09.268l.004-.054C225.19 511.29 224.158 511.232 223.128 511.147z"/><path style="fill:#F6C552;" d="M174.919 502.388c-2.051-.585-4.094-1.201-6.13-1.839C170.828 501.19 172.871 501.802 174.919 502.388z"/><path style="fill:#F6C552;" d="M77.274 448.193c-1.993-1.815-3.969-3.653-5.907-5.541C73.299 444.526 75.268 446.373 77.274 448.193z"/><path style="fill:#F6C552;" d="M243.413 275.044 81.279 432.864l-7.483 7.284-2.494 2.429c-9.978-9.636-18.864-20.032-26.814-30.957-7.639-10.471-14.265-21.549-19.955-32.93-9.354-18.665-16.058-38.468-20.111-58.727l4.365-.834 210.54-39.531 15.823-3.035 6.938-1.289L243.413 275.044z"/><path style="fill:#F6C552;" d="M143.28 490.982c-.844-.37-1.686-.746-2.526-1.126C141.595 490.237 142.437 490.611 143.28 490.982z"/><path style="fill:#F6C552;" d="M118.585 478.434c-.066-.038-.132-.076-.197-.114C118.453 478.359 118.519 478.396 118.585 478.434z"/><path style="fill:#F6C552;" d="M153.239 495.116c.211.082.42.172.631.253l.007-.017C153.665 495.272 153.45 495.198 153.239 495.116z"/><path style="fill:#F6C552;" d="M88.904 458.095c-.766-.613-1.536-1.219-2.295-1.842C87.367 456.873 88.137 457.483 88.904 458.095z"/><path style="fill:#F6C552;" d="M151.389 494.374c-1.512-.6-3.019-1.213-4.52-1.843C148.371 493.164 149.879 493.773 151.389 494.374z"/><path style="fill:#F6C552;" d="M83.236 453.423c-1.337-1.14-2.67-2.286-3.984-3.458C80.564 451.13 81.892 452.283 83.236 453.423z"/><path style="fill:#F6C552;" d="M136.268 487.777c-.326-.155-.649-.316-.974-.472C135.619 487.462 135.942 487.622 136.268 487.777z"/><path style="opacity:0.16;fill:#040000;" d="M419.39 438.837c-1.274 1.299-2.574 2.563-3.873 3.829C416.822 441.399 418.119 440.128 419.39 438.837z"/><path style="opacity:0.16;fill:#040000;" d="M341.063 492.095c-1.716.729-3.435 1.452-5.167 2.142C337.625 493.545 339.346 492.829 341.063 492.095z"/><path style="opacity:0.16;fill:#040000;" d="M240.195 511.953c-1.206-.015-2.413-.041-3.619-.073C237.782 511.914 238.988 511.936 240.195 511.953z"/><path style="opacity:0.16;fill:#040000;" d="M258.258 511.544c25.832-1.509 51.641-7.047 76.433-16.832-14.573 5.722-29.658 10.063-45.033 12.956C279.297 509.619 268.807 510.913 258.258 511.544z"/><path style="opacity:0.16;fill:#040000;" d="M231.366 511.684c-.683-.033-1.366-.069-2.049-.107C230 511.616 230.683 511.651 231.366 511.684z"/><path style="opacity:0.16;fill:#040000;" d="M176.182 502.743c-.421-.118-.842-.234-1.263-.354C175.34 502.508 175.761 502.625 176.182 502.743z"/><path style="opacity:0.16;fill:#040000;" d="M223.128 511.147c-.601-.048-1.201-.104-1.802-.156C221.927 511.044 222.527 511.098 223.128 511.147z"/><path style="opacity:0.16;fill:#040000;" d="M459.477 384.333c.438-.822.843-1.657 1.271-2.483-.821 1.578-1.649 3.155-2.51 4.721C458.647 385.823 459.076 385.085 459.477 384.333z"/><path style="opacity:0.16;fill:#040000;" d="M419.962 438.243c14.964-15.31 27.532-32.304 37.597-50.447-3.771 6.764-7.903 13.415-12.422 19.923C437.491 418.729 429.055 428.906 419.962 438.243z"/><path style="opacity:0.16;fill:#040000;" d="M347.368 489.303c-1.094.501-2.187 1.004-3.288 1.489C345.179 490.305 346.274 489.808 347.368 489.303z"/><path style="opacity:0.16;fill:#040000;" d="M254.197 511.779c1.248-.052 2.496-.145 3.744-.216-2.276.133-4.556.225-6.837.296C252.135 511.829 253.165 511.822 254.197 511.779z"/><path style="opacity:0.16;fill:#040000;" d="M413.305 444.814c-.748.71-1.512 1.399-2.268 2.098C411.795 446.213 412.558 445.52 413.305 444.814z"/><path style="opacity:0.16;fill:#040000;" d="M249.03 511.914c-1.728.04-3.458.056-5.188.06C245.571 511.973 247.3 511.951 249.03 511.914z"/><path style="opacity:0.16;fill:#040000;" d="M88.904 458.095c9.361 7.496 19.216 14.247 29.483 20.225-3.801-2.216-7.562-4.545-11.278-6.99C100.767 467.157 94.71 462.728 88.904 458.095z"/><path style="opacity:0.16;fill:#040000;" d="M353.56 486.36c-.419.206-.837.415-1.258.618C352.722 486.773 353.141 486.567 353.56 486.36z"/><path style="opacity:0.16;fill:#040000;" d="M407.007 450.574c-.21.186-.425.365-.636.551C406.582 450.94 406.797 450.759 407.007 450.574z"/><path style="opacity:0.16;fill:#040000;" d="M466.639 369.664c-.17.379-.337.758-.509 1.136C466.302 370.422 466.47 370.043 466.639 369.664z"/><path style="opacity:0.16;fill:#040000;" d="M486.77 267.533c-.078-1.897-.156-3.718-.234-5.615.078.91.078 1.745.156 2.655C486.77 265.56 486.77 266.547 486.77 267.533z"/><path style="opacity:0.16;fill:#040000;" d="M485.996 295.426c-.009.098-.017.195-.026.293C485.979 295.622 485.987 295.524 485.996 295.426z"/><path style="opacity:0.16;fill:#040000;" d="M463.783 375.791c-.466.962-.93 1.925-1.41 2.883C462.851 377.716 463.319 376.754 463.783 375.791z"/><path style="opacity:0.16;fill:#040000;" d="M161.122 498.013c-1.436-.504-2.866-1.034-4.295-1.565C158.256 496.976 159.683 497.51 161.122 498.013z"/><path style="opacity:0.16;fill:#040000;" d="M146.869 492.531c-1.2-.505-2.395-1.024-3.589-1.549C144.474 491.505 145.668 492.027 146.869 492.531z"/><path style="opacity:0.16;fill:#040000;" d="M86.609 456.253c-1.139-.932-2.256-1.881-3.373-2.829C84.354 454.376 85.476 455.322 86.609 456.253z"/><path style="opacity:0.16;fill:#040000;" d="M131.135 485.289c1.376.695 2.771 1.348 4.158 2.016-5.644-2.727-11.219-5.677-16.709-8.871C122.711 480.832 126.884 483.142 131.135 485.289z"/><path style="opacity:0.16;fill:#040000;" d="M140.754 489.856c-1.499-.68-2.996-1.367-4.486-2.079C137.756 488.486 139.252 489.177 140.754 489.856z"/><path style="opacity:0.16;fill:#040000;" d="M168.79 500.549c-.824-.259-1.646-.527-2.467-.795C167.144 500.022 167.965 500.291 168.79 500.549z"/><path style="opacity:0.16;fill:#040000;" d="M153.239 495.116c-.618-.241-1.233-.496-1.85-.742C152.007 494.62 152.619 494.876 153.239 495.116z"/><path style="opacity:0.16;fill:#040000;" d="M79.251 449.966c-.663-.588-1.322-1.179-1.977-1.773C77.929 448.789 78.591 449.377 79.251 449.966z"/><path style="opacity:0.16;fill:#040000;" d="M71.293 442.582c.024.024.05.045.074.069C71.343 442.628 71.318 442.605 71.293 442.582z"/><path style="fill:#90C428;" d="M486.224 291.813c-.078 1.214-.156 2.428-.234 3.642v.228c-.234 2.58-.546 5.16-.858 7.739-.234 2.352-.623 4.704-1.013 7.132.0.304-.078.608-.155.987-.312 1.897-.624 3.87-1.013 5.842-.156.91-.312 1.821-.546 2.73-.312 1.897-.78 3.87-1.169 5.767.0.076-.078.228-.078.304-.078.152-.078.38-.156.532-.702 3.262-1.559 6.524-2.416 9.787-.234.759-.39 1.442-.624 2.125-.624 2.124-1.247 4.249-1.949 6.297-.624 2.125-1.325 4.173-2.027 6.222-2.182 6.221-4.599 12.443-7.327 18.513-.155.38-.39.759-.546 1.138-.779 1.669-1.559 3.339-2.338 5.008-.468.91-.935 1.897-1.403 2.882l-1.637 3.188c-.779 1.517-1.637 3.11-2.494 4.703-.234.38-.468.835-.701 1.214-1.559 2.807-3.196 5.691-4.989 8.498-2.338 3.87-4.755 7.663-7.405 11.457-1.559 2.201-3.118 4.401-4.755 6.601-1.013 1.366-2.105 2.731-3.118 4.098-.858 1.138-1.715 2.2-2.651 3.263-1.247 1.593-2.494 3.11-3.819 4.627-3.43 4.098-7.094 8.119-10.835 11.913-.234.228-.39.38-.546.607-1.325 1.29-2.572 2.579-3.897 3.794-.779.759-1.481 1.442-2.182 2.125-.78.759-1.559 1.442-2.339 2.125-1.325 1.214-2.65 2.504-3.975 3.642-.234.227-.468.379-.624.607-2.572 2.277-5.222 4.477-7.951 6.602-2.416 1.972-4.911 3.869-7.483 5.766-2.651 1.973-5.379 3.946-8.107 5.767-2.806 1.897-5.612 3.718-8.496 5.54-3.196 1.972-6.392 3.869-9.666 5.615-3.741 2.124-7.405 4.097-11.147 5.918-.39.228-.857.455-1.247.607-1.637.835-3.274 1.594-4.911 2.353-1.091.456-2.183.986-3.352 1.441-.935.456-1.949.911-2.962 1.366-1.715.683-3.43 1.442-5.222 2.125-.39.151-.78.303-1.169.455-3.586 1.442-7.249 2.808-10.913 4.022-2.962.986-5.846 1.897-8.808 2.731-1.793.607-3.664 1.138-5.535 1.594-2.183.683-4.287 1.213-6.47 1.745-1.091.304-2.182.531-3.196.759-2.962.683-5.846 1.29-8.808 1.821-.468.152-.857.228-1.325.303-1.404.304-2.885.532-4.288.76-2.026.38-4.131.683-6.236.986-6.938.986-13.875 1.745-20.89 2.124h-.312c-2.261.152-4.521.228-6.781.304-.702.0-1.404.076-2.105.076-1.715.0-3.43.076-5.222.076-1.169.0-2.416.0-3.586-.076-1.247.0-2.416.0-3.663-.076-1.715.0-3.43-.076-5.223-.152-.623-.076-1.325-.076-2.027-.152-1.013.0-2.026-.076-3.118-.151l1.403-18.818 15.823-217.531 240.706 16.616L486.224 291.813z"/><path style="opacity:0.16;fill:#040000;" d="M486.224 291.813c-.078 1.214-.156 2.428-.234 3.642v.228c-.234 2.58-.546 5.16-.858 7.739-.234 2.352-.623 4.704-1.013 7.132.0.304-.078.608-.155.987-.312 1.897-.624 3.87-1.013 5.842-.156.91-.312 1.821-.546 2.73-.312 1.897-.78 3.87-1.169 5.767.0.076-.078.228-.078.304-.078.152-.078.38-.156.532-.702 3.262-1.559 6.524-2.416 9.787-.234.759-.39 1.442-.624 2.125-.624 2.124-1.247 4.249-1.949 6.297-.624 2.125-1.325 4.173-2.027 6.222-2.182 6.221-4.599 12.443-7.327 18.513-.155.38-.39.759-.546 1.138-.779 1.669-1.559 3.339-2.338 5.008-.468.91-.935 1.897-1.403 2.882l-1.637 3.188c-.779 1.517-1.637 3.11-2.494 4.703-.234.38-.468.835-.701 1.214-1.559 2.807-3.196 5.691-4.989 8.498-2.338 3.87-4.755 7.663-7.405 11.457-1.559 2.201-3.118 4.401-4.755 6.601-1.013 1.366-2.105 2.731-3.118 4.098-.858 1.138-1.715 2.2-2.651 3.263-1.247 1.593-2.494 3.11-3.819 4.627-3.43 4.098-7.094 8.119-10.835 11.913-.234.228-.39.38-.546.607-1.325 1.29-2.572 2.579-3.897 3.794-.779.759-1.481 1.442-2.182 2.125-.78.759-1.559 1.442-2.339 2.125-1.325 1.214-2.65 2.504-3.975 3.642-.234.227-.468.379-.624.607-2.572 2.277-5.222 4.477-7.951 6.602-2.416 1.972-4.911 3.869-7.483 5.766-2.651 1.973-5.379 3.946-8.107 5.767-2.806 1.897-5.612 3.718-8.496 5.54-3.196 1.972-6.392 3.869-9.666 5.615-3.741 2.124-7.405 4.097-11.147 5.918-.39.228-.857.455-1.247.607-1.637.835-3.274 1.594-4.911 2.353-1.091.456-2.183.986-3.352 1.441-.935.456-1.949.911-2.962 1.366-1.715.683-3.43 1.442-5.222 2.125-.39.151-.78.303-1.169.455-3.586 1.442-7.249 2.808-10.913 4.022-2.962.986-5.846 1.897-8.808 2.731-1.793.607-3.664 1.138-5.535 1.594-2.183.683-4.287 1.213-6.47 1.745-1.091.304-2.182.531-3.196.759-2.962.683-5.846 1.29-8.808 1.821-.468.152-.857.228-1.325.303-1.404.304-2.885.532-4.288.76-2.026.38-4.131.683-6.236.986-6.938.986-13.875 1.745-20.89 2.124h-.312c-2.261.152-4.521.228-6.781.304-.702.0-1.404.076-2.105.076-1.715.0-3.43.076-5.222.076-1.169.0-2.416.0-3.586-.076-1.247.0-2.416.0-3.663-.076-1.715.0-3.43-.076-5.223-.152-.623-.076-1.325-.076-2.027-.152-1.013.0-2.026-.076-3.118-.151l1.403-18.818 15.823-217.531 240.706 16.616L486.224 291.813z"/><g><path style="fill:#E7669A;" d="M487.27 157.377c.458.978.899 1.96 1.341 2.942C488.171 159.336 487.725 158.355 487.27 157.377z"/><path style="fill:#E7669A;" d="M484.535 151.654c-.381-.765-.792-1.517-1.182-2.279.821 1.594 1.608 3.197 2.389 4.802C485.335 153.338 484.952 152.49 484.535 151.654z"/><path style="fill:#E7669A;" d="M490.809 165.34c.166.394.327.789.492 1.183C491.137 166.128 490.974 165.734 490.809 165.34z"/><path style="fill:#E7669A;" d="M482.717 148.151c-11.422-21.974-26.461-42.402-44.95-60.368 12.24 11.938 23.372 25.314 33.074 40.12C475.182 134.53 479.132 141.289 482.717 148.151z"/><path style="opacity:0.16;fill:#040000;" d="M488.612 160.319c.748 1.668 1.489 3.338 2.197 5.021C490.099 163.661 489.364 161.988 488.612 160.319z"/><path style="opacity:0.16;fill:#040000;" d="M508.591 240.917c-1.55-25.142-7.239-50.264-17.29-74.394 5.877 14.184 10.336 28.866 13.308 43.829C506.612 220.438 507.942 230.649 508.591 240.917z"/><path style="opacity:0.16;fill:#040000;" d="M482.717 148.151c.212.408.426.815.636 1.224C483.142 148.967 482.93 148.559 482.717 148.151z"/><path style="opacity:0.16;fill:#040000;" d="M485.741 154.178c.515 1.064 1.031 2.128 1.529 3.199C486.77 156.308 486.259 155.242 485.741 154.178z"/><path style="opacity:0.16;fill:#040000;" d="M437.743 87.76c.008.008.016.016.024.024C437.759 87.776 437.751 87.768 437.743 87.76z"/><g><path style="fill:#E7669A;" d="M355.192 26.328 272.41 229.824l-2.806 6.904-4.053 9.94.779-10.168v-.758l.156-1.366 16.369-224.057c23.151 1.594 46.302 6.449 68.673 14.72C352.776 25.418 353.945 25.872 355.192 26.328z"/><path style="fill:#E7669A;" d="M437.742 79.123c-10.786-10.478-22.722-20.133-35.816-28.749-14.957-9.842-30.643-17.816-46.76-24.039l-89.578 220.359L437.742 79.123z"/><path style="fill:#E7669A;" d="M509.063 246.288c0 1.214.0 2.352-.078 3.566.0 1.214.0 2.353-.078 3.567.0 1.669-.078 3.338-.156 5.008-.078.683-.078 1.365-.156 2.049.0.985-.156 1.972-.156 2.958l-21.592-1.517h-.312L265.55 246.668 433.999 82.703l3.742-3.567c11.614 11.305 22.293 24.053 31.647 38.013.545.684 1.013 1.442 1.481 2.125 4.287 6.601 8.263 13.354 11.848 20.259.234.379.39.835.624 1.214.857 1.593 1.637 3.186 2.416 4.779.468 1.063 1.013 2.125 1.481 3.187l1.403 2.959c.702 1.669 1.481 3.338 2.183 5.008.156.379.312.835.468 1.214 5.924 14.188 10.367 28.832 13.329 43.855 2.027 10.015 3.352 20.259 3.975 30.502v.304c.156 2.276.234 4.476.312 6.677.0.683.078 1.365.078 2.049v1.821C509.063 244.163 509.063 245.226 509.063 246.288z"/><path style="opacity:0.16;fill:#040000;" d="M509.063 246.288c0 1.214.0 2.352-.078 3.566.0 1.214.0 2.353-.078 3.567.0 1.669-.078 3.338-.156 5.008-.078.683-.078 1.365-.156 2.049.0.985-.156 1.972-.156 2.958l-21.592-1.517h-.312L265.55 246.668 433.999 82.703l3.742-3.567c11.614 11.305 22.293 24.053 31.647 38.013.545.684 1.013 1.442 1.481 2.125 4.287 6.601 8.263 13.354 11.848 20.259.234.379.39.835.624 1.214.857 1.593 1.637 3.186 2.416 4.779.468 1.063 1.013 2.125 1.481 3.187l1.403 2.959c.702 1.669 1.481 3.338 2.183 5.008.156.379.312.835.468 1.214 5.924 14.188 10.367 28.832 13.329 43.855 2.027 10.015 3.352 20.259 3.975 30.502v.304c.156 2.276.234 4.476.312 6.677.0.683.078 1.365.078 2.049v1.821C509.063 244.163 509.063 245.226 509.063 246.288z"/></g></g><path style="fill:#F6C552;" d="M243.448 275.009l-89.572 220.343c.979.377 1.967.73 2.951 1.095 1.43.531 2.859 1.062 4.295 1.565 1.726.603 3.461 1.178 5.2 1.742.822.268 1.644.536 2.467.795 2.036.638 4.078 1.254 6.13 1.839.42.12.842.236 1.263.354 4.862 1.359 9.763 2.581 14.7 3.644 10.03 2.159 20.2 3.689 30.444 4.604.601.053 1.201.108 1.802.156 1.03.085 2.063.143 3.094.215L243.448 275.009z"/><path style="opacity:0.16;fill:#040000;" d="M243.448 275.009l-89.572 220.343c.979.377 1.967.73 2.951 1.095 1.43.531 2.859 1.062 4.295 1.565 1.726.603 3.461 1.178 5.2 1.742.822.268 1.644.536 2.467.795 2.036.638 4.078 1.254 6.13 1.839.42.12.842.236 1.263.354 4.862 1.359 9.763 2.581 14.7 3.644 10.03 2.159 20.2 3.689 30.444 4.604.601.053 1.201.108 1.802.156 1.03.085 2.063.143 3.094.215L243.448 275.009z"/><path style="fill:#F6C552;" d="M243.448 275.009 71.294 442.582c.024.024.049.047.073.07 1.938 1.888 3.914 3.726 5.907 5.541.655.594 1.314 1.185 1.977 1.773 1.315 1.171 2.647 2.318 3.984 3.458 1.117.949 2.234 1.898 3.373 2.829.759.623 1.53 1.229 2.295 1.842 5.806 4.633 11.863 9.062 18.206 13.236 3.716 2.445 7.477 4.773 11.278 6.99.066.038.131.076.197.114 5.489 3.194 11.065 6.145 16.709 8.871.325.157.648.317.974.472 1.49.712 2.987 1.399 4.486 2.079.84.38 1.682.756 2.526 1.126 1.194.525 2.39 1.044 3.589 1.549 1.5.63 3.008 1.243 4.52 1.843.617.246 1.231.501 1.85.742.211.082.426.155.637.236l89.573-220.344z"/><path style="opacity:0.16;fill:#040000;" d="M243.448 275.009 71.294 442.582c.024.024.049.047.073.07 1.938 1.888 3.914 3.726 5.907 5.541.655.594 1.314 1.185 1.977 1.773 1.315 1.171 2.647 2.318 3.984 3.458 1.117.949 2.234 1.898 3.373 2.829.759.623 1.53 1.229 2.295 1.842 5.806 4.633 11.863 9.062 18.206 13.236 3.716 2.445 7.477 4.773 11.278 6.99.066.038.131.076.197.114 5.489 3.194 11.065 6.145 16.709 8.871.325.157.648.317.974.472 1.49.712 2.987 1.399 4.486 2.079.84.38 1.682.756 2.526 1.126 1.194.525 2.39 1.044 3.589 1.549 1.5.63 3.008 1.243 4.52 1.843.617.246 1.231.501 1.85.742.211.082.426.155.637.236l89.573-220.344z"/></g><g><path style="fill:#93B666;" d="M466.146 351.899c-.758 1.674-1.549 3.334-2.348 4.991C464.601 355.232 465.386 353.569 466.146 351.899z"/><path style="fill:#93B666;" d="M335.912 475.337c-.402.161-.804.316-1.206.475C335.108 475.654 335.511 475.497 335.912 475.337z"/><path style="fill:#93B666;" d="M243.857 493.073c-1.216.001-2.432-.004-3.647-.021C241.426 493.067 242.642 493.076 243.857 493.073z"/><path style="fill:#93B666;" d="M258.273 492.643c-.105.006-.211.012-.316.018C258.062 492.655 258.167 492.65 258.273 492.643z"/><path style="fill:#93B666;" d="M251.12 492.958c-.691.021-1.383.039-2.074.054C249.737 492.997 250.428 492.98 251.12 492.958z"/><path style="fill:#93B666;" d="M236.591 492.979c-1.737-.049-3.475-.111-5.209-.196C233.119 492.865 234.855 492.932 236.591 492.979z"/><path style="fill:#93B666;" d="M344.096 471.891c-1.003.445-2.01.873-3.017 1.303C342.087 472.766 343.093 472.333 344.096 471.891z"/><path style="fill:#93B666;" d="M353.575 467.458c18.901-9.309 36.689-21.085 52.812-35.235-9.829 8.596-20.504 16.531-32.011 23.675C367.569 460.124 360.625 463.969 353.575 467.458z"/><path style="fill:#93B666;" d="M460.763 362.949c.55-1.057 1.093-2.114 1.626-3.176C461.858 360.836 461.31 361.892 460.763 362.949z"/><path style="fill:#93B666;" d="M458.253 367.67c-.224.41-.452.817-.678 1.225C457.802 368.487 458.028 368.079 458.253 367.67z"/><path style="fill:#93B666;" d="M419.978 419.342c-.192.197-.379.397-.572.593C419.598 419.74 419.786 419.539 419.978 419.342z"/><path style="fill:#93B666;" d="M349.977 469.228c.786-.371 1.559-.771 2.341-1.151-1.638.799-3.285 1.565-4.934 2.325C348.247 470.007 349.118 469.633 349.977 469.228z"/><path style="fill:#93B666;" d="M226.233 492.515c1.033.07 2.066.104 3.1.161-1.033-.059-2.064-.143-3.096-.215L226.233 492.515z"/><path style="fill:#93B666;" d="M411.052 428.01c-1.333 1.229-2.664 2.459-4.03 3.662C408.38 430.472 409.719 429.245 411.052 428.01z"/><path style="fill:#93B666;" d="M415.532 423.765c-.737.716-1.464 1.44-2.212 2.148C414.064 425.206 414.796 424.482 415.532 423.765z"/><path style="fill:#934D83;" d="M486.907 255.737c.001 1.177-.004 2.354-.021 3.53C486.901 258.09 486.91 256.913 486.907 255.737z"/><path style="fill:#934D83;" d="M486.79 248.665c.021.665.04 1.331.055 1.996C486.829 249.996 486.812 249.331 486.79 248.665z"/><path style="fill:#934D83;" d="M486.466 241.693c.007.102.013.205.019.308C486.478 241.898 486.472 241.796 486.466 241.693z"/><path style="fill:#65C5E2;" d="M243.491 256.076l-22.449 4.25L4.422 301.069C2.084 289.157.681 277.093.213 264.953c-.39-8.573-.234-17.072.39-25.645 2.884-40.138 16.369-80.124 41.157-115.936l9.51 6.222L243.491 256.076z"/><path style="fill:#659595;" d="M260.753 19.727l-.304 3.187-.227 2.958-.455 6.45-.455 6.222-15.327 211.006-.531 6.525-11.002-7.284-132.249-87.028-21.245-13.962-22.686-14.871-5.007-3.338-4.78-3.112-4.704-3.11c12.292-17.679 26.632-33.157 42.414-46.587 7.511-6.297 15.403-12.14 23.597-17.45 9.333-6.146 19.121-11.609 29.136-16.314 19.196-9.105 39.531-15.63 60.32-19.575 18.437-3.49 37.254-4.856 56.147-4.097C255.821 19.424 258.325 19.576 260.753 19.727z"/><path style="fill:#EAEC81;" d="M176.197 483.842c14.865 4.171 29.976 6.912 45.144 8.248-10.244-.915-20.414-2.445-30.444-4.604C185.96 486.423 181.059 485.201 176.197 483.842z"/><path style="fill:#EAEC81;" d="M166.338 480.854c-1.739-.564-3.474-1.14-5.2-1.742C162.866 479.717 164.601 480.288 166.338 480.854z"/><path style="fill:#EAEC81;" d="M153.885 476.468c.981.379 1.973.712 2.957 1.078-.984-.364-1.971-.718-2.951-1.095L153.885 476.468z"/><path style="fill:#EAEC81;" d="M223.143 492.246c1.03.083 2.06.198 3.09.268l.004-.054C225.206 492.389 224.173 492.331 223.143 492.246z"/><path style="fill:#EAEC81;" d="M174.935 483.487c-2.051-.585-4.094-1.201-6.13-1.839C170.843 482.289 172.886 482.901 174.935 483.487z"/><path style="fill:#EAEC81;" d="M77.29 429.292c-1.993-1.815-3.969-3.653-5.907-5.541C73.314 425.625 75.284 427.472 77.29 429.292z"/><path style="fill:#EAEC81;" d="M4.443 301.089c4.024 20.261 10.756 40.011 20.074 58.699 11.627 23.321 27.31 44.968 46.793 63.893l172.154-167.572L4.443 301.089z"/><path style="fill:#EAEC81;" d="M143.296 472.081c-.844-.37-1.686-.746-2.526-1.126C141.61 471.336 142.452 471.71 143.296 472.081z"/><path style="fill:#EAEC81;" d="M118.6 459.533c-.066-.038-.132-.076-.197-.114C118.469 459.457 118.535 459.495 118.6 459.533z"/><path style="fill:#EAEC81;" d="M153.254 476.215c.211.082.42.172.631.253l.007-.017C153.68 476.37 153.466 476.297 153.254 476.215z"/><path style="fill:#EAEC81;" d="M88.92 439.194c-.766-.613-1.536-1.219-2.295-1.842C87.382 437.971 88.152 438.582 88.92 439.194z"/><path style="fill:#EAEC81;" d="M151.404 475.473c-1.512-.6-3.019-1.213-4.52-1.843C148.386 474.263 149.895 474.872 151.404 475.473z"/><path style="fill:#EAEC81;" d="M83.251 434.522c-1.338-1.14-2.67-2.287-3.984-3.458C80.579 432.229 81.907 433.382 83.251 434.522z"/><path style="fill:#EAEC81;" d="M136.283 468.876c-.326-.155-.649-.316-.974-.472C135.634 468.561 135.958 468.721 136.283 468.876z"/><path style="opacity:0.16;fill:#040000;" d="M419.406 419.935c-1.274 1.299-2.574 2.563-3.873 3.829C416.837 422.498 418.135 421.227 419.406 419.935z"/><path style="opacity:0.16;fill:#040000;" d="M341.079 473.194c-1.716.729-3.435 1.452-5.167 2.142C337.64 474.644 339.362 473.928 341.079 473.194z"/><path style="opacity:0.16;fill:#040000;" d="M240.21 493.052c-1.206-.015-2.412-.041-3.619-.073C237.797 493.013 239.003 493.035 240.21 493.052z"/><path style="opacity:0.16;fill:#040000;" d="M258.273 492.643c25.832-1.509 51.641-7.047 76.433-16.832-14.574 5.722-29.658 10.063-45.033 12.956C279.313 490.718 268.822 492.012 258.273 492.643z"/><path style="opacity:0.16;fill:#040000;" d="M231.382 492.783c-.683-.033-1.366-.069-2.049-.107C230.016 492.715 230.699 492.75 231.382 492.783z"/><path style="opacity:0.16;fill:#040000;" d="M176.197 483.842c-.421-.118-.842-.234-1.262-.355C175.355 483.607 175.776 483.724 176.197 483.842z"/><path style="opacity:0.16;fill:#040000;" d="M223.143 492.246c-.601-.048-1.201-.104-1.802-.157C221.942 492.143 222.542 492.197 223.143 492.246z"/><path style="opacity:0.16;fill:#040000;" d="M459.492 365.432c.438-.822.843-1.657 1.271-2.483-.822 1.578-1.649 3.155-2.51 4.721C458.662 366.922 459.092 366.184 459.492 365.432z"/><path style="opacity:0.16;fill:#040000;" d="M419.978 419.342c14.964-15.31 27.532-32.304 37.597-50.447-3.771 6.764-7.903 13.415-12.422 19.923C437.507 399.828 429.071 410.005 419.978 419.342z"/><path style="opacity:0.16;fill:#040000;" d="M347.384 470.402c-1.094.501-2.187 1.004-3.288 1.489C345.194 471.404 346.289 470.907 347.384 470.402z"/><path style="opacity:0.16;fill:#040000;" d="M254.212 492.878c1.248-.052 2.496-.145 3.744-.216-2.276.133-4.556.225-6.837.296C252.151 492.928 253.181 492.921 254.212 492.878z"/><path style="opacity:0.16;fill:#040000;" d="M413.32 425.912c-.748.71-1.512 1.399-2.268 2.098C411.81 427.312 412.574 426.619 413.32 425.912z"/><path style="opacity:0.16;fill:#040000;" d="M249.046 493.013c-1.729.04-3.458.056-5.188.061C245.586 493.072 247.315 493.05 249.046 493.013z"/><path style="opacity:0.16;fill:#040000;" d="M88.92 439.194c9.361 7.497 19.216 14.247 29.483 20.225-3.801-2.216-7.562-4.544-11.278-6.99C100.783 448.256 94.726 443.827 88.92 439.194z"/><path style="opacity:0.16;fill:#040000;" d="M353.575 467.458c-.419.206-.837.415-1.258.618C352.737 467.872 353.156 467.666 353.575 467.458z"/><path style="opacity:0.16;fill:#040000;" d="M407.022 431.673c-.21.186-.425.365-.636.551C406.598 432.039 406.812 431.858 407.022 431.673z"/><path style="opacity:0.16;fill:#040000;" d="M486.845 250.661c.041 1.691.058 3.383.062 5.075C486.906 254.045 486.883 252.354 486.845 250.661z"/><path style="opacity:0.16;fill:#040000;" d="M466.655 350.763c-.17.379-.337.758-.509 1.136C466.317 351.521 466.486 351.142 466.655 350.763z"/><path style="opacity:0.16;fill:#040000;" d="M486.707 245.646c-.054-1.215-.149-2.43-.222-3.645.137 2.219.232 4.441.306 6.664C486.758 247.659 486.751 246.652 486.707 245.646z"/><path style="opacity:0.16;fill:#040000;" d="M463.798 356.89c-.466.962-.93 1.925-1.41 2.883C462.866 358.815 463.334 357.853 463.798 356.89z"/><path style="opacity:0.16;fill:#040000;" d="M486.886 259.267c-.015 1.177-.042 2.355-.075 3.533C486.845 261.622 486.868 260.445 486.886 259.267z"/><path style="opacity:0.16;fill:#040000;" d="M161.137 479.111c-1.436-.503-2.866-1.034-4.295-1.565C158.272 478.075 159.699 478.609 161.137 479.111z"/><path style="opacity:0.16;fill:#040000;" d="M146.885 473.63c-1.2-.505-2.395-1.024-3.589-1.549C144.489 472.604 145.683 473.126 146.885 473.63z"/><path style="opacity:0.16;fill:#040000;" d="M86.625 437.352c-1.139-.931-2.256-1.881-3.373-2.829C84.369 435.475 85.491 436.421 86.625 437.352z"/><path style="opacity:0.16;fill:#040000;" d="M131.151 466.388c1.376.695 2.771 1.348 4.159 2.016-5.644-2.727-11.219-5.677-16.709-8.871C122.727 461.931 126.899 464.241 131.151 466.388z"/><path style="opacity:0.16;fill:#040000;" d="M140.769 470.955c-1.499-.68-2.996-1.367-4.486-2.079C137.772 469.585 139.268 470.276 140.769 470.955z"/><path style="opacity:0.16;fill:#040000;" d="M168.805 481.648c-.824-.259-1.646-.527-2.467-.795C167.16 481.121 167.98 481.39 168.805 481.648z"/><path style="opacity:0.16;fill:#040000;" d="M153.254 476.215c-.618-.241-1.233-.496-1.85-.742C152.022 475.719 152.635 475.975 153.254 476.215z"/><path style="opacity:0.16;fill:#040000;" d="M79.267 431.065c-.663-.588-1.322-1.179-1.977-1.773C77.945 429.888 78.606 430.476 79.267 431.065z"/><path style="opacity:0.16;fill:#040000;" d="M71.309 423.681c.024.024.05.045.074.069C71.358 423.727 71.334 423.704 71.309 423.681z"/><path style="fill:#93B666;" d="M486.302 272.844c-.078 1.214-.156 2.504-.312 3.718v.228c-.234 2.58-.546 5.159-.858 7.663-.312 2.428-.623 4.856-1.013 7.208.0.152.0.304-.078.456-.39 2.428-.78 4.78-1.247 7.132-.078.38-.078.76-.156 1.063-.468 2.276-.935 4.551-1.481 6.828.0.076.0.076.0.152.0.076.0.152-.078.228-.78 3.49-1.637 6.98-2.65 10.47-.078.456-.234.835-.312 1.215-.624 2.276-1.326 4.551-2.105 6.828-.624 2.125-1.325 4.173-2.027 6.222-2.182 6.221-4.599 12.443-7.327 18.513-.155.38-.312.759-.546 1.138-.701 1.669-1.481 3.339-2.338 5.008-.468.91-.935 1.897-1.403 2.882-.546 1.063-1.091 2.125-1.637 3.187-.779 1.518-1.637 3.111-2.494 4.704-.234.38-.468.836-.701 1.214-1.793 3.187-3.664 6.373-5.69 9.56-.078.303-.312.683-.546.986-1.949 3.186-3.975 6.297-6.158 9.332-1.871 2.655-3.741 5.311-5.612 7.815-.312.38-.546.683-.78.986-1.403 1.897-2.884 3.718-4.365 5.539-1.169 1.442-2.338 2.959-3.585 4.324-3.508 4.174-7.094 8.119-10.835 11.913-.156.152-.39.38-.546.607-1.325 1.29-2.572 2.504-3.897 3.794-.701.759-1.481 1.442-2.182 2.125-.78.759-1.559 1.442-2.261 2.124-1.325 1.215-2.728 2.428-4.053 3.643-.234.227-.468.379-.624.607-2.65 2.277-5.301 4.553-8.029 6.677-2.26 1.821-4.521 3.567-6.859 5.312-.39.303-.701.531-1.091.834-2.495 1.822-4.989 3.567-7.561 5.312-2.806 1.897-5.612 3.718-8.496 5.539-3.196 1.973-6.392 3.87-9.666 5.616-3.663 2.124-7.405 4.097-11.147 5.917-.39.228-.779.379-1.247.607-1.637.835-3.274 1.594-4.911 2.352-1.091.456-2.183.986-3.274 1.441l-3.04 1.366c-1.715.683-3.43 1.442-5.144 2.125-.39.151-.858.303-1.247.455-3.586 1.442-7.249 2.732-10.913 4.022-.156.0-.312.076-.468.152-3.585 1.213-7.171 2.277-10.757 3.338-.078.0-.078.0-.156.0-3.274.987-6.548 1.897-9.822 2.656-.935.228-1.871.455-2.806.683-3.196.759-6.314 1.442-9.51 1.973-.234.075-.39.075-.623.151-.078.0-.234.076-.312.076-1.481.304-2.962.532-4.521.759-1.871.38-3.663.607-5.534.91-6.938.986-13.953 1.745-20.968 2.124h-.312c-2.339.152-4.599.228-6.859.304-.702.0-1.404.076-2.105.076-1.715.0-3.43.0-5.145.076-1.247.0-2.494-.076-3.663-.076-1.247.0-2.416.0-3.663-.076-1.715.0-3.43-.076-5.145-.152-.701-.076-1.403-.076-2.105-.152-.545.0-1.091-.076-1.715-.076-.39-.076-.857-.151-1.325-.151l15.59-213.435.156-2.58.078-1.137.078-1.062 1.325-18.134 1.326.076 241.483 16.69z"/><path style="opacity:0.16;fill:#040000;" d="M486.302 272.844c-.078 1.214-.156 2.504-.312 3.718v.228c-.234 2.58-.546 5.159-.858 7.663-.312 2.428-.623 4.856-1.013 7.208.0.152.0.304-.078.456-.39 2.428-.78 4.78-1.247 7.132-.078.38-.078.76-.156 1.063-.468 2.276-.935 4.551-1.481 6.828.0.076.0.076.0.152.0.076.0.152-.078.228-.78 3.49-1.637 6.98-2.65 10.47-.078.456-.234.835-.312 1.215-.624 2.276-1.326 4.551-2.105 6.828-.624 2.125-1.325 4.173-2.027 6.222-2.182 6.221-4.599 12.443-7.327 18.513-.155.38-.312.759-.546 1.138-.701 1.669-1.481 3.339-2.338 5.008-.468.91-.935 1.897-1.403 2.882-.546 1.063-1.091 2.125-1.637 3.187-.779 1.518-1.637 3.111-2.494 4.704-.234.38-.468.836-.701 1.214-1.793 3.187-3.664 6.373-5.69 9.56-.078.303-.312.683-.546.986-1.949 3.186-3.975 6.297-6.158 9.332-1.871 2.655-3.741 5.311-5.612 7.815-.312.38-.546.683-.78.986-1.403 1.897-2.884 3.718-4.365 5.539-1.169 1.442-2.338 2.959-3.585 4.324-3.508 4.174-7.094 8.119-10.835 11.913-.156.152-.39.38-.546.607-1.325 1.29-2.572 2.504-3.897 3.794-.701.759-1.481 1.442-2.182 2.125-.78.759-1.559 1.442-2.261 2.124-1.325 1.215-2.728 2.428-4.053 3.643-.234.227-.468.379-.624.607-2.65 2.277-5.301 4.553-8.029 6.677-2.26 1.821-4.521 3.567-6.859 5.312-.39.303-.701.531-1.091.834-2.495 1.822-4.989 3.567-7.561 5.312-2.806 1.897-5.612 3.718-8.496 5.539-3.196 1.973-6.392 3.87-9.666 5.616-3.663 2.124-7.405 4.097-11.147 5.917-.39.228-.779.379-1.247.607-1.637.835-3.274 1.594-4.911 2.352-1.091.456-2.183.986-3.274 1.441l-3.04 1.366c-1.715.683-3.43 1.442-5.144 2.125-.39.151-.858.303-1.247.455-3.586 1.442-7.249 2.732-10.913 4.022-.156.0-.312.076-.468.152-3.585 1.213-7.171 2.277-10.757 3.338-.078.0-.078.0-.156.0-3.274.987-6.548 1.897-9.822 2.656-.935.228-1.871.455-2.806.683-3.196.759-6.314 1.442-9.51 1.973-.234.075-.39.075-.623.151-.078.0-.234.076-.312.076-1.481.304-2.962.532-4.521.759-1.871.38-3.663.607-5.534.91-6.938.986-13.953 1.745-20.968 2.124h-.312c-2.339.152-4.599.228-6.859.304-.702.0-1.404.076-2.105.076-1.715.0-3.43.0-5.145.076-1.247.0-2.494-.076-3.663-.076-1.247.0-2.416.0-3.663-.076-1.715.0-3.43-.076-5.145-.152-.701-.076-1.403-.076-2.105-.152-.545.0-1.091-.076-1.715-.076-.39-.076-.857-.151-1.325-.151l15.59-213.435.156-2.58.078-1.137.078-1.062 1.325-18.134 1.326.076 241.483 16.69z"/><g><path style="fill:#934D83;" d="M355.216 16.085l-3.718 8.954-8.346 20.638-2.2 5.387-74.433 183.313-.91 2.048 14.719-202.204.683-8.726L282.832.0c24.508 1.669 48.863 6.98 72.384 16.085z"/><path style="fill:#934D83;" d="M487.286 138.476c.457.978.899 1.96 1.341 2.942C488.186 140.435 487.741 139.454 487.286 138.476z"/><path style="fill:#934D83;" d="M484.55 132.753c-.381-.765-.792-1.517-1.182-2.278.821 1.594 1.608 3.197 2.389 4.802C485.351 134.437 484.967 133.589 484.55 132.753z"/><path style="fill:#934D83;" d="M490.824 146.439c.167.394.327.788.492 1.183C491.153 147.227 490.99 146.833 490.824 146.439z"/><path style="fill:#934D83;" d="M482.732 129.25c-11.422-21.974-26.461-42.402-44.95-60.367 12.24 11.938 23.372 25.314 33.074 40.12C475.197 115.629 479.147 122.388 482.732 129.25z"/><path style="fill:#934D83;" d="M437.74 68.895l-5.378 5.235-3.586 3.49L265.629 236.424l.857-2.048 85.043-209.337 3.663-8.954c6.314 2.428 12.55 5.16 18.708 8.118 9.588 4.629 18.942 9.94 28.062 15.934C415.057 48.711 426.983 58.347 437.74 68.895z"/><path style="opacity:0.16;fill:#040000;" d="M488.627 141.418c.748 1.668 1.489 3.338 2.197 5.021C490.114 144.76 489.38 143.087 488.627 141.418z"/><path style="opacity:0.16;fill:#040000;" d="M508.606 222.016c-1.55-25.142-7.239-50.264-17.29-74.394 5.877 14.184 10.336 28.866 13.309 43.829C506.628 201.536 507.958 211.748 508.606 222.016z"/><path style="opacity:0.16;fill:#040000;" d="M482.732 129.25c.212.408.426.815.636 1.224C483.158 130.066 482.946 129.658 482.732 129.25z"/><path style="opacity:0.16;fill:#040000;" d="M485.757 135.277c.515 1.064 1.031 2.129 1.529 3.199C486.786 137.407 486.275 136.341 485.757 135.277z"/><path style="opacity:0.16;fill:#040000;" d="M437.758 68.859c.008.008.016.016.024.024C437.774 68.875 437.766 68.867 437.758 68.859z"/><path style="fill:#934D83;" d="M509.063 236.045v3.567c-.078.91-.078 1.821-.078 2.73v.76c-.078 1.745-.156 3.414-.234 5.083.0.684-.078 1.366-.078 1.973-.078 1.062-.156 2.049-.234 3.035l-21.592-1.518-211.476-14.567-5.768-.38-3.274-.228-.701-.076L428.776 77.619l3.586-3.49 5.378-5.235s0 0 .078.0c2.728 2.655 5.456 5.463 8.029 8.269 1.169 1.139 2.26 2.353 3.274 3.567 2.183 2.352 4.21 4.78 6.236 7.284 2.729 3.263 5.379 6.677 7.951 10.167 2.572 3.491 5.145 7.133 7.561 10.85 1.091 1.669 2.182 3.339 3.196 5.008 3.118 5.007 5.924 10.091 8.652 15.175.234.455.468.835.624 1.289.078.152.156.304.234.456.78 1.441 1.481 2.883 2.183 4.325.546 1.061 1.013 2.124 1.559 3.186.39.986.857 1.973 1.325 2.959.702 1.669 1.481 3.339 2.183 5.008.156.379.312.758.468 1.213 1.481 3.49 2.884 7.057 4.131 10.623 1.013 2.883 1.949 5.691 2.806 8.574.624 1.745 1.169 3.566 1.637 5.387.702 2.049 1.247 4.173 1.793 6.298.312 1.061.546 2.125.78 3.186.701 2.656 1.325 5.387 1.793 8.119.156.531.312 1.061.39 1.593.234 1.365.546 2.656.78 4.022.39 2.125.701 4.325 1.013 6.449 1.091 6.677 1.793 13.354 2.182 20.107v.304c.156 2.2.234 4.476.312 6.676.078.684.078 1.366.078 1.973C509.063 232.706 509.063 234.376 509.063 236.045z"/><path style="opacity:0.16;fill:#040000;" d="M509.063 236.045v3.567c-.078.91-.078 1.821-.078 2.73v.76c-.078 1.745-.156 3.414-.234 5.083.0.684-.078 1.366-.078 1.973-.078 1.062-.156 2.049-.234 3.035l-21.592-1.518-211.476-14.567-5.768-.38-3.274-.228-.701-.076L428.776 77.619l3.586-3.49 5.378-5.235s0 0 .078.0c2.728 2.655 5.456 5.463 8.029 8.269 1.169 1.139 2.26 2.353 3.274 3.567 2.183 2.352 4.21 4.78 6.236 7.284 2.729 3.263 5.379 6.677 7.951 10.167 2.572 3.491 5.145 7.133 7.561 10.85 1.091 1.669 2.182 3.339 3.196 5.008 3.118 5.007 5.924 10.091 8.652 15.175.234.455.468.835.624 1.289.078.152.156.304.234.456.78 1.441 1.481 2.883 2.183 4.325.546 1.061 1.013 2.124 1.559 3.186.39.986.857 1.973 1.325 2.959.702 1.669 1.481 3.339 2.183 5.008.156.379.312.758.468 1.213 1.481 3.49 2.884 7.057 4.131 10.623 1.013 2.883 1.949 5.691 2.806 8.574.624 1.745 1.169 3.566 1.637 5.387.702 2.049 1.247 4.173 1.793 6.298.312 1.061.546 2.125.78 3.186.701 2.656 1.325 5.387 1.793 8.119.156.531.312 1.061.39 1.593.234 1.365.546 2.656.78 4.022.39 2.125.701 4.325 1.013 6.449 1.091 6.677 1.793 13.354 2.182 20.107v.304c.156 2.2.234 4.476.312 6.676.078.684.078 1.366.078 1.973C509.063 232.706 509.063 234.376 509.063 236.045z"/></g><path style="fill:#EAEC81;" d="M243.463 256.108l-89.572 220.343c.979.377 1.967.73 2.951 1.095 1.43.531 2.859 1.062 4.295 1.565 1.726.603 3.461 1.178 5.2 1.742.822.268 1.644.536 2.467.795 2.036.638 4.078 1.253 6.13 1.839.42.12.842.236 1.262.355 4.862 1.359 9.763 2.581 14.7 3.644 10.03 2.159 20.201 3.689 30.444 4.604.601.053 1.201.108 1.802.157 1.03.084 2.063.143 3.094.215L243.463 256.108z"/><path style="opacity:0.16;fill:#040000;" d="M243.463 256.108l-89.572 220.343c.979.377 1.967.73 2.951 1.095 1.43.531 2.859 1.062 4.295 1.565 1.726.603 3.461 1.178 5.2 1.742.822.268 1.644.536 2.467.795 2.036.638 4.078 1.253 6.13 1.839.42.12.842.236 1.262.355 4.862 1.359 9.763 2.581 14.7 3.644 10.03 2.159 20.201 3.689 30.444 4.604.601.053 1.201.108 1.802.157 1.03.084 2.063.143 3.094.215L243.463 256.108z"/><path style="fill:#EAEC81;" d="M243.463 256.108 71.31 423.681c.024.024.049.047.073.07 1.938 1.888 3.914 3.726 5.907 5.541.655.594 1.314 1.185 1.977 1.773 1.315 1.171 2.647 2.318 3.984 3.458 1.117.949 2.234 1.898 3.373 2.829.759.623 1.53 1.229 2.295 1.842 5.806 4.633 11.863 9.062 18.206 13.236 3.716 2.445 7.477 4.773 11.278 6.99.065.038.131.076.197.114 5.49 3.194 11.065 6.145 16.709 8.871.325.157.648.317.974.472 1.49.712 2.987 1.399 4.486 2.079.84.38 1.682.755 2.526 1.126 1.194.525 2.389 1.044 3.589 1.549 1.501.63 3.008 1.243 4.52 1.843.617.246 1.231.501 1.85.742.211.082.426.155.637.236l89.572-220.344z"/><path style="opacity:0.16;fill:#040000;" d="M243.463 256.108 71.31 423.681c.024.024.049.047.073.07 1.938 1.888 3.914 3.726 5.907 5.541.655.594 1.314 1.185 1.977 1.773 1.315 1.171 2.647 2.318 3.984 3.458 1.117.949 2.234 1.898 3.373 2.829.759.623 1.53 1.229 2.295 1.842 5.806 4.633 11.863 9.062 18.206 13.236 3.716 2.445 7.477 4.773 11.278 6.99.065.038.131.076.197.114 5.49 3.194 11.065 6.145 16.709 8.871.325.157.648.317.974.472 1.49.712 2.987 1.399 4.486 2.079.84.38 1.682.755 2.526 1.126 1.194.525 2.389 1.044 3.589 1.549 1.501.63 3.008 1.243 4.52 1.843.617.246 1.231.501 1.85.742.211.082.426.155.637.236l89.572-220.344z"/></g></g><path style="opacity:0.2;fill:#FFFFFF;" d="M240.95 22.079c6.601.0 13.05.304 19.499.835l-.227 2.958-.455 6.45c-3.718-.228-7.511-.304-11.305-.304-48.332.0-93.25 14.719-130.428 39.834-.076.076-.228.152-.304.228-24.052 16.313-44.918 36.951-61.458 60.851-2.959 4.324-5.767 8.725-8.498 13.278-20.714 34.826-32.626 75.571-32.626 119.046.0 11.305.834 22.383 2.428 33.309.835 6.145 1.972 12.292 3.339 18.286 6.904 30.35 19.651 58.499 37.102 83.158-19.044-24.052-33.46-51.898-41.807-82.248-1.669-5.918-3.111-11.988-4.249-18.134-2.807-14.34-4.249-29.135-4.249-44.31.0-25.494 4.098-50.077 11.685-73.067 6.525-19.879 15.706-38.621 27.087-55.768C88.29 63.583 159.764 22.079 240.95 22.079z"/><path style="opacity:0.2;fill:#FFFFFF;" d="M445.242 85.656c-5.867-6.046-12.09-11.828-18.576-17.202-1.91-1.563-3.813-3.05-5.724-4.612-20.592-16.009-43.901-28.694-68.915-37.092l-.076.008c-1.185-.415-2.446-.822-3.631-1.237-19.533-6.202-40.039-9.942-61.239-10.715-.234-.053-.536-.023-.763.0l-.19-8.75c.234.053.461.03.695.083 21.97 1.611 43.186 6.348 63.149 13.803 1.186.415 2.371.829 3.564 1.32.076-.007.083.068.083.068 25.143 9.681 48.203 23.688 68.41 41.185 1.835 1.57 3.677 3.215 5.444 4.868.0.0.076-.007.083.068C433.771 73.156 439.646 79.277 445.242 85.656z"/></g></svg>