<svg width="800" height="800" viewBox="0 0 72 72" xmlns="http://www.w3.org/2000/svg"><g fill="none" fill-rule="evenodd"><path d="M36 72c19.882251.0 36-16.117749 36-36 0-19.882251-16.117749-36-36-36-19.882251 365231026e-23-36 16.117749-36 36C24348735e-22 55.882251 16.117749 72 36 72z" fill="#007FFF"/><path d="M36 12c-13.2548571.0-24 9.9491852-24 22.2222222.0 6.9933334 3.4899876 13.2312593 8.9440994 17.3047408V60l8.1717764-4.4848889C31.2967453 56.1186667 33.6071553 56.4444444 36 56.4444444c13.2548571.0 24-9.9491851 24-22.2222222C60 21.9491852 49.2548571 12 36 12zm2.3850932 29.9259259L32.2732919 35.4074074 20.3478261 41.9259259 33.4658385 28 39.7267081 34.5185185 51.5031056 28 38.3850932 41.9259259z" fill="#FFF"/></g></svg>