<svg width="800" height="800" viewBox="0 0 72 72" xmlns="http://www.w3.org/2000/svg"><g fill="none" fill-rule="evenodd"><path d="M36 72c19.882251.0 36-16.117749 36-36 0-19.882251-16.117749-36-36-36-19.882251 365231026e-23-36 16.117749-36 36C24348735e-22 55.882251 16.117749 72 36 72z" fill="#7EB949"/><path d="M56.68161 28.9321089C55.9561471 24.9602347 54.2241791 21.4909743 51.4883034 18.5303266c-1.1548185-1.2498832-2.4488593-2.335967-3.8769277-3.2579906C44.9510853 13.5550508 42.0531299 12.5028745 38.9104963 12.1301527 38.527375 12.084508 38.1387991 12.090507 37.7611324 12H35.0496726C35.0203216 12.0685975 34.9574637 12.0435581 34.907593 12.048253 34.2094032 12.110069 33.51459 12.1898821 32.8254911 12.3210781 27.7898488 13.278835 23.6544765 15.7616476 20.4536604 19.7721241c-2.6327576 3.2981579-4.0826444 7.0817149-4.3958948 11.3003315-.15169 2.0446231-.0046754 4.0702059.441563599999999 6.0689235C16.8307615 38.6280932 17.3258322 40.0644677 17.9912944 41.4374613 18.0497366 41.5543118 18.1073996 41.6711623 18.1668808 41.7880128c1.0932594 2.1617345 2.4995093 4.088203 4.2618673 5.7520187C23.356551 48.4158887 24.3482507 49.2082813 25.4217695 49.8929522 28.7111581 51.98948 32.3018488 53.0888659 36.2026729 53.1379014 36.4421562 53.1412922 36.5073517 53.2004999 36.5057933 53.446199 36.494884 55.5427267 36.4995594 57.6395153 36.5000789 59.7363039 36.5003387 59.8176819 36.5065725 59.8987991 36.5112479 60 36.5787811 59.9723523 36.6211193 59.9567027 36.661899 59.9374015c3.9213438-1.8500462 7.5219047-4.1878389 10.7318118-7.1182307C48.0324195 52.2362224 48.6435953 51.6253654 49.2313943 50.9892083 49.4830855 50.7171657 49.7326988 50.4404282 49.9849095 50.1686464 50.3745244 49.7502798 50.7116711 49.2828778 51.0789481 48.8423409 51.5031088 48.3342499 51.8838924 47.7940771 52.2594811 47.2505135 53.0898803 46.0491442 53.8314473 44.7958702 54.4548311 43.4719122 54.7701594 42.80263 55.0704226 42.1281313 55.3361399 41.4377221 55.3449712 41.4246808 55.3569194 41.4132044 55.3626337 41.3991197 56.0867979 39.5086453 56.5509591 37.5524425 56.7979749 35.5453785 56.8842097 34.846362 56.9400545 34.1429115 56.9753796 33.4399826 57.0507051 31.9264033 56.9533014 30.4214313 56.68161 28.9321089zM29.2083066 41.7554094C28.9309009 41.7960985 28.7501195 41.641428 28.6467417 41.3902516 28.6477807 40.6153345 28.6485599 39.8414606 28.6495989 39.0668043 28.6631056 38.8388415 28.5716759 38.5944466 28.7534962 38.3933489 28.8436271 38.293713 28.9457062 38.2253763 29.0836299 38.1909471 29.4875306 38.0887029 29.896886 38.0070641 30.2646824 37.7866652 30.9420928 37.3805575 31.3636561 36.7944792 31.5506713 36.0305168 31.5797625 35.9102755 31.607555 35.7892518 31.6353476 35.6684888 30.0088353 35.6653589 28.3828426 35.6624898 26.7563304 35.6604032 26.6155495 35.6601424 26.4768466 35.6551867 26.3397022 35.6171059 25.925152 35.5018204 25.6077457 35.1220562 25.6072262 34.6924741 25.6041093 32.2229636 25.6090444 29.7531924 25.6108626 27.283682 25.5768363 26.8890507 25.6111224 26.519198 25.9415158 26.2372439 26.1209984 26.0846601 26.3181435 25.9923273 26.5539904 25.9923273 28.9454465 25.9918057 31.3369026 25.9936315 33.7283587 25.9910232 34.361353 25.9899799 34.7174614 26.1883981 34.7174614 27.283682 34.7174614 27.4659041 34.7379807 33.0075314 34.717461 35.6984839 34.7042141 37.4843667 34.0117386 38.9862088 32.7099054 40.2040102 32.6418527 40.2673912 32.5761376 40.3333804 32.5096434 40.3980655 31.8353499 40.9171113 31.1054713 41.3268706 30.2779293 41.5517035 29.9259772 41.6476879 29.5670121 41.7027224 29.2083066 41.7554094zM43.4170417 41.4056404C43.3998986 41.4155518 43.3824958 41.4254632 43.3653528 41.4351138 42.9024903 41.5665707 42.4354719 41.6755964 41.9580638 41.745498 41.5939038 41.7992284 41.3185759 41.5926534 41.3141603 41.2248872 41.3105239 40.9671901 41.3087057 40.7089714 41.3066278 40.4510134 41.3110434 39.9890887 41.315459 39.527164 41.3198747 39.0655002 41.3177967 38.9635168 41.3141603 38.8623159 41.3144201 38.7608542 41.3149395 38.4061294 41.4507853 38.2564147 41.8900111 38.1557355 42.4469006 38.0276694 42.9708028 37.8471771 43.4043142 37.443156 43.92458 36.9580177 44.1871804 36.3523773 44.3066623 35.6679672 42.8043073 35.6648373 41.3024719 35.662229 39.7995974 35.6593599 39.6362189 35.6590991 39.4725807 35.6614465 39.3089424 35.6585774 38.6954289 35.6484052 38.275424 35.2224746 38.275424 34.6030104 38.2762033 32.1640167 38.2795799 29.7252839 38.2811384 27.2860295 38.2811384 27.262555 38.2785409 27.2390806 38.2769825 27.2156062 38.2297092 26.7591588 38.3603601 26.3851329 38.7642608 26.131609 38.9211457 26.0324947 39.0917971 25.9918057 39.2723186 25.9918057 41.6479304 25.9905015 44.0232824 25.9925882 46.3991539 25.9897191 47.0318885 25.9889366 47.3918925 26.5498603 47.3918925 27.2860294 47.3918925 27.6248456 47.3942303 33.0145737 47.3918926 35.710482 47.3898147 38.118698 45.8869402 40.3722437 43.6718498 41.2973972 43.616005 41.3213933 43.5627576 41.3524317 43.5082115 41.3800793 43.5476925 41.4291148 43.5949658 41.4426778 43.6440573 41.4445036 43.5949658 41.4429387 43.5474328 41.4291148 43.5082115 41.3800793 43.5082115 41.3800793 43.4479511 41.3967723 43.4170417 41.4056404z" fill="#FFF"/></g></svg>