<svg width="800" height="800" viewBox="0 0 72 72" id="emoji" xmlns="http://www.w3.org/2000/svg"><g id="color"><path fill="#FCEA2B" d="M55.3264 61.6696c.4702.0.8513-.5583.8513-1.2471V6.7115c0-.6888-.3811-1.2471-.8513-1.2471H18.6616c-.4702.0-.8513.5583-.8513 1.2471v33.0984l30.1025 21.8597c-7105427357601e-27.0 7.4136.0 7.4136.0z"/><path fill="#FCEA2B" d="M55.3442 60.3668c.4603.0.8335-.5454.8335-1.2182V6.6826c0-.6728-.3732-1.2182-.8335-1.2182H19.4465c-.4603.0-.8335.5454-.8335 1.2182v53.6842H55.3442z"/><path fill="#FCEA2B" d="M18.613 6.6826c0-.6728.3732-1.2182.8335-1.2182h35.8977c.4603.0.8335.5454.8335 1.2182v52.466c0 .6728-.3732 1.2182-.8335 1.2182"/><path fill="#F1B31C" d="M51.1805 66.4522H15.2828c-.4603.0-.8335-.5454-.8335-1.2182v-7.1774V23.3439v-3.9428V12.768c0-.6728.3732-1.2182.8335-1.2182h35.8977c.4603.0.8335.5454.8335 1.2182v52.466C52.014 65.9068 51.6408 66.4522 51.1805 66.4522z"/></g><g id="hair"/><g id="skin"/><g id="skin-shadow"/><g id="line"><path fill="none" stroke="#000" stroke-linecap="round" stroke-linejoin="round" stroke-miterlimit="10" stroke-width="2" d="M18.613 6.6826c0-.6728.3732-1.2182.8335-1.2182h35.8977c.4603.0.8335.5454.8335 1.2182v52.466c0 .6728-.3732 1.2182-.8335 1.2182"/><path fill="none" stroke="#000" stroke-linecap="round" stroke-linejoin="round" stroke-miterlimit="10" stroke-width="2" d="M51.1805 66.4522H15.2828c-.4603.0-.8335-.5454-.8335-1.2182v-7.1774V23.3439v-3.9428V12.768c0-.6728.3732-1.2182.8335-1.2182h35.8977c.4603.0.8335.5454.8335 1.2182v52.466C52.014 65.9068 51.6408 66.4522 51.1805 66.4522z"/><line x1="12.3558" x2="19.628" y1="20.5008" y2="20.5008" fill="none" stroke="#000" stroke-linecap="round" stroke-linejoin="round" stroke-miterlimit="10" stroke-width="2"/><line x1="12.3558" x2="19.628" y1="27.8644" y2="27.8644" fill="none" stroke="#000" stroke-linecap="round" stroke-linejoin="round" stroke-miterlimit="10" stroke-width="2"/><line x1="11" x2="18.2722" y1="35.3193" y2="35.3193" fill="none" stroke="#000" stroke-linecap="round" stroke-linejoin="round" stroke-miterlimit="10" stroke-width="2"/><line x1="18.2722" x2="11" y1="42.6828" y2="42.6828" fill="none" stroke="#000" stroke-linecap="round" stroke-linejoin="round" stroke-miterlimit="10" stroke-width="2"/><line x1="11" x2="18.2722" y1="50.0464" y2="50.0464" fill="none" stroke="#000" stroke-linecap="round" stroke-linejoin="round" stroke-miterlimit="10" stroke-width="2"/><line x1="11" x2="18.2722" y1="57.4099" y2="57.4099" fill="none" stroke="#000" stroke-linecap="round" stroke-linejoin="round" stroke-miterlimit="10" stroke-width="2"/><path fill="none" stroke="#000" stroke-linecap="round" stroke-linejoin="round" stroke-width="2" d="M42.8181 45.6368s0-.7431-.3715-2.2292c-.4499-1.8004-1.4862-2.9723-3.7154-2.9723-1.8577.0-5.5731.0-8.1739.0-2.2292.0-3.2653 1.172-3.7154 2.9723-.3715 1.4862-.3715 2.2292-.3715 2.2292"/><path fill="none" stroke="#000" stroke-linejoin="round" stroke-width="2" d="M30.9288 33.0044c0 1.3838.2003 2.9012.7431 3.7154.6916 1.0377 1.8642 1.4862 2.9723 1.4862 1.1502.0 2.28-.4485 2.9723-1.4862.5424-.8142.7431-2.3316.7431-3.7154.0-1.0379-.3715-4.4585-3.7154-4.4585S30.9288 31.2745 30.9288 33.0044z"/></g></svg>