<svg id="Uploaded to svgrepo.com" xmlns="http://www.w3.org/2000/svg" width="800" height="800" viewBox="0 0 32 32"><style>.isometric_twee{fill:#F5DF89;}
.isometric_vijf{fill:#F29227;}
.isometric_zeven{fill:#FF7344;}
.isometric_acht{fill:#F05A28;}
.isometric_tien{fill:#7BD6C4;}
.isometric_elf{fill:#72C0AB;}
.isometric_twaalf{fill:#569080;}
.st0{fill:#225B49;}
.st1{fill:#F28103;}
.st2{fill:#BE1E2D;}
.st3{fill:#F8F7C5;}
.st4{fill:#F29227;}
.st5{fill:#AD9A74;}
.st6{fill:none;}
.st7{fill:#F2D76C;}
.st8{fill:#72C0AB;}
.st9{fill:#569080;}</style><g><line class="isometric_twaalf" x1="16.079" y1="23.249" x2="26" y2="17.532"/><polygon class="isometric_twaalf" points="16.079,28 26,22.272 26,17.532 16.079,23.249"/><path class="isometric_zeven" d="M10.593 24.832l1.353-.781v-3.18l9.852-5.758 2.009 1.156V5.616c0-.332-.234-.466-.524-.299L7.688 14.321c-.289.167-.524.571-.524.903v10.987c0 .332.234.466.524.299C7.692 26.507 10.593 24.832 10.593 24.832z"/><polygon class="isometric_vijf" points="21.872,10.835 15.238,14.664 15.238,12.261 21.872,8.431"/><path class="isometric_acht" d="M21.872 12.838c0 .553-.391 1.227-.873 1.505-.408.236-.873.079-.873-.498.0-.578.465-1.27.873-1.506C21.481 12.062 21.872 12.285 21.872 12.838zM11.398 21.183l-2.619 1.512v1.002l2.619-1.512V21.183zM7.164 26.211c0 .166.059.282.153.336-.095-.054-1.114-.531-1.21-.619C6.04 25.866 6 25.763 6 25.625V14.639c0-.332.234-.736.524-.903l15.595-9.004c.145-.083.276-.092.37-.038.086.049.926.442 1.156.584-.094-.05-.221-.042-.362.039L7.688 14.321c-.289.167-.524.571-.524.903V26.211z"/><path class="isometric_tien" d="M20.49 14.427c-.145.207-.315.392-.509.504-.482.278-.873.055-.873-.498s.391-1.227.873-1.505c.194-.112.364-.123.509-.084C20.13 13.357 19.897 14.267 20.49 14.427zm-8.544 6.445v3.18l-1.353.781L16.079 28v-4.751C16.029 23.22 11.946 20.872 11.946 20.872z"/><path class="isometric_twee" d="M11.572 16.781l-2.444 1.411c-.193.111-.349.022-.349-.199V16.39c0-.221.156-.491.349-.602l2.444-1.411c.193-.111.349-.022.349.199v1.603C11.921 16.4 11.765 16.67 11.572 16.781z"/><polygon class="isometric_elf" points="21.798,15.114 11.946,20.872 16.079,23.249 26,17.532"/></g></svg>