<svg id="_x35_" xmlns="http://www.w3.org/2000/svg" viewBox="0 0 512 512"><g><g><linearGradient id="SVGID_1_" gradientUnits="userSpaceOnUse" x1="256" y1="1.2927" x2="256" y2="349.1949"><stop offset="0" style="stop-color:#735C37"/><stop offset="1" style="stop-color:#988665"/></linearGradient><path style="fill:url(#SVGID_1_);" d="M512 17.574v315.264c0 8.977-7.38 16.357-16.357 16.357H16.356C7.379 349.195.0 341.815.0 332.838V17.574C0 8.597 7.379 1.293 16.356 1.293h479.287C504.62 1.293 512 8.597 512 17.574z"/><g style="opacity:0.2;"><path style="fill:#040000;" d="M299.373 104.564c-1.107-1.245-1.798-2.351-3.181-1.729s-1.383 1.521-2.836.415c-1.452-1.106-.83-2.421-4.081-3.596-3.251-1.176-3.942-1.867-7.47-2.351-3.527-.484-6.086-.968-6.294-.968-.207.0.761.622-.622 1.314-1.383.692-2.49.83-3.873-.069s-1.314-1.176-3.665-.968c-2.352.208-3.735.761-4.772.899s0-.069-1.591-1.176-.484-1.729-3.251-1.522c-2.766.208-3.942.336-4.634-.04-.692-.375.138-2.312-2.559-3.142s-3.251-.207-4.634-.415c-1.383-.207-1.314-.553-5.256-.83s-3.735.346-6.432 1.176c-2.697.83-3.389.83-5.879.692-2.49-.138-1.867 1.383-3.389 1.591-1.522.207-3.942-1.314-4.219-2.213s2.075-1.867.0-2.697-5.948-2.421-6.709-2.144-.346 1.522-1.729 1.867c-1.383.346-3.181.346-5.325-.622s-2.974-1.447-5.256-1.277-3.527.862-5.464 1-3.112-.692-1.798-1.314c1.314-.622 2.974-2.49 2.974-3.389s.968-2.836-1.245-3.043c-2.213-.207-2.628 1.314-4.703.0s-4.772-1.383-5.533-.968c-.761.415-.761 1.107-2.075 1.314s-.83 1.383-2.421 1.798c-1.591.415-1.383-.83-5.049-.484s-7.193.83-8.092 1.867.208 2.213-1.729 3.112-6.363.207-6.916.968c-.553.761 2.421 3.389.415 4.565s-3.251-.83-7.884.0c-4.634.83-4.081.692-5.809 1.729-1.729 1.037-2.075.346-3.112 1.798s-4.15 2.767-6.294 2.767-3.043-1.314-5.81-.207c-2.766 1.107-2.351 1.867-6.709 1.522-4.357-.346-6.155-.277-6.985.277-.83.553-.83 1.937-2.974 2.559s-5.464 1.729-6.294 1.522-3.665 1.176-5.602 1.383c-1.937.208-3.043.069-3.665-.692-.623-.761-1.314-2.075-.346-1.66.968.415 1.798.968 3.527.899s3.666-1.452 3.251-2.213c-.415-.761-.069-1.867-3.458-2.697s-4.841-.692-7.4-2.559c-2.559-1.867.968-3.112-5.74-2.421-6.709.692-8.507 1.383-11.204 3.389s-3.251 3.735-6.017 6.155c-2.766 2.421-1.798 3.112-5.256 4.841s-4.011.899-5.049 3.527-1.729 5.671.415 6.225c2.144.553 4.357-.415 5.464-.83 1.107-.415 1.937.346 2.075 1.591s.207 3.32 1.591 3.596c1.383.277 4.288-1.66 4.15-3.665-.138-2.006-.622-3.389.761-5.395s2.282-3.458 3.735-4.15c1.452-.692 3.458-1.936 2.697-.346-.761 1.591-2.144 3.458-1.176 5.049.968 1.591 3.181.484 3.735 2.075.553 1.591-.761 3.112-1.107 3.666-.346.553.83 1.245-.761 2.352-1.591 1.106-2.628 2.282-4.357 3.596-1.729 1.314-6.847 2.213-8.023 1.937-1.176-.277-3.112.0-3.251-1.591-.138-1.591 1.729-3.32-.207-4.081-1.937-.761-4.081.277-4.703 2.974-.623 2.697-1.591 3.181-3.181 4.495-1.591 1.314-.277 5.325-4.91 6.086-4.634.761-7.262-.346-6.916 1.314.346 1.66 3.251.622 3.32 3.389.069 2.766.761 3.735-1.245 4.288s-2.49-.484-5.187.415-2.559 4.288-3.112 5.74c-.553 1.452-.83 2.766.968 3.389 1.798.622 4.703 1.729 6.847.83s3.389-1.037 3.666-2.697.968-2.697 2.421-2.974c1.452-.277 2.421-1.937 3.25-2.905.83-.968.0-.622 2.144-.553 2.144.069 4.15-2.213 4.91-1.591.761.622 3.043 1.937 4.495 3.32 1.452 1.383 3.458 1.798 3.112 3.873s-.484 4.481.899 3.866c1.383-.615.899-2.483 1.798-3.382s2.075-.069 1.937-1.66-2.49-2.006-3.735-3.458-2.213-3.043-.692-2.559 4.426 1.798 4.703 2.905 2.836 3.389 3.112 5.533c.277 2.144 1.798 4.081 2.49 2.974s.069-1.937 1.591-2.213c1.521-.277.968-1.383 1.798-2.836.83-1.452 3.112.692 3.942-2.006.83-2.697-1.037-3.626 1.037-5.098 2.075-1.472 2.974-2.44 3.596-1.126s2.213 2.697 2.974 1.314c.761-1.383-1.383-1.798.415-2.836 1.798-1.037 3.389-2.282 2.905-.484s-1.176 2.974.069 4.219 4.91 2.006 2.905 3.112c-2.006 1.107-4.91.484-7.608 1.66-2.697 1.176-3.112.622-3.804 2.836-.692 2.213-.761 2.905 1.521 2.905s3.32-1.591 3.942.415c.622 2.006.484 6.501-.484 6.916-.968.415-1.383-.207-5.671.277-4.288.484-4.081 1.522-7.539-.208-3.458-1.729-4.288-3.873-5.533-1.729-1.245 2.144-.346 3.235-3.043 2.69-2.697-.546-.761-1.721-4.357-2.62s-4.288-.622-4.288-2.213.484-3.666-2.352-3.873-7.815.968-11.896 2.144c-4.081 1.176-3.251-.277-7.954 1.383s-7.608 2.213-8.092 4.772-2.075 4.011-3.112 5.395c-1.037 1.383-1.591 7.47-1.867 11.204-.277 3.735.692 2.006-.346 4.772-1.038 2.767 1.867 7.124 3.043 8.299 1.176 1.176 4.98 4.91 7.4 5.187 2.421.277 2.213-.899 5.948-.346s3.666-1.591 7.47-.622c3.804.968 5.187 1.66 7.4 2.836 2.213 1.176 2.421 2.144 2.421 4.98.0 2.836.138.692 2.144 4.703s5.533 7.746 3.458 11.204-2.974 4.08-1.66 7.331c1.314 3.251 4.98 9.821 5.395 13.141.415 3.32-.622 3.527-.207 5.533s4.15 4.219 7.539 2.836c3.389-1.383 4.426-1.452 7.193-4.011 2.766-2.559 5.533-.622 7.608-5.948 2.075-5.325 1.383-5.948 2.282-8.092s6.294-5.256 6.501-9.129c.207-3.873-1.176-6.778-.692-10.512.484-3.735.83-6.985 4.426-9.959s4.426-.069 6.916-5.671 5.464-6.985 2.697-6.916c-2.767.069-8.161 2.282-10.443 1.037s-6.017-6.916-6.778-9.544c-.761-2.628-.484-1.314-1.798-5.049-1.314-3.735-2.559-5.671-3.112-7.124-.553-1.452-.899-4.011.761-1.936s3.251 5.187 5.464 9.959 3.527 8.438 5.464 9.199c1.937.761 2.559 1.66 5.464.484s3.942-1.314 6.709-2.836c2.766-1.522 4.426-1.798 6.432-3.804s6.57-2.836 1.522-4.772c-5.049-1.936-6.778-.83-8.23-3.043s-3.804-4.426-1.66-4.08c2.144.346 1.314.968 3.735 1.452 2.421.484 4.15-.606 5.464 1.149 1.314 1.756 3.527 3.001 5.602 2.032 2.075-.968 2.905-1.521 5.118-.277 2.213 1.245.761 4.772 4.081 5.74 3.32.968 3.873-2.628 4.565 1.937.692 4.565 2.006 8.783 3.181 9.683 1.176.899-.622 5.049 3.112 3.942 3.735-1.107 4.841-.968 4.841-4.841.0-3.873-.138-4.841 1.867-6.225 2.006-1.383 4.772-2.766 6.017-4.219 1.245-1.452.484-2.352 2.974-2.075 2.49.277 8.645 7.193 8.368 8.645-.277 1.452-.553 2.006.622 2.905 1.176.899 1.107 1.176 2.006 4.426.899 3.251.692 2.766 3.527 5.81 2.836 3.043 6.847 5.187 6.501 2.974-.346-2.213-1.729-1.937-2.974-5.464-1.245-3.527-2.697-6.709-1.037-5.809 1.66.899 1.176 2.213 2.905 2.49 1.729.277 2.006-1.729 3.32-2.352 1.314-.622 3.666-5.671 1.798-7.884-1.867-2.213-3.804-3.735-1.867-4.426 1.937-.692 1.037-.207 3.32.207 2.282.415 1.591-.692 4.357-1.452 2.766-.761 6.778-2.006 8.922-4.772s4.495-3.596 3.873-7.262c-.622-3.665-1.452-5.256-2.766-6.225-1.314-.968-1.383-1.66-.208-2.075 1.176-.415 4.219-.484 2.49-1.383-1.729-.899-.899-.415-2.905-.899s-4.15.484-2.352-1.176 3.181-3.043 3.181-3.043-.484.346.692 1.591c1.176 1.245 1.937.692 2.49.415.553-.277 2.213-1.452 2.421-.138s-2.144 2.282-.761 2.766 2.628-.761 2.075 1.729c-.553 2.49.553 4.772 1.729 3.527 1.176-1.245 2.905-4.91 2.559-6.432-.346-1.521-1.522-.761.069-3.527 1.591-2.766 1.591-4.703 3.735-4.357s4.219-1.729 5.049-2.559c.83-.83 4.357-2.767 4.91-5.118.553-2.352.277-2.697 1.037-5.395.761-2.697 2.421-2.697.346-3.942s-3.666-.968-4.011-2.352c-.346-1.383 5.533-8.092 8.092-9.129 2.559-1.037 4.357-.553 6.086.207 1.729.761 2.282 1.521 3.873.553 1.591-.968 2.628-1.522 3.527-1.591.899-.069 3.389-1.937 4.426-1.107 1.037.83 1.176 1.729 2.421 1.176s2.905-3.458 3.458-2.421c.553 1.037.415 2.282-1.107 4.288-1.522 2.006-2.836 2.352-4.772 3.942-1.937 1.591-2.697 3.251-2.697 4.703s-.553 6.294.207 6.363c.761.069.968-.138 2.974-2.697s3.043-2.697 4.357-3.666c1.314-.968 1.798-2.144 2.006-4.426.208-2.282-1.245-2.836.899-4.011 2.144-1.176 4.703-2.421 6.847-2.075s1.66.277 3.251-1.314c1.591-1.591 2.697-2.628 4.357-2.49s4.357.484 4.772-.346c.415-.83.069-1.521.138-2.697.069-1.176-.069-1.66 1.522-2.075s1.521-.968 2.282-1.245c.761-.277 1.245.553 2.49 1.037 1.245.484 4.288.553 4.98-.346C298.266 105.325 299.373 104.564 299.373 104.564z"/><path style="fill:#040000;" d="M238.649 142.188c.904.333 2.628 1.729 3.666 1.66 1.037-.069 1.591 1.314.761 1.452s-3.596 1.452-3.596 1.452-.83-1.037-1.314.0c-.484 1.037-.761 1.798-.622 2.421.138.622 1.107 2.421.553 3.32-.553.899-1.314 1.383-1.314 2.49.0 1.106.692 2.282-.277 2.766-.968.484-1.937.623-2.766.899-.83.277-1.452.346-1.798 1.107s-1.176 1.867-2.905 1.798-1.729-1.452-3.32-.138c-1.591 1.314-1.66 2.075-2.49 1.729-.83-.346-.208-.83.0-2.144.207-1.314-2.836-.968-.069-2.49 2.766-1.522 2.766-1.729 4.634-2.006 1.867-.277 2.905.622 3.665-.968.761-1.591.0-2.213 1.522-2.282 1.522-.069 2.49.623 2.766-1.107.277-1.729.069-3.181.0-4.288s-.484-2.144.761-2.559 1.383.346 1.522-.622C238.165 143.709 237.335 141.704 238.649 142.188z"/><path style="fill:#040000;" d="M210.846 179.673c1.314.208 1.936 2.559 1.522 3.527-.415.968-.83 2.075.346 2.282 1.176.208 2.006.346 2.006 1.176.0.83.484-.899 1.383 1.314s.069 2.559 1.107 4.219c1.037 1.66 2.282 2.49.83 3.32s-.346 1.729-1.867 1.245-.899-.208-1.66-1.66-1.245-.277-1.936-.346c-.692-.069-.899-.069-.346-1.037.553-.968.83-.899.208-2.006s.346-2.421-.553-2.628c-.899-.207-1.176 1.314-2.766 2.282-1.591.968-3.942 1.245-3.873.899.069-.346.968-.83 2.421-2.628 1.452-1.798 2.352-.692 2.075-3.458-.277-2.766-1.245-2.006-.346-3.942C210.293 180.296 210.846 179.673 210.846 179.673z"/><path style="fill:#040000;" d="M206.42 195.373c1.047 1.047 2.421.761 2.006 1.798s-1.647 1.176-.962 2.213c.685 1.038 1.308 2.559 2.207 2.421s.83-.83 3.043-.83 3.596-.484 3.735.415c.138.899-.968.968-2.421 2.282-1.452 1.314-2.905 2.628-1.729 3.458s1.66 2.352 1.245 2.905-.83 1.107.138 1.798c.968.692 5.602.484 4.495 2.144s-3.804 2.559-6.64 2.628c-2.836.069-.556-.761-6.295-1.314-5.739-.553-6.707.899-10.718-1.037-4.011-1.937-6.64-.277-8.853-3.804-2.213-3.527-1.314-1.798-4.081-5.464-2.766-3.665-1.452-3.665-3.804-5.118-2.352-1.452-4.357-3.527-2.766-3.527s.83-1.867 5.74 2.213c4.91 4.08 3.596 3.873 7.193 6.294 3.596 2.421 4.772 2.697 6.086 2.421 1.314-.277 3.251.0 2.006-1.591s-1.937-3.596-.899-3.942.968 1.383 2.697-.484c1.729-1.867 1.729-2.352 3.251-2.974 1.522-.622.692.0 2.144-.899C204.691 196.48 205.244 194.197 206.42 195.373z"/><path style="fill:#040000;" d="M225.439 203.396c.752.967 2.006 2.213 2.559 3.251s1.591-.878 3.596-.82c2.006.059 4.98 1.165 6.225 1.719s3.389.899 4.703 2.697 2.282.761 2.352 2.559c.069 1.798.346 1.591 1.521 2.628 1.176 1.037 1.383 2.974-.692 2.144-2.075-.83-2.697-3.665-4.91-3.389-2.213.277-1.314.899-3.043 1.245s-2.49-.277-4.565-.415-3.596.553-2.628-1.314 1.66-1.936-1.729-3.32c-3.389-1.383-4.703-.692-4.703-2.144s.553-1.591-.761-2.836-1.729-2.144-.899-2.767C223.295 202.012 224.955 202.773 225.439 203.396z"/><path style="fill:#040000;" d="M229.451 223.314c2.282 1.176 3.181 3.527 4.288 3.112s.692-1.107 1.521-3.596c.83-2.49.899-5.049 1.937-4.011 1.037 1.037.069 3.062 1.729 3.71 1.66.647 2.006 1.132 2.352 3.068.346 1.937.692 1.314 2.421 3.32 1.729 2.006 3.282 1.66 3.577 3.942.296 2.282 3.201 4.634 3.339 6.985.138 2.352.553 4.011-1.176 6.985-1.729 2.974-2.421 4.495-2.974 5.741-.553 1.245-2.213 1.867-4.011 1.867s-2.836-.761-3.942-.484c-1.107.277-1.867 1.66-3.181.692-1.314-.968-2.075-2.213-2.49-2.974-.415-.761-.622-3.32-2.559-3.043-1.936.277-1.66 1.245-2.836.0-1.176-1.245-.346-2.282-3.804-2.836-3.458-.553-4.357-.83-5.81-.484-1.452.346-2.974.83-4.565 2.075-1.591 1.245-4.081.623-5.464 1.245s-3.458 2.006-4.98 1.176-.968-1.245-.899-3.181c.069-1.937-.069-.622-1.037-3.942-.968-3.32-.553-2.836-1.452-4.426-.899-1.591-1.591-.83-.346-3.112 1.245-2.282.83-2.766 1.521-3.527.692-.761 1.314.208 3.666-1.383s3.043-.899 5.187-1.729 2.628-4.011 3.942-4.98c1.314-.968 1.66-1.729 2.628-1.729.968.0 2.075.553 3.804 1.245s1.383.761 2.836-.83c1.452-1.591.0-3.112 2.628-2.836 2.628.277 3.596-.138 3.942 1.383C229.589 222.277 229.451 223.314 229.451 223.314z"/><path style="fill:#040000;" d="M277.449 255.958c1.383-1.798 2.075-2.006 1.591-4.081s-.346-3.702 1.452-1.851 3.804 2.889 5.187 2.958c1.383.069 4.703 1.107 1.314 3.666-3.389 2.559-2.766.761-5.464 4.565-2.697 3.804-.622 3.873-3.873 5.74s-6.847 2.697-6.155 1.038c.692-1.66.346-1.66 3.32-3.873 2.974-2.213 4.91-3.873 4.91-5.74C279.731 256.512 277.449 255.958 277.449 255.958z"/><path style="fill:#040000;" d="M112.291 237.285c-1.245-1.798-1.245-2.352-1.383-5.256-.138-2.905-1.107-4.288.0-5.948s4.011-4.426 5.118-6.363c1.107-1.936 1.383-6.086 2.075-2.352.692 3.735 2.905 5.948-.415 10.928C114.366 233.273 112.291 237.285 112.291 237.285z"/><path style="fill:#040000;" d="M45.758 134.372c-.277-.553.968-2.352.968-2.352s1.522-.83 1.107-3.873c-.415-3.043-.692-1.245-1.798-4.15-1.107-2.905-2.766-2.352-1.107-4.288 1.66-1.937 3.596-4.841 4.011-2.49s-.553 3.873.415 4.98c.968 1.107 2.905 1.335 4.011 3.157 1.107 1.822 5.533 2.514 2.213 4.865-3.32 2.352-4.841.83-6.086 2.49C48.247 134.372 45.758 134.372 45.758 134.372z"/><path style="fill:#040000;" d="M41.331 132.159c2.213-1.245 3.022-.968 2.894-3.182-.128-2.213 1.394-4.15-.958-4.288-2.351-.138-3.043 1.245-3.32 2.213-.277.968-.277 1.245.415 2.213.692.968.83 2.352.553 3.043C40.64 132.851 41.331 132.159 41.331 132.159z"/><path style="fill:#040000;" d="M33.308 110.581c1.798-1.245 4.703-.138 4.841-2.767.138-2.628.83-3.32-3.181-3.596-4.011-.277-4.011-.277-6.501.0-2.49.277-4.841-2.213-2.905 1.522s2.213 4.565 3.735 4.841 4.011.0 4.011.0z"/><path style="fill:#040000;" d="M311.753 100.622c-2.159-2.468-5.671-2.628-2.905-4.15 2.766-1.521 4.426-2.49 7.055-3.043 2.628-.553 5.395.553 9.683 1.66s11.204.138 14.386 1.107c3.181.968 4.703 2.905 5.671 2.766.968-.138 3.735-3.043 6.501-3.043 2.766.0 4.15-.415 9.821.277 5.671.692 11.204.968 11.342 2.352.138 1.383.138 2.075 2.213 2.075 2.075.0 3.873-1.245 5.118.692s3.181 3.32 2.905 1.798c-.277-1.521-1.66-2.766-.553-3.32 1.107-.553 4.288-.83 5.118-.553s3.458.692 4.288.553c.83-.138.277-1.522 3.043-.692 2.766.83 3.181 2.905 3.735 3.043.553.138 1.798-2.127 1.936-3.622.138-1.496 1.383-1.496-1.106-3.432-2.49-1.937-.241-4.288 1.539-3.458s.674 1.937 2.472 3.735 2.075 3.32 3.32 2.766c1.245-.553.553-2.905 2.213-1.107s2.075.892 3.596.584c1.522-.308.277-1.276 2.075-.308 1.798.968 4.841 2.075 2.628 3.873s-5.533 1.522-7.884 2.905c-2.352 1.383-1.66.968-2.352 2.628-.692 1.66-.415 1.798-3.181 2.49-2.767.692-3.596.138-3.458 2.49.138 2.352-.138 2.628-1.107 3.873-.968 1.245-.415 2.352.692 2.905s2.351-.415 2.351 1.245c0 1.66 2.075 2.905 4.841 2.905s4.011.692 5.671 2.766c1.66 2.075-.692 2.213 2.075 4.841 2.766 2.628 5.395 3.873 5.81 1.522s0-2.905.415-5.671 3.043-3.043 1.66-5.533-3.458-3.596-1.522-4.98c1.937-1.383-.415-2.661 2.905-3.336s5.533-1.229 6.916 1.261-.138 4.15 1.245 5.256c1.383 1.107 5.671-.553 6.501-1.521s3.181-.83 4.011 2.766 1.383 4.565 2.628 4.98 1.245 1.245 2.767 2.628c1.521 1.383 4.426 3.596.0 4.011s-8.023-.138-9.683 1.383c-1.66 1.521-1.798.415-.692 2.49 1.107 2.075.277.692 1.107 3.32.83 2.628 4.98 2.628 1.936 4.426s-2.49 2.213-4.288 1.66-2.213-4.525-4.288-1.294-1.798 4.476-3.596 5.444-1.937-.968-3.596 2.075c-1.66 3.043.968 3.32-2.766 6.778-3.735 3.458-5.533 1.798-5.81 4.703s1.522 6.363.553 7.055c-.968.692-.83.553-1.936-1.383-1.107-1.937-.553-3.043-4.426-3.32s-3.596-1.245-5.118.415.553 2.213-3.735 1.66-4.841-5.671-5.671.277c-.83 5.948-.968 6.639.415 8.299s5.118 5.671 6.778 3.873-.415-4.011 2.767-3.32c3.181.692 4.011-.138 3.458 1.66s-4.841 2.075-1.383 3.735c3.458 1.66 6.363-.277 6.639 2.352.277 2.628-.415 3.32-.277 4.841.138 1.521.83 2.628 4.011 2.628 3.181.0 3.043-1.245 3.873.415s3.458.83 4.565-1.522 1.937-4.98 3.596-2.213c1.66 2.766 1.936 3.32 3.596 2.213s1.66-1.107 1.66-1.107 1.798-1.66 3.32-.277 4.011-.138 4.565 1.798c.553 1.936-.277 2.213 2.075 2.905s5.118-.415 6.501 1.521c1.383 1.937-2.352.692 1.66 3.043 4.011 2.352 5.256 2.628 4.98 4.15-.277 1.522.83 1.798 4.426 2.628s3.043.415 5.948 2.628 5.256 1.245 6.225 2.352c.968 1.107 2.628 1.383 1.245 4.426-1.383 3.043-2.766 2.352-3.873 4.703-1.107 2.352-2.075 2.905-1.798 7.055s.415 3.735-.415 5.81c-.83 2.075-3.873 2.351-6.363 3.873s-2.628.277-4.288 4.426c-1.66 4.15-.692 1.937-2.075 5.533-1.383 3.596.553 1.798-3.458 3.873s-5.533.277-5.948 1.522c-.415 1.245 2.352.277-.553 2.905-2.905 2.628-4.15 3.32-5.948 4.426s-2.905 2.352-2.49 4.703c.415 2.351 2.49 2.213.138 4.426-2.352 2.213-3.32.0-4.011 3.596-.692 3.596-1.383 1.937-.692 5.671.692 3.735 4.288 3.735.968 5.81s-6.916 3.043-8.991-1.936c-2.075-4.98-2.075-6.916-2.075-10.236s-.415-.83 1.245-6.501-1.107-3.735.277-9.959c1.383-6.225 1.107-12.864 2.49-17.429s4.426-3.32 1.383-7.469c-3.043-4.15-3.596-3.458-6.224-6.225-2.628-2.766-.968-2.213-2.49-5.533s-2.49-3.043-3.735-5.533c-1.245-2.49-1.937-1.66-.692-5.809 1.245-4.15-1.521-4.011 1.245-5.256s2.352-4.288 1.937-5.395c-.415-1.107 2.075-1.522-1.798-2.075s-4.98.692-6.363-1.66-.277-2.766-3.181-4.15c-2.905-1.383-6.086-1.383-7.193-2.49l-1.107-1.107s2.075-.83-2.628-1.383-8.161.0-10.513-3.32-1.798-1.383-2.352-4.426c-.553-3.043-1.245-3.043-3.458-4.98-2.213-1.936-2.213-3.043-4.288-3.873-2.075-.83-2.49-.553-2.49-.138s-.138 2.075 1.798 3.596c1.937 1.522 2.075 2.905 2.075 3.596.0.692-2.628 1.522-2.628 1.522s0-.83-.83-2.766c-.83-1.937-1.107-2.905-2.767-5.256s-2.075-2.628-2.075-2.628-1.937-3.043-5.256-7.054c-3.32-4.011-4.288-1.522-4.288-6.086.0-4.565.83-4.565.0-7.746s-2.766-4.703-1.107-5.256c1.66-.553 2.628-1.383-.415-4.011s-4.15-1.245-5.256-4.841c-1.107-3.596 1.245-3.32-3.32-4.98-4.565-1.66-5.118-3.043-7.193-4.011s-3.32-1.521-3.32-1.521.415-.415-4.565-.83c-4.98-.415-4.426-2.766-8.161-1.245-3.735 1.522-4.288 1.798-4.288 1.798s2.075-2.49-1.521-2.213-2.767 1.107-2.905 2.767.415 3.596-2.075 4.565c-2.49.968-6.086 3.596-4.703.83 1.383-2.767 4.841-4.703 3.596-5.395s-3.873 1.521-4.15-.692.277-3.32-2.628-3.458-5.256-1.383-3.043-2.352c2.213-.968 4.288-.553 4.98-2.905s5.81-2.905.138-2.766c-5.671.138-8.161.138-7.469-.968.692-1.107.415-3.181 4.426-2.628C312.721 103.388 312.721 101.728 311.753 100.622z"/></g><g><path style="fill:#CECECF;" d="M84.902 218.494c-.609-1.369-1.369-2.51-2.358-3.423-1.065-.913-2.206-1.597-3.576-2.13-1.293-.457-2.739-.684-4.184-.684-1.522.0-2.967.228-4.26.684-.152.076-.38.152-.533.229-1.065.533-2.13 1.14-2.967 1.902-1.065.913-1.826 2.054-2.435 3.423-.609 1.294-.913 2.891-.913 4.565v15.368c0 1.75.304 3.271.913 4.64.608 1.37 1.369 2.435 2.435 3.424.989.913 2.206 1.597 3.499 2.053 1.293.457 2.739.685 4.26.685.685.0 1.446-.076 2.13-.152.685-.152 1.445-.305 2.054-.533 1.37-.456 2.511-1.14 3.576-2.053.989-.989 1.75-2.054 2.358-3.424.609-1.369.913-2.89.913-4.64V223.06C85.815 221.385 85.511 219.787 84.902 218.494zm-5.706 19.857c0 1.597-.456 2.738-1.217 3.652-.761.761-1.674 1.216-2.815 1.293h-.38c-1.369.0-2.435-.457-3.271-1.293-.761-.914-1.217-2.054-1.217-3.652v-15.139c0-.305.0-.533.076-.761.0-.076.076-.152.076-.152.076-1.14.456-1.978 1.065-2.739.152-.151.304-.304.456-.38.761-.685 1.674-.914 2.815-.914 1.294.0 2.358.381 3.196 1.294.761.913 1.217 2.13 1.217 3.652v15.139z"/><path style="fill:#CECECF;" d="M102.552 212.559l-7.38 6.467v7.151l7.38-6.466v29.213h6.695v-36.365H102.552z"/><path style="fill:#CECECF;" d="M121.495 212.559v11.716h6.315v-5.706h9.661l-11.868 30.355h7.227l11.792-30.355v-6.01H121.495z"/><path style="fill:#CECECF;" d="M172.011 218.494c-.609-1.369-1.369-2.51-2.358-3.423-1.065-.913-2.206-1.597-3.576-2.13-1.369-.457-2.739-.684-4.184-.684-1.522.0-2.967.228-4.26.684-1.369.533-2.511 1.217-3.5 2.13-1.065.913-1.902 2.054-2.435 3.423-.608 1.294-.913 2.891-.913 4.565v15.368c0 1.75.305 3.271.913 4.64.533 1.37 1.37 2.435 2.435 3.424.989.913 2.13 1.597 3.5 2.053 1.293.457 2.739.685 4.26.685 1.445.0 2.815-.228 4.184-.685 1.369-.456 2.511-1.14 3.576-2.053.989-.989 1.75-2.054 2.358-3.424.608-1.369.913-2.89.913-4.64v-15.368C172.923 221.385 172.619 219.787 172.011 218.494zM166.229 238.351c0 1.597-.38 2.738-1.141 3.652-.837.836-1.902 1.293-3.195 1.293-1.369.0-2.434-.457-3.271-1.293-.76-.914-1.217-2.054-1.217-3.652v-15.139c0-1.522.457-2.74 1.217-3.652.837-.913 1.902-1.294 3.271-1.294 1.293.0 2.358.381 3.195 1.294.761.913 1.141 2.13 1.141 3.652v15.139z"/><path style="fill:#CECECF;" d="M227.699 233.405c-.456-1.369-1.217-2.51-2.13-3.423-.913-.913-1.902-1.597-3.043-2.13-1.141-.456-2.359-.685-3.576-.685-.456.0-.913.0-1.369.076s-.913.152-1.293.38l2.51-4.944 5.021-10.119h-7.227l-.761 1.522v.076l-.913 1.826-6.01 12.324c-.076.152-.152.305-.228.457-.761 1.521-1.369 2.966-1.902 4.412-.609 1.521-.913 3.196-.913 4.869.0 1.75.228 3.347.837 4.792.609 1.37 1.369 2.587 2.435 3.5.761.761 1.521 1.294 2.51 1.75h.076c.305.152.685.305.989.456 1.369.457 2.891.685 4.489.685 1.597.0 3.043-.228 4.412-.76 1.445-.457 2.587-1.217 3.652-2.207l.076-.076c.989-.989 1.75-2.053 2.282-3.499.609-1.37.913-2.967.913-4.793C228.536 236.22 228.232 234.774 227.699 233.405zM217.201 232.645c1.445.0 2.586.456 3.424 1.445.837.913 1.293 2.283 1.293 3.88.0 1.673-.456 3.042-1.369 3.956-.913.912-1.978 1.369-3.348 1.369-1.369.0-2.511-.457-3.424-1.369-.837-.914-1.293-2.283-1.293-3.956.0-1.674.456-3.043 1.293-3.956C214.69 233.101 215.831 232.645 217.201 232.645z"/><path style="fill:#CECECF;" d="M257.065 231.579c-.304-1.597-1.218-3.195-2.663-4.563-.761-.762-1.673-1.37-2.815-1.827-1.141-.456-2.434-.684-4.032-.684-1.217.0-2.282.229-3.271.609-.989.38-1.674.76-2.13 1.217v-7.76h14.683v-6.01h-20.769v20.541h6.086c.228-.684.685-1.37 1.369-1.978.456-.456.989-.761 1.75-.837.38-.152.837-.152 1.293-.152 1.673.0 2.815.609 3.423 1.673.685 1.141 1.065 2.74 1.065 4.869.0 1.141-.152 2.206-.305 3.196.0.152-.076.228-.152.305v.076c-.228.76-.532 1.369-.989 1.826-.837.836-1.826 1.217-3.195 1.217s-2.435-.381-3.119-1.217c-.685-.762-1.141-1.826-1.293-3.272h-6.695c.152 1.294.38 2.586.761 3.88.38 1.37 1.065 2.51 2.206 3.652.761.837 1.902 1.446 3.272 2.054 1.293.608 2.967.837 4.869.837.685.0 1.217.0 1.75-.152h.076c1.141-.076 2.13-.305 3.043-.684 1.293-.608 2.358-1.294 3.195-2.054 1.294-1.37 2.13-2.815 2.587-4.336.38-1.522.609-3.272.609-5.326C257.674 234.927 257.445 233.253 257.065 231.579z"/><path style="fill:#CECECF;" d="M263.988 212.559v11.716h6.315v-5.706h9.662l-11.792 30.355h7.151l11.868-30.355v-6.01H263.988z"/><path style="fill:#CECECF;" d="M314.883 218.722c-.533-1.445-1.369-2.586-2.358-3.575-1.065-.913-2.206-1.674-3.651-2.13-1.369-.533-2.815-.761-4.413-.761-1.597.0-3.119.228-4.488.761-1.369.533-2.587 1.293-3.652 2.206-.989.988-1.75 2.207-2.358 3.575-.608 1.445-.913 3.043-.913 4.793s.305 3.272.837 4.564c.533 1.294 1.294 2.435 2.13 3.347.913.914 1.978 1.674 3.119 2.13 1.141.533 2.358.762 3.576.762.456.0.913.0 1.369-.076s.913-.229 1.293-.381l-7.532 14.987h7.227l7.684-15.671c.837-1.674 1.522-3.348 2.13-4.869.609-1.597.913-3.195.913-4.869C315.796 221.689 315.492 220.091 314.883 218.722zM307.808 227.471c-.913.913-1.978 1.37-3.347 1.37-1.445.0-2.586-.457-3.424-1.37-.913-.989-1.293-2.283-1.293-3.88.0-1.75.456-3.043 1.293-3.956.913-.913 2.054-1.37 3.424-1.37 1.369.0 2.434.457 3.347 1.37s1.293 2.206 1.293 3.956C309.102 225.265 308.721 226.558 307.808 227.471z"/><path style="fill:#CECECF;" d="M358.476 212.559l-7.456 6.467v7.151l7.456-6.466v29.213h6.619v-36.365H358.476z"/><path style="fill:#CECECF;" d="M377.343 212.559v11.716h6.39v-5.706h9.586l-11.792 30.355h7.227l11.792-30.355v-6.01H377.343z"/><path style="fill:#CECECF;" d="M416.523 212.559l-7.38 6.467v7.151l7.38-6.466v29.213h6.694v-36.365H416.523z"/><path style="fill:#CECECF;" d="M457.3 218.722c-.533-1.445-1.369-2.586-2.358-3.575-1.065-.913-2.207-1.674-3.652-2.13-1.369-.533-2.815-.761-4.412-.761-1.598.0-3.119.228-4.489.761-1.369.533-2.586 1.293-3.652 2.206-.989.988-1.826 2.207-2.358 3.575-.609 1.445-.913 3.043-.913 4.793s.304 3.272.837 4.564c.533 1.294 1.293 2.435 2.13 3.347.913.914 1.902 1.674 3.119 2.13 1.141.533 2.358.762 3.575.762.456.0.913.0 1.369-.076.457-.076.913-.229 1.294-.381l-7.532 14.987h7.227l7.684-15.671c.837-1.674 1.522-3.348 2.13-4.869.608-1.597.913-3.195.913-4.869C458.213 221.689 457.909 220.091 457.3 218.722zM450.225 227.471c-.913.913-1.978 1.37-3.347 1.37-1.445.0-2.587-.457-3.424-1.37-.913-.989-1.293-2.283-1.293-3.88.0-1.75.456-3.043 1.293-3.956.913-.913 2.054-1.37 3.424-1.37 1.369.0 2.434.457 3.347 1.37s1.293 2.206 1.293 3.956C451.518 225.265 451.138 226.558 450.225 227.471z"/></g><g><path style="fill:#CECECF;" d="M323.404 308.341c-.456-.989-1.065-1.826-1.75-2.511-.761-.684-1.598-1.217-2.587-1.521-.989-.381-2.054-.533-3.119-.533-1.141.0-2.13.152-3.119.533-.989.305-1.826.837-2.587 1.521-.761.685-1.369 1.522-1.826 2.511-.38.989-.609 2.13-.609 3.347v11.259c0 1.294.228 2.435.609 3.424.457.989 1.065 1.826 1.826 2.51.761.685 1.598 1.217 2.587 1.521.989.381 1.978.533 3.119.533 1.065.0 2.13-.152 3.119-.533.989-.304 1.826-.836 2.587-1.521.685-.684 1.293-1.521 1.75-2.51s.609-2.13.609-3.424v-11.259C324.013 310.472 323.861 309.331 323.404 308.341zM319.144 322.948c0 1.141-.304 1.978-.837 2.663-.609.608-1.369.912-2.358.912s-1.75-.304-2.358-.912c-.609-.685-.913-1.522-.913-2.663v-11.183c0-1.064.304-1.978.913-2.663.609-.608 1.369-.913 2.358-.913s1.75.305 2.358.913c.533.685.837 1.598.837 2.663v11.183z"/><path style="fill:#CECECF;" d="M345.163 318.003c-.229-1.217-.913-2.359-1.978-3.424-.533-.532-1.217-.989-2.054-1.294-.837-.38-1.826-.532-2.967-.532-.837.0-1.673.152-2.358.456-.761.228-1.293.533-1.597.914v-5.782h10.803v-4.337H329.72v15.063h4.489c.152-.532.533-.988.989-1.445.532-.457 1.217-.76 2.282-.76 1.141.0 1.978.456 2.51 1.294.457.836.685 1.978.685 3.575.0.837.0 1.597-.152 2.283-.152.684-.456 1.217-.837 1.673-.609.608-1.369.836-2.358.836s-1.826-.228-2.282-.836c-.533-.609-.837-1.37-.989-2.435h-4.869c.076.989.228 1.902.533 2.891.304.913.837 1.826 1.674 2.662.532.533 1.369 1.065 2.358 1.521.989.381 2.206.609 3.575.609s2.587-.228 3.576-.609c.913-.456 1.75-.988 2.358-1.597.913-.912 1.597-1.978 1.902-3.118.304-1.065.456-2.435.456-3.88C345.619 320.438 345.467 319.22 345.163 318.003z"/><path style="fill:#CECECF;" d="M359.084 301.191l-10.727 32.333h4.564l10.727-32.333H359.084z"/><path style="fill:#CECECF;" d="M373.767 304.004l-5.477 4.718v5.249l5.477-4.717v21.453h4.869v-26.703H373.767z"/><path style="fill:#CECECF;" d="M395.069 304.004l-5.478 4.718v5.249l5.478-4.717v21.453h4.869v-26.703H395.069z"/><path style="fill:#CECECF;" d="M409.296 317.699v4.564h11.563v-4.564H409.296z"/><path style="fill:#CECECF;" d="M441.705 308.341c-.456-.989-1.065-1.826-1.826-2.511-.684-.684-1.597-1.217-2.586-1.521-.989-.381-1.978-.533-3.043-.533-1.141.0-2.13.152-3.119.533-.989.305-1.826.837-2.587 1.521-.761.685-1.369 1.522-1.826 2.511-.456.989-.609 2.13-.609 3.347v11.259c0 1.294.152 2.435.609 3.424.456.989 1.065 1.826 1.826 2.51.761.685 1.598 1.217 2.587 1.521.989.381 1.978.533 3.119.533 1.065.0 2.054-.152 3.043-.533.989-.304 1.902-.836 2.586-1.521.761-.684 1.37-1.521 1.826-2.51.38-.989.608-2.13.608-3.424v-11.259C442.313 310.472 442.085 309.331 441.705 308.341zM437.444 322.948c0 1.141-.305 1.978-.913 2.663-.532.608-1.369.912-2.282.912-.989.0-1.826-.304-2.358-.912-.609-.685-.913-1.522-.913-2.663v-11.183c0-1.064.304-1.978.913-2.663.533-.608 1.369-.913 2.358-.913.913.0 1.75.305 2.282.913.609.685.913 1.598.913 2.663v11.183z"/><path style="fill:#CECECF;" d="M463.006 308.341c-.456-.989-1.065-1.826-1.75-2.511-.761-.684-1.597-1.217-2.586-1.521-.989-.381-2.054-.533-3.12-.533-1.141.0-2.13.152-3.119.533-.989.305-1.826.837-2.587 1.521-.76.685-1.369 1.522-1.826 2.511-.38.989-.608 2.13-.608 3.347v11.259c0 1.294.228 2.435.608 3.424.456.989 1.065 1.826 1.826 2.51.761.685 1.598 1.217 2.587 1.521.989.381 1.978.533 3.119.533 1.065.0 2.13-.152 3.12-.533.989-.304 1.826-.836 2.586-1.521.685-.684 1.294-1.521 1.75-2.51s.608-2.13.608-3.424v-11.259C463.615 310.472 463.463 309.331 463.006 308.341zM458.746 322.948c0 1.141-.305 1.978-.837 2.663-.608.608-1.369.912-2.358.912-.988.0-1.75-.304-2.358-.912-.608-.685-.913-1.522-.913-2.663v-11.183c0-1.064.305-1.978.913-2.663.609-.608 1.37-.913 2.358-.913.989.0 1.75.305 2.358.913.533.685.837 1.598.837 2.663v11.183z"/></g><g><path style="fill:#CECECF;" d="M67.48 258.282v2.435h3.652v11.488h2.739v-11.488h3.652v-2.435H67.48z"/><path style="fill:#CECECF;" d="M89.847 261.934c-.152-.456-.229-.836-.456-1.217-.152-.381-.457-.762-.837-1.141-.456-.456-.989-.837-1.597-1.065-.609-.228-1.294-.381-2.054-.381-.837.0-1.522.152-2.13.381-.608.228-1.141.609-1.597 1.065-.38.38-.685.761-.837 1.141-.229.381-.305.761-.456 1.217-.076.457-.076.99-.152 1.522v3.575c.076.532.076.989.152 1.446.152.456.228.913.456 1.293.152.305.456.685.837 1.065.456.457.989.837 1.597 1.065.609.305 1.294.381 2.13.381.761.0 1.446-.076 2.054-.381.608-.228 1.141-.608 1.597-1.065.38-.38.685-.761.837-1.065.228-.38.304-.837.456-1.293.076-.457.152-.914.152-1.446v-3.575C89.999 262.923 89.923 262.391 89.847 261.934zM87.26 266.88c0 .456-.076.76-.152 1.064.0.305-.076.533-.152.685-.076.152-.229.304-.381.456-.152.229-.38.456-.684.532-.304.152-.609.228-.989.228s-.76-.076-1.065-.228c-.228-.076-.533-.304-.76-.532-.076-.152-.229-.304-.305-.456-.076-.152-.152-.381-.152-.685-.076-.305-.152-.608-.152-1.064v-3.348c0-.38.076-.761.152-1.065.0-.305.076-.533.152-.684.076-.152.228-.305.305-.457.228-.228.533-.38.76-.532.305-.152.685-.228 1.065-.228s.685.076.989.228.533.305.684.532c.152.152.305.305.381.457.076.151.152.38.152.684.076.305.152.685.152 1.065V266.88z"/><path style="fill:#CECECF;" d="M102.932 260.945c-.152-.533-.456-.99-.913-1.37-.38-.456-.837-.76-1.445-.989-.533-.229-1.217-.305-1.902-.305H93.27v13.923h2.739v-5.249h2.662c.685.0 1.369-.152 1.902-.381.609-.229 1.065-.533 1.445-.914.457-.38.761-.836.913-1.369.229-.533.304-1.14.304-1.673C103.236 262.01 103.161 261.478 102.932 260.945zM100.041 263.988c-.38.305-.913.533-1.522.533h-2.51v-3.804h2.51c.609.0 1.141.152 1.522.457.304.38.533.836.533 1.445C100.574 263.152 100.345 263.608 100.041 263.988z"/><path style="fill:#CECECF;" d="M115.181 260.717v-2.435h-9.129v13.923h9.129v-2.435h-6.39v-3.423h5.477v-2.435h-5.477v-3.195h6.39z"/><path style="fill:#CECECF;" d="M124.614 269.314c-.38.38-.913.532-1.597.532-.38.0-.685-.076-.989-.152-.304-.152-.533-.304-.761-.532-.076-.152-.228-.304-.304-.532-.076-.152-.152-.381-.228-.685.0-.305-.076-.608-.076-1.064.0-.457-.076-.99-.076-1.674.0-.684.076-1.217.076-1.673.0-.38.076-.761.076-1.065.076-.305.152-.533.228-.684.076-.152.228-.381.304-.457.228-.228.457-.456.761-.532.304-.152.609-.228.989-.228.684.0 1.217.152 1.597.533.381.38.609.836.761 1.445h2.739c-.228-1.445-.837-2.587-1.75-3.271-.913-.762-2.054-1.142-3.347-1.142-.761.0-1.522.152-2.13.381-.533.228-1.141.609-1.597 1.065-.305.38-.609.761-.837 1.141-.152.381-.304.761-.38 1.217-.076.457-.152.99-.152 1.522v3.575c0 .532.076.989.152 1.446.076.456.229.913.38 1.293.229.305.533.685.837 1.065.456.457 1.065.837 1.597 1.065.609.305 1.369.381 2.13.381 1.293.0 2.435-.381 3.347-1.065.913-.761 1.522-1.826 1.75-3.348h-2.739C125.223 268.477 124.995 268.933 124.614 269.314z"/><path style="fill:#CECECF;" d="M140.743 263.456c0-.532-.076-1.065-.152-1.522-.076-.456-.229-.836-.456-1.217-.152-.381-.456-.762-.761-1.141-.456-.456-.989-.837-1.597-1.065-.609-.228-1.294-.381-2.13-.381-.837.0-1.522.152-2.13.381-.609.228-1.141.609-1.598 1.065-.38.38-.609.761-.837 1.141-.152.381-.305.761-.38 1.217-.076.457-.152.99-.152 1.522s-.076 1.065-.076 1.75c0 .684.076 1.294.076 1.826.0.532.076.989.152 1.446.076.456.228.913.38 1.293.228.305.456.685.837 1.065.456.457.989.837 1.598 1.065.608.305 1.293.381 2.13.381s1.522-.076 2.13-.381c.608-.228 1.141-.608 1.597-1.065.305-.38.609-.761.761-1.065.228-.38.38-.837.456-1.293.076-.457.152-.914.152-1.446.0-.532.076-1.141.076-1.826S140.743 263.988 140.743 263.456zM138.004 266.88c0 .456-.076.76-.076 1.064-.076.305-.152.533-.228.685-.076.152-.152.304-.304.456-.229.229-.456.456-.761.532-.304.152-.609.228-.989.228s-.684-.076-.989-.228c-.304-.076-.533-.304-.761-.532-.152-.152-.228-.304-.304-.456-.152-.152-.152-.381-.229-.685-.076-.305-.076-.608-.152-1.064v-3.348c.076-.38.076-.761.152-1.065.076-.305.076-.533.229-.684.076-.152.152-.305.304-.457.228-.228.456-.38.761-.532s.609-.228.989-.228.685.076.989.228c.305.152.533.305.761.532.152.152.228.305.304.457.076.151.152.38.228.684.0.305.076.685.076 1.065.076.456.076.989.076 1.673C138.08 265.89 138.08 266.423 138.004 266.88z"/><path style="fill:#CECECF;" d="M152.002 258.282v8.521l-5.553-8.521h-2.435v13.923h2.739v-8.597l5.553 8.597h2.434v-13.923h-2.738z"/><path style="fill:#CECECF;" d="M173.38 266.88c-.152-.381-.38-.762-.685-1.066-.152-.152-.304-.304-.456-.38-.152-.152-.304-.228-.608-.38 1.141-.685 1.75-1.598 1.75-2.968.0-.608-.152-1.141-.304-1.597-.228-.457-.533-.837-.913-1.216-.304-.229-.532-.381-.913-.533-.076-.076-.228-.152-.38-.228-.609-.152-1.141-.228-1.826-.228h-5.553v13.923h5.782c.684.0 1.293-.152 1.75-.305.533-.228.989-.457 1.369-.837.38-.304.685-.761.837-1.217.228-.456.305-1.064.305-1.673C173.532 267.716 173.456 267.259 173.38 266.88zM166.152 260.717h2.663c.152.0.305.0.381.076.456.0.684.076.989.305.304.304.456.685.456 1.217.0.457-.152.838-.456 1.141-.381.304-.761.456-1.37.456h-2.663V260.717zM170.337 269.314c-.304.304-.761.456-1.293.456h-2.891v-3.423h2.891c.533.0.989.152 1.293.457.305.304.533.685.533 1.217C170.869 268.553 170.641 269.009 170.337 269.314z"/><path style="fill:#CECECF;" d="M182.509 258.282h-2.13l-5.097 13.923h2.815l.837-2.511h4.945l.837 2.511h2.815L182.509 258.282zm-2.815 9.13 1.826-5.021 1.674 5.021h-3.5z"/><path style="fill:#CECECF;" d="M197.725 258.282v8.521l-5.554-8.521h-2.358v13.923h2.663v-8.597l5.554 8.597h2.435v-13.923H197.725z"/><path style="fill:#CECECF;" d="M210.506 263.759l4.564-5.477h-3.271l-4.945 6.01v-6.01h-2.663v13.923h2.663v-4.185l1.826-2.207 3.575 6.391h3.195L210.506 263.759z"/></g><g><path style="fill:#CECECF;" d="M355.813 171.098c-.38.381-.913.533-1.597.533-.381.0-.685-.076-.989-.229-.305-.076-.533-.305-.761-.457-.076-.152-.228-.305-.304-.532-.076-.152-.152-.381-.228-.684.0-.305-.076-.685-.076-1.066.0-.456-.076-.988-.076-1.673s.076-1.217.076-1.674.076-.761.076-1.064c.076-.305.152-.533.228-.685.076-.228.228-.381.304-.533.228-.227.456-.38.761-.532.304-.076.608-.151.989-.151.684.0 1.217.151 1.597.532.38.38.609.837.761 1.445h2.739c-.229-1.521-.837-2.586-1.75-3.347-.913-.684-2.054-1.065-3.347-1.065-.761.0-1.522.152-2.054.381-.609.228-1.141.608-1.674 1.064-.304.381-.608.761-.761 1.141-.228.305-.38.76-.456 1.217-.076.457-.152.913-.152 1.445v3.652c0 .533.076.99.152 1.446.076.456.228.837.456 1.217.152.381.457.761.761 1.14.533.457 1.065.838 1.674 1.066.533.228 1.293.38 2.054.38 1.293.0 2.434-.38 3.347-1.141.913-.684 1.521-1.826 1.75-3.271h-2.739C356.422 170.261 356.193 170.717 355.813 171.098z"/><path style="fill:#CECECF;" d="M369.583 167.903c.38-.076.685-.229.989-.457.305-.229.609-.457.837-.761.228-.305.381-.684.533-1.065.076-.229.152-.533.152-.837.076-.152.076-.381.076-.532.0-.533-.152-1.142-.305-1.598-.228-.532-.532-.989-.913-1.37-.38-.38-.837-.684-1.445-.912-.304-.152-.532-.229-.913-.305h-.076c-.304-.076-.608-.076-.913-.076h-5.401v13.922h2.663v-5.553h1.978l2.739 5.553h3.119L369.583 167.903zM368.899 165.62c-.381.305-.837.533-1.445.533h-2.587v-3.729h2.587c.608.0 1.065.152 1.445.532.38.305.533.762.533 1.295C369.431 164.859 369.279 165.24 368.899 165.62z"/><path style="fill:#CECECF;" d="M384.647 162.425v-2.434h-9.206v13.922h9.206v-2.434h-6.467v-3.348h5.478v-2.434h-5.478v-3.272H384.647z"/><path style="fill:#CECECF;" d="M397.808 164.479c0-.152-.076-.304-.076-.38.0-.381-.152-.761-.228-1.066-.152-.38-.305-.684-.533-.988-.456-.685-1.065-1.217-1.75-1.522-.684-.304-1.445-.532-2.435-.532h-5.021v13.922h5.021c.989.0 1.75-.151 2.435-.456.381-.152.685-.381.989-.609.305-.229.533-.532.761-.913.228-.304.38-.608.533-.989.076-.305.228-.684.228-1.064.076-.381.076-.838.152-1.294v-3.196C397.808 165.087 397.808 164.784 397.808 164.479zM395.145 168.435c0 .38-.076.684-.076.989-.076.305-.076.533-.152.684-.076.228-.229.381-.304.532-.456.609-1.141.838-2.054.838h-2.054v-9.054h2.054c.913.0 1.598.305 2.054.913.076.152.228.305.304.533.076.152.076.381.152.684.0.304.076.608.076.989v2.892z"/><path style="fill:#CECECF;" d="M401.155 159.991v13.922h2.663v-13.922H401.155z"/><path style="fill:#CECECF;" d="M406.557 159.991v2.434h3.652v11.488h2.663v-11.488h3.652v-2.434H406.557z"/><path style="fill:#CECECF;" d="M430.521 171.098c-.38.381-.913.533-1.598.533-.38.0-.684-.076-.989-.229-.305-.076-.533-.305-.761-.457-.076-.152-.228-.305-.304-.532-.076-.152-.152-.381-.228-.684.0-.305-.076-.685-.076-1.066-.076-.456-.076-.988-.076-1.673s0-1.217.076-1.674c0-.457.076-.761.076-1.064.076-.305.152-.533.228-.685.076-.228.228-.381.304-.533.228-.227.456-.38.761-.532.304-.076.608-.151.989-.151.685.0 1.217.151 1.598.532.38.38.609.837.761 1.445h2.739c-.228-1.521-.837-2.586-1.75-3.347-.913-.684-2.054-1.065-3.347-1.065-.761.0-1.521.152-2.13.381-.533.228-1.141.608-1.598 1.064-.38.381-.608.761-.837 1.141-.152.305-.304.76-.38 1.217-.076.457-.152.913-.152 1.445v3.652c0 .533.076.99.152 1.446.076.456.228.837.38 1.217.228.381.456.761.837 1.14.456.457 1.065.838 1.598 1.066.609.228 1.369.38 2.13.38 1.294.0 2.435-.38 3.347-1.141.913-.684 1.522-1.826 1.75-3.271h-2.739C431.13 170.261 430.901 170.717 430.521 171.098z"/><path style="fill:#CECECF;" d="M442.541 159.991h-2.13l-5.097 13.922h2.891l.837-2.434h4.945l.837 2.434h2.815L442.541 159.991zM439.803 169.196l1.75-5.097 1.673 5.097h-3.423z"/><path style="fill:#CECECF;" d="M457.224 167.903c.38-.076.684-.229.989-.457.304-.229.609-.457.837-.761.228-.305.38-.684.533-1.065.152-.381.228-.837.228-1.369.0-.533-.076-1.142-.304-1.598-.228-.532-.533-.989-.913-1.37-.38-.38-.837-.684-1.445-.912-.533-.229-1.141-.381-1.826-.381h-5.478v13.922h2.739v-5.553h1.902l2.739 5.553h3.119L457.224 167.903zM456.539 165.62c-.38.305-.837.533-1.445.533h-2.51v-3.729h2.51c.609.0 1.065.152 1.445.532.381.305.533.762.533 1.295C457.072 164.859 456.92 165.24 456.539 165.62z"/><path style="fill:#CECECF;" d="M473.124 164.099c-.076-.381-.152-.761-.304-1.066-.076-.38-.304-.684-.456-.988-.533-.685-1.141-1.217-1.826-1.522-.609-.304-1.445-.532-2.434-.532h-5.021v13.922h5.021c.989.0 1.826-.151 2.434-.456.684-.305 1.293-.838 1.826-1.522.152-.304.38-.608.456-.989.152-.305.228-.684.304-1.064.0-.381.076-.838.076-1.294v-3.196C473.2 164.935 473.124 164.479 473.124 164.099zM470.462 168.435c0 .38.0.684-.076.989.0.305-.076.533-.152.684-.076.228-.152.381-.305.532-.456.609-1.141.838-2.054.838h-2.054v-9.054h2.054c.913.0 1.597.305 2.054.913.152.152.228.305.305.533.076.152.152.381.152.684.076.304.076.608.076.989v2.892z"/></g><g><g><path style="fill:#F7D072;" d="M474.622 33.917v53.619c0 2.158-1.765 3.923-3.923 3.923h-66.043c-2.158.0-3.923-1.765-3.923-3.923V33.917c0-2.158 1.765-3.923 3.923-3.923h66.043C472.856 29.993 474.622 31.759 474.622 33.917z"/></g><path style="opacity:0.2;fill:#FFFFFF;" d="M460.115 42.984l11.488-11.488h-3.728l-9.89 9.966-1.521 1.522-1.141 1.065-7.836 7.836h-17.041l-1.522-1.522-6.314-6.314-2.511-2.587-9.966-9.966h-3.728l9.89 9.966 1.522 1.522h-15.748v2.586h18.41l4.869 4.945 1.293 1.37v3.042h-24.573v2.663h24.573v9.357h-24.573v2.586h24.573v3.119h.152L422 77.37l-1.522 1.522h-18.41v2.663h15.748l-9.89 9.89h3.728l9.89-9.89 8.901-8.9h17.041l18.868 18.791h3.651l-9.89-9.89h14.53v-2.663h-17.117l-6.238-6.238v-3.119h23.356V66.95H451.29v-9.357h23.356V54.93H451.29v-3.042l6.238-6.315h17.117v-2.586h-14.53zM448.704 69.991h-19.476V54.472h19.476V69.991z"/><g><g><path style="fill:#717070;" d="M429.152 50.363l2.587 2.586h11.868l1.065-1.064 1.522-1.522H429.152zm0 0 2.587 2.586h11.868l1.065-1.064 1.522-1.522H429.152zm0 0 2.587 2.586h11.868l1.065-1.064 1.522-1.522H429.152zm0 0 2.587 2.586h11.868l1.065-1.064 1.522-1.522H429.152zm15.976 19.628-1.521-1.521h-11.868l-1.445 1.521h-.076l-1.065 1.141h17.041L445.128 69.991zM429.152 50.363l2.587 2.586h11.868l1.065-1.064 1.522-1.522H429.152zM425.348 50.363v20.769h24.649V50.363H425.348zM447.41 68.47h-19.476V52.95h19.476V68.47zM429.152 50.363l2.587 2.586h11.868l1.065-1.064 1.522-1.522H429.152zm0 0 2.587 2.586h11.868l1.065-1.064 1.522-1.522H429.152zm0 0 2.587 2.586h11.868l1.065-1.064 1.522-1.522H429.152zm0 0 2.587 2.586h11.868l1.065-1.064 1.522-1.522H429.152zm0 0 2.587 2.586h11.868l1.065-1.064 1.522-1.522H429.152zm0 0 2.587 2.586h11.868l1.065-1.064 1.522-1.522H429.152z"/></g><g><g><polygon style="fill:#717070;" points="420.234,41.436 422.85,44.052 400.732,44.052 400.732,41.436"/><polygon style="fill:#717070;" points="474.622,41.436 474.622,44.052 452.504,44.052 455.119,41.436"/></g><g><rect x="400.732" y="53.425" style="fill:#717070;" width="27.218" height="2.616"/><rect x="447.403" y="53.425" style="fill:#717070;" width="27.218" height="2.616"/></g><g><rect x="400.732" y="65.415" style="fill:#717070;" width="27.218" height="2.616"/><rect x="447.403" y="65.415" style="fill:#717070;" width="27.218" height="2.616"/></g><g><polygon style="fill:#717070;" points="422.853,77.4 420.237,80.016 400.732,80.016 400.732,77.4"/><polygon style="fill:#717070;" points="474.622,77.4 474.622,80.016 455.116,80.016 452.501,77.4"/></g></g><g><polygon style="fill:#717070;" points="431.762,68.491 408.794,91.459 405.097,91.459 428.065,68.491"/><polygon style="fill:#717070;" points="470.26,29.993 447.292,52.961 443.595,52.961 466.563,29.993"/></g><g><polygon style="fill:#717070;" points="431.759,52.961 428.061,52.961 405.093,29.993 408.791,29.993"/><polygon style="fill:#717070;" points="470.257,91.459 466.559,91.459 446.207,71.107 445.118,70.018 443.591,68.491 447.289,68.491 448.711,69.913 449.905,71.107 451.327,72.529 456.198,77.4 457.725,78.927 458.814,80.016 460.341,81.543"/></g></g></g><g><path style="fill:#DC3B39;" d="M79.019 53.425c0-8.186 3.376-15.58 8.806-20.878-5.258-5.13-12.442-8.296-20.368-8.296-16.113.0-29.174 13.062-29.174 29.174.0 16.113 13.062 29.174 29.174 29.174 7.927.0 15.111-3.166 20.368-8.296C82.395 69.006 79.019 61.611 79.019 53.425z"/><path style="fill:#E6AB2D;" d="M108.193 24.251c-7.927.0-15.11 3.166-20.368 8.296 5.43 5.298 8.806 12.692 8.806 20.878s-3.376 15.58-8.806 20.878c5.258 5.13 12.442 8.296 20.368 8.296 16.113.0 29.174-13.062 29.174-29.174.0-16.112-13.062-29.174-29.174-29.174z"/><path style="fill:#D67261;" d="M96.631 53.425c0-8.186-3.376-15.58-8.806-20.878-5.43 5.298-8.806 12.692-8.806 20.878s3.376 15.58 8.806 20.878C93.255 69.006 96.631 61.611 96.631 53.425z"/><g><g><path style="fill:#E6AB2D;" d="M96.631 53.424c0-.616-.025-1.226-.063-1.833L83.26 38.284c-.975 1.601-1.802 3.302-2.458 5.087l15.34 15.34C96.457 56.995 96.631 55.231 96.631 53.424z"/></g><path style="fill:#E6AB2D;" d="M79.316 49.297c-.191 1.349-.297 2.726-.297 4.127.0 1.12.069 2.224.192 3.311l12.653 12.653c1.018-1.551 1.891-3.204 2.602-4.942L79.316 49.297z"/></g></g><rect y="186.085" style="opacity:0.2;fill:#040000;" width="512" height="6.391"/></g><path style="opacity:0.2;fill:#040000;" d="M512 16.281v315.265c0 8.977-7.38 16.356-16.357 16.356H82.087L163.49 266.5l2.662-2.663 3.043-3.042 2.054-2.054 42.375-42.376 2.206-2.206v-.076l1.445-1.37.152-.152 6.467-6.542 2.054-1.978 11.564-11.564 6.391-6.391 68.393-68.393 21.986-21.985 94.336-94.413L429.912.0h65.731C504.62.0 512 7.303 512 16.281z"/></g></svg>