<svg width="800" height="800" viewBox="0 0 1024 1024" class="icon" xmlns="http://www.w3.org/2000/svg"><path d="M512 512m-480 0a480 480 0 10960 0 480 480 0 10-960 0z" fill="#FFE8CD"/><path d="M224 364.8c0-25.6 19.2-44.8 51.2-44.8h480c25.6.0 51.2 19.2 51.2 44.8v288c0 25.6-19.2 44.8-51.2 44.8h-480c-25.6.0-51.2-19.2-51.2-44.8v-288z" fill="#FF9D1C"/><path d="M224 390.4h576v70.4H224z" fill="#FFCA83"/><path d="M633.6 608c0-12.8 12.8-25.6 25.6-25.6h70.4c12.8.0 25.6 12.8 25.6 25.6v25.6c0 12.8-12.8 25.6-25.6 25.6h-70.4c-12.8.0-25.6-12.8-25.6-25.6V608z" fill="#FFF"/></svg>