<svg id="_x35_" xmlns="http://www.w3.org/2000/svg" viewBox="0 0 512 512"><g><rect style="fill:#587B78;" width="510.811" height="306.011"/><path style="fill:#587B78;" d="M40.988.0v.489c-.21 3.707 6.015.77 8.464 1.679-2.238 4.476-7.484 3.217-11.821 1.679C38.4 2.798 39.1 1.679 39.309.0H0v306.011h1.189v-.56h276.914c-.49-.979-.979-2.028-1.259-3.218-.14-.42-.28-.909-.28-1.329-.21-.769-.28-1.539-.35-2.448v-.07c-.07-.63-.07-1.119-.07-1.749v-.21c0-6.995 3.427-12.66 7.694-12.66h70.715c-.14-.35-.14-.629-.21-.909-.769-3.917 4.197-2.099 6.995-2.518-1.119 2.238-3.567 3.148-6.575 3.427h13.709c4.267.0 7.764 5.666 7.764 12.66.0.07-.07.14-.07.14.07.14.07.21.07.35.0 3.288-.769 6.225-2.028 8.534h12.73c-.49-.979-.979-2.028-1.259-3.218-.14-.42-.28-.909-.28-1.329-.21-.769-.28-1.539-.35-2.448v-.07c-.07-.63-.07-1.119-.07-1.749v-.21c0-6.995 3.427-12.66 7.694-12.66h84.634c4.266.0 7.764 5.666 7.764 12.66.0.07-.07.14-.07.14.0.14.07.21.07.35.0 3.288-.769 6.225-2.028 8.534h27.768V178.081c-2.378.21-4.616.35-6.155 1.119-2.658-2.658 1.189-4.407 6.155-5.036V0H40.988zM359.659 57.845c-.07.7-.21 1.329-.559 1.749-.14.28-.35.49-.56.63-1.469 1.259-4.337 1.189-7.275.979.0-.35.07-.7.14-.979C352.245 57.565 355.882 57.565 359.659 57.845zm1.678 47.213c-.769 2.098-2.168 3.427-5.036 3.358C357.001 106.317 358.47 104.918 361.337 105.058zm-11.82-67.497c.35-.07.7-.07.979-.07.7.0 1.119.14 1.469.49.21.21.42.49.49.769.42 1.049.35 2.588.49 3.917-2.099-.699-3.497-2.168-3.428-5.036V37.561zm-6.505 47.842c.21-.49.42-.909.839-1.259.7-.699 1.819-1.049 3.218-1.049h.769v.07c.35 3.637-1.399 5.316-5.036 4.966C342.732 87.082 342.802 86.172 343.012 85.403zM337.766 93.237C338.046 88.201 344.76 94.846 337.766 93.237zM317.482 44.345c3.008 1.259.28 3.078.0 5.036C314.474 48.192 317.272 46.374 317.482 44.345zM298.946 61.202c-.56 4.476-4.057 6.085-10.142 5.036C290.833 63.02 294.61 57.075 298.946 61.202zM243.34 76.38c8.254.28 10.842-.839 13.22-.28.35.14.699.21 1.049.42.42.14.769.42 1.189.699.56.35 1.189.839 1.889 1.469l1.119 1.119c-.42.42-.839.769-1.259 1.189-3.008 2.938-5.316 6.435-10.492 7.135-6.505-3.148 1.749-11.681-8.394-6.715C242.57 80.087 243.41 78.688 243.34 76.38zM226.483 248.306c-.07-1.959.699-3.218 1.889-3.917.42-.28.839-.42 1.329-.49 1.259-.21 2.658.14 3.497 1.049-.07.77-.35 1.329-.7 1.819-.07.14-.21.28-.35.42-.07.14-.21.21-.35.28-.07.14-.28.28-.42.28l-.07.07c-.21.14-.42.21-.7.28-.629.28-1.469.35-2.448.35C227.672 248.446 227.112 248.376 226.483 248.306zm1.679-43.786c.699-2.098 2.168-3.497 5.036-3.358C233.967 204.73 230.82 204.31 228.162 204.52zM202.841 96.594v3.357h-3.357v-3.357h3.357zm-10.072 15.178C193.119 106.736 199.764 113.381 192.769 111.772zM179.27 49.381c-6.435 2.518-.35-7.484-6.715-5.036-.28-3.008 2.029-3.567 1.679-6.715v-.07c.49.14.909.35 1.259.629.28.21.559.42.769.769.21.28.42.56.559.979.35.7.56 1.539.7 2.518.21.84.35 1.749.56 2.728.14.63.28 1.329.489 2.029C178.78 47.912 178.99 48.612 179.27 49.381zM169.128 51.13C169.477 46.024 176.122 52.669 169.128 51.13zm-13.5-1.749h3.427v3.427h-3.427V49.381zM154.02 157.307v-5.106c.28-.14.559-.28.769-.28.629-.14 1.189-.07 1.609.14 1.679.979 1.679 4.407.0 5.385C155.838 157.797 154.999 157.797 154.02 157.307zm-6.785-59.034c-4.686-.839-8.743-2.448-13.499-3.358 1.749-3.917 5.805-5.385 11.821-5.036C144.857 93.937 148.634 93.517 147.235 98.273zM90.02 124.712c.07-.14.14-.21.21-.28.07-.14.14-.21.28-.28.35-.21.699-.35 1.119-.49.42-.07.839-.14 1.329-.14 2.168.0 4.337 1.049 2.099 3.357.0-.629-4.617-1.609-5.106-1.609C89.88 125.062 89.95 124.922 90.02 124.712zM86.522 118.557c-.35 1.329-1.749 1.679-2.798 2.378-.21.21-.42.35-.559.56-.56.769-.7 1.819.0 3.777-4.756 1.399-4.337-2.378-8.394-1.679C78.409 121.565 82.465 120.096 86.522 118.557zM34.273 74.702c.699.14 1.119.559 1.609.979.42.35.909.7 1.749.7-.28 1.329-1.679 1.679-1.679 3.357v.07c-.35-.07-.63-.21-.839-.42-.49-.35-.909-.839-1.469-1.119-.28-.14-.63-.21-1.049-.21C32.944 76.73 34.273 76.38 34.273 74.702zM23.431 169.687c.35-.21.839-.42 1.259-.629.56-.35 1.119-.769 1.189-1.609.21.0.42.07.629.21.14.0.28.14.35.35.14.14.21.28.28.49.07.14.14.35.14.56.069.21.069.42.069.629.14.909.07 1.959.21 2.798h-5.106C22.033 170.806 22.662 170.107 23.431 169.687zM20.774 24.131c-.769.49-1.469.909-2.028 1.329-2.868 2.099-3.847 4.267-5.875 5.596-.28.28-.63.489-1.049.629-.35.21-.769.35-1.259.49s-.979.28-1.539.35C11.191 27.978 14.409 24.481 20.774 24.131zm38.82 252.852c-4.267 8.11399999999998-10.353 2.029.0.0zM84.984 286.566c-.35-.21-.7-.42-.979-.769-.63-.769-.909-1.959-.839-3.707 1.189-.07 2.098-.35 2.868-.629.63-.28 1.189-.49 1.749-.63.35-.14.7-.21 1.049-.21.35-.07.699.0 1.119.21.28.14.56.35.909.56.21.21.49.42.769.699C91.139 285.097 87.362 287.545 84.984 286.566zM93.307 276.983C93.657 271.948 100.302 278.592 93.307 276.983zm38.75-129.818c0-.35.14-.699.21-.979H81.976v23.991h44.346v17.766H81.976v24.831h52.039v17.766h-8.393c-.49.42-1.329.49-2.378.0h-63.16v-33.853c-.35-.21-.56-.42-.77-.56v-.07c-.42-.49-.42-1.119.0-1.679.21-.21.42-.42.77-.63v-65.329h11.401c.21-.49.42-.909.7-1.259.07-.14.14-.28.28-.42l.14-.14c.07-.07.21-.21.28-.21.56-.559 1.259-.839 2.168-.979.07-.07.21-.07.28-.07.28-.07.49-.07.769-.07h.35c.07.28.07.49.07.699.07.21.07.42.0.56.0.56-.21.979-.56 1.259-.14.14-.28.21-.49.28-.14.14-.28.21-.49.21-.14.07-.28.07-.42.14h59.454v11.821c.49.07.909.14 1.399.21-.42.56-.909.979-1.399 1.329v3.637C135.484 145.976 136.463 148.214 132.057 147.165zM125.342 147.165c-.21 6.295-2.518 4.267-6.785 3.357C118.977 147.585 121.495 146.675 125.342 147.165zm-21.963 13.499C103.729 155.628 110.373 162.273 103.379 160.664zm32.035-40.428c-8.673 1.259-6.995-8.883-3.357-11.821C136.253 109.325 136.533 114.99 135.414 120.236zM154.02 297.198c-.28 1.469-1.119 2.448-2.378 3.008-.629.21-1.329.42-2.168.49-1.189.14-2.518.07-3.917-.07v-6.785h8.464C154.299 295.239 154.299 296.358 154.02 297.198zm-3.428-37.071c.42-2.938 2.938-3.847 6.785-3.358v5.036h5.036C158.916 267.331 153.67 260.546 150.592 260.127zm15.178 16.856c1.469-2.448 2.518-5.316 6.785-5.036C171.087 274.395 169.967 277.263 165.77 276.983zm15.179-18.535h-3.357v-3.357h3.357v3.357zm35.112-50.711h-60.993v-17.486h60.993v17.486zm0-31.125h-60.993v-17.486h60.993v17.486zm-4.756-73.233v-3.427c3.357-.56 5.246.35 5.036 3.427h-5.036zM223.546 101.63c-1.189.07-2.448.07-3.847.0-.14-.56-.21-.979-.21-1.329.0-.49.07-.909.28-1.119.07-.21.28-.42.49-.56.14-.14.42-.21.63-.28.21-.14.49-.21.839-.21 2.378-.28 6.085.769 8.114.14-.21.35-.42.699-.699 1.049-.35.35-.7.7-1.189.979-.35.28-.63.42-1.049.56-.42.21-.909.35-1.399.49C224.944 101.49 224.245 101.56 223.546 101.63zM226.483 260.127c2.658.14 6.435-.77 6.715 1.679C235.016 267.751 222.846 266.352 226.483 260.127zM234.877 148.844h-3.358v-3.357h3.358v3.357zM236.695 105.967c.07-.14.07-.28.14-.35.14-.35.35-.56.63-.699.559-.28 1.259.0 1.679.42.21.14.42.28.49.49.42.769.0 1.609-3.008.909C236.625 106.457 236.625 106.177 236.695 105.967zM243.34 241.591C245.298 236.485 252.293 243.41 243.34 241.591zm16.857 23.572C260.546 260.127 267.191 266.771 260.197 265.163zm18.535 18.185c-.839 1.679-5.875-.909-6.715.77-.14.28-.14.699.0 1.259-.56-.28-.979-.42-1.259-.63-3.288-1.958 4.966-2.168 2.938-6.085.42.14.769.28 1.049.56.909.629 1.539 1.609 2.448 2.238.42.28.909.559 1.539.629C278.872 282.649 278.872 283.069 278.732 283.348zM275.375 266.911c1.189-8.323 9.652 1.679 10.072-1.749C290.903 268.24 276.983 270.409 275.375 266.911zm13.429-10.142h-3.357v-3.357h3.357v3.357zm48.962-32.035C343.501 229.071 329.093 228.791 337.766 224.734zM360.638 229.56c-.35.49-1.609.77-4.337.21.699-1.889 2.098-2.098 3.148-1.749.21.0.42.07.559.28.21.14.42.28.56.42C360.778 229.001 360.848 229.351 360.638 229.56zM361.757 220.957h-20.564v-45.115c0-2.588-.35-4.756-1.189-6.505-.769-1.679-1.819-3.078-3.148-4.126-1.329-1.049-2.798-1.819-4.407-2.308-1.609-.49-3.217-.699-4.826-.699h-.7c-1.329.07-2.728.28-4.127.699-1.609.49-3.078 1.189-4.407 2.238-1.259.979-2.378 2.378-3.218 4.057-.839 1.749-1.259 3.777-1.259 6.155v45.605h-20.494v-45.115c0-2.588-.42-4.756-1.189-6.505-.769-1.679-1.818-3.078-3.147-4.126-1.329-1.049-2.798-1.819-4.407-2.308-1.679-.49-3.288-.699-4.826-.699h-.7c-1.329.07-2.728.28-4.127.699-1.609.49-3.078 1.259-4.407 2.308s-2.378 2.448-3.218 4.126c-.839 1.749-1.259 3.917-1.259 6.505v45.115h-20.494v-34.203h-.07c-.14.0-.21.07-.35.07-.07.07-.21.07-.35.07-.35.07-.7.07-.979.07-.42.0-.769-.07-1.189-.21-.63-.07-1.189-.35-1.679-.699-.35-.14-.63-.42-.909-.63v-.07c-.42-.35-.77-.77-1.049-1.329-.21-.28-.35-.7-.49-1.049-.21-.63-.35-1.259-.35-2.028h7.414v-34.693h20.004v6.924c2.728-2.518 5.876-4.406 9.443-5.805 1.958-.699 3.987-1.259 6.015-1.609.629-.14 1.329-.21 1.958-.21.77-.14 1.609-.14 2.378-.14h.35c1.119.0 2.238.07 3.288.14.839.07 1.679.21 2.518.28 2.448.35 4.756.979 6.924 1.819 3.497 1.539 6.505 3.777 9.093 6.855l.28.35c3.497-3.357 7.204-5.736 11.051-7.274 2.099-.769 4.337-1.329 6.785-1.749.909-.14 1.819-.21 2.798-.28 1.049-.14 2.168-.14 3.288-.14h.35c.979.0 1.959.07 2.868.07 3.147.21 6.155.699 8.953 1.609 3.497 1.189 6.435 2.798 8.743 4.896 3.357 3.078 5.666 6.365 6.995 9.862 1.329 3.428 2.028 7.275 2.028 11.401V220.957zM371.48 138.771c-1.819-.42-1.189-3.357-3.427-3.357.28-2.029 3.078-1.469 5.106-1.749C373.578 136.463 371.55 136.603 371.48 138.771zM491.156 98.273C491.436 93.237 498.15 99.882 491.156 98.273zM467.515 5.596c-.21 6.225-2.378 4.197-6.715 3.357C461.22 5.945 463.667 5.106 467.515 5.596zm-5.036 31.965v-3.288h3.427v3.288H462.479zm-3.358-15.318c0-.28.07-.49.28-.63.07-.14.28-.28.49-.42 1.819-.979 6.365-.49 5.036 1.959-.21.28-.42.559-.699.839.0-.28-.979-.63-2.028-.839-.7-.21-1.469-.42-2.029-.56-.629-.14-1.049-.21-1.049-.14v-.209zm-1.678 5.246c1.818.42 1.119 3.357 3.357 3.357-.35 1.959-1.679.979-1.679.0-1.469-.28-1.609.699-1.679 1.679-1.609.0-1.329-2.028-1.679-3.357C457.163 29.517 457.303 28.537 457.443 27.489zm-18.536 91.068c5.80600000000004 4.337-8.673 4.057.0.0zm-11.821-25.32C427.436 88.201 434.081 94.846 427.086 93.237zm11.821 20.214c0 .14-.14.35-.35.49-.35.35-.979.699-1.749 1.049-.769.35-1.679.699-2.728.979-.769.21-1.609.42-2.448.49-.77.14-1.609.21-2.378.21-3.287.0-6.015-1.189-5.525-4.896C428.975 112.122 436.109 110.653 438.907 113.451zM418.623 46.024C418.973 40.988 425.617 47.633 418.623 46.024zM412.048 118.627c.35-.07.63.0.909.14.49.14.909.35 1.189.699.07.0.14.07.14.14.14.07.21.14.14.21.28.21.42.559.56.909.07.14.07.21.07.35.21.42.28.909.28 1.469v1.049h-.909c-.49.0-.909-.07-1.329-.21-.21.07-.42.0-.63-.14-.489-.14-.839-.42-1.189-.7-.839-.839-1.259-2.168-1.049-3.987C410.929 118.487 411.559 118.557 412.048 118.627zM404.844 23.431l.839.839c.28.28.49.56.699.769.21.14.21.21.21.28-.21-.14-.63-.49-1.399-1.189-.35-.35-.629-.699-.839-.909-.28-.35-.35-.489-.35-.489C404.144 22.732 404.424 23.012 404.844 23.431zM403.515 42.667C405.963 37.071 407.641 49.241 403.515 42.667zM398.409 56.166c-.909 1.049-1.609 1.609-2.168 1.819-.77.28-1.259.0-1.539-.42C393.722 56.236 394.841 52.948 398.409 56.166zm-3.358-16.857h3.358C397.989 45.395 391.344 44.275 395.051 39.309zM387.567 104.918c.49-.28 1.259.0 1.679.42.21.14.35.28.42.42.14.28.21.559.07.839-.07.14-.21.21-.42.28-.489.14-1.329.14-2.658-.14C386.728 105.687 387.078 105.128 387.567 104.918zM376.516 250.055C380.433 241.661 387.707 248.865 376.516 250.055zM384.909 251.733c1.539-3.567.07-10.072 6.785-8.464C389.176 245.998 393.792 252.363 384.909 251.733zm3.428-13.499v-5.036C393.232 230.68 393.232 240.682 388.337 238.234zm41.407-70.156-.35-.35c-2.029-1.959-3.917-3.357-5.806-4.197-1.609-.7-3.497-1.119-5.596-1.259-.63-.07-1.259-.07-1.889-.07h-.35c-.49.0-.909.0-1.329.07-3.917.42-7.135 2.029-9.652 4.757-1.539 1.818-2.728 4.057-3.427 6.645-.769 2.588-1.119 5.876-1.119 9.863.0 7.694 1.539 13.22 4.547 16.647 2.518 2.798 5.736 4.407 9.652 4.826.42.07.839.07 1.329.07h.699c2.728.0 5.106-.489 7.135-1.399 1.889-.839 3.777-2.238 5.806-4.197l.35-.28 13.849 12.45c-3.707 3.428-7.694 6.016-12.03 7.694-4.407 1.679-9.443 2.518-15.109 2.518h-.699c-.839.0-1.749.0-2.588-.14-3.078-.28-6.225-.769-9.373-1.609-.559-.14-1.049-.35-1.609-.49-.14.0-.35.0-.49.07h-.07s-.07.0-.14.0c-.07.07-.14.07-.21.07s-.14.0-.21.07c-.28.07-.49.21-.7.28-.07.0-.07.07-.14.14-.14.07-.28.21-.42.35-1.539 1.469-1.749 4.127-3.078 5.805-3.008.21-3.567-2.029-6.715-1.679.0-.28.07-.63.14-.909.07-.28.14-.56.28-.909.21-.56.42-1.119.699-1.609.35-.559.769-1.189 1.259-1.749.42-.49.909-.979 1.399-1.399s.979-.84 1.539-1.189c.14-.14.28-.21.42-.28-1.329-.769-2.588-1.679-3.847-2.658-3.497-2.938-6.435-6.854-8.743-11.751-2.308-4.966-3.427-11.191-3.427-18.745s1.119-13.779 3.427-18.676c2.308-4.966 5.246-8.883 8.743-11.681 3.567-2.938 7.484-4.896 11.891-6.085 1.539-.42 3.148-.769 4.687-1.049 1.609-.21 3.147-.42 4.686-.56.839-.07 1.749-.07 2.588-.07h.699c5.666.0 10.702.769 15.109 2.378 4.336 1.679 8.323 4.197 12.03 7.624L429.744 168.078zM440.586 169.128c-3.008-1.259-.28-3.078.0-5.036C443.593 165.281 440.796 167.099 440.586 169.128zm-16.088 28.887c1.049-.21 1.958-.77 2.588-1.959.35.35.56.63.699.909.24.447.287.841.198 1.194-.097.365-.339.696-.687.974-1.889 1.609-6.715 2.168-10.282 1.609-.42-.07-.769-.14-1.119-.28-.42-.07-.77-.21-1.119-.35-.49-.14-.909-.35-1.189-.63v-.07c0-3.707 2.728-2.868 5.875-2.028C421.141 197.875 422.959 198.365 424.498 198.015zm29.587-17.066h-5.106v-3.427c3.427-.56 5.316.35 5.106 3.357V180.949zm10.072 69.106c-.769-.839-1.119-1.329-1.189-1.399.14.0.49.28.839.699.14.14.28.28.42.42.14.14.28.28.42.42.28.28.49.56.699.77.21.14.28.21.21.28C465.346 251.104 464.926 250.754 464.157 250.055zM455.764 162.343c1.749-1.679 2.658-2.728 3.218-3.497.14-.14.21-.28.35-.35.979-1.189 1.539-1.399 6.575-2.868 2.238.489 1.329 4.197 1.609 6.714H455.764zm16.857 87.712c-2.728-4.337-4.267-7.484-8.464-13.5 5.246-.839 8.184 2.099 5.036 5.036 4.756-.909 8.743-2.448 13.499-3.357-.42.629-.769 1.189-1.119 1.749C478.216 245.088 476.747 246.347 472.621 250.055zM479.405 138.631v4.127h-36.791v-10.982l.909-.979 3.078-3.287 16.507-17.416c.839-.909 1.398-1.679 1.749-2.308.28-.56.42-1.259.42-2.028.0-1.259-.35-2.168-1.049-2.868-.63-.699-1.679-1.049-3.218-1.049h-.14c-.56.0-1.119.07-1.679.28-.49.14-.909.35-1.329.63-.35.28-.63.629-.839 1.119-.21.49-.35 1.119-.35 2.028v2.168h-14.059v-2.168c0-2.588.42-4.896 1.399-6.924s2.308-3.777 4.057-5.176c1.679-1.399 3.637-2.518 5.875-3.218.769-.21 1.539-.42 2.308-.559.14-.07.21-.14.35-.21.7-.49 1.469-.839 2.169-1.329.35-.21.699-.42 1.049-.699.35-.35.7-.769.979-1.259 1.399.629 1.469 1.819.769 3.008.07.0.14.0.21.07h.42c2.098.07 4.127.42 6.015 1.049 2.238.7 4.197 1.819 5.875 3.148 1.679 1.399 2.938 3.148 3.917 5.246.909 1.959 1.398 4.267 1.398 6.785.0 1.329-.14 2.588-.49 3.707-.28 1.119-.699 2.168-1.259 3.148-.559 1.049-1.259 2.028-2.098 2.938-.699.909-1.539 1.819-2.448 2.798l-11.401 12.03h17.696v4.547c2.798-3.218 8.604-3.427 15.109-3.008C490.387 138.701 487.239 138.002 479.405 138.631zM508.013 76.38h-3.357v-3.357h3.357V76.38zM502.907 39.309c.629 1.888 3.008 4.267 3.427 1.679 4.756 2.238-4.336 4.477-8.464 3.357-.35-2.238-.21-4.057.28-5.526.28-1.119.77-2.029 1.399-2.868 4.966 1.889 6.295.979 8.464-3.427C514.028 36.022 505.145 38.54 502.907 39.309z"/><path style="fill:#4B6E64;" d="M135.423 140.448c-.501-.091-.951-.157-1.377-.212v1.526C134.528 141.462 134.998 141.039 135.423 140.448z"/><path style="fill:#4B6E64;" d="M37.651 76.384c-1.687.0-2.011-1.372-3.382-1.688.019 1.688-1.345 2.008-1.672 3.371 1.691-.019 2.007 1.375 3.367 1.699C35.964 78.049 37.323 77.743 37.651 76.384z"/><path style="fill:#4B6E64;" d="M132.27 146.209c-.101.268-.182.577-.21.988 4.391 1.001 3.412-1.245 1.986-1.811v.822H132.27z"/><path style="fill:#4B6E64;" d="M192.741 111.79C199.739 113.403 193.099 106.739 192.741 111.79z"/><path style="fill:#4B6E64;" d="M202.858 96.618c-1.118.0-2.249.0-3.367.0.0 1.108.0 2.249.0 3.36 1.118.0 2.249.0 3.367.0.0-1.11099999999999.0-2.252.0-3.36z"/><path style="fill:#4B6E64;" d="M285.477 265.193c-.426 3.401-8.939-6.603-10.117 1.691C276.972 270.413 290.901 268.214 285.477 265.193z"/><path style="fill:#4B6E64;" d="M298.954 61.212c-4.335-4.137-8.094 1.8-10.121 5.051C294.905 67.276 298.359 65.657 298.954 61.212z"/><path style="fill:#4B6E64;" d="M285.477 256.763c1.122.0 2.249.0 3.356.0.0-1.122.0-2.245.0-3.367-1.108.0-2.234.0-3.356.0.0 1.12200000000001.0 2.245.0 3.36699999999999z"/><path style="fill:#4B6E64;" d="M273.676 278.681c2.23 4.227-7.857 4.095-1.683 6.738-1.209-4.58 7.951 1.213 6.735-3.367C276.316 281.65 275.89 279.288 273.676 278.681z"/><path style="fill:#4B6E64;" d="M229.851 98.291c-3.488 1.032-11.715-2.723-10.121 3.379C224.573 102.012 228.283 101.244 229.851 98.291z"/><path style="fill:#4B6E64;" d="M233.218 201.133c-2.912-.087-4.332 1.299-5.07 3.382C230.811 204.331 234.002 204.722 233.218 201.133z"/><path style="fill:#4B6E64;" d="M234.898 145.502c-1.119.0-2.246.0-3.383.0.0 1.119.0 2.238.0 3.368 1.137.0 2.263.0 3.383.0.0-1.13.0-2.24799999999999.0-3.368z"/><path style="fill:#4B6E64;" d="M211.307 99.979c0 1.118.0 2.253.0 3.382 1.669.0 3.352.0 5.05.0C216.569 100.333 214.689 99.409 211.307 99.979z"/><path style="fill:#4B6E64;" d="M236.585 106.721C243.583 108.348 236.928 101.67 236.585 106.721z"/><path style="fill:#4B6E64;" d="M250.066 88.166c5.944-.776 8.128-5.348 11.808-8.399-6.622-6.147-5.276-2.927-18.554-3.383.09 2.313-.784 3.703-1.684 5.047C251.784 76.466 243.527 85.009 250.066 88.166z"/><path style="fill:#4B6E64;" d="M153.927 278.679c.229.012.459.023.643.036-.177.0-.365-.016-.588-.034C153.962 278.68 153.947 278.68 153.927 278.679z"/><path style="fill:#4B6E64;" d="M153.927 278.679c-.376-.019-.786-.038-1.245-.054C153.061 278.639 153.473 278.651 153.927 278.679z"/><path style="fill:#4B6E64;" d="M145.545 293.868c0 2.242.0 4.471.0 6.739 5.762.693 9.601-.52 8.437-6.739-2.82900000000001.0-5.631.0-8.43700000000001.0z"/><path style="fill:#4B6E64;" d="M159.029 49.407c-1.119.0-2.226.0-3.367.0.0 1.13.0 2.249.0 3.371 1.141.0 2.248.0 3.367.0.0-1.123.0-2.241.0-3.371z"/><path style="fill:#4B6E64;" d="M165.779 276.997c4.211.286 5.288-2.583 6.758-5.051C168.31 271.653 167.259 274.534 165.779 276.997z"/><path style="fill:#4B6E64;" d="M169.15 51.109C176.152 52.699 169.49 46.043 169.15 51.109z"/><path style="fill:#4B6E64;" d="M153.982 152.234c0 1.699.0 3.383.0 5.07C158.901 159.782 158.901 149.755 153.982 152.234z"/><path style="fill:#4B6E64;" d="M177.584 258.458c1.126.0 2.249.0 3.352.0.0-1.137.0-2.245.0-3.367-1.103.0-2.226.0-3.352.0C177.584 256.213 177.584 257.321 177.584 258.458z"/><path style="fill:#4B6E64;" d="M179.267 49.407c-2.331-6.064-1.032-10.735-5.066-11.805.388 3.183-1.895 3.725-1.665 6.754C178.929 41.873 172.857 51.893 179.267 49.407z"/><path style="fill:#4B6E64;" d="M162.412 261.825c-1.68.0-3.383.0-5.063.0.0-1.679.0-3.367.0-5.062-3.846-.456-6.339.41-6.738 3.383C153.688 260.574 158.931 267.324 162.412 261.825z"/><path style="fill:#4B6E64;" d="M83.179 282.052c-.535 7.902 7.782 4.52 8.419.0-3.205-3.149-4.227-.176000000000045-8.419.0z"/><path style="fill:#4B6E64;" d="M20.796 24.117c-6.381.369-9.602 3.887-11.801 8.437C15.078 31.624 14.445 27.647 20.796 24.117z"/><path style="fill:#4B6E64;" d="M149.368 278.474C147.982 278.414 147.436 278.407 149.368 278.474z"/><path style="fill:#4B6E64;" d="M103.403 160.667C110.401 162.279 103.753 155.616 103.403 160.667z"/><path style="fill:#4B6E64;" d="M94.965 126.944c4.061-4.041-5.526-4.358-5.055-1.665C89.884 125.162 95.613 126.311 94.965 126.944z"/><path style="fill:#4B6E64;" d="M93.293 276.997C100.303 278.609 93.639 271.947 93.293 276.997z"/><path style="fill:#4B6E64;" d="M135.423 120.209c1.086-5.232.818-10.901-3.363-11.786C128.414 111.376 126.708 121.517 135.423 120.209z"/><path style="fill:#4B6E64;" d="M145.545 89.868c-6.001-.369-10.088 1.146-11.79 5.055 4.712.896 8.762 2.479 13.477 3.367C148.63 93.53 144.855 93.933 145.545 89.868z"/><path style="fill:#4B6E64;" d="M125.66 230.542h-2.443C124.349 231.063 125.185 230.968 125.66 230.542z"/><path style="fill:#4B6E64;" d="M118.571 150.55c4.282.874 6.543 2.882 6.754-3.352C121.464 146.708 118.986 147.6 118.571 150.55z"/><path style="fill:#4B6E64;" d="M49.458 2.19c-2.247 4.423-7.478 3.23-11.813 1.685.737-1.088 1.439-2.212 1.632-3.862h1.685c.018.158.035.334.053.509C40.751 4.173 47.018 1.277 49.458 2.19z"/><path style="fill:#4B6E64;" d="M27.534 172.472c-.268-1.977.294-4.783-1.672-5.062-.158 2.655-4.309 1.326-3.379 5.062 1.676.0 3.379.0 5.051.0z"/><path style="fill:#4B6E64;" d="M59.574 276.997C49.215 278.994 55.348 285.111 59.574 276.997z"/><path style="fill:#4B6E64;" d="M83.179 125.279c-1.94-5.307 2.641-4.11 3.363-6.739-4.061 1.552-8.166 3.055-11.797 5.04C78.806 122.903 78.403 126.665 83.179 125.279z"/><path style="fill:#4B6E64;" d="M76.441 125.279c-2.798-.105-4.222 1.202-4.977 3.146h3.011C75.918 128.162 76.915 127.454 76.441 125.279z"/><path style="fill:#4B6E64;" d="M60.055 196.715v-2.958C58.629 194.625 58.629 195.842 60.055 196.715z"/><path style="fill:#4B6E64;" d="M226.468 260.146c-3.601 6.188 8.58 7.605 6.75 1.679C232.906 259.328 229.149 260.281 226.468 260.146z"/><path style="fill:#4B6E64;" d="M226.468 248.344c3.838.456 6.332-.404 6.75-3.371C231.233 242.833 226.22 243.629 226.468 248.344z"/><path style="fill:#4B6E64;" d="M260.172 265.193C267.178 266.805 260.526 260.146 260.172 265.193z"/><path style="fill:#4B6E64;" d="M317.505 49.407c.237-1.996 2.994-3.827.0-5.051C317.256 46.34 314.491 48.179 317.505 49.407z"/><path style="fill:#4B6E64;" d="M337.74 224.738C329.069 228.799 343.533 229.093 337.74 224.738z"/><path style="fill:#4B6E64;" d="M243.32 241.591C252.273 243.44 245.324 236.483 243.32 241.591z"/><path style="fill:#4B6E64;" d="M238.265 180.91c-.011 4.57 4.201 6.827 7.344 5.838v-5.838C243.164 180.91 240.711 180.91 238.265 180.91z"/><path style="fill:#4B6E64;" d="M438.882 113.475c-2.802-2.821-9.895-1.345-15.172-1.684C422.535 120.258 438.336 115.659 438.882 113.475z"/><path style="fill:#4B6E64;" d="M415.299 123.58c.29-3.676-1.394-5.348-5.073-5.04C409.917 122.201 411.601 123.885 415.299 123.58z"/><path style="fill:#4B6E64;" d="M405.174 24.117C410.301 28.727 400.568 18.994 405.174 24.117z"/><path style="fill:#4B6E64;" d="M388.304 233.168c0 1.672.0 3.371.0 5.055C393.223 240.709 393.223 230.69 388.304 233.168z"/><path style="fill:#4B6E64;" d="M418.652 46.043C425.65 47.652 418.999 40.973 418.652 46.043z"/><path style="fill:#4B6E64;" d="M403.491 42.661c4.18100000000004 6.588 2.452-5.59.0.0z"/><path style="fill:#4B6E64;" d="M389.995 224.738c3.183-.369 3.718 1.906 6.746 1.695 1.818-2.298 1.539-6.639 5.475-6.812-2.277-.727-4.434-1.704-6.47-2.935C392.798 218.393 390.149 221.825 389.995 224.738z"/><path style="fill:#4B6E64;" d="M427.097 93.236C434.095 94.848 427.421 88.185 427.097 93.236z"/><path style="fill:#4B6E64;" d="M440.57 169.104c.237-1.989 3.009-3.827.0-5.047C440.337 166.053 437.572 167.862 440.57 169.104z"/><path style="fill:#4B6E64;" d="M438.882 118.54C430.212 122.605 444.691 122.883 438.882 118.54z"/><path style="fill:#4B6E64;" d="M413.593 199.449c3.785 2.953 18.246 1.303 13.504-3.387C423.846 202.078 413.612 192.299 413.593 199.449z"/><path style="fill:#4B6E64;" d="M347.861 83.134c-3.695-.316-5.378 1.371-5.066 5.032C346.471 88.478 348.154 86.81 347.861 83.134z"/><path style="fill:#4B6E64;" d="M398.44 56.142C392.753 51.031 393.313 62.379 398.44 56.142z"/><path style="fill:#4B6E64;" d="M371.451 138.745c.102-2.151 2.155-2.316 1.684-5.047-1.978.263-4.773-.298-5.051 1.687C370.299 135.408 369.636 138.354 371.451 138.745z"/><path style="fill:#4B6E64;" d="M351.228 61.212c4.177.256 8.17.312 8.418-3.364C355.469 57.595 351.481 57.535 351.228 61.212z"/><path style="fill:#4B6E64;" d="M352.912 42.661c-.162-2.633.222-5.835-3.383-5.059C349.439 40.502 350.833 41.934 352.912 42.661z"/><path style="fill:#4B6E64;" d="M386.635 106.721C393.626 108.348 386.978 101.67 386.635 106.721z"/><path style="fill:#4B6E64;" d="M398.44 39.29c-1.138.0-2.26.0-3.383.0C391.317 44.269 398.01 45.407 398.44 39.29z"/><path style="fill:#4B6E64;" d="M384.936 251.708c8.847.686 4.226-5.71 6.734-8.415C385 241.651 386.443 248.152 384.936 251.708z"/><path style="fill:#4B6E64;" d="M504.638 76.384c1.122.0 2.241.0 3.367.0.0-1.146.0-2.245.0-3.367-1.126.0-2.245.0-3.367.0.0 1.122.0 2.221.0 3.367z"/><path style="fill:#4B6E64;" d="M504.631 179.213c1.562-.755 3.827-.913 6.179-1.159v-3.914C505.878 174.789 501.998 176.51 504.631 179.213z"/><path style="fill:#4B6E64;" d="M464.173 24.117c4.049-4.045-5.522-4.355-5.055-1.665C459.095 22.317 464.828 23.473 464.173 24.117z"/><path style="fill:#4B6E64;" d="M467.54 5.585c-3.839-.482-6.324.392-6.735 3.36C465.106 9.819 467.336 11.816 467.54 5.585z"/><path style="fill:#4B6E64;" d="M449.004 177.527c0 1.138.0 2.26.0 3.383 1.688.0 3.368.0 5.055.0C454.277 177.881 452.386 176.947 449.004 177.527z"/><path style="fill:#4B6E64;" d="M457.426 32.554c.102-1.032.26-2.011 1.692-1.699-.008.946 1.363 1.918 1.687.0-2.229-.018-1.551-2.937-3.379-3.371-.094 1.032-.241 2.008-1.676 1.702C456.138 30.483 455.799 32.51 457.426 32.554z"/><path style="fill:#4B6E64;" d="M461.591 89.547c.668-1.217.592-2.413-.786-3.046-.915 1.768-2.931 2.425-4.534 3.496 1.513-.303 3.095-.471 4.741-.471C461.207 89.526 461.396 89.543 461.591 89.547z"/><path style="fill:#4B6E64;" d="M491.149 98.291C498.151 99.899 491.469 93.255 491.149 98.291z"/><path style="fill:#4B6E64;" d="M506.314 40.973c-.395 2.596-2.772.253-3.378-1.683 2.233-.784 11.077-3.281 5.07-6.735-2.162 4.358-3.477 5.285-8.422 3.368-1.416 1.951-2.23 4.52-1.699 8.433C501.99 45.437 511.086 43.203 506.314 40.973z"/><path style="fill:#4B6E64;" d="M494.532 132.014c-6.542-.478-12.317-.209-15.158 2.99v3.602C487.26 138.037 490.359 138.694 494.532 132.014z"/><path style="fill:#4B6E64;" d="M464.173 236.539c4.2 5.997 5.733 9.191 8.437 13.488 4.531-4.12 5.906-5.16 10.121-11.804-4.735.885-8.776 2.486-13.504 3.367C472.346 238.638 469.434 235.73 464.173 236.539z"/><path style="fill:#4B6E64;" d="M337.74 93.236C344.746 94.848 338.068 88.185 337.74 93.236z"/><path style="fill:#4B6E64;" d="M361.33 280.365c-2.98.388-8.421-1.69-6.738 3.371h.136C357.798 283.47 360.242 282.6 361.33 280.365z"/><path style="fill:#4B6E64;" d="M356.279 108.423c2.9.068 4.317-1.3 5.051-3.383C358.441 104.95 357.017 106.329 356.279 108.423z"/><path style="fill:#4B6E64;" d="M356.279 229.786C365.217 231.616 358.257 224.678 356.279 229.786z"/><path style="fill:#4B6E64;" d="M464.173 250.028C469.299 254.639 459.566 244.898 464.173 250.028z"/><path style="fill:#4B6E64;" d="M465.878 155.616c-8.143 2.425-4.418 1.375-10.128 6.754 3.928.0 7.861.0 11.79.0C467.26 159.831 468.15 156.136 465.878 155.616z"/><path style="fill:#4B6E64;" d="M462.492 37.602c1.118.0 2.241.0 3.386.0.0-1.122.0-2.241.0-3.363-1.145.0-2.267.0-3.386.0.0 1.122.0 2.24.0 3.363z"/><path style="fill:#4B6E64;" d="M376.518 250.028C387.682 248.845 380.462 241.636 376.518 250.028z"/><rect x="1.189" y="351.056" style="fill:#C4C4C4;" width="510.811" height="23.991"/><rect x="1.189" y="319.65" style="fill:#A66848;" width="510.811" height="9.792"/><rect x="1.189" y="329.442" style="fill:#A66848;" width="510.811" height="21.613"/><path style="fill:#A66848;" d="M512 305.451v14.199H1.189v-13.639h277.263c1.399 2.238 3.287 3.637 5.386 3.637h84.634c2.098.0 3.987-1.399 5.386-3.637h13.429c1.399 2.238 3.288 3.637 5.386 3.637h84.634c2.098.0 3.987-1.399 5.386-3.637h28.118v-.56H512z"/><path style="opacity:0.1;fill:#FFFFFF;" d="M512 305.451v14.199H1.189v-13.639h277.263c1.399 2.238 3.287 3.637 5.386 3.637h84.634c2.098.0 3.987-1.399 5.386-3.637h13.429c1.399 2.238 3.288 3.637 5.386 3.637h84.634c2.098.0 3.987-1.399 5.386-3.637h28.118v-.56H512z"/><path style="fill:#A66848;" d="M482.712 306h28.098v-.577h-27.768C482.935 305.619 482.827 305.815 482.712 306z"/><path style="opacity:0.1;fill:#FFFFFF;" d="M482.712 306h28.098v-.577h-27.768C482.935 305.619 482.827 305.815 482.712 306z"/><path style="fill:#A66848;" d="M278.116 305.423H1.199V306h277.247C278.331 305.815 278.223 305.619 278.116 305.423z"/><path style="opacity:0.1;fill:#FFFFFF;" d="M278.116 305.423H1.199V306h277.247C278.331 305.815 278.223 305.619 278.116 305.423z"/><path style="fill:#A66848;" d="M374.212 305.423c-.108.196-.215.392-.33.577h13.393c-.115-.185-.222-.381-.33-.577H374.212z"/><path style="opacity:0.1;fill:#FFFFFF;" d="M374.212 305.423c-.108.196-.215.392-.33.577h13.393c-.115-.185-.222-.381-.33-.577H374.212z"/><path style="fill:#FFFFFF;" d="M256.82 182.597C252.213 187.719 261.95 177.987 256.82 182.597z"/><path style="fill:#FFFFFF;" d="M327.607 152.234c-2.154-.072-2.316-2.154-5.051-1.684-.723 3.224-3.619 4.241-3.352 8.438C324.684 159.428 327.298 156.979 327.607 152.234z"/><path style="fill:#FFFFFF;" d="M248.39 184.277c-1.322-.369-1.97-1.405-1.688-3.367-.363.0-.729.0-1.093.0v5.838C246.771 186.382 247.791 185.585 248.39 184.277z"/><path style="fill:#FFFFFF;" d="M403.491 219.684c-1.206-4.676-4.641-4.794-7.745-2.997 2.036 1.232 4.193 2.208 6.47 2.935C402.602 219.605 403.016 219.614 403.491 219.684z"/><path style="fill:#FFFFFF;" d="M134.046 141.762v-1.526C126.362 139.256 130.532 143.947 134.046 141.762z"/><path style="fill:#FFFFFF;" d="M79.809 132.014C86.795 133.622 80.136 126.963 79.809 132.014z"/><path style="fill:#FFFFFF;" d="M132.27 146.209h1.776v-.822C133.382 145.123 132.632 145.247 132.27 146.209z"/><path style="fill:#FFFFFF;" d="M121.95 226.434c0 1.107.0 2.233.0 3.352.46.345.875.576 1.267.756h2.443C126.799 229.519 125.869 226.692 121.95 226.434z"/><path style="fill:#FFFFFF;" d="M74.475 128.426h-3.011c-.03.076-.066.147-.093.225C72.415 128.585 73.537 128.597 74.475 128.426z"/><path style="fill:#FFFFFF;" d="M64.636 197.78c0-1.718.0-3.386.0-5.07-2.14.063-3.652.481-4.581 1.047v2.958C60.984 197.285 62.497 197.709 64.636 197.78z"/><path style="fill:#FFFFFF;" d="M454.059 93.236c2.892.643 6.362-1.556 7.532-3.689-.194-.004-.383-.021-.579-.021-1.647.0-3.228.168-4.741.471C455.182 90.724 454.279 91.637 454.059 93.236z"/><path style="fill:#FFFFFF;" d="M479.374 138.606v-3.602c-.856.964-1.456 2.183-1.717 3.741C478.255 138.691 478.825 138.646 479.374 138.606z"/><g style="opacity:0.9;"><path style="fill:#FFFFFF;" d="M360.988 214.522v-41.338c0-4.056-.629-7.903-1.958-11.331-1.329-3.497-3.637-6.785-6.995-9.862-1.119-.979-2.378-1.889-3.707-2.658-.35.21-.629.28-1.049.28-.28.0-.56-.07-.84-.14.0-.42.0-.77.07-1.049-1.049-.49-2.098-.909-3.217-1.329-2.588-.839-5.386-1.329-8.254-1.609-.909.0-1.889-.07-2.868-.07h-.35c-1.119.0-2.238.0-3.288.14-.979.07-1.888.14-2.798.28-2.658.28-5.176.909-7.484 1.749-3.707 1.469-7.274 3.777-10.632 6.924-.14.07-.28.21-.42.35-2.588-3.287-5.736-5.666-9.372-7.204-1.889-.839-3.987-1.399-6.225-1.819-.839-.07-1.679-.21-2.518-.28-1.049-.07-2.168-.14-3.288-.14h-.35c-.769.0-1.609.0-2.378.14-.629.0-1.329.07-1.958.21-2.308.21-4.547.769-6.715 1.609-3.287 1.259-6.155 2.938-8.743 5.176-.21.14-.49.35-.699.559v-5.736c-.07-.07-.14-.14-.14-.21.0-.21.07-.35.14-.49v-.42h-20.074v74.702h.699c0-.07.0-.14.07-.21.07-.49.21-.909.35-1.329.63.35 1.119.909 1.469 1.539h17.976v-45.184c0-2.588.42-4.687 1.259-6.435.839-1.679 1.889-3.078 3.218-4.126 1.329-1.049 2.798-1.819 4.406-2.308 1.609-.49 3.218-.699 4.826-.699h.7c1.329.07 2.728.28 4.127.699 1.609.49 3.078 1.259 4.407 2.308 1.259 1.049 2.308 2.448 3.148 4.126.769 1.749 1.189 3.847 1.189 6.435v45.184h11.191c-.07-.28.0-.629.28-.979 1.609-.35 1.749.909 3.008.909.07.0.07.07.07.07h5.945v-45.605c0-2.378.42-4.406 1.259-6.155s1.888-3.078 3.217-4.057c1.329-1.049 2.798-1.749 4.407-2.238 1.679-.49 3.288-.699 4.826-.699h.7c1.328.07 2.727.28 4.126.699 1.609.49 3.078 1.259 4.407 2.308s2.378 2.448 3.148 4.126c.14.21.21.49.28.7.56.699.909 1.469.909 2.168-.07.0-.21-.07-.35-.07.21 1.049.35 2.308.35 3.637v45.184h20.494v-2.588c-1.469-.699-3.567-.839-2.798-3.777C359.169 214.522 360.078 214.522 360.988 214.522zM247.397 215.851c-.909-.49-1.259-1.539-1.469-4.337 4.547-.839 5.666 1.749 6.155 4.896C249.775 216.131 248.306 216.271 247.397 215.851zm5.595-12.24c.21.0.839-.21 1.049-.07C259.287 208.577 246.907 201.372 252.992 203.611zm3.917-23.782c0-1.679-.07-3.287-.07-4.966C259.567 175.213 261.665 180.109 256.909 179.829zM255.65 154.159c3.288-1.259.839 3.218 4.127 1.889C259.147 159.545 255.51 157.027 255.65 154.159zm44.416 61.902c2.168-.49 1.958 1.399 2.028 2.938C300.835 218.579 299.996 217.74 300.066 216.061zM303.633 155.698c-.979.0-.769-1.189-1.049-1.958-4.127 1.119-2.658 5.316-5.036 6.015-.07-2.448-.839-4.616-.839-6.435.0-1.329.42-2.448 1.819-3.497 1.539 1.819 5.176 1.539 5.176 4.896C303.703 155.069 303.703 155.348 303.633 155.698zM334.269 154.509h2.029v1.959h-2.029v-1.959zM307.759 161.644C310.277 164.931 304.332 159.265 307.759 161.644zM320.07 162.553c-.839-.21-1.049-1.049-2.098-.979.21-.839 1.049-1.049.979-2.028.839.21 1.049.979 2.099.979C320.839 161.363 320 161.504 320.07 162.553zm23.082 46.234h-.28c-.14-2.378-.07-1.609-.21-3.917 1.959-.28 2.238 1.119 4.266.909C346.089 207.178 345.46 208.787 343.152 208.787zm6.505-40.568C346.579 171.855 346.229 165.211 349.657 168.219z"/><path style="fill:#FFFFFF;" d="M429.045 199.204c-2.169 2.098-4.197 3.567-6.225 4.477-1.819.839-3.917 1.259-6.365 1.399h-.699c-.49.0-.909.0-1.329-.07-4.267-.28-7.694-1.819-10.352-4.826-3.078-3.427-4.547-9.023-4.547-16.647.0-3.987.35-7.275 1.049-9.863.769-2.588 1.958-4.826 3.497-6.645 2.658-2.938 6.085-4.477 10.352-4.757.42-.07.839-.07 1.329-.07h.35c.63.0 1.259.0 1.889.07 1.819.21 3.427.63 4.826 1.259 2.028.909 4.056 2.378 6.225 4.546l.35-.35 13.499-12.311c-3.707-3.427-7.694-5.945-12.1-7.624-4.127-1.539-8.953-2.308-14.339-2.378h-.699c-.839.0-1.749.0-2.588.07-1.539.14-3.078.35-4.686.56-1.819.21-3.637.559-5.456 1.049-4.337 1.189-8.254 3.148-11.821 6.015-3.497 2.868-6.435 6.785-8.743 11.681-2.308 4.966-3.427 11.191-3.427 18.745s1.119 13.779 3.427 18.745c2.308 4.896 5.246 8.813 8.743 11.751 1.329 1.049 2.728 2.028 4.127 2.938 2.028 1.119 4.127 2.029 6.295 2.728h.07c.49.14.909.28 1.329.42 3.497.909 6.854 1.469 10.142 1.609.839.14 1.749.14 2.588.14h.699c5.386-.07 10.212-.979 14.339-2.518 4.406-1.679 8.393-4.267 12.1-7.694l-13.499-12.171L429.045 199.204zm-31.406-34.343C394.492 162.693 398.758 158.496 397.639 164.861zM389.666 192.559C392.743 192.769 388.756 196.686 389.666 192.559zM390.505 172.835C393.932 174.234 386.588 175.283 390.505 172.835z"/><path style="fill:#FFFFFF;" d="M88.061 128.419v.42c-.28-.07-.56-.21-.7-.42H59.313v102.12h63.231v-3.148c2.238-.21 3.287 1.889 2.518 3.148h8.254v-17.766h-.699c-.28.56-1.049.909-1.119.0H81.276v-12.59c-2.728.0-3.218-2.099-2.868-5.036 1.469-.14 2.308.42 2.868 1.259v-8.463h44.346v-17.766H81.276v-9.093c-.909.21-1.609.0-3.148-.56-.49-2.028.63-2.588.979-3.917.769.35 1.469.839 2.168 1.329v-11.751h15.948c-.49-1.259-.7-2.938-.909-4.546 1.049.0 2.098-.07 3.078-.07.909.839 1.259 2.938 1.049 4.616h32.874v-17.766H88.061zm21.194 95.126c1.819-.35 1.819 5.456-.979 3.917C108.136 225.713 109.465 225.364 109.255 223.545zM104.219 229.491c-3.777.0-4.547-2.868-6.225-4.896-.21-.07-.35-.14-.42-.21C97.993 224.384 104.708 226.553 104.219 229.491zM73.932 152.69C77.08 153.81 72.883 157.936 73.932 152.69zm-4.476 74.143c1.399-.07 2.728-.07 4.057-.07C74.422 230.54 68.686 230.61 69.456 226.833zM75.541 218.859c-2.448.0-3.008 1.749-6.155 1.049.56-.84 1.049-1.609 1.049-3.008 2.378.979 6.435.28 6.155 3.917C75.611 220.817 75.751 219.628 75.541 218.859zM90.16 134.784c1.819.839 1.679 3.567 4.127 3.847C92.538 141.569 87.292 136.603 90.16 134.784zm29.656 10.562v-2.938h2.028C122.194 144.367 121.705 145.486 119.816 145.346z"/><path style="fill:#FFFFFF;" d="M182.907 159.126c.14 1.818-.7 3.357-3.707 3.567.28-1.539.28-2.658.28-3.567h-25.11v17.486h3.917c-.14-.909-.28-1.959-.49-2.938 1.889-.14 2.868 1.259 3.078 2.938h54.487v-17.486H182.907zm14.759 14.268c-4.057-.699-6.295-3.148-6.225-7.834 2.938.769 4.127 3.287 7.204 3.847C197.805 170.317 197.526 171.646 197.666 173.394zM204.8 170.387c.84-1.469 1.469-3.148 3.987-3.008.909 1.119 1.399 2.658 1.119 4.966C206.758 173.045 207.877 169.617 204.8 170.387z"/><path style="fill:#FFFFFF;" d="M211.515 190.251c.21 1.329.28 2.588.56 3.777-1.819 1.609-3.288-.909-4.057-3.777H154.37v17.486h60.992v-17.486H211.515zM191.65 192.21C190.601 196.406 186.334 192.28 191.65 192.21zm13.36 11.75C208.087 204.171 204.1 208.087 205.01 203.96zm-1.119-12.8c2.728-.35 2.658 2.029 3.078 3.917.21.14.35.28.42.42C206.688 195.147 203.681 192.699 203.891 191.16z"/><path style="fill:#FFFFFF;" d="M460.94 130.448l8.743-9.163v-1.469c.559-.14.979-.07 1.259.07l1.469-1.469c.909-.979 1.749-1.959 2.448-2.798.839-.979 1.539-1.958 2.098-2.938.56-.979.979-2.029 1.259-3.148.28-1.119.42-2.378.42-3.777.0-2.448-.42-4.756-1.399-6.785-.909-2.028-2.238-3.777-3.847-5.176-1.679-1.399-3.637-2.448-5.875-3.148-1.679-.559-3.428-.909-5.316-1.049h-.63c-.07-.07-.14-.07-.21-.07h-1.049c-1.259.0-2.518.07-3.707.28-1.189.14-2.308.42-3.357.769-2.238.7-4.197 1.819-5.875 3.218-1.749 1.399-3.078 3.148-4.057 5.176-.979 2.029-1.469 4.337-1.469 6.855v2.238h14.129v-2.238c0-.84.07-1.469.35-1.959.21-.49.49-.839.839-1.119.42-.35.839-.56 1.329-.63.63-.21 1.189-.28 1.819-.28h.699c1.119.07 1.959.42 2.518 1.049.699.7 1.049 1.609 1.049 2.868.0.769-.14 1.469-.42 2.028-.35.63-.909 1.399-1.749 2.308l-15.668 16.507c0 .35-.07.63-.14.909-.28 1.399-1.189 2.518-3.078 3.287-.07.07-.14.07-.21.07-.14-.07-.21-.21-.35-.28l-1.119 1.189v10.982h36.791v-12.311H460.94zM468.494 98.063c.909.63 1.889 1.189 2.098.0 1.189.14.84 1.819 1.049 2.938-3.847-2.238-.07 1.749-2.028 3.008C467.305 103.869 469.123 99.812 468.494 98.063z"/></g><path style="fill:#F5B7BF;" d="M376.21 296.901c0-.111-.008-.219-.01-.33-.004.643-.033 1.261-.1 1.874-.562-6.091-3.756-10.76-7.618-10.76h-15.571c0 .371.0.746.0 1.116-1.123.0-2.249.0-3.383.0.0-.37.0-.746.0-1.116H283.84c-3.862.0-7.056 4.669-7.618 10.76-.065-.597-.091-1.199-.097-1.823-.001.094-.009.184-.009.278.0 3.282.76 6.264 1.998 8.521h96.096C375.45 303.165 376.21 300.184 376.21 296.901z"/><path style="fill:#F5B7BF;" d="M349.529 288.802c1.134.0 2.26.0 3.383.0.0-.37.0-.746.0-1.116h-3.383C349.529 288.057 349.529 288.432 349.529 288.802z"/><path style="fill:#F5B7BF;" d="M283.839 309.628h84.65c2.1.0 4.001-1.386 5.393-3.628h-95.437C279.838 308.241 281.739 309.628 283.839 309.628z"/><path style="fill:#F5B7BF;" d="M278.116 305.423c.107.196.215.392.33.577h95.437c.115-.185.222-.381.33-.577H278.116z"/><path style="fill:#587B78;" d="M283.839 284.175h84.65c4.197.0 7.604 5.522 7.711 12.396.0-.038.006-.072.006-.109.0-7.021-3.458-12.726-7.723-12.726h-13.754c-.045.004-.087.011-.132.014-.002-.005-.002-.009-.004-.014h-70.751c-4.266.0-7.723 5.705-7.723 12.726.0.055.008.106.009.161C276.217 289.724 279.632 284.175 283.839 284.175z"/><path style="opacity:0.5;fill:#FFFFFF;" d="M283.839 284.175h84.65c4.197.0 7.604 5.522 7.711 12.396.0-.038.006-.072.006-.109.0-7.021-3.458-12.726-7.723-12.726h-13.754c-.045.004-.087.011-.132.014-.002-.005-.002-.009-.004-.014h-70.751c-4.266.0-7.723 5.705-7.723 12.726.0.055.008.106.009.161C276.217 289.724 279.632 284.175 283.839 284.175z"/><path style="fill:#4B6E64;" d="M354.728 283.737h-.136c.002.005.002.009.004.014C354.641 283.747 354.683 283.741 354.728 283.737z"/><path style="opacity:0.5;fill:#FFFFFF;" d="M354.728 283.737h-.136c.002.005.002.009.004.014C354.641 283.747 354.683 283.741 354.728 283.737z"/><path style="fill:#F5B7BF;" d="M283.841 287.686h65.688c0-.752.0-1.501.0-2.266 1.134.0 2.26.0 3.383.0.0.765.0 1.514.0 2.266h15.571c3.862.0 7.056 4.669 7.618 10.76.066-.614.096-1.231.1-1.874-.107-6.875-3.514-12.396-7.711-12.396h-84.65c-4.207.0-7.622 5.549-7.713 12.448.005.624.032 1.226.097 1.823C276.785 292.355 279.979 287.686 283.841 287.686z"/><path style="opacity:0.5;fill:#FFFFFF;" d="M283.841 287.686h65.688c0-.752.0-1.501.0-2.266 1.134.0 2.26.0 3.383.0.0.765.0 1.514.0 2.266h15.571c3.862.0 7.056 4.669 7.618 10.76.066-.614.096-1.231.1-1.874-.107-6.875-3.514-12.396-7.711-12.396h-84.65c-4.207.0-7.622 5.549-7.713 12.448.005.624.032 1.226.097 1.823C276.785 292.355 279.979 287.686 283.841 287.686z"/><path style="fill:#F5B7BF;" d="M349.529 285.42c0 .765.0 1.514.0 2.266h3.383c0-.752.0-1.501.0-2.266C351.789 285.42 350.663 285.42 349.529 285.42z"/><path style="opacity:0.5;fill:#FFFFFF;" d="M349.529 285.42c0 .765.0 1.514.0 2.266h3.383c0-.752.0-1.501.0-2.266C351.789 285.42 350.663 285.42 349.529 285.42z"/><path style="fill:#F6F0CD;" d="M485.04 296.901c0-.111-.008-.219-.01-.33-.004.643-.033 1.261-.1 1.874-.562-6.091-3.756-10.76-7.618-10.76H392.67c-.492.0-.973.078-1.439.223-1.027 1.143-4.299 4.304-1.237.894.35-.315.618-.551.839-.741-3 1.209-5.311 5.295-5.78 10.385-.065-.597-.092-1.199-.097-1.823-.001.094-.009.184-.009.278.0 3.282.76 6.264 1.998 8.521h96.096C484.28 303.165 485.04 300.184 485.04 296.901z"/><path style="fill:#F6F0CD;" d="M389.995 288.802c-3.062 3.41.21.249 1.237-.894-.135.042-.266.099-.398.152C390.613 288.251 390.344 288.487 389.995 288.802z"/><path style="fill:#F6F0CD;" d="M392.669 309.628h84.65c2.1.0 4.001-1.386 5.394-3.628h-95.437C388.668 308.241 390.569 309.628 392.669 309.628z"/><path style="fill:#F6F0CD;" d="M386.946 305.423c.108.196.215.392.33.577h95.437c.115-.185.222-.381.33-.577H386.946z"/><path style="fill:#587B78;" d="M392.669 284.175h84.65c4.197.0 7.604 5.522 7.712 12.396.0-.038.006-.072.006-.109.0-7.021-3.458-12.726-7.723-12.726h-84.642c-4.266.0-7.723 5.705-7.723 12.726.0.055.008.106.009.161C385.047 289.724 388.462 284.175 392.669 284.175z"/><path style="opacity:0.5;fill:#FFFFFF;" d="M392.669 284.175h84.65c4.197.0 7.604 5.522 7.712 12.396.0-.038.006-.072.006-.109.0-7.021-3.458-12.726-7.723-12.726h-84.642c-4.266.0-7.723 5.705-7.723 12.726.0.055.008.106.009.161C385.047 289.724 388.462 284.175 392.669 284.175z"/><path style="fill:#F6F0CD;" d="M390.833 288.061c.86-.742.809-.609.398-.152.466-.145.947-.223 1.439-.223h84.642c3.862.0 7.056 4.669 7.618 10.76.066-.614.096-1.231.1-1.874-.107-6.875-3.514-12.396-7.712-12.396h-84.65c-4.207.0-7.622 5.549-7.713 12.448.005.624.032 1.226.097 1.823C385.522 293.356 387.833 289.27 390.833 288.061z"/><path style="opacity:0.5;fill:#FFFFFF;" d="M390.833 288.061c.86-.742.809-.609.398-.152.466-.145.947-.223 1.439-.223h84.642c3.862.0 7.056 4.669 7.618 10.76.066-.614.096-1.231.1-1.874-.107-6.875-3.514-12.396-7.712-12.396h-84.65c-4.207.0-7.622 5.549-7.713 12.448.005.624.032 1.226.097 1.823C385.522 293.356 387.833 289.27 390.833 288.061z"/><path style="fill:#F6F0CD;" d="M390.833 288.061c.132-.053.263-.111.398-.152C391.642 287.452 391.693 287.319 390.833 288.061z"/><path style="opacity:0.5;fill:#FFFFFF;" d="M390.833 288.061c.132-.053.263-.111.398-.152C391.642 287.452 391.693 287.319 390.833 288.061z"/></g></svg>