<svg fill="#000" width="800" height="800" viewBox="0 0 64 64" xmlns="http://www.w3.org/2000/svg" style="fill-rule:evenodd;clip-rule:evenodd;stroke-linejoin:round;stroke-miterlimit:2;"><rect id="Icons" x="-960" y="-256" width="1280" height="800" style="fill:none;"/><g id="Icons1"><g id="Strike"/><g id="H1"/><g id="H2"/><g id="H3"/><g id="list-ul"/><g id="hamburger-1"/><g id="hamburger-2"/><g id="list-ol"/><g id="list-task"/><g id="trash"/><g id="vertical-menu"/><g id="horizontal-menu"/><g id="sidebar-2"/><g id="Pen"/><g id="Pen1"/><g id="clock"/><g id="external-link"/><g id="hr"/><g id="info"/><g id="warning"/><g id="plus-circle"/><g id="minus-circle"/><g id="vue"/><g id="cog"/><g id="logo"/><g id="radio-check"/><g id="eye-slash"><path d="M13.673 10.345l-3.097 3.096 39.853 39.854 3.097-3.097-39.853-39.853z"/><path d="M17.119 19.984l2.915 2.915c-3.191 2.717-5.732 6.099-7.374 9.058l-.005.01c4.573 7.646 11.829 14.872 20.987 13.776 2.472-.296 4.778-1.141 6.885-2.35l2.951 2.95c-4.107 2.636-8.815 4.032-13.916 3.342-9.198-1.244-16.719-8.788-21.46-17.648 2.226-4.479 5.271-8.764 9.017-12.053zm6.63-4.32c2.572-1.146 5.355-1.82 8.327-1.868.165-.001 2.124.092 3.012.238.557.092 1.112.207 1.659.35C45.472 16.657 51.936 24.438 56 32.037c-1.705 3.443-3.938 6.398-6.601 9.277l-2.827-2.827c1.967-2.12 3.622-4.161 4.885-6.45.0.0-1.285-2.361-2.248-3.643-.619-.824-1.27-1.624-1.954-2.395-.54-.608-2.637-2.673-3.136-3.103-3.348-2.879-7.279-5.138-11.994-5.1-1.826.029-3.582.389-5.249.995l-3.127-3.127z" style="fill-rule:nonzero;"/><path d="M25.054 27.92l2.399 2.398c-.157.477-.243.987-.243 1.516.0 2.672 2.169 4.841 4.841 4.841.529.0 1.039-.085 1.516-.243l2.399 2.399c-1.158.65-2.494 1.02-3.915 1.02-4.425.0-8.017-3.592-8.017-8.017.0-1.421.371-2.756 1.02-3.914zm6.849-4.101c.049-.001.099-.002.148-.002 4.425.0 8.017 3.593 8.017 8.017.0.05.0.099-.001.148l-8.164-8.163z"/></g><g id="eye"/><g id="toggle-off"/><g id="shredder"/><g id="spinner--loading--dots-"/><g id="react"/><g id="check-selected"/><g id="turn-off"/><g id="code-block"/><g id="user"/><g id="coffee-bean"/><g id="coffee-beans"><g id="coffee-bean1"/></g><g id="coffee-bean-filled"/><g id="coffee-beans-filled"><g id="coffee-bean2"/></g><g id="clipboard"/><g id="clipboard-paste"/><g id="clipboard-copy"/><g id="Layer1"/></g></svg>