<svg height="800" width="800" id="_x35_" xmlns="http://www.w3.org/2000/svg" viewBox="0 0 512 512"><g><g><path style="fill:#E8D4C0;" d="M186.188 221.243c0 46.993-38.106 85.099-85.096 85.099-47.003.0-85.103-38.107-85.103-85.099.0-46.993 38.1-85.096 85.103-85.096 46.99.0 85.096 38.103 85.096 85.096z"/><path style="fill:#FFFFFF;" d="M186.188 221.243c0 46.993-38.106 85.099-85.096 85.099-47.003.0-85.103-38.107-85.103-85.099.0-46.993 38.1-85.096 85.103-85.096 46.99.0 85.096 38.103 85.096 85.096z"/><path style="fill:#727171;" d="M172.574 149.761c-18.25-18.265-43.618-29.609-71.482-29.606-27.87-.003-53.244 11.341-71.481 29.606C11.341 168.008-.013 193.383.0 221.243c-.013 27.863 11.341 53.238 29.61 71.479 18.237 18.272 43.611 29.618 71.481 29.61 27.864.008 53.233-11.338 71.482-29.61 18.256-18.241 29.61-43.616 29.598-71.479C202.184 193.383 190.83 168.008 172.574 149.761zM149.955 270.11c-12.554 12.529-29.737 20.231-48.864 20.241-19.138-.01-36.315-7.712-48.869-20.241-12.535-12.56-20.237-29.733-20.237-48.866s7.703-36.306 20.237-48.867c12.554-12.528 29.731-20.23 48.869-20.239 19.126.009 36.309 7.712 48.864 20.239 12.528 12.561 20.231 29.735 20.244 48.867C170.186 240.376 162.483 257.55 149.955 270.11z"/></g><path style="fill:#E8D4C0;" d="M483.857 218.249c0 40.29-32.658 72.956-72.962 72.956-40.278.0-72.936-32.665-72.936-72.956.0-40.294 32.658-72.962 72.936-72.962C451.199 145.287 483.857 177.955 483.857 218.249z"/><g><path style="fill:#FFFFFF;" d="M495.998 218.249c0 46.994-38.094 85.094-85.103 85.094-46.984.0-85.097-38.1-85.097-85.094.0-46.999 38.113-85.103 85.097-85.103C457.905 133.146 495.998 171.25 495.998 218.249z"/><path style="fill:#E8E4E2;" d="M162.572 221.243c0 33.957-27.521 61.483-61.481 61.483-33.959.0-61.493-27.527-61.493-61.483.0-33.954 27.534-61.484 61.493-61.484 33.96.0 61.481 27.531 61.481 61.484z"/><path style="fill:#E8E4E2;" d="M472.389 218.249c0 33.95-27.534 61.477-61.493 61.477-33.953.0-61.468-27.527-61.468-61.477.0-33.959 27.515-61.487 61.468-61.487 33.959.0 61.493 27.528 61.493 61.487z"/><path style="fill:#727171;" d="M482.377 146.768c-18.224-18.272-43.612-29.617-71.482-29.607-27.864-.009-53.226 11.335-71.476 29.607-18.25 18.243-29.604 43.611-29.604 71.481.0 27.861 11.354 53.232 29.604 71.476 18.25 18.269 43.612 29.617 71.476 29.607 27.87.01 53.257-11.338 71.482-29.607C500.653 271.482 512 246.11 512 218.249c0-27.87-11.347-53.238-29.623-71.481zm-22.6 120.341c-12.553 12.529-29.743 20.234-48.882 20.247-19.114-.013-36.297-7.718-48.857-20.247-12.529-12.554-20.237-29.731-20.237-48.86.0-19.139 7.709-36.312 20.237-48.869 12.56-12.528 29.743-20.234 48.857-20.237 19.139.003 36.328 7.709 48.882 20.237 12.535 12.557 20.237 29.731 20.237 48.869C480.015 237.378 472.313 254.555 459.777 267.109z"/></g><path style="fill:#7EAFBA;" d="M421.912 216.938 321.977 7.754c-2.369-4.981-8.338-7.09-13.323-4.709-4.965 2.378-7.08 8.347-4.712 13.323l20.536 42.974H174.732L150.082 7.754c-2.381-4.981-8.344-7.09-13.329-4.709-4.978 2.378-7.086 8.347-4.711 13.323l25.692 53.759L92.449 215.198c-.248.536-.464 1.169-.603 1.74l-.47 1.946c-.724 2.981-.038 6.124 1.854 8.538 1.899 2.409 4.788 3.813 7.861 3.813h139.922c.692.0 1.359-.07 2.013-.201.038-.005.056-.025.095-.031.749-.162 1.441-.423 2.127-.743.216-.098.412-.222.635-.34.508-.286.984-.607 1.416-.975.178-.143.356-.273.514-.429.59-.54 1.105-1.133 1.537-1.794.019-.025.038-.041.057-.066l89.04-138.09 65.436 136.982c2.381 4.988 8.357 7.09 13.342 4.712C422.192 227.886 424.3 221.913 421.912 216.938zM242.316 200.781 184.277 79.324h136.341L242.316 200.781zm-17.165 10.471H116.148l52.863-117.501 56.14 117.501z"/><polygon style="fill:#727171;" points="98.069,44.233 208.241,30.922 208.648,0 97.663,0"/><g><path style="fill:#C3C4C4;" d="M309.143 2.07c-7.963.0-14.998.0-20.059.0-5.048.0-8.103.0-8.103.0v19.984s33.699.0 61.963.0V2.07c-11.2329999999999.0-23.317.0-33.801.0z"/><path style="fill:#727171;" d="M388.981 16.142c-3.251-4.105-7.448-7.683-12.49-10.186-5.048-2.514-10.902-3.899-17.17-3.886-4.985.0-10.579.0-16.376.0v19.984c5.798.0 11.373.0 16.376.0 3.41.009 6.033.705 8.281 1.803 3.308 1.654 5.95 4.387 7.88 8.071 1.93 3.645 2.997 8.182 2.997 12.564.0 3.019-.514 5.94-1.397 8.42-.89 2.483-2.153 4.486-3.607 5.941l14.128 14.135c3.842-3.842 6.541-8.465 8.3-13.322 1.734-4.872 2.559-10.015 2.559-15.173C398.424 34.556 395.483 24.396 388.981 16.142z"/></g></g></svg>