<svg id="_x35_" xmlns="http://www.w3.org/2000/svg" viewBox="0 0 512 512"><g><path style="fill:#424242;" d="M396.64 159.253v-3.334l-13.335 9.793h4.515v8.682l.069-.07 8.751-6.459 2.917-2.153 1.667-1.251 7.084-5.209H396.64zM128.833 193.632v11.946l4.584-3.403 2.431-1.806v-11.946L128.833 193.632zM258.292 187.938v11.876l4.584-3.334 2.5-1.806v-11.946L258.292 187.938zm-48.617 35.419-4.306 3.265-.069-.07-4.445 3.334h16.321l8.96-6.529H209.675zM511.791 29.448c-.555-4.654-2.5-8.821-5.348-12.224-3.751-4.515-9.168-7.64-15.279-8.403-.972-.139-2.014-.209-3.056-.209H28.475c-7.987.0-15.071 3.959-19.377 10.001-2.848 3.89-4.515 8.612-4.515 13.821v272.391c0 2.014.278 3.959.764 5.765.0.278.07.556.209.833.0.069.07.139.07.139 2.292 7.987 8.82 14.307 17.015 16.321 1.875.487 3.82.764 5.834.764h459.633c13.126.0 23.892-10.695 23.892-23.822V32.433C512 31.392 511.93 30.42 511.791 29.448zM33.545 184.326c-3.82.0-7.292-1.389-10.001-3.681-.694-1.042-1.25-2.223-1.667-3.403-.417-1.181-.694-2.362-.764-3.612-.07-.487-.07-.903-.07-1.389.0-8.335 6.39-15.071 14.585-15.696.348.0.764-.07 1.181-.07 2.847.0 5.486.763 7.779 2.083.694.416 1.389.833 2.014 1.32.764 1.111 1.32 2.292 1.736 3.612.625 1.597.903 3.334.903 5.139C49.241 177.311 42.227 184.326 33.545 184.326z"/><circle style="fill:#FFFFFF;" cx="29.578" cy="159.756" r="19.144"/><path style="fill:#565657;" d="M23.822.0c-1.667.0-3.264.139-4.792.486-1.528.348-3.056.833-4.445 1.39-1.389.625-2.778 1.389-4.028 2.222C4.167 8.403.0 15.627.0 23.891v272.321c0 1.25.069 2.501.347 3.681.07.695.208 1.389.417 2.014.555 2.57 1.597 4.931 2.986 7.084.0.069.0.069.07.069.347.555.764 1.111 1.181 1.667.139.278.347.555.625.833 1.528 1.806 3.264 3.403 5.278 4.654.069.069.139.139.278.209.069.069.139.069.208.138 2.153 1.32 4.584 2.361 7.154 2.917 1.667.417 3.473.625 5.347.625h45.908l24.725-24.794H63.062V24.725h302.047l16.182-16.113L389.903.0H23.822zM17.641 170.921c-.347-.416-.764-.833-1.042-1.25-.347-.416-.694-.902-.972-1.389-.486-.694-.834-1.389-1.112-2.153-.208-.486-.417-.972-.556-1.458-.486-1.458-.694-3.055-.694-4.653.0-8.682 7.015-15.696 15.766-15.696 1.042.0 2.084.139 3.056.347.486.07.903.139 1.32.278.555.208 1.111.347 1.667.625 1.042.417 2.083.972 2.986 1.667.556.348 1.042.765 1.458 1.181.486.416.903.833 1.32 1.32.417.486.834.972 1.181 1.528 1.389 2.083 2.292 4.583 2.57 7.292.069.486.069.973.069 1.459.0 8.682-7.015 15.696-15.696 15.696-2.848.0-5.556-.765-7.848-2.084-1.111-.626-2.083-1.389-2.986-2.223v-.07C17.918 171.199 17.78 171.06 17.641 170.921z"/><path style="fill:#504F4F;" d="M507.416 23.822v272.391c0 13.127-10.765 23.892-23.892 23.892H69.799l24.725-24.794h370.457V24.725h-99.872l16.182-16.113L389.903.0h93.621c1.111.0 2.222.07 3.264.278.208.0.347.0.486.07.694.07 1.32.208 1.944.347.903.209 1.736.486 2.57.833.486.139.972.278 1.458.556.764.277 1.459.694 2.153 1.111.347.209.695.417.972.626 4.792 3.055 8.473 7.847 10.071 13.404C507.069 19.308 507.416 21.53 507.416 23.822z"/><path style="opacity:0.1;fill:#FFFFFF;" d="M495.401 3.195c-.694-.417-1.389-.833-2.153-1.111-.486-.278-.973-.417-1.458-.556-.834-.348-1.667-.625-2.57-.833-.625-.139-1.25-.277-1.944-.347-.139-.07-.278-.07-.486-.07C485.747.07 484.636.0 483.525.0H23.822c-1.667.0-3.264.139-4.792.486-1.528.348-3.056.833-4.445 1.39-1.459.625-2.778 1.319-4.028 2.222C4.167 8.403.0 15.627.0 23.891v272.321c0 1.25.069 2.501.347 3.681.07.695.208 1.389.417 2.014.555 2.57 1.597 4.931 2.986 7.084.0.069.0.069.07.069.347.555.764 1.111 1.181 1.667.139.278.347.487.556.694.0.069.07.139.07.139 1.528 1.806 3.264 3.403 5.278 4.654.069.069.139.139.278.209.069.069.139.069.208.138 2.917 2.5 6.459 4.445 10.348 5.348-.972-.625-1.944-1.39-2.778-2.153-.139-.069-.278-.208-.417-.278-6.668-4.306-11.043-11.737-11.043-20.072V27.086c0-2.986.556-5.833 1.598-8.473C12.501 9.584 21.183 3.195 31.323 3.195h459.703c1.806.0 3.612.209 5.348.626.069.0.069.0.139.0C496.165 3.612 495.818 3.334 495.401 3.195z"/><rect x="63.062" y="24.725" style="fill:#FFFFFF;" width="401.919" height="270.585"/><polygon style="fill:#FFFFFF;" points="200.629,206.375 200.629,189.248 193.552,196.325 193.552,196.765"/><path style="fill:#FFFFFF;" d="M365.109 24.725l-12.64 12.64h35.351v57.714h-57.715V59.729l-7.084 7.084V95.08h-28.198l-6.529 6.459h34.726v11.043c2.501.07 4.931.556 7.084 1.389V101.54h57.715v42.435l8.82-6.459v-35.977h57.645v57.714H396.64v-3.334l-13.335 9.793h4.515v57.645h-57.715v-57.645h11.043l-3.542-4.723-1.25-1.736h-6.251v-5.487c-2.153.834-4.584 1.32-7.084 1.389v4.098h-25.419l-8.89 6.459h34.309v57.645h-57.645v-40.628l-7.084 5.209v35.419h-48.616l-4.306 3.265-.069-.07-4.445 3.334h57.436v57.645h-57.645v-57.506l-.694.486-6.389-8.751v1.597h-27.086l-6.459 6.529h33.545v57.645h-57.715v-33.545l-7.015 7.084v26.461h-26.461l-7.848 7.779h370.457V24.725H365.109zM323.021 287.531h-57.645v-57.645h57.645v57.645zm64.799.0h-57.715v-57.645h57.715v57.645zm66.465.0H396.64v-57.645h57.645v57.645zm0-64.174H396.64v-57.645h57.645v57.645zm0-128.278H396.64V37.365h57.645V95.079z"/><polygon style="fill:#FFFFFF;" points="367.103,159.219 354.792,159.219 359.12,165.098"/><polygon style="fill:#FFFFFF;" points="258.301,169.542 272.434,159.219 265.378,159.219 265.378,124.498 258.301,131.576 258.301,159.219 230.658,159.219 224.177,165.7 258.301,165.7"/><path style="fill:#FFFFFF;" d="M63.062 24.725V295.31h31.462l7.848-7.779H71.119v-57.645h57.715v31.184l7.015-7.084v-24.1h24.169l6.459-6.529h-30.628v-34.934l-7.015 5.209v29.725H71.119v-57.645h57.715v9.515l6.945-5.209c-.556-1.875-.833-3.89-.833-5.973.0-2.222.347-4.306.903-6.32v-56.186h57.715v57.714h-16.53c.347 1.528.555 3.126.555 4.793.0.555.0 1.112-.069 1.667h16.043v30.629l7.084-7.084v-23.544h23.544l6.459-6.459h-30.003v-57.714h57.645v30.003l7.084-7.015v-22.988h22.919l6.529-6.459h-29.448V37.365h57.645v29.448l7.084-7.084V37.365h22.364l12.64-12.64H63.062zm65.771 134.528H71.119v-57.714h57.715v57.714zm0-64.174H71.119V37.365h57.715V95.079zm64.73.0h-57.715V37.365h57.715V95.079zm64.729.0h-57.645V37.365h57.645V95.079z"/><path style="fill:#EAEAEA;" d="M42.005 151.282c-2.675-2.102-6.115-3.376-9.809-3.376-8.726.0-15.732 7.006-15.732 15.732.0 3.121.892 6.05 2.484 8.472-3.503-2.867-5.669-7.198-5.669-12.102.0-8.662 7.006-15.669 15.732-15.669C34.425 144.339 39.202 147.078 42.005 151.282z"/><polygon style="fill:#BBDEF6;" points="193.552,196.765 193.552,196.325 193.365,196.512"/><path style="fill:#BBDEF6;" d="M330.128 153.764v5.456h6.246l-4.56-6.192C331.264 153.296 330.703 153.542 330.128 153.764z"/><g><polygon style="fill:#F5F1DB;" points="200.629,165.7 200.629,189.248 224.177,165.7"/><polygon style="fill:#F5F1DB;" points="135.88,229.853 135.88,253.998 160.024,229.853"/><polygon style="fill:#F5F1DB;" points="265.378,101.547 265.378,124.498 288.33,101.547"/><g><polygon style="fill:#F5F1DB;" points="87.776,205.41 128.802,175.198 128.802,165.7 71.13,165.7 71.13,223.373 128.802,223.373 128.802,193.615 96.57,217.351"/><path style="fill:#F5F1DB;" d="M193.365 196.512l.186-.187V165.7h-16.038c-.189 2.45-.785 4.783-1.733 6.932l17.585 23.88z"/><path style="fill:#F5F1DB;" d="M165.263 183.359c-2.737 1.277-5.778 2.011-8.998 2.011-4.279.0-8.254-1.272-11.594-3.441l-8.791 6.474v34.97h30.625l16.254-16.254-17.496-23.76z"/><polygon style="fill:#F5F1DB;" points="128.802,229.853 71.13,229.853 71.13,287.525 102.352,287.525 128.802,261.075"/><rect x="71.13" y="101.547" style="fill:#F5F1DB;" width="57.672" height="57.672"/><path style="fill:#F5F1DB;" d="M156.265 142.706c10.122.0 18.578 7.057 20.765 16.514h16.521v-57.672H135.88v56.195C138.566 149.034 146.675 142.706 156.265 142.706z"/><polygon style="fill:#F5F1DB;" points="258.301,101.547 200.629,101.547 200.629,159.219 230.658,159.219 258.301,131.576"/><rect x="71.13" y="37.395" style="fill:#F5F1DB;" width="57.672" height="57.672"/><rect x="135.88" y="37.395" style="fill:#F5F1DB;" width="57.672" height="57.672"/><rect x="200.629" y="37.395" style="fill:#F5F1DB;" width="57.672" height="57.672"/><polygon style="fill:#F5F1DB;" points="323.051,37.395 265.378,37.395 265.378,95.067 294.81,95.067 323.051,66.827"/><polygon style="fill:#F5F1DB;" points="330.128,37.395 330.128,59.749 352.482,37.395"/></g></g><g><polygon style="fill:#F0EBD4;" points="193.552,221.775 182.759,207.119 166.505,223.373 193.552,223.373"/><polygon style="fill:#F0EBD4;" points="203.163,209.816 258.301,169.542 258.301,165.7 224.177,165.7 200.629,189.248 200.629,206.375"/><polygon style="fill:#F0EBD4;" points="258.301,223.373 258.301,187.905 209.744,223.373"/><polygon style="fill:#F0EBD4;" points="265.378,223.373 323.051,223.373 323.051,165.7 288.702,165.7 265.378,182.736"/><polygon style="fill:#F0EBD4;" points="361.003,182.038 355.93,185.775 341.147,165.7 330.128,165.7 330.128,223.373 387.8,223.373 387.8,165.7 383.313,165.7 361.046,182.097"/><polygon style="fill:#F0EBD4;" points="128.802,261.075 102.352,287.525 128.802,287.525"/><polygon style="fill:#F0EBD4;" points="193.552,287.525 193.552,229.853 160.024,229.853 135.88,253.998 135.88,287.525"/><polygon style="fill:#F0EBD4;" points="200.629,287.525 258.301,287.525 258.301,229.853 200.867,229.853 200.629,230.028"/><rect x="265.378" y="229.853" style="fill:#F0EBD4;" width="57.672" height="57.672"/><rect x="330.128" y="229.853" style="fill:#F0EBD4;" width="57.672" height="57.672"/><polygon style="fill:#F0EBD4;" points="258.301,131.576 230.658,159.219 258.301,159.219"/><path style="fill:#F0EBD4;" d="M272.434 159.219l29.12-21.27c-.257-1.323-.4-2.686-.4-4.084.0-11.781 9.551-21.332 21.332-21.332.191.0.375.024.565.028v-11.015H288.33l-22.951 22.951v34.721H272.434z"/><path style="fill:#F0EBD4;" d="M309.328 150.635l-11.753 8.584h25.476v-4.05c-.19.005-.374.028-.565.028C317.516 155.198 312.955 153.484 309.328 150.635z"/><path style="fill:#F0EBD4;" d="M343.818 133.866c0 2.914-.588 5.688-1.645 8.218l12.619 17.136h12.311l20.697-15.24v-42.432h-57.672v12.421C338.129 117.044 343.818 124.782 343.818 133.866z"/><polygon style="fill:#F0EBD4;" points="323.051,66.827 294.81,95.067 323.051,95.067"/><polygon style="fill:#F0EBD4;" points="387.8,95.067 387.8,37.395 352.482,37.395 330.128,59.749 330.128,95.067"/><rect x="396.621" y="37.395" style="fill:#F0EBD4;" width="57.672" height="57.672"/><polygon style="fill:#F0EBD4;" points="422.49,136.851 396.621,155.9 396.621,159.219 454.293,159.219 454.293,101.547 396.621,101.547 396.621,137.483 413.696,124.91"/><rect x="396.621" y="165.7" style="fill:#F0EBD4;" width="57.672" height="57.672"/><rect x="396.621" y="229.853" style="fill:#F0EBD4;" width="57.672" height="57.672"/></g><path style="fill:#504F4F;" d="M135.88 170.334c-.029-.096-.047-.196-.075-.292l-7.002 5.156L87.776 205.41l8.794 11.941 32.232-23.737 7.077-5.212 8.792-6.473C140.526 179.237 137.367 175.156 135.88 170.334z"/><polygon style="fill:#504F4F;" points="200.629,230.028 200.867,229.853 200.629,229.853"/><polygon style="fill:#504F4F;" points="205.321,226.573 205.336,226.592 209.744,223.373 209.667,223.373"/><path style="fill:#504F4F;" d="M301.56 137.932l-29.1 21.321-14.168 10.279-55.145 40.283-2.501-3.473-7.084-9.584-.208-.277-17.571-23.822c-2.084 4.723-5.834 8.543-10.487 10.695l17.432 23.753 10.835 14.654 6.389 8.751.694-.486v-.139h.209l4.445-3.334 4.375-3.195h.069l48.547-35.419 7.084-5.209 23.336-17.016 8.89-6.459 11.737-8.612C305.38 147.516 302.533 143.071 301.56 137.932z"/><polygon style="fill:#504F4F;" points="359.564,165.7 359.12,165.098 358.302,165.7"/><path style="fill:#504F4F;" d="M413.696 124.91l-17.075 12.574-8.821 6.496-20.697 15.24-7.983 5.879.444.602h-1.262l.818-.602-4.329-5.879-12.619-17.135c-2.002 4.791-5.711 8.677-10.358 10.944l4.56 6.191 4.773 6.48 14.783 20.075 5.073-3.737.043.059 22.267-16.397 13.309-9.799 25.869-19.049L413.696 124.91z"/><polygon style="fill:#C87B9C;" points="135.88,165.7 135.88,169.985 141.699,165.7"/><path style="fill:#C87B9C;" d="M175.781 172.632c.948-2.148 1.543-4.482 1.733-6.932h-6.837L175.781 172.632z"/><polygon style="fill:#C87B9C;" points="166.666,165.7 160.532,165.7 162.689,168.63"/><path style="fill:#C87B9C;" d="M135.88 169.985l-.075.055c.028.097.046.197.075.293V169.985z"/><polygon style="fill:#C87B9C;" points="155.759,159.219 150.499,159.219 141.699,165.7 160.532,165.7"/><polygon style="fill:#C87B9C;" points="153.909,156.708 150.499,159.219 155.759,159.219"/><polygon style="fill:#C87B9C;" points="169.266,163.785 166.666,165.7 170.676,165.7"/><g><path style="fill:#C87B9C;" d="M177.597 164.038c0-1.659-.208-3.268-.567-4.818-2.187-9.457-10.644-16.514-20.765-16.514-9.59.0-17.699 6.328-20.385 15.036-.614 1.99-.947 4.104-.947 6.295.0 2.086.313 4.097.872 6.003l.075-.055V165.7h5.819l8.801-6.481 3.41-2.511 1.849 2.511 4.773 6.481h6.134l2.6-1.915 1.41 1.915h6.837C177.556 165.15 177.597 164.599 177.597 164.038z"/><path style="fill:#C87B9C;" d="M162.689 168.63l.015.02-5.364 3.95-.015-.02L162.689 168.63l-2.157-2.929h-18.833l-5.819 4.285v.348c1.488 4.823 4.646 8.904 8.791 11.596 3.34 2.168 7.315 3.441 11.594 3.441 3.219.0 6.261-.734 8.998-2.011 4.677-2.182 8.432-5.997 10.518-10.727l-5.104-6.932h-4.01L162.689 168.63z"/></g><rect x="156.683" y="170.602" transform="matrix(-0.8052 0.593 -0.593 -0.8052 390.0304 213.1174)" style="fill:#C87B9C;" width="6.662" height=".025"/><path style="fill:#C87B9C;" d="M330.128 150.738v3.026c.575-.221 1.136-.467 1.687-.736L330.128 150.738z"/><polygon style="fill:#C87B9C;" points="326.458,138.123 323.051,133.458 323.051,140.612"/><path style="fill:#C87B9C;" d="M330.105 113.97c-2.153-.832-4.584-1.319-7.084-1.389-.139.0-.347-.069-.555-.069-11.737.0-21.322 9.584-21.322 21.322.0 1.458.139 2.777.417 4.097.972 5.139 3.82 9.584 7.779 12.709 3.612 2.848 8.195 4.584 13.127 4.584.208.0.417-.07.555-.07 2.501-.07 4.931-.555 7.084-1.389v-3.056l-6.32-8.542 6.32-4.653 5.626-4.168 6.459 8.751c1.042-2.57 1.598-5.348 1.598-8.264C343.787 124.805 338.161 117.026 330.105 113.97zm-7.084 26.67v-7.154l3.403 4.653-2.639 1.945L323.021 140.64z"/><polygon style="fill:#C87B9C;" points="323.808,142.156 330.128,150.738 330.128,137.501"/><path style="fill:#C87B9C;" d="M342.173 142.084l-6.423-8.722-5.621 4.14v13.236l1.687 2.29C336.461 150.761 340.17 146.876 342.173 142.084z"/><circle style="fill:#F3EC33;" cx="156.265" cy="164.038" r="6.378"/><circle style="fill:#F3EC33;" cx="322.486" cy="133.866" r="6.378"/></g></svg>