<svg height="800" width="800" id="_x35_" xmlns="http://www.w3.org/2000/svg" viewBox="0 0 512 512"><g><g><path style="fill:#F7FBFC;" d="M510.755 256.06c0 40.616-9.472 79.066-26.409 113.18-.08.16-.16.401-.321.562-6.261 12.602-13.646 24.723-21.833 36.121-.08.0-.08.08-.161.16-.321.401-.642.883-.963 1.365-.08.08-.08.08-.161.16-3.211 4.415-6.663 8.75-10.194 12.923-.08.08-.161.241-.241.321-.321.401-.642.722-1.044 1.204-.08.08-.161.161-.241.241-9.552 11.158-20.067 21.512-31.466 30.823-2.569 2.087-5.217 4.174-7.866 6.181-1.525 1.204-2.97 2.328-4.495 3.371-2.167 1.686-4.415 3.291-6.743 4.816-2.889 2.007-5.859 3.933-8.829 5.779-2.89 1.766-5.78 3.452-8.669 5.137h-.08c-36.843 20.87-79.386 32.83-124.658 32.991h-1.926c-46.797-.16-90.625-12.923-128.271-35.078h-.08c-2.248-1.364-4.495-2.729-6.743-4.174-16.215-10.194-31.145-22.155-44.63-35.64-4.495-4.495-8.829-9.231-12.923-14.047-.161-.08-.241-.241-.321-.321-.401-.401-.722-.802-1.044-1.204-.08-.08-.16-.161-.24-.241-3.612-4.254-7.064-8.589-10.355-13.084-.402-.562-.723-1.043-1.124-1.605-3.291-4.495-6.422-9.07-9.312-13.806-4.495-6.983-8.589-14.208-12.361-21.673-.08-.161-.161-.321-.241-.482-4.977-10.034-9.311-20.388-13.004-31.064C4.896 312.971.0 285.037.0 256.06c0-9.712.562-19.264 1.605-28.656 2.89-25.927 9.632-50.65 19.746-73.607v-.161l.723-1.605c.08-.08.08-.08.08-.161 12.121-27.211 28.977-51.774 49.286-72.965.241-.241.482-.561.722-.803 26.248-26.97 58.356-48.162 94.317-61.567.161-.08.401-.161.562-.241 27.292-9.953 56.751-15.492 87.414-15.653h1.926c28.737.161 56.349 4.977 82.035 13.807 1.766.642 3.532 1.204 5.298 1.926.16.0.401.08.562.161 26.729 9.953 51.292 24.161 72.884 41.981 8.83 7.144 17.097 14.93 24.884 23.278.08.08.16.241.241.321 1.846 1.926 3.612 3.933 5.378 5.94 1.685 1.926 3.452 4.013 5.137 6.101.0.0.08.0.08.08 3.211 3.853 6.342 7.866 9.312 11.96 1.525 2.087 3.05 4.254 4.575 6.502 1.364 1.926 2.648 4.013 3.933 6.02.401.482.642.963.963 1.445 1.204 1.926 2.328 3.853 3.532 5.78 1.445 2.408 2.809 4.816 4.174 7.304 3.291 6.101 6.422 12.361 9.312 18.783.08.08.161.16.161.241.241.482.482 1.044.642 1.525 1.124 2.488 2.168 5.057 3.211 7.626.08.08.08.161.161.321.963 2.488 1.846 4.977 2.809 7.545.241.562.401 1.204.642 1.847 6.1 17.258 10.355 35.479 12.602 54.262.0.08.0.08.0.161C510.113 235.511 510.755 245.705 510.755 256.06z"/><path style="fill:#829FB5;" d="M256.355 1.114v323.221c-.316.006-.643.006-.959.006s-.643.0-.959-.006V1.114H256.355z"/><path style="fill:#829FB5;" d="M316.895 322.46l-.604 1.871-42.313-24.433-1.919-1.103-15.703-9.065-.796-.46-1.122-.652-.796-.461-87.255-50.371-83.591-48.261L21.391 154.07l.71-1.573c.029-.067.058-.125.086-.192l62.727 36.213 81.864 47.263 87.658 50.611 1.132.652.787.46 1.132.652 16.5 9.526 1.918 1.113 40.99 23.665z"/><path style="fill:#829FB5;" d="M336.713 261.47l-.892 2.724-59.916 34.601-1.928 1.103-16.49 9.526-1.132.652-.787.451-1.132.652-52.626 30.39-85.5 49.364-54.86 31.675c-.422-.499-.844-.988-1.266-1.487l55.887-32.26 83.697-48.328 53.882-31.109.787-.451 1.132-.652.787-.461 15.703-9.065 1.928-1.113L336.713 261.47z"/><path style="fill:#829FB5;" d="M450.713 420.987c-.413.499-.835.998-1.257 1.487l-58.122-33.555-82.008-47.35-52.971-30.582-.787-.46-1.132-.652-.787-.451-16.499-9.526-1.919-1.113-60.348-34.841-.883-2.724 63.149 36.462 1.919 1.113 15.368 8.864 1.132.662.787.451 1.132.652 53.595 30.946 82.622 47.705 57.009 32.912z"/><path style="fill:#829FB5;" d="M489.468 154.223l-59.513 34.361-85.625 49.431-86.843 50.141-1.132.652-.796.46-1.122.652-15.368 8.873-1.919 1.103-42.592 24.596-.614-1.871 41.287-23.838 1.919-1.103 16.49-9.526.796-.46 1.132-.652.787-.451 87.812-50.697 84.569-48.827 59.945-34.611C488.95 153.043 489.209 153.638 489.468 154.223z"/><polygon style="fill:#DCF0F5;" points="197.316,345.406 161.425,234.928 255.396,166.652 349.37,234.929 313.477,345.406"/><path style="fill:#325366;" d="M344.276 15.893l-.241.241-.321.24-26.409 19.184-60.924 44.229-.963.722-.963-.722-87.414-63.493-.562-.401C193.931 5.779 223.55.16 254.455.0h1.926c28.897.16 56.59 5.057 82.437 13.967C340.664 14.609 342.51 15.251 344.276 15.893z"/><path style="fill:#325366;" d="M509.121 225.662l-78.987-37.258-1.333-.633.115-.883 13.344-104.81c19.176 20.529 34.994 44.213 46.601 70.2.269.585.528 1.18.787 1.765 2.226 5.074 4.278 10.245 6.168 15.492.23.604.451 1.218.662 1.832C502.588 188.682 506.876 206.861 509.121 225.662z"/><path style="fill:#325366;" d="M85.25 187.951l-1.209.566-2.12 1.007L.748 227.818c2.887-25.881 9.65-50.602 19.694-73.567l.077-.182.71-1.573c.029-.067.058-.125.086-.192 12.288-27.493 29.306-52.405 50.007-73.72L85.25 187.951z"/><path style="fill:#325366;" d="M126.183 476.801c-1.926-1.123-3.853-2.328-5.699-3.532-16.696-10.355-32.188-22.636-45.995-36.522-4.495-4.495-8.829-9.231-13.004-14.128-.482-.482-.883-.963-1.284-1.525-3.612-4.174-7.064-8.589-10.355-13.084-.402-.482-.723-1.044-1.124-1.525-3.612-4.896-6.983-9.953-10.114-15.09-4.255-6.743-8.188-13.726-11.8-20.951l.241.08.321.08 88.698 17.9v.321l.241 2.087.401 3.612 9.392 81.795L126.183 476.801z"/><path style="fill:#325366;" d="M484.345 369.695c-6.37 12.864-13.794 25.123-22.159 36.644-.038.058-.086.115-.125.173-.336.46-.681.93-1.017 1.391-.048.057-.086.105-.125.163-3.261 4.422-6.667 8.729-10.207 12.921-.413.499-.835.998-1.257 1.487-19.291 22.533-42.448 41.671-68.444 56.386l10.322-89.941.038-.374 2.331-.47 86.363-17.507 1.919-.393L484.345 369.695z"/><polygon style="fill:#325366;" points="344.858,236.394 316.895,322.46 316.29,324.331 310.688,341.569 200.104,341.569 166.385,237.785 165.934,236.394 166.778,235.78 255.396,171.394"/></g><path style="opacity:0.1;fill:#03172C;" d="M495.45 171.698c-.211-.614-.432-1.228-.662-1.832-1.89-5.247-3.942-10.418-6.168-15.492-.259-.585-.518-1.18-.787-1.765-11.607-25.987-27.425-49.671-46.601-70.2-2.005-2.148-4.057-4.249-6.134-6.327L73.985 437.195c15.307 15.309 32.541 28.692 51.32 39.734 37.651 22.14 81.481 34.889 128.284 35.061.317.01.643.01.959.01.317.0.643.0.959-.01 45.306-.163 87.821-12.125 124.657-32.98 25.996-14.715 49.153-33.853 68.444-56.386.422-.489.844-.988 1.257-1.487 3.54-4.192 6.945-8.499 10.207-12.921.038-.058.077-.106.125-.163.336-.46.681-.931 1.017-1.391.038-.057.086-.115.125-.173 8.365-11.521 15.79-23.78 22.159-36.644 16.912-34.121 26.418-72.55 26.418-113.213.0-10.37-.623-20.596-1.822-30.639C505.848 207.191 501.56 189.013 495.45 171.698z"/></g></svg>