<svg id="_x35_" xmlns="http://www.w3.org/2000/svg" viewBox="0 0 512 512"><g><g><rect x="124.166" y="144.596" style="fill:#FFFFFF;" width="246.257" height="311.903"/><path style="fill:#EDEEEE;" d="M382.514 434.751c0 42.665-34.587 77.249-77.252 77.249h-91.763c-42.665.0-77.246-34.583-77.246-77.249V454c0-42.659 34.581-77.239 77.246-77.239h91.763c42.665.0 77.252 34.58 77.252 77.239V434.751z"/><g><g><path style="fill:#3B2F2C;" d="M195.276 137.056v7.54c0 23.381.0 87.85.0 87.85l-31.335 27.047-9.131 7.886-26.148 22.55s-1.66-.968-4.496-2.698c-2.352-1.314-5.465-3.182-9.131-5.396-3.389-2.006-7.194-4.289-11.344-6.779-7.402-4.427-15.772-9.546-24.349-14.803-17.847-10.999-36.247-22.758-47.522-30.851-8.577-6.226-15.149-14.18-20.06-22.827-1.038-1.937-2.075-3.874-2.974-5.88C2.49 187.138.0 172.335.0 159.745V28.039C0-2.259 28.776-3.712 43.925 3.828c13.42 6.641 72.217 35.486 105.213 56.515 2.49 1.591 4.773 3.113 6.848 4.496.484.346.968.692 1.453 1.038 30.297 21.236 37.837 62.117 37.837 71.179z"/><path style="fill:#FDE9E0;" d="M121.581 236.009c-16.584-9.91-46.98-28.315-61.081-38.501-12.234-8.836-16.591-25.498-16.591-38.15v-65.6c0-8.383 4.398-16.151 11.599-20.448 7.194-4.3 16.118-4.499 23.504-.524.0.0 35.86 16.054 55.93 30.102 16.422 11.501 20.86 35.343 20.995 39.258v64.191l-34.356 29.672z"/></g><path style="fill:#3B2F2C;" d="M124.996 466.321l17.847-.484 10.376-.277c-.346-3.113-.692-6.087-1.038-9.062-1.868-18.538-2.006-34.379-.899-48.214 2.144-26.286 8.785-45.654 17.224-64.193 19.991-44.133 49.528-83.492 49.528-199.496h-22.758-32.581c-2.283.0-4.565.138-6.779.484-12.382 1.591-23.657 7.678-31.751 16.878-3.666 4.081-6.641 8.785-8.854 13.973L96.22 220.618l-16.878 39.636-2.628 6.087-9.477 22.343c-2.905 6.917-4.289 14.25-4.012 21.582v.069c.138 5.811 1.245 11.621 3.389 17.155l24.211 62.394 28.914 74.569L124.996 466.321z"/><g><path style="fill:#FFFFFF;" d="M172.59 282.387c0 19.235-15.585 34.823-34.813 34.823-19.243.0-34.83-15.588-34.83-34.823.0-19.232 15.588-34.82 34.83-34.82C157.005 247.568 172.59 263.155 172.59 282.387z"/><path style="fill:#3B2F2C;" d="M160.477 282.387c0 12.541-10.173 22.708-22.7 22.708-12.555.0-22.718-10.166-22.718-22.708.0-12.538 10.163-22.711 22.718-22.711C150.304 259.676 160.477 269.85 160.477 282.387z"/></g></g><g><g><path style="fill:#3B2F2C;" d="M510.153 28.039v131.706c0 22.689-8.162 52.641-31.751 69.658-.692.484-1.453 1.038-2.214 1.591s-1.522 1.038-2.352 1.66c-4.012 2.767-8.716 5.88-13.696 9.131-2.698 1.729-5.465 3.528-8.37 5.396-6.779 4.289-13.904 8.716-20.96 13.074-8.577 5.257-17.017 10.376-24.349 14.872-4.15 2.421-8.024 4.773-11.344 6.779-8.301 4.911-13.627 8.024-13.627 8.024l-11.068-9.546-15.011-12.935-9.2-7.955-31.335-27.047s0-64.469.0-87.85v-7.54c0-9.062 7.609-49.943 37.907-71.179 30.229-21.167 98.918-54.785 113.513-62.049 4.635-2.283 10.583-3.735 16.602-3.805 13.212-.138 26.701 6.71 27.185 26.77C510.153 27.209 510.153 27.624 510.153 28.039z"/><path style="fill:#FDE9E0;" d="M388.615 236.009c16.577-9.91 46.976-28.315 61.08-38.501 12.234-8.836 16.591-25.498 16.591-38.15v-65.6c0-8.383-4.404-16.151-11.606-20.448-7.187-4.3-16.111-4.499-23.494-.524.0.0-35.864 16.054-55.934 30.102-16.422 11.501-20.86 35.343-20.995 39.258v64.191l34.358 29.672z"/></g><path style="fill:#3B2F2C;" d="M443.609 327.49l-22.62 58.244v.069l-.069.138-31.128 80.31-.069.207H389.1l-13.212-.415-18.884-.484c.346-3.113.692-6.087 1.038-9.062 2.352-23.657 2.006-42.818-.277-59.212-2.974-21.305-9.131-38.045-16.463-54.232-19.991-43.717-49.113-83.423-49.113-198.458h55.27c2.283.0 4.565.138 6.779.484 5.672.692 11.137 2.421 16.186 4.911 10.722 5.326 19.507 14.388 24.418 25.94l19.092 44.755 16.878 39.567 12.105 28.43C448.174 301.066 448.451 314.97 443.609 327.49z"/><g><path style="fill:#FFFFFF;" d="M337.612 282.387c0 19.235 15.584 34.823 34.809 34.823 19.232.0 34.823-15.588 34.823-34.823.0-19.232-15.591-34.82-34.823-34.82C353.197 247.568 337.612 263.155 337.612 282.387z"/><path style="fill:#3B2F2C;" d="M349.718 282.387c0 12.541 10.173 22.708 22.704 22.708 12.545.0 22.718-10.166 22.718-22.708.0-12.538-10.173-22.711-22.718-22.711C359.891 259.676 349.718 269.85 349.718 282.387z"/></g></g><path style="fill:#FFFFFF;" d="M430.535 418.315c-.138 1.314-.277 2.698-.415 3.943-.277 1.591-.553 3.044-.899 4.565-.346 1.245-.692 2.559-1.107 3.805-.415 1.314-.899 2.559-1.384 3.805-.415.899-.761 1.798-1.245 2.698-.83 1.66-1.729 3.251-2.629 4.773-.692 1.038-1.314 2.006-2.075 2.974-3.251 4.427-7.263 8.37-11.829 11.759-.899.623-1.798 1.245-2.767 1.868-1.314.899-2.698 1.729-4.15 2.49-1.245.692-2.559 1.314-3.874 1.937-2.629 1.314-5.465 2.352-8.37 3.32-.208.069-.415.138-.623.207H389.1c-2.144.692-4.358 1.245-6.571 1.729-1.038.277-2.075.484-3.182.623-1.038.207-2.144.415-3.251.553-.622.069-1.245.208-1.868.208l-.069.069c-14.941 1.868-31.889.138-49.597-5.811-5.949-2.006-11.414-4.496-16.394-7.332-41.227-23.45-50.151-70.557-50.151-70.557l-.208-9.2-.138-6.641-.277-12.105-.138-6.226-.415 18.331-.208 6.641-.208 9.2s-1.522 8.093-6.226 19.23c-6.641 15.772-19.714 37.63-43.925 51.327-4.98 2.836-10.445 5.326-16.394 7.332-15.979 5.396-31.266 7.263-45.101 6.226-7.056-.484-13.696-1.798-19.784-3.735-1.799-.553-3.528-1.176-5.257-1.868-.692-.277-1.453-.623-2.144-.899-14.388-6.364-25.179-16.948-30.298-30.367-1.799-4.635-2.905-9.615-3.32-14.872-.761-10.03 1.66-19.576 6.848-28.43 6.641-11.344 17.985-21.444 33.342-29.675 12.313-6.641 27.185-12.105 44.34-16.117 12.244-2.905 25.732-4.98 40.19-6.226 1.038-.069 2.075-.207 3.113-.207 18.4-1.591 30.575-2.352 38.391-2.698 1.937-.069 3.597-.138 4.98-.138.553-.069 1.176-.069 1.937-.069.0.0.069.0.138.0.0.0.069.0.138.0.692.0 1.314.0 1.868.069 7.332.138 20.544.899 43.648 2.836.899.069 1.868.138 2.836.207 12.659 1.107 24.557 2.836 35.555 5.188 10.514 2.214 20.268 4.98 29.122 8.301 23.311 8.508 40.605 20.337 50.566 34.379v.069c4.842 6.71 7.886 13.904 9.062 21.444.208 1.245.346 2.559.484 3.804C430.673 413.473 430.742 415.894 430.535 418.315z"/><g><path style="fill:#3B2F2C;" d="M257.361 370.1c-16.348.0-7.62-19.621-18.523-20.712-10.902-1.091-8.728 10.893-4.363 16.348 2.182 4.364-22.881.0-22.881-23.984.0-28.338 26.15-37.055 45.767-37.055V370.1z"/><path style="fill:#3B2F2C;" d="M257.361 370.1c16.354.0 7.633-19.621 18.536-20.712 10.896-1.091 8.715 10.893 4.364 16.348-2.182 4.364 22.887.0 22.887-23.984.0-28.338-26.156-37.055-45.786-37.055V370.1z"/></g></g><path style="opacity:0.08;fill:#3B2F2C;" d="M510.153 28.039v131.706c0 22.689-8.162 52.641-31.751 69.658-.692.484-1.453 1.038-2.214 1.591-.761.484-1.522 1.038-2.352 1.66-4.012 2.767-8.716 5.88-13.696 9.131-2.698 1.729-5.465 3.528-8.37 5.396-6.779 4.289-13.904 8.716-20.96 13.074l12.105 28.43c5.257 12.382 5.534 26.286.692 38.806l-22.62 58.244v.069l-.069.069v.069c4.773 6.641 7.817 13.835 9.131 21.305.553 3.597.761 7.332.484 11.068-.138 1.453-.277 2.836-.484 4.22-.208 1.383-.484 2.767-.83 4.15-4.427 18.815-19.023 32.996-39.429 39.567l-.069.207H389.1c-2.144.692-4.358 1.245-6.571 1.729-1.038.277-2.075.484-3.182.623-1.038.207-2.144.415-3.251.553-.346.069-.622.138-.968.138-.277.069-.623.069-.899.138h-.069c-.83 1.591-1.66 3.113-2.559 4.635s-1.799 2.974-2.836 4.427c-.969 1.383-2.006 2.836-3.113 4.15-1.038 1.314-2.144 2.559-3.182 3.805-.138.069-.138.138-.207.208-1.176 1.245-2.421 2.49-3.666 3.735-2.559 2.352-5.257 4.635-8.024 6.641-1.314.969-2.698 1.937-4.081 2.767-1.591 1.038-3.182 2.006-4.842 2.836-1.383.761-2.836 1.522-4.289 2.144-4.358 2.006-8.923 3.597-13.627 4.773-.968.207-1.937.415-2.905.623-1.245.277-2.49.484-3.805.692-.968.138-1.937.277-2.905.346-1.107.208-2.283.277-3.389.346-1.798.138-3.597.208-5.465.208H250.2v-367.38h64.677v-7.54c0-9.062 7.609-49.943 37.907-71.179 30.229-21.167 98.918-54.785 113.513-62.049 4.635-2.283 10.583-3.735 16.602-3.805 13.212-.138 26.701 6.71 27.185 26.77C510.153 27.209 510.153 27.624 510.153 28.039z"/></g></svg>