<svg height="800" width="800" id="_x35_" xmlns="http://www.w3.org/2000/svg" viewBox="0 0 512 512"><g><g><path style="fill:#FEEFDD;" d="M392.59 189.479l-9.721 19.076v.061l-15.836 31.182h-.061l-.428.917-.978 1.835-25.496 22.806-.061.061-.673.611-27.758 24.824-.367.306-23.906 21.338-3.546 3.18-.795.733-5.38 4.769-.856.796h-.061l-19.015 17.058h-.061c-.367.366-.795.672-1.162 1.04l-.306.306-1.712 1.528-.367-.367-12.351-13.818-3.546-3.974-4.769-5.319-3.302-3.73-.367-.366-3.363-3.792-17.609-19.687-3.668-4.096v-.061l-1.712-1.896-1.957-2.14-.183-.184-17.12-19.26-3.669-4.035v-.061l-3.668-4.036-17.425-19.566-3.546-3.974 10.639-9.538 11.311-10.149 32.222-28.798 21.889-19.565 15.835-14.184 5.442-4.83 3.179-1.529 39.803-19.626h.061l7.276-3.608 11.495-5.686 27.758 26.963L392.59 189.479z"/><polygon style="fill:#FFFFFF;" points="479.106,138.303 416.252,194.492 408.976,200.973 390.695,217.359 382.869,208.616 382.869,208.555 331.999,151.693 303.446,119.716 294.764,109.994 313.045,93.669 320.321,87.127 383.236,30.999 416.008,67.684"/><polygon style="opacity:0.07;fill:#040000;" points="497.387,121.978 479.106,138.303 416.252,194.492 408.976,200.973 349.363,134.329 313.045,93.669 320.321,87.127 400.477,15.469 401.456,14.614 416.864,31.855 433.372,50.32"/><polygon style="fill:#484860;" points="512,123.629 510.227,125.219 423.589,202.685 416.252,194.492 356.272,127.42 320.321,87.127 313.045,78.996 392.774,7.765 401.456,0 440.281,43.411"/><g><polygon style="fill:#E7D1A2;" points="357.495,231.789 357.067,232.278 333.1,259.119 333.038,259.18 332.427,259.852 307.726,287.427 307.42,287.794 287.549,310.049 283.086,315.063 282.535,315.675 277.583,321.177 258.935,342.026 258.813,342.21 258.262,341.721 256.428,340.07 238.147,323.745 232.766,318.915 229.342,315.858 228.67,315.246 225.185,312.128 206.414,295.375 205.008,294.153 200.911,290.484 200.911,290.423 196.876,286.816 196.815,286.755 177.25,269.329 173.153,265.661 173.153,265.599 169.057,261.992 147.657,242.855 146.801,241.082 146.251,240.042 143.622,234.967 129.804,207.821 120.633,189.784 198.283,114.335 208.737,119.471 223.717,126.869 230.015,129.987 246.706,138.242 256.306,142.95 260.097,144.784 274.954,158.052 301.734,181.957 323.867,201.767"/><polygon style="fill:#FFFFFF;" points="217.236,109.994 208.737,119.471 129.804,207.821 121.305,217.359 103.024,200.973 95.748,194.492 32.894,138.303 128.764,30.999 191.679,87.127 198.955,93.669"/><polygon style="opacity:0.07;fill:#040000;" points="198.955,93.669 103.024,200.973 95.748,194.492 32.894,138.303 14.613,121.978 61.325,69.702 110.544,14.614 113.662,17.365 191.679,87.127"/><polygon style="fill:#404D5D;" points="198.955,78.996 191.679,87.127 95.748,194.492 88.411,202.685 53.744,171.686 0,123.629 110.544,0 121.366,9.661"/><path style="fill:#E7D1A2;" d="M326.992 204.04c-7.618-6.808-19.314-6.152-26.122 1.467-6.808 7.618-6.152 19.314 1.467 26.122l44.855 40.087c7.618 6.808 19.314 6.152 26.122-1.467 6.809-7.618 6.152-19.314-1.466-26.122L326.992 204.04z"/><path style="fill:#E7D1A2;" d="M302.379 231.816c-7.618-6.809-19.514-5.928-26.569 1.966s-6.598 19.813 1.02 26.622l44.855 40.087c7.618 6.809 19.514 5.928 26.569-1.966s6.598-19.813-1.02-26.622l-44.855-40.087z"/><path style="fill:#E7D1A2;" d="M268.893 252.724c-7.618-6.808-19.314-6.152-26.122 1.467-6.808 7.618-6.152 19.314 1.467 26.122l44.855 40.087c7.618 6.808 19.314 6.152 26.122-1.467 6.809-7.618 6.152-19.314-1.466-26.122l-44.856-40.087z"/><path style="fill:#E7D1A2;" d="M280.498 337.567c-4.928 5.511-12.413 7.375-19.055 5.408-.843-.247-1.673-.555-2.481-.932-.24-.11-.48-.226-.713-.35-.74-.377-1.453-.809-2.145-1.295-.034-.021-.069-.041-.103-.069-.562-.398-1.103-.829-1.624-1.296l-12.653-11.31-9.384-8.383-3.29-2.947-.822-.733-3.359-3.002-15.347-13.716c-1.2-1.069-2.228-2.262-3.078-3.544-.357-.535-.686-1.083-.973-1.645-.946-1.789-1.576-3.701-1.885-5.662-.007-.014-.007-.021-.007-.027-.171-1.083-.247-2.18-.226-3.276.027-1.487.233-2.968.623-4.414.72-2.721 2.077-5.312 4.079-7.554 3.002-3.359 6.957-5.367 11.097-5.97 1.001-.151 2.022-.219 3.037-.192h.007c1.57.027 3.132.254 4.654.679.254.069.5.144.747.219 2.365.775 4.606 2.036 6.58 3.797l18.274 16.334 2.762 2.468 1.693 1.515 2.481 2.214 19.645 17.561c.884.788 1.673 1.645 2.365 2.557.418.535.795 1.097 1.138 1.666.151.24.288.487.418.733.72 1.316 1.268 2.707 1.638 4.133C286.112 326.333 284.789 332.762 280.498 337.567z"/></g><path style="fill:#FEEFDD;" d="M247.807 144.906l-.122 4.403-.428 17.486-.367 16.142c-.245 10.21-8.682 18.281-18.893 18.036-9.966-.245-17.792-8.132-18.037-17.915-.061-.305-.061-.611-.061-.979l.917-38.03c.183-8.132 5.564-14.857 12.901-17.181 1.895-.61 3.974-.916 6.053-.855 7.888.122 14.491 5.197 16.936 12.228C247.501 140.32 247.868 142.583 247.807 144.906z"/><path style="opacity:0.04;fill:#040000;" d="M287.565 310.04c-.041.823-.117 1.638-.24 2.454-.267 1.741-.72 3.455-1.357 5.107-.391 1.001-.843 1.981-1.378 2.934-1.261 2.289-2.927 4.407-4.99 6.251l-18.157 16.19c-.843-.247-1.673-.555-2.481-.932l-.144.158-.569-.507c-.74-.377-1.453-.809-2.145-1.295l-1.7 1.515-.336-.377c-7.361 3.969-16.752 2.536-22.565-3.969-3.393-3.797-4.928-8.602-4.675-13.318.144-2.721.891-5.408 2.221-7.855l-.822-.733-5.319 4.736c-.418.377-.85.727-1.296 1.056v.007c-7.595 5.655-18.397 4.675-24.827-2.529-3.379-3.784-4.922-8.568-4.682-13.27v-.007c.226-4.435 2.043-8.794 5.401-12.146l-9.473 8.438c-.37.336-.754.651-1.152.946-7.608 5.778-18.5 4.832-24.97-2.413-4.167-4.661-5.538-10.851-4.222-16.512v-.007c.823-3.592 2.728-6.964 5.689-9.603l9.775-8.712-.014-.014-10.426 9.288c-2.728 2.433-5.97 3.914-9.329 4.455-6.032.994-12.42-1.028-16.793-5.922-6.813-7.622-6.155-19.316 1.467-26.122l5.305-4.723 47.028-20.78s9.891 5.056 11.714 8.497c1.823 3.441.802 5.751.432 8.609.507-.041 1.028-.055 1.542-.055 6.827.0 13.346 2.92 17.89 8.006 3.413 3.811 5.374 8.424 5.922 13.161 3.393-1.768 7.177-2.714 11.063-2.714.514.0 1.021.014 1.529.048 6.265.404 12.16 3.256 16.361 7.958 4.956 5.545 6.854 12.777 5.819 19.604.315-.014.63-.021.946-.021 6.827.0 13.346 2.92 17.89 8.006C285.858 297.798 287.853 303.974 287.565 310.04z"/><path style="fill:#FEEFDD;" d="M298.249 159.886c-8.193-2.324-16.203-2.568-23.295-1.835-16.019 1.773-27.636 8.743-27.636 8.743h-.061l-15.407-3.301-1.834-33.506-.245-3.974 66.339-2.69h.061C296.17 123.324 325.09 167.468 298.249 159.886z"/><path style="fill:#FEEFDD;" d="M196.778 240.022c-.822 3.585-2.728 6.964-5.682 9.603l-10.673 9.507-7.286 6.498-10.426 9.288c-2.728 2.433-5.97 3.914-9.329 4.455-6.032.994-12.42-1.028-16.793-5.922-6.813-7.622-6.155-19.316 1.467-26.122l8.17-7.279 9.542-8.506 10.672-9.507c7.615-6.807 19.309-6.148 26.122 1.467C196.73 228.171 198.101 234.36 196.778 240.022z"/><path style="fill:#FEEFDD;" d="M222.558 263.814c-.048.953-.171 1.906-.364 2.845h-.007c-.72 3.475-2.454 6.779-5.162 9.425l-.02.021c-.192.192-.391.377-.59.555L205.1 286.741l-1.515 1.35-2.666 2.372-3.393 3.023c-.007.007-.014.014-.021.021l-9.473 8.438c-.37.336-.754.651-1.152.946-7.608 5.778-18.5 4.832-24.97-2.413-4.167-4.661-5.538-10.851-4.222-16.512v-.007c.823-3.592 2.728-6.964 5.689-9.603l9.775-8.712 7.286-6.491 11.317-10.083c2.728-2.433 5.97-3.914 9.329-4.462 6.032-.987 12.427 1.035 16.8 5.929C221.269 254.32 222.805 259.111 222.558 263.814z"/><path style="fill:#FEEFDD;" d="M256.885 285.885c-.37 1.467-.918 2.893-1.659 4.25.0.007-.007.014-.014.021-.98 1.816-2.289 3.496-3.921 4.956l-21.557 19.199-1.062.953-.445.398-5.319 4.736c-.418.377-.85.727-1.296 1.056v.007c-7.595 5.655-18.397 4.675-24.827-2.529-3.379-3.784-4.922-8.568-4.682-13.27v-.007c.226-4.435 2.043-8.794 5.401-12.146.007-.007.014-.014.021-.021.24-.226.48-.459.726-.679l2.653-2.365 2.673-2.379 1.501-1.343 11.927-10.618.02-.021 9.61-8.561c.069-.062.137-.123.213-.185.301-.26.61-.514.925-.747 3.167-2.42 6.909-3.66 10.665-3.756 5.257-.151 10.542 1.933 14.319 6.155C257.015 273.752 258.352 280.12 256.885 285.885z"/><path style="fill:#FEEFDD;" d="M281.506 313.618c-.034.123-.069.254-.11.384-.829 2.934-2.399 5.689-4.688 7.979-.007.007-.014.014-.021.021-.24.24-.487.473-.74.699l-18.322 16.334-.007.007c-.398.35-.802.685-1.22 1.001-.13.096-.26.192-.398.288-.624.446-1.268.843-1.933 1.206-7.361 3.969-16.752 2.536-22.565-3.969-3.393-3.797-4.928-8.602-4.675-13.318.144-2.721.891-5.408 2.221-7.855.096-.178.192-.356.301-.528.226-.397.473-.781.74-1.158.809-1.172 1.769-2.269 2.879-3.263l18.322-16.334c1.7-1.522 3.605-2.666 5.614-3.441.007-.007.014-.014.027-.014 1.343-.521 2.735-.884 4.147-1.069 5.895-.816 12.071 1.22 16.334 5.991C281.711 301.383 283.034 307.812 281.506 313.618z"/></g><path style="opacity:0.04;fill:#040000;" d="M177.132 306.577c3.442-.266 6.836-1.475 9.748-3.686.398-.295.782-.61 1.152-.946l9.473-8.438c-3.359 3.352-5.175 7.711-5.401 12.146v.007c-.24 4.702 1.302 9.486 4.682 13.27 6.43 7.205 17.232 8.184 24.827 2.529v-.007c.446-.329.878-.678 1.296-1.056l5.319-4.736.822.734c-1.33 2.447-2.077 5.134-2.221 7.855-.253 4.716 1.282 9.521 4.675 13.318 5.813 6.505 15.203 7.938 22.565 3.969l.336.376 1.7-1.514c.692.487 1.405.919 2.145 1.295l.569.508.144-.158c.809.377 1.638.686 2.481.932 6.642 1.967 14.127.103 19.055-5.408 4.291-4.805 5.614-11.234 4.092-17.033.534-.951.986-1.93 1.375-2.929l3.127 2.794c7.618 6.808 19.314 6.151 26.122-1.467 5.909-6.612 6.177-16.286 1.17-23.18l5.301 4.736c7.618 6.809 19.514 5.929 26.568-1.966 7.055-7.893 6.599-19.813-1.02-26.621l-7.247-6.477.083-.075 7.121 6.365c7.618 6.808 19.314 6.151 26.122-1.467 6.809-7.618 6.152-19.313-1.466-26.122l-4.863-4.346 15.884-31.225 7.842 8.776 25.554-22.838 7.308 8.177 88.418-79.018L440.288 43.42 177.132 306.577z"/></g></svg>