<svg width="800" height="800" viewBox="0 0 1024 1024" class="icon" xmlns="http://www.w3.org/2000/svg"><path d="M512 512m-480 0a480 480 0 10960 0 480 480 0 10-960 0z" fill="#DEFCF9"/><path d="M691.2 441.6 512 179.2c-6.4-6.4-19.2-6.4-25.6.0l-179.2 256C204.8 582.4 300.8 8e2 480 806.4h38.4c179.2-6.4 275.2-217.6 172.8-364.8z" fill="#18DFB7"/><path d="M608 524.8l-128 160c-6.4 6.4-12.8.0-12.8-6.4l12.8-83.2c0-6.4.0-6.4-6.4-6.4h-96c-6.4-6.4-6.4-12.8.0-12.8L512 409.6c6.4-6.4 12.8.0 12.8 6.4l-25.6 89.6c0 6.4 6.4 6.4 12.8 6.4h96c6.4.0 6.4 6.4.0 12.8z" fill="#FFF"/></svg>