<svg id="Uploaded to svgrepo.com" xmlns="http://www.w3.org/2000/svg" width="800" height="800" viewBox="0 0 32 32"><style>.duotone_twee{fill:#555D5E;}
.duotone_een{fill:#0B1719;}
.st0{fill:#FFF9F9;}
.st1{fill:#808080;}</style><g><path class="duotone_een" d="M19 28h-6v-7.5c0-.276.224-.5.5-.5h5c.276.0.5.224.5.5V28zm7.4-16.2C26.18 11.635 26 11.275 26 11V6.5C26 6.225 25.775 6 25.5 6h-2C23.225 6 23 6.225 23 6.5v2.25c0 .275-.18.365-.4.2L16.4 4.3c-.22-.165-.58-.165-.8.0L4.4 12.7C4.18 12.865 4.225 13 4.5 13h23c.275.0.32-.135.1-.3L26.4 11.8z"/><path class="duotone_twee" d="M27.5 14h-23c-.275.0-.5.225-.5.5v13C4 27.775 4.225 28 4.5 28H12v-7.5c0-.827.673-1.5 1.5-1.5h5c.827.0 1.5.673 1.5 1.5V28h7.5c.275.0.5-.225.5-.5v-13C28 14.225 27.775 14 27.5 14z"/></g></svg>