<svg height="800" width="800" id="_x35_" xmlns="http://www.w3.org/2000/svg" viewBox="0 0 512 512"><g><g><path style="fill:#EB5D55;" d="M453.231 8.091c18.883 13.849 19.886 44.46.072 66.038C349.342 187.569 204.122 254.732 50.35 260.485c-29.269 1.108-51.939-19.479-50.262-42.829 1.654-23.416 22.865-41.052 47.083-42.021 131.097-4.895 254.916-62.163 343.547-158.879 16.421-17.825 43.602-22.57 62.513-8.665z"/><path style="fill:#ECB25B;" d="M83.389 168.424c1.955 1.798 4.043 4.132 6.443 6.749 3.631 3.898 7.913 8.571 14.528 12.429 3.297 1.905 7.212 3.553 11.672 4.544 4.45.997 9.395 1.331 14.545.852 5.185-.468 9.985-1.698 14.161-3.492 3.658-1.576 6.816-3.558 9.455-5.691 4.644-3.753 7.746-7.858 10.246-11.583 1.871-2.812 3.408-5.446 4.85-7.74 2.156-3.492 4.082-6.148 6.054-7.941.991-.908 1.988-1.648 3.185-2.306 1.197-.657 2.623-1.253 4.521-1.77 2.217-.579 3.915-.752 5.441-.735 1.353.039 2.601.222 3.96.579 2.366.624 5.067 1.844 8.241 3.553 2.378 1.259 5 2.767 7.98 4.271 4.472 2.227 9.828 4.533 16.661 5.329 3.397.395 7.144.373 11.048-.267 3.909-.624 7.968-1.86 11.978-3.709 4.661-2.138 8.726-4.867 12.023-7.935 2.896-2.678 5.173-5.585 6.939-8.459 3.09-5.062 4.644-9.951 5.741-14.294.824-3.258 1.392-6.248 1.982-8.899.863-3.998 1.788-7.139 3.046-9.478.63-1.18 1.331-2.205 2.233-3.23.919-1.019 2.061-2.049 3.686-3.163 1.888-1.297 3.431-2.021 4.895-2.511 1.286-.418 2.523-.657 3.932-.774 2.433-.2 5.396.05 8.965.601 2.668.396 5.647.942 8.971 1.353 4.978.607 10.82.98 17.569-.574 3.352-.774 6.888-2.066 10.402-3.981 3.509-1.927 6.95-4.472 10.168-7.595 5.162-4.995 8.843-10.725 10.943-16.277 1.593-4.171 2.35-8.175 2.634-11.811.417-5.485-.105-10.213-.59-14.362-.507-4.137-.975-7.696-.975-10.636-.045-6.482-5.346-10.792-11.505-10.018-6.164.785-10.987 6.159-11.109 12.39-.072 4.555.334 8.648.651 12.335.518 5.519.746 10.124.073 13.588-.323 1.748-.813 3.219-1.57 4.667-.774 1.448-1.809 2.934-3.58 4.655-1.71 1.665-3.18 2.65-4.599 3.363-1.236.618-2.473 1.03-3.87 1.331-2.428.513-5.424.562-8.982.262-2.673-.228-5.619-.635-8.865-1.013-4.839-.551-10.386-1.069-16.6-.256-3.102.412-6.331 1.175-9.573 2.411-3.235 1.231-6.448 2.924-9.567 5.062-3.631 2.484-6.727 5.29-9.255 8.342-2.205 2.656-3.959 5.451-5.346 8.225-2.428 4.861-3.753 9.561-4.85 13.765-.808 3.163-1.476 6.081-2.217 8.654-1.097 3.892-2.35 6.928-3.904 9.127-.774 1.114-1.621 2.038-2.684 2.94-1.075.897-2.389 1.76-4.227 2.607-2.133.98-3.826 1.414-5.385 1.609-1.353.161-2.64.139-4.043-.056-2.445-.339-5.257-1.292-8.503-2.773-2.422-1.103-5.051-2.478-7.963-3.92-4.355-2.138-9.383-4.488-15.486-5.786-3.052-.651-6.348-1.008-9.796-.919-3.453.084-7.039.607-10.698 1.598-4.249 1.125-8.113 2.762-11.516 4.794-2.974 1.765-5.575 3.842-7.813 5.992-3.932 3.781-6.771 7.774-9.222 11.388-1.838 2.717-3.458 5.24-5.029 7.428-2.361 3.313-4.577 5.763-6.799 7.323-1.119.785-2.239 1.392-3.564 1.882-1.32.485-2.879.863-4.917 1.058-3.152.267-5.224-.061-7.167-.679-1.454-.468-2.868-1.17-4.382-2.178-2.267-1.481-4.689-3.681-7.345-6.371-2.673-2.678-5.569-5.825-9.144-8.982-4.683-4.104-11.923-4.16-16.7-.128C79.118 157.209 78.667 164.025 83.389 168.424z"/><path style="fill:#A0CD66;" d="M52.02 194.814c-11.282-.373-17.853 8.47-6.393 17.062 11.605 8.425 15.793 11.878 15.748 11.906 68.751.323 135.814-14.64 196.769-42.829 60.949-28.188 115.784-69.602 160.071-122.187-.05.006.022-5.418 1.119-19.713.885-14.301-10.107-15.019-17.135-6.187-12.914 15.564-4.371 23.154-18.649 38.268-14.662 14.662-22.486 6.326-37.449 19.49-15.303 12.713-8.292 21.74-24.869 33.807-16.884 11.594-23.066 1.971-40.039 12.112-17.224 9.64-11.973 19.786-30.383 28.618-18.644 8.308-22.981-2.272-41.486 4.611-18.7 6.365-15.381 17.302-35.15 22.653-19.936 4.822-22.269-6.371-41.859-2.946-19.713 2.873-18.438 14.234-39.092 15.904C72.48 206.48 72.229 195.058 52.02 194.814z"/><path style="fill:#ECB25B;" d="M488.831 77.326c32.671 23.221 31.819 80.016-9.138 118.629-96.917 91.459-221.142 148.911-353.598 163.523-55.949 6.204-99.779-29.926-96.31-69.858 3.358-40.145 39.855-70.088 80.35-74.798 101.004-11.149 195.755-54.968 269.667-124.716 29.82-27.804 76.268-36.213 109.029-12.78z"/></g><g style="opacity:0.67;"><path style="opacity:0.14;fill:#673A1B;" d="M488.831 77.326c-8.799-6.293-18.594-10.23-28.779-12.162 12.462-20.415 9.561-45.045-6.822-57.073-18.911-13.905-46.092-9.161-62.514 8.665-9.361 10.219-19.189 19.88-29.302 29.208-.273-2.383-.49-4.611-.49-6.493-.045-6.482-5.346-10.792-11.505-10.018-6.164.785-10.987 6.159-11.109 12.39-.072 4.555.334 8.648.651 12.335.401 4.26.618 7.958.396 11.026-7.134 5.825-14.401 11.471-21.83 16.873-.379-.022-.701-.006-1.097-.034-2.673-.228-5.619-.635-8.865-1.013-4.839-.551-10.386-1.069-16.6-.256-3.102.412-6.331 1.175-9.573 2.411-3.235 1.231-6.448 2.924-9.567 5.062-3.631 2.484-6.727 5.29-9.255 8.342-2.205 2.656-3.959 5.451-5.346 8.225-2.428 4.861-3.753 9.561-4.85 13.765-.346 1.359-.663 2.645-.975 3.91-3.119 1.587-6.287 3.051-9.439 4.572l81.391 176.003c56.984-27.253 109.831-63.221 156.34-107.107C520.65 157.342 521.502 100.547 488.831 77.326z"/></g></g></svg>