<svg fill="#000" width="800" height="800" viewBox="144 144 512 512" xmlns="http://www.w3.org/2000/svg"><path d="m277.36 431.56h-31.738c-4.168.0-7.5586 3.3906-7.5586 7.5586v28.66c0 4.168 3.3906 7.5586 7.5586 7.5586h31.738c4.168.0 7.5586-3.3906 7.5586-7.5586v-28.66c0-4.168-3.3906-7.5586-7.5586-7.5586zm-2.5195 33.695h-26.699v-23.621h26.699zm69.25-33.695h-31.738c-4.168.0-7.5586 3.3906-7.5586 7.5586v28.66c0 4.168 3.3906 7.5586 7.5586 7.5586h31.738c4.168.0 7.5586-3.3906 7.5586-7.5586v-28.66c0-4.168-3.3906-7.5586-7.5586-7.5586zm-2.5195 33.695h-26.699v-23.621h26.699zm37.516 10.078h31.738c4.168.0 7.5586-3.3906 7.5586-7.5586v-28.66c0-4.168-3.3906-7.5586-7.5586-7.5586h-31.738c-4.168.0-7.5586 3.3906-7.5586 7.5586v28.66c.003906 4.168 3.3906 7.5586 7.5586 7.5586zm2.5195-33.699h26.699v23.621h-26.699zm-77.816 137.08V566.62c0-2.7852 2.2539-5.0391 5.0391-5.0391s5.0391 2.2539 5.0391 5.0391v12.094c0 2.7852-2.2539 5.0391-5.0391 5.0391s-5.0391-2.2539-5.0391-5.0391zm38.789.0V566.62c0-2.7852 2.2539-5.0391 5.0391-5.0391 2.7852.0 5.0391 2.2539 5.0391 5.0391v12.094c0 2.7852-2.2539 5.0391-5.0391 5.0391-2.7852.0-5.0391-2.2539-5.0391-5.0391zm-49.418-196.48v28.23c0 4.168 3.3906 7.5586 7.5586 7.5586h55.016c4.168.0 7.5586-3.3906 7.5586-7.5586v-28.23c0-4.168-3.3906-7.5586-7.5586-7.5586h-55.02c-4.168.0-7.5547 3.3906-7.5547 7.5586zm40.102 2.5195h19.949v23.191h-19.949zm-30.027.0h19.949v23.191h-19.949zm140.93-146.33c2.0625 15.211 15.406 26.719 31.672 26.719 9.2383.0 17.953-3.8438 23.984-10.438 2.832.77344 5.7578 1.168 8.7344 1.168 17.633.0 31.977-13.816 31.977-30.801.0-11.77-6.918-22.34-17.613-27.504.09375-.85938.13672-1.7188.13672-2.5781.0-13.93-11.75-25.266-26.188-25.266-6.1484.0-12.078 2.1094-16.762 5.8789-3.2188-1.3164-6.6719-2-10.176-2-14.195.0-25.785 10.945-26.18 24.547-7.1289 4.2383-11.57 11.766-11.57 20.016-.007813 8.418 4.6094 16.07 11.984 20.258zm6.6719-32.578c2.0859-.85938 3.3516-3 3.0898-5.2461-.0625-.56641-.11328-1.1445-.11328-1.7344.0-8.375 7.2266-15.191 16.113-15.191 2.9961.0 5.9375.80078 8.5117 2.3164 2.0508 1.2109 4.6562.81641 6.2617-.92969 3.0742-3.3438 7.5078-5.2617 12.164-5.2617 8.8867.0 16.113 6.8125 16.113 15.191.0 1.4023-.21484 2.8203-.64062 4.2148-.80859 2.6328.64844 5.4219 3.2734 6.2656 8.875 2.8633 14.844 10.742 14.844 19.602.0 11.426-9.8242 20.723-21.898 20.723-2.9609.0-5.8438-.55469-8.5625-1.6445-2.1562-.86719-4.6289-.14453-5.9844 1.75-4.0898 5.7383-10.883 9.1641-18.176 9.1641-11.887.0-21.492-8.8203-21.859-20.078-.0625-1.9844-1.2891-3.7461-3.1289-4.5-5.2188-2.1328-8.5938-6.9727-8.5938-12.324.0-5.3438 3.3711-10.18 8.5859-12.316zm187.06 163.96c-1.6484-4.8594-3.5391-9.5977-5.6289-14.082-1.4453-3.1016-4.1836-5.3398-7.5117-6.1445-1.043-.25-2.0898-.29297-3.1289-.25.84766-3.0469.41797-6.3945-1.4062-9.1094-2.6094-3.8867-5.4453-7.6172-8.4336-11.09-2.1836-2.5312-5.5859-3.8828-8.6836-3.8711-1.4727.027344-2.8789.39062-4.1953.95312-.054687-3.2695-1.5234-6.4961-4.2344-8.6758-3.3359-2.6758-6.8477-5.1484-10.43-7.3438-2.6914-1.6484-5.9688-2.0859-8.9922-1.1992-1.2773.375-2.4375 1.0117-3.4844 1.7891-.19141-4.4141-2.9883-8.5273-7.3711-10.117-3.8867-1.4102-7.9023-2.5781-11.945-3.4766-4.5312-1.0078-9.1133.96094-11.652 4.5859-.46875-1.2188-1.1055-2.3789-1.9805-3.3789-2.082-2.375-5.082-3.7656-8.2422-3.8164-4.2305-.050781-8.5078.13672-12.738.60156-3.457.38281-6.4258 2.3164-8.2305 5.0469-.80469-1.1797-1.7969-2.2383-3.0195-3.0508-2.7891-1.8516-6.2188-2.3594-9.4102-1.3906-4.3789 1.3242-8.7773 2.9453-13.066 4.8281-2.9922 1.3125-5.1523 3.9062-6.0742 6.9297-.84766-.59375-1.7539-1.1133-2.7617-1.457-3.2422-1.1211-6.7539-.69922-9.6523 1.1484-4.1875 2.6797-8.3281 5.6641-12.305 8.8672-3.9961 3.2188-5.2305 8.7461-3 13.438l37.199 78.383c-.22656.75-.38281 1.5234-.39453 2.3281v.003906l-.53125 43.773c-.042969 3.3633 2 6.3281 5.0195 7.7656l-22.316 76.695v-35.953c0-5.5547-4.5234-10.078-10.078-10.078h-17.492l-.003906-73.082 11.238 7.1758c.81641.52344 1.7617.79297 2.7109.79297.47266.0.94531-.0625 1.4062-.20312 1.3906-.40234 2.543-1.3906 3.1602-2.707.625-1.3438.94531-2.7227.94531-4.0977v-27.734c0-3.3164-1.668-6.3672-4.4609-8.1641.0.0-.003906-.003906-.011718-.003906l-123.27-78.727c-3.1602-2.0234-7.2539-2.0234-10.43.0l-75.375 48.141c-.53516-6.2773-3.957-11.906-9.25-15.227-1.8359-12.602-12.562-22.082-25.609-22.082-7.2734.0-14.133 3.0469-19 8.3008-2.0664-.52344-4.1914-.78906-6.3516-.78906-14.285.0-25.91 11.625-25.91 25.91.0 9.6367 5.3203 18.328 13.602 22.789-.039062.52734-.058593 1.0586-.058593 1.5859.0 11.395 8.9688 20.656 20.207 21.305v18.484c0 3.543 1.9297 6.8008 5.0352 8.5 3.1055 1.6914 6.8945 1.5742 9.8672-.33594l4.5547-2.9102v73.078h-17.484c-5.5586.0-10.078 4.5234-10.078 10.078v106.84c0 5.5547 4.5195 10.078 10.078 10.078h252.04c.14844.32422.24609.66406.41797.98047 1.7969 3.2617 4.7461 5.6328 8.3242 6.6719l9.0312 2.6289c1.293.37891 2.6016.55469 3.8867.55469 6.043.0 11.621-3.9609 13.387-10.043l43.07-148c.35938.042968.71875.15234 1.0781.15234 2.9375.0 5.75-1.4844 7.3398-4.043l23.039-37.234c.42188-.68359.70313-1.418.91406-2.168l73.457-46.188c4.3945-2.7656 6.3203-8.0938 4.6758-12.961zm-35.453-34.047c.26953-.34375.61328-.42188.85938-.42578.13281-.03125.57031.054687.84766.375 2.7266 3.168 5.3203 6.5742 7.7031 10.129.24219.35938.16406.90234-.1875 1.2695l-27.41 28.711-35.746 27.898zm-25.059-16.512c.17578-.36719.47656-.51953.69531-.58203.089844-.027344.20312-.046875.32422-.046875.17188.0.36719.039063.57422.16406 3.2227 1.9766 6.3828 4.2031 9.3906 6.6133.48047.38672.625 1.0156.33984 1.4961l-23.812 39.965-27.402 34.531zm-42.473 45.312 13.977-56.723v-.003906c.12891-.50781.58594-.83984 1.1016-.83984.089843.0.17578.011719.26953.03125 3.6211.80469 7.2188 1.8516 10.695 3.1133.58984.21484.91406.85156.72266 1.418l-18.645 55.367-11 22.652zm-17.062-58.289v-.003906c.015626-.55078.47266-1.0039 1.0859-1.0703 3.8164-.42188 7.6992-.60938 11.473-.54297.41406.003906.67969.21094.82812.38281.14844.16797.31641.45703.26953.85938l-10.418 90.707-4.5938-43.824zm-29.699 3.5703c3.9258-1.7188 7.9414-3.207 11.938-4.4141.40234-.10938.72266.011719.92188.14062.20312.13672.44922.38281.49609.8125l9.043 86.293-15.195-42.715-7.7266-38.949c-.09375-.48438.13672-1 .52344-1.168zm-28.738 15.371c-.21094-.44922-.11719-.99609.22656-1.2734 3.6914-2.9727 7.5273-5.7383 11.406-8.2227.36719-.23438.72266-.1875.94922-.10938.23047.082032.54297.26172.6875.67969l31.156 87.594-5.6797-1.6523c-.78125-.23047-1.5664-.31641-2.3477-.32812zm-262.93 60.473c-6.2578.0-11.352-5.0938-11.352-11.352.0-1.0664.15625-2.1406.46094-3.1914.76172-2.5938-.66016-5.3281-3.2266-6.1914-6.4492-2.1719-10.781-8.1953-10.781-14.992.0-8.7305 7.1016-15.836 15.832-15.836 2.1211.0 4.1875.41406 6.1367 1.2344 2.2109.92188 4.7656.16797 6.1172-1.8086 2.9609-4.3438 7.8555-6.9414 13.098-6.9414 8.5938.0 15.535 6.7383 15.805 15.34.0625 1.957 1.2539 3.7031 3.0547 4.4766 3.6641 1.5664 6.0312 5.1523 6.0312 9.1328.0 3.9766-2.3633 7.5586-6.0195 9.125-2.043.875-3.2695 2.9844-3.0234 5.1914.046874.43359.082031.875.082031 1.3203.0 6.2617-5.0938 11.352-11.352 11.352-2.0781.0-4.1328-.58594-5.9336-1.6914-2.0898-1.293-4.8047-.875-6.4219.96484-2.1523 2.4609-5.2578 3.8672-8.5078 3.8672zm8.8516 27.734-.16797-19.586c1.5977-.71484 3.1367-1.5547 4.5195-2.6445 2.4414.94531 5.0391 1.4336 7.6641 1.4336 11.457.0 20.848-9.043 21.398-20.367 1.4336-.94531 2.7148-2.0625 3.8438-3.3164l85.418-54.738 123.09 78.613v20.602l-120.17-76.75c-1.6523-1.0586-3.7695-1.0586-5.4219.0zm226.31-.47656v79.516h-206.85v-79.516l103.42-66.055zm-108.46 196.43h-48.715v-74.156h48.715zm58.785.0h-48.707v-74.156h48.707zm66.695.0h-56.617v-76.672c0-4.168-3.3906-7.5586-7.5586-7.5586h-112.54c-4.1641.0-7.5547 3.3906-7.5547 7.5586v76.672h-67.164v-106.84h261.98v70.578zm25.988 8.0547c-.59375 2.0352-2.7305 3.2188-4.7891 2.6289l-9.0312-2.6289c-.98828-.28906-1.8125-.94531-2.3086-1.8516-.49219-.90625-.60938-1.9453-.32031-2.9375l43.012-147.82 16.453 4.7891zm53.191-155.35-31.164-9.0664.49219-40.574 52.023 15.141zm100.02-87.844-71.871 45.188c-.66797-.41016-1.375-.76172-2.1562-.98828l-5.6758-1.6523 73.289-57.199c.34375-.27344.71484-.26562.94922-.20312.23437.054687.55469.21094.74219.60156 1.9336 4.1523 3.6836 8.5469 5.2148 13.059.13672.41797-.070313.92969-.49219 1.1953zm-10.051 184.5c-1.9219-14.516-14.195-25.484-29.156-25.484-8.4375.0-16.395 3.6055-21.938 9.8047-2.5039-.67969-5.082-1.0234-7.7148-1.0234-16.234.0-29.441 13.211-29.441 29.445.0 11.141 6.2578 21.164 15.949 26.16-.078125.78125-.11719 1.5664-.11719 2.3477.0 13.348 10.859 24.207 24.207 24.207 5.6055.0 11-1.957 15.297-5.4727 2.8945 1.1797 5.9844 1.7969 9.1133 1.7969 13.086.0 23.785-10.445 24.191-23.438 6.4648-4.0898 10.488-11.23 10.488-19.051-.003906-7.9766-4.1836-15.25-10.879-19.293zm-6.7617 30.75c-2.0469.875-3.2734 2.9961-3.0156 5.2109.058594.53125.097656 1.0664.097656 1.6133.0 7.793-6.3359 14.129-14.125 14.129-2.5898.0-5.1445-.72656-7.3906-2.1055-2.0859-1.3008-4.8008-.87891-6.4219.96484-2.6914 3.0586-6.5547 4.8164-10.598 4.8164-7.793.0-14.129-6.3359-14.129-14.129.0-1.3281.19531-2.6602.57422-3.9648.76172-2.5977-.66016-5.3281-3.2227-6.1953-7.8867-2.6602-13.188-10.035-13.188-18.348.0-10.68 8.6875-19.371 19.363-19.371 2.6016.0 5.1328.50781 7.5117 1.5117 2.2148.92578 4.7656.16797 6.1211-1.8125 3.6094-5.3125 9.5977-8.4805 16.02-8.4805 10.516.0 19.008 8.2422 19.332 18.762.0625 1.957 1.2539 3.7031 3.0547 4.4766 4.6016 1.9648 7.5703 6.4648 7.5703 11.465.007812 4.9883-2.9609 9.4844-7.5547 11.457z"/></svg>