<svg fill="#000" width="800" height="800" viewBox="144 144 512 512" xmlns="http://www.w3.org/2000/svg"><g><path d="m400.05 160.62c-36.242.0-71 14.398-96.629 40.027-25.625 25.629-40.023 60.387-40.023 96.629v85.406l68.918-.003906c-9.5117-16.004-19.516-40.273-25.887-76.566.0.0 60.176-46.836 65.246-74.008.0.0 34.539 52.508 121.73 55.137.0.0 4.5 54.898-22.945 95.438h66.25v-85.402c0-36.242-14.398-71-40.027-96.629-25.625-25.629-60.383-40.027-96.629-40.027z"/><path d="m310.41 510.91H489.6c14.457-20.625 26.762-42.684 36.719-65.816l-3.7578-1.7734v-.003906c-5.0703-2.3516-10.895-2.4375-16.035-.24219l-75.223 32.113c-20.023 8.5039-42.645 8.5039-62.664.0l-75.227-32.113c-5.1211-2.1953-10.934-2.1094-15.984.24219l-3.6523 1.7227v.003907c9.918 23.156 22.195 45.227 36.637 65.867z"/><path d="m262 566.1c-2.7969-13.418.57422-27.379 9.1914-38.039-13.785-20.555-25.695-42.309-35.59-64.996l-4.8633 2.2969h.003907c-15.148 7.1172-25.617 21.477-27.766 38.074l-9.3828 98.477c-.91406 9.5938 2.2617 19.129 8.7461 26.262 6.4844 7.1328 15.676 11.199 25.316 11.199h49.449z"/><path d="m606.4 601.89-9.4531-98.449c-2.125-16.594-12.578-30.953-27.715-38.074l-4.8398-2.2852v-.003906c-9.8867 22.688-21.797 44.441-35.582 64.992 8.6094 10.66 11.984 24.621 9.1836 38.035l-15.102 73.273h49.445c9.6445.0 18.84-4.0703 25.324-11.207 6.4883-7.1367 9.6602-16.68 8.7383-26.281z"/><path d="m307.3 551.03h38.91v17.164H307.3z"/><path d="m380.54 551.03h38.91v17.164h-38.91z"/><path d="m453.79 551.03h38.91v17.164h-38.91z"/><path d="m307.3 605.22h38.91v17.164H307.3z"/><path d="m380.54 605.22h38.91v17.164h-38.91z"/><path d="m453.79 605.22h38.91v17.164h-38.91z"/></g></svg>