<svg fill="#000" width="800" height="800" viewBox="144 144 512 512" xmlns="http://www.w3.org/2000/svg"><g><path d="m531.78 309.18c3.7812 16.418 2.2305 33.156 2.0977 49.848.023438 1.0742-.5 2.0898-1.3906 2.6914-.16016.20312-.34375.38672-.54688.54688.019531.054687.027344.11719.023438.17969.27344 16.578-5.1914 33.293-11.547 48.438-7.2188 17.172-6.1719 35.23-9.1094 53.242.30859.47266.49609 1.0117.54687 1.5742 1.5273 14.414 5.0117 27.004 2.4609 41.629-2.5508 14.621-6.832 29.125-5.5117 44.133.18359 1.1992-.43359 2.375-1.5234 2.9102 1.6367 16.625 1.5469 32.668-12.594 42.562v.003906c1.2383.625 2.582 1.0117 3.9648 1.1367 11.566 1.3242 17.855 16.258 5.2578 21.113-.29297.47266-.63672.91797-1.0234 1.3164-.72656.65234-1.5312 1.2109-2.3906 1.668-.77344.41406-1.5703.78125-2.3906 1.0898-.79687.3125-1.6094.57422-2.4375.78516-.86719.20312-1.6836.45703-2.5508.61328-.54688.046875-1.0938.11328-1.6172.16016v.003907c.27734.27344.54297.5625.78516.86328.54688.66406.89453 1.4688 1 2.3242.046875.65234-.078125 1.3008-.36328 1.8906-.25.48828-.60547.91797-1.0469 1.25-.56641.43359-1.207.76172-1.8867.98047-1.9609.51953-3.9883.74219-6.0156.66016-1.9414-.035157-3.875-.24219-5.7812-.61719-1.8711-.39453-3.7344-.84375-5.6289-1.25.035156.60156-.074219 1.2031-.32031 1.7539l-.089843.17969-.042969.089844c0-.042969-.27734.39453-.27734.39453l-.023437.023438h.003906c-.21484.20703-.44141.39844-.68359.57031-.37109.25781-.77734.45703-1.207.59375-.34375.089844-.72656.17969-1.0703.25-1.2617.16797-2.5352.21484-3.8008.13672-2.5664-.15625-5.1211-.45312-7.6523-.88672-2.6172-.39453-5.3516-.82031-8.1992-1.25-1.8242-.36719-3.6641-.72656-5.5586-1.1172l-1.9688 1.0039v-.003907c-3.8789 1.7227-8.1445 2.3906-12.367 1.9375-4.2148-.26172-8.3711-1.1289-12.344-2.5742-.042969.066406-.089843.13281-.11328.17969-.20312.28125-.42969.54688-.67969.78906-.35547.32031-.73047.625-1.1172.90625-.86328.65234-1.8359 1.1445-2.8711 1.457-1.9609.62109-4.0195.88672-6.0781.78906-1.043-.019532-2.0859-.097657-3.1211-.23047l-1.6602-.27344-1.4375-.34375v.003907c-2.168-.53125-4.2305-1.4258-6.1016-2.6406-1.0938-.72656-2-1.6992-2.6445-2.8477-.62109-1.2461-.82031-2.6602-.56641-4.0312.11328-.52734.25781-1.043.43359-1.5469-.48047.25-.98047.52344-1.5273.75-2.5508 1-5.2109 1.6953-7.9258 2.0703-.51562.078125-1.0234.18359-1.5234.32031-.41016.10547-.8125.23828-1.207.39453-.88672.32031-1.7734.72656-2.707 1.1797h-.003906c-1.8242.87109-3.7539 1.5117-5.7383 1.9141l-1.8242.29687-.52344-1.5039.003907-.003906c-.53516.29688-1.1133.51172-1.7109.63672-.78906.16016-1.6094.089843-2.3594-.20312-.60938-.25391-1.1641-.61719-1.6406-1.0703-.58984-.62109-1.0977-1.3164-1.5039-2.0703-.78906.58984-1.5938 1.2031-2.4375 1.75-.56641.34375-1.1133.66016-1.6836 1.0039-.32031.15625-.43359.27344-.95703.5-.32031.15234-.64453.28516-.98047.39453-1.3242.46484-2.7148.71094-4.1211.72656-1.7109.042969-3.3594-.62891-4.5547-1.8555-.24219-.30078-.44922-.62891-.61328-.98047-1.207.41016-2.4609.64844-3.7344.70703-1.5117.070313-3.0273.03125-4.5312-.11328l-2.3203-.16016.20312-1.3672c-2.293.66797-4.6523 1.0898-7.0391 1.2539-1.8672.13672-3.7773.16016-5.5352.11328h.003906c-2.0312-.039063-4.0547-.28125-6.0352-.73047-.70703-.17969-1.3984-.40625-2.0742-.68359-.42969-.17578-.84375-.39844-1.2266-.65625-.625-.41016-1.1211-.98828-1.4336-1.6641-.28516-.64453-.34766-1.3633-.1875-2.0469-.066406.0-.13281.019531-.20312.019531-1.6836.10156-3.3711.10156-5.0547.0l-.63672-.019531h-.51562l-1.0898.019531c-.82422.046875-1.6641.070313-2.5273.089844-1.8555.082031-3.7148.0-5.5586-.25-1.1172-.14062-2.2109-.45703-3.2344-.93359-.66797-.3125-1.2734-.73438-1.8008-1.2539-.28125-.33984-.54297-.69922-.78516-1.0703-.1875-.43359-.33984-.88281-.45703-1.3438-.074219-.41016-.10547-.83203-.089844-1.25l.023438-.32031v-.22656l.089844-.36719.042968-.17969c-.44922.14453-.90234.26953-1.3633.36719-2.5039.58203-5.0938.67188-7.6289.26953-1.8359-.25391-3.5664-1-5.0117-2.1602-1.3242-1.4141-.63672-2.8516-.5-4.6016-.57031.023437-1.0938.15625-1.6641.22656-1.1719.16016-2.3594-.015625-3.4375-.50391l-.11328-.042969c-.046875-.023437-.34375-.22656-.34375-.22656-.0625-.042968-.12109-.089843-.17969-.13672l-.27734-.20312-.56641-.43359v-.003906c-.55859-.57812-1.0273-1.2422-1.3867-1.9648-.53125-1.375-.60938-2.8828-.23047-4.3086.23828-1.0742.67969-2.0977 1.3008-3.0078-1.4609-.35547-2.543-1.582-2.7109-3.0703-1.8242-13.547 8.8125-14.258 19.473-13.277 8.3359.78906 13.848-7.6055 22.066-8.4922l-.003907-.003906c9.0664-.78906 18.195-.39453 27.16 1.1836 12.664 2.0039 25.074 5.625 37.914 6.2617 3.543.17969 7.0859.27344 10.66.29688v-.003906c.15234-6.4648.66406-12.922 1.5195-19.332.097656-.39062.26172-.76172.48047-1.0938.33984-1.1445 1.2891-1.9961 2.4609-2.207 1.5039-8.5859 2.0273-23.34 2.9141-33.68 2.0273-23.977 4.0312-47.973 6.0156-71.984 2.8008-33.77 7.0859-67.816 8.3789-101.68v-.003907c-.26953-.019531-.53516-.074219-.78906-.16016-2.9453-.86719-5.5078-2.7148-7.2617-5.2344-1.25-2.2344-1.3438-4.9297-.25-7.2422-3.8945-7.7227 2.0742-15.008 9.5898-17.172l-.003906-.003907c1.043-6.6055 1.7344-13.266 2.0703-19.945-.035156-.70312.16797-1.3945.57031-1.9688-3.1719-5.1055-3.8945-11.363-1.9688-17.055-2.7266-1.6797-4.7461-4.2969-5.6914-7.3555-.64844-5.4883-.23047-11.047 1.2305-16.375-3.8008-7.8594-5.8164-16.461-5.9062-25.191-.023437-.066406-.066406-.13672-.089843-.20312-6.0586-17.012-8.9023-51.012 14.371-57.387-2.2109-19.086 32.789-16.191 27.305 1.4141 2.3594.98828 4.6016 2.2305 6.6914 3.7109 10.016 7.1484 11.16 18.762 11.977 29.969 4.5859 1.1016 8.6289 3.7969 11.414 7.6016 4.3047 4.9453 9.9961 8.2656 14.484 13.188 10.234 11.273 22.773 19.105 30.676 32.723 4.7578 8.2461 7.4766 17.285 11.414 25.918l.003906.003906c3.0117 5.6406 5.4453 11.574 7.2617 17.707zm-4.7227 47.707c.34375-14.938 2.5742-31.539-1.8711-45.887-2.2305-7.1758-5.668-13.734-8.4688-20.68-2.3594-7.4336-5.5352-14.582-9.4766-21.312-4.5234-7.207-9.9844-13.785-16.234-19.562-4.8438-3.4766-9.3281-7.4336-13.383-11.809-3.3789-3.3711-6.9961-6.5-10.82-9.3594-3.8242-3.6211-6.0117-7.6992-11.086-9.3594-.023438.70312-.070313 1.3906-.13672 2.1406h-.003906c-.32422 3.3008-1.1211 6.5352-2.3594 9.6094.29297 2.5703.71875 5.125 1.2734 7.6523.85938 3.7227 1.418 7.5078 1.6641 11.32.14844 3.2305-.33203 6.4648-1.4102 9.5156-.72266 2.043-1.7773 3.9492-3.1211 5.6484-.97656 1.1172-1.6133 1.6641-1.8438 1.5039-.22656-.16016.0-.93359.56641-2.2969v-.003907c.75-1.8203 1.3516-3.7031 1.8008-5.625.60547-2.8008.76562-5.6836.47656-8.5391-.36328-3.125-.89453-6.2266-1.5938-9.293-.33594-.078125-.64453-.25391-.88672-.5-.023437 1.1172-.066406 2.2539-.20312 3.543h-.003906c-.49219 4.7305-1.9336 9.3164-4.2344 13.48-2.6055 4.6836-6.4062 8.5898-11.02 11.32l-.070313.066407-.39453.43359-.13672.11328c-.042969.027344-.078125.058594-.11328.089844l-.13672.089844-.29688.20312.003906.003906c-1.5586 1.0703-3.2617 1.9062-5.0586 2.4844-.84375.32031-1.707.63672-2.5742.98047-.39453.15625-.78906.33984-1.2031.52344-.32031.17969-.66016.36328-.98047.54688-.32031.18359-.78906.58984-1.1797.88672l-.003906-.003906c-.23047.21484-.43359.45312-.61328.71094-.375.52344-.56641 1.1523-.54688 1.7969-.003906.19922.027344.40234.089844.58984.039062.17578.097656.34375.18359.5-.10938.070313.78906 1.1797.82422 1.1406h-.003906c.625.5625 1.4336.87891 2.2773.88672 2.2734-.085938 4.5391-.3125 6.7852-.67969l2.8008-.25-1.0469 2.5039v-.003907c-1.4883 3.2578-2.3008 6.7852-2.3945 10.363.007813.95703.17969 1.9062.50391 2.8047.27344.65625.47656 1.0703.32031 1.1797s-.52344.0-1.1406-.54688c-.83203-.875-1.3984-1.9688-1.6367-3.1484-.57031-3.0234-.41406-6.1367.45703-9.0859-1.5859.35938-3.207.55078-4.832.56641-1.75-.015625-3.4336-.67969-4.7227-1.8633l-.27734-.22656-.066406-.066406-.11328-.16016-.089843-.089844-.29688-.39453v-.003906c-.12109-.13281-.23047-.27734-.31641-.43359l-.39453-.66016c-.25-.43359-.42578-.90234-.52344-1.3906-.14844-.45703-.21484-.93359-.20312-1.4141-.058594-1.4609.375-2.9023 1.2266-4.0977.18359-.28125.39844-.54688.63672-.78516l.34375-.36328.089844-.089844c.054687-.0625.11719-.11719.18359-.16016.042969-.042968.20313-.15625.20313-.15625l1.0469-.78906h.003907c-.039063.0-.078125-.007813-.11328-.023438-.75-.22656-1.5039-.45703-2.2305-.70312l-.003907-.003906c-1.3398-.56641-2.6211-1.2695-3.8242-2.0938-.57031-.41406-1.1172-.78906-1.6602-1.1797-.54297-.39453-.98047-.86719-1.4609-1.3008l-.72656-.63672-.15625-.16016-.09375-.066406-.20313-.20312-.29687-.34375c-.36328-.43359-.75-.86719-1.1133-1.3008-.25-.29688-.48047-.58984-.70703-.86328l-.007813.003906c-1.1719 3.6562-1.6211 7.5078-1.3164 11.34.66016 2.9375 3.0508 4.3477 5.4453 5.9453l-.003907-.003906c1.457.94922 1.9727 2.8398 1.207 4.3984-.09375.28906-.21484.57422-.36328.83984-6.0156 10.18 8.6602 24.23 18.082 25.547 2.8711.39453 3.0039 3.418 1.5469 5.2383v11.277c2.3516.17969 4.7109.17969 7.0625.0-.36328-.64062-.62891-1.332-.78906-2.0508-.19922-.73047-.30469-1.4766-.31641-2.2344-.039062-1.1875.0-2.375.10938-3.5586.046875-1.0469.11328-2.0938.15625-3.1211.0625-4.1406.74609-8.2461 2.0273-12.184.16016-.48047.36719-.93359.54688-1.3906-.089844-.39453-.17969-.75-.27344-1.1367-.43359-1.4609-1.0469-2.9648-1.6836-4.7227-.32031-.84375.0-1.7734-.25-2.7305-.83203-2.7617-.57422-5.7383.72656-8.3125 1.4648-2.4648 3.2812-4.6992 5.3984-6.6289 1.7305-1.6133 3.1484-2.7539 4.1914-3.5742 1.043-.82031 1.6836-1.207 1.8906-1.0234.20312.18359-.089844.88672-.78906 2.0039-.69531 1.1172-1.8945 2.6406-3.3008 4.4414v-.003907c-2.0195 2.332-3.6484 4.9688-4.832 7.8125-.62109 1.457-.83203 3.0547-.61328 4.6211.15625.78906.72656 1.3672.93359 2.0938.125 1.1289.38672 2.2383.78516 3.3047-.27734-.52344 2.6641-4.4648 3.1484-4.9883 1.4023-1.5391 3.0117-2.8711 4.7852-3.9609 3.7344-2.1875 5.9922-2.3633 6.1484-2.0508.25.45703-1.8438 1.5742-4.6211 4.0742-3.8945 3.6055-6.5938 8.3086-7.7422 13.484-.070313.27344-.11328.56641-.18359.84375h-.003906c-.050782 1.3672-.21094 2.7305-.47656 4.0742-.11328.54688-.20312 1.0469-.29688 1.5508-.089844 1.4336-.13672 2.8945-.089844 4.418v3.2773h.003906c-.046874 1.0117-.03125 2.0234.042969 3.0312.007813.37109.078125.74219.20312 1.0938.070313.29688.20312.57812.39453.81641.44141.67188 1.0234 1.2383 1.7031 1.6641 3.6055 2.6914 7.7305 4.6016 12.117 5.6055 2.3594.48828 4.7617.75 7.1758.78516 1.2266.089844 2.5508.023437 3.8242.023437.75.023438.68359.023438 1.3008.066407.54688.046874.91016.089843 1.3008.16016l2.0703.36328h-.003906c1.0039.20703 2.0234.32422 3.0508.34375.27734-.007813.55469-.046875.82031-.11328.0-.042969.066407-.023438.066407-.042969l.22656-.20703.003907-.003906c-.023438.027343-.054688.042968-.089844.046874.03125-.070312.054687-.14844.066406-.22656.074219-.33594.11328-.67969.11328-1.0234-.019531-1.0977-.097656-2.1914-.22656-3.2773-.042969-.66016-.089844-1.3477-.066407-2.1875l.042969-.66016.023438-.17969.046875-.32031.042968-.20312.18359-.86719v-.003906c.25391-1.3125.62109-2.5977 1.0898-3.8477.91406-2.3633 1.9688-4.4414 2.8711-6.3945v-.003906c.85938-1.7617 1.5391-3.6094 2.0273-5.5117.19531-.94531.32812-1.9023.39453-2.8672l-.070313-1.2031v-1.3008h-.003906c-.085938-3.4102-.82812-6.7734-2.1836-9.9062l-1.1367-2.9844 3.0273-.43359c2.9922-.40625 5.5703-2.3008 6.8555-5.0312 1.1094-2.3477 1.875-4.8398 2.2773-7.4023.75-4.3711 1.0703-6.9922 1.5938-6.9922.45703.0 1.0703 2.5039 1.1172 7.2422v.003906c.054688 2.9766-.43359 5.9375-1.4375 8.7422-.69531 1.9102-1.8281 3.6328-3.3008 5.0312-.97656.90625-2.0898 1.6445-3.3047 2.1914.56641 1.3164 1.0469 2.668 1.4375 4.0469.0-.10938-.023437-.17969-.023437-.32031v.003906c-.003906-.22656.003906-.45703.023437-.68359.019532-.13281.046876-.26562.089844-.39062l.089844-.36719.089844-.29688c.023437-.046874.089844-.16016.089844-.16016l.11328-.20312h.003906c.29297-.53906.64453-1.0391 1.0469-1.5.73047-.73828 1.5391-1.3867 2.418-1.9375 1.5469-.98047 2.9141-1.6641 3.9375-2.418h-.003907c.86719-.58594 1.5977-1.3516 2.1367-2.25.82422-1.4609.84766-2.7539 1.1797-2.6875.17969.023438.78906 1.0234.22266 3.2539h.003906c-.41016 1.2773-1.1484 2.4219-2.1367 3.3281-1.8242 1.7969-5.3984 3.0312-6.4727 5.3711-.93359 1.9688.0 4.3516-.27344 6.4453h.003906c-.51953 2.4336-1.2852 4.8086-2.2773 7.0859-.75 2.2305-1.0234 4.3984-1.9688 6.582-.17969.45703-.39453.91406-.57031 1.3477 3.7227-3.4297 7.2188-7.0977 10.469-10.977 3.5781-4.3047 5.7617-6.9453 6.1953-6.6914.36719.22656-1.1133 3.3438-4.2109 8.1523-4.1562 6.2656-9.2578 11.852-15.125 16.555-.023438.18359-.066406.34375-.089844.54687l-.16016.86719-.023438.25.11328.042969c0 .046875.15625-.32031.15625-.15625-.03125.10547-.074219.20312-.13281.29688-.03125.45312-.03125.91016.0 1.3633.089844 1.1172.27734 2.3633.27734 3.9375.078125 2.0781-.625 4.1094-1.9688 5.6953l-.41016.41016-.27344.24609-.11328.070312-.36719.27344h.003906c-.47656.33984-.99609.61719-1.5469.82031-.75.26172-1.5312.41797-2.3242.45312-1.1328 1.0625-2.5508 1.7734-4.0781 2.0508-.22656.042969-.48047.089844-.70703.11328v.003906c.10938 4.5508-1.4883 8.9766-4.4844 12.41.86719.0 1.75.0 2.5938-.042969 1.6445.09375 3.2578-.46484 4.4883-1.5508.50391-.78516.73438-1.7148.66016-2.6445v-1.8906l1.8672-.070313v.003907c3.4492-.16797 6.8281-1.0352 9.9297-2.5508 2.5977-1.3125 5.0977-2.8086 7.4805-4.4844 4.1445-2.8516 6.8086-4.5352 7.1289-4.1445s-1.7539 2.707-5.5586 6.168c-2.3008 2.0742-4.8047 3.9062-7.4805 5.4688-2.9961 1.6523-6.2812 2.7227-9.6797 3.1484-.13281 1.207-.58594 2.3555-1.3164 3.3242-.95312 1.168-2.2422 2.0117-3.6914 2.4141-1.1875.33984-2.4102.52344-3.6406.54687-1.0859.042969-2.1758.027344-3.2617-.042968l-1.4336-.070313h-1.4609c-3.8945-.023437-7.375-.11328-10.316-.20312-.5.0-.95703-.023437-1.4336-.042968 9.1562 3.9375 20.676 3.1484 30.266 2.8711 14.492-.41406 28.363.76953 42.371-3.3516zm-5.2148 29.195h-.003906c1.9844-7.0312 3.0859-14.285 3.2812-21.586-15.965 3.8945-33.062 2.9375-49.395 2.7305-12.57-.16016-26.348-1.207-35.004-11.477-.51953-.61328-.81641-1.3867-.83984-2.1875-.074218-.023438-.15234-.039062-.23047-.042969-.39453 14.051-5.168 26.848-8.7891 40.375-2.6836 8.1055-3.1875 16.777-1.457 25.137.30078 1.3008.61719 2.5977.9375 3.9375 1.5234-3.0273 2.9609-5.6445 3.9609-7.7188 1.3242-2.707 2.0273-4.4883 2.5742-4.418.54688.070313.72656 2.1367-.023438 5.3242l-.003906.003906c-1.1211 3.9609-2.6367 7.8008-4.5312 11.457-.32031.65625-.61328 1.2734-.91016 1.9141.089844 1.1289.074219 2.2656-.046875 3.3906-.86719 8.4922 2.0703 15.121 3.8242 23.25 1.6602 7.7422 3.0508 15.555 4.9648 23.25 3.543 14.371 7.4766 28.734 11.23 43.039v.003906c.13672.55859.13672 1.1445.0 1.707 2.1406 3.4883 10.34 2.418 15.211 2.2305-.39453-23.82 1.1172-48.273-6.1719-71.188l.003906.003906c-.12109.46094-.26562.91797-.43359 1.3633-.58984 1.7969-1.3438 3.3711-1.7969 4.5547-.24609.61719-.52344 1.1406-.72656 1.6641-.20312.52344-.36328 1.0234-.52344 1.3906-.34375.75-.63672 1.1797-.91016 1.1133-.27344-.066407-.45703-.5-.57031-1.3203h-.003907c-.074219-.48047-.12109-.96875-.13672-1.457.027344-.67188.10547-1.3438.22656-2.0039.18359-1.5938.66016-3.1484 1.0469-4.9414.30078-1.1406.57031-2.4375.86719-3.7812-1.3164 1.332-2.8789 2.4023-4.5977 3.1484-3.5078 1.4102-5.4922.70312-5.5586.29688-.16016-.57031 2.0703-1.0469 4.2578-2.6875v-.003906c1.3789-.99609 2.6094-2.1758 3.668-3.5039 1.3359-1.6914 2.5312-3.4883 3.5742-5.375.089843-.18359.15625-.34375.24609-.52344 1.168-12.914 7.8594-23.82 11.125-36.664-.035156-.88281.26562-1.7461.84375-2.4141-1.3906-1.4805-2.7539-2.7773-3.7578-3.6445-1.3203-1.1602-2.3633-1.9688-2.0938-2.4805.20312-.43359 1.3438-.57031 3.0742-.023438-.86719-1.8477-1.6367-3.543-2.2539-4.9883-1.1797-2.7539-1.6602-4.6016-1.2031-4.8711.45703-.27344 1.7969 1.1133 3.5742 3.543 13.48 18.469 10.234 44.082 9.8398 65.426.52344 3.2344 1.207 6.875 2.1172 10.684 3.2812 13.188 7.7227 23.477 6.6523 23.977-.66016.36719-5.0117-6.2969-8.4258-16.418 1.4141 24.008 6.7422 48.07 10.02 71.867v.20312h-.003906c4.1719 1.832 8.793 2.3828 13.277 1.5742-.63672-13.504 2.8945-26.371 5.1914-39.629 2.2969-13.023.39453-24.402-1.2266-36.82h-.003906c-1 2.0625-2.2461 3.9961-3.7109 5.7617-1.9141 2.4375-3.2578 3.8672-3.7344 3.5977-.47656-.27344.066407-2.1641 1.3906-4.9883 1.8516-3.3711 3.3047-6.9492 4.3281-10.656.066407-.32031.15625-.63672.25-.95703h.003907c-.019531-.27344-.003907-.55078.042969-.82031 1.8711-10.316 2.3203-20.793 3.6445-31.176.60547-5.2383 1.5781-10.43 2.9102-15.531.58203-2.457 1.3359-4.8672 2.2578-7.2188 1.2227-1.8281 1.7578-4.0352 1.5039-6.2188-.47656-1.8672-2.1641-2.9375-3.0742-4.5977-1.2695-1.8945-2.418-3.8672-3.4414-5.9023-1.668-3.4453-3.0195-7.0352-4.0312-10.727-1.2734-3.293-1.8164-6.8203-1.5938-10.34 1.8555 2.9297 3.2617 6.125 4.168 9.4727 1.3438 3.4062 2.8867 6.7305 4.6172 9.9531 1.0234 1.8672 2.1562 3.668 3.3945 5.3984.51562.80078 1.1094 1.5469 1.7734 2.2305.5-.93359 1.0469-1.7969 1.5508-2.5977.24609-.36328.47656-.72656.70312-1.0898.45703-1.3242.89062-2.6445 1.3242-3.9883-.046875-.89453-.20703-1.7852-.48047-2.6406-.11328-.39453-.22656-.78906-.34375-1.1797-.11328-.39453-.34375-.86719-.5-1.2734-.63672-1.6602-1.4375-3.2109-2.0938-4.6445v-.003906c-1.1641-2.2773-2.1406-4.6445-2.9141-7.082-.39453-1.8242-.43359-2.8516-.17969-2.8945.25-.042969.78906.78906 1.5742 2.3203.91016 1.5273 2.1836 3.668 3.918 6.375.82031 1.3906 1.7734 2.8711 2.6211 4.668l-.003906.003906c.054687.12109.11328.23828.17578.35547zm-19.383 225.18c.066407-.089844.089844-.13672.023438-.34375-.066407-.20312-.17969-.58984-.32031-.95703l-.43359-1h.003907c-1.6133-1.2617-3.3359-2.375-5.1484-3.3242-.97656-.22656-2.0469-.39453-3.1875-.58984h-.003906c-2.2422-.28125-4.4375-.85547-6.5312-1.7109-1.207-.55078-2.3008-1.3125-3.2383-2.2539-.83594-.84375-1.625-1.7344-2.3594-2.6641-1.0938-1.625-2.625-2.9023-4.418-3.6875-2.0703-.78125-4.2383-1.2852-6.4414-1.5039-1.1797-.16016-2.4609-.36719-3.7578-.57031-1.3008-.20312-2.5273-.39453-3.8008-.63672-19.723-3.3438-40.445.93359-60.395.43359-9.0156-.22656-18.039-.78906-27.008-1.4805-6.6523-.5-13.457-.78906-20.043-1.5938-5.625-.68359-11.203-3.9375-16.645-5.0547-1.8477-.39453-3.8242-.78906-5.9688-1.2305-2.1406-.44531-4.3711-.75-6.8086-1l-.003906-.003906c-5.4375-.65625-10.945-.52344-16.348.39453-3.0508.52344-5.9648 1.6367-8.5859 3.2773-1.4141.84375-2.4141 1.9688-4.5352 3.2773v.003907c-1.0586.57031-2.2148.94141-3.4102 1.0938-1.0469.12109-2.0977.18359-3.1484.17969-1.043.046875-2.082.023438-3.1172-.066406l-3.0547-.20312v-.003906c-.98438-.085938-1.9727-.11328-2.9609-.089844-.89844-.0625-1.8047.007813-2.6836.20703-1.7148.35156-3.293 1.1797-4.5586 2.3867-.84375.82812-1.0469 2.1055-.5 3.1484 1.2656-.45312 2.5938-.73047 3.9375-.81641 1.3945-.09375 2.793-.10938 4.1914-.042968l3.9844.20312h-.003906c1.3008.078126 2.6016.078126 3.8984.0 2.3906-.33203 4.6992-1.1055 6.8086-2.2773 2.4609-1.1367 4.8242-2.1406 7.0352-3.0977 1.1406-.47656 2.1875-.95703 3.3008-1.3672 1.1133-.41016 2.2539-.75 3.3242-1.0938s2.0938-.67969 3.0977-.97656c1.0234-.18359 2.0039-.36719 2.9609-.52344 1.668-.35547 3.3594-.57812 5.0586-.66016 1.5234.0 2.7969.023437 3.8438.089843 2.1172.11328 3.2578.34375 3.2812.67969.023438.33984-1.1172.78906-3.0977 1.2539-1.0039.22656-2.2305.47656-3.6211.75l.003907.003906c-1.5703.36328-3.1211.80078-4.6484 1.3203-.84375.22656-1.7266.5-2.6641.78906-.88672.36328-1.8203.75-2.7734 1.1797-.95703.42969-1.9688.82031-2.9844 1.2266-1.0156.41016-2.0977 1.0273-3.1484 1.5508-2.1836 1.0508-4.4609 2.1602-6.8281 3.3242h-.003906c-2.6523 1.5117-5.5781 2.4805-8.6055 2.8477-1.4727.09375-2.9492.085937-4.4219-.023438-1.457-.066406-2.7773-.17969-4.0547-.27344-1.1953-.097657-2.3984-.12891-3.5977-.09375-.95312.03125-1.8984.17188-2.8203.41406-.29688-.046875-.91406.39453-1.4141.65625l-.32031.18359c-.042968.042969-.5.45312-.5.45312-.54687.59375-.96484 1.293-1.2305 2.0508-.23047.58984-.27734 1.2344-.13281 1.8477.089844.20312.0.22656.15625.52344l.5.5.27734.22656c1.0977.55078 2.3711.64844 3.5391.27344.39453-.089844.78906-.17969 1.1797-.29688h.003906c.34375-.48047.76953-.90234 1.25-1.25.81641-.57812 1.7383-.99609 2.707-1.2305 1.668-.37891 3.375-.53125 5.082-.45312 1.6367.023438 3.0039.15625 4.5312.089844.75-.023438 1.5273-.023438 2.2773-.023438.75-.066406 1.5-.11328 2.25-.17969l.003906-.003906c2.8281-.19922 5.5977-.90234 8.1797-2.0742.61328-.27344 1.1797-.65625 1.75-.97656v.003906c.57422-.3125 1.1133-.67969 1.6172-1.0977.52734-.36719 1.0352-.76172 1.5234-1.1797l1.5742-1.4375c.5-.47656 1-.93359 1.5039-1.4102.50391-.47656 1.1133-.9375 1.6367-1.3906 1.1172-.86719 2.2305-1.6406 3.3242-2.3633l.003906.003906c2.0469-1.2695 4.2031-2.3594 6.4414-3.2578 3.2344-1.3711 6.7188-2.0625 10.234-2.0273 2.5742.11328 3.7109.75 3.7109 1.0703.0.39453-1.457.39453-3.5742.86719-3.1094.67969-6.1055 1.793-8.9062 3.3008-4.1875 2.1758-7.9688 5.0586-11.18 8.5195-.50391.47656-1.0039.98047-1.5039 1.5039-.5.52344-1.207 1.0234-1.8477 1.5234h.003906c-.62109.54297-1.2891 1.0234-2.0039 1.4336-.70312.39453-1.3906.91016-2.1406 1.2734v.003906c-3.0977 1.5-6.4531 2.4062-9.8828 2.6641-.84375.042968-1.6836.11328-2.5273.17969h-2.4609c-1.5938.046875-3.3008-.11328-4.6914-.15625-1.2695-.097656-2.5469-.039062-3.8008.17969-1.1172.25-1.4805.61328-1.6836 1.0039-.39453 1.6602-.27734 2.3906 1.7969 3.0273 1.9961.44531 4.0547.53516 6.082.27344.52344-.066406.88672-.10938 1.4102-.22266.52344-.11328.98047-.16016 1.4141-.27734l2.5508-.58984c.20312-.046874.36719-.070312.57031-.11328l.34375-.13672-.003906-.003906c1.918-.53516 3.9141-.75 5.9023-.63672 3.6953.69141 7.4844.76172 11.203.20312 2.918-.95703 4.0781-4.6445 5.6953-7.0586l.57031-.82422.15625-.17969.17969-.27344.089843-.09375.32031-.33984c.41406-.43359.84766-.86719 1.2305-1.3008l.003906.007812c1.5312-1.6172 3.2344-3.0586 5.0781-4.3047 1.6836-.97656 3.1211-1.7969 4.3281-2.3906 2.4609-1.0469 3.8984-1.4805 4.0547-1.1797.15625.30078-.95703 1.3008-3.0508 2.8477-1.0039.78906-2.207 1.7734-3.6445 2.918v-.003907c-1.4727 1.3555-2.8359 2.8242-4.0742 4.3906-.36719.45703-.73047.93359-1.1172 1.4141l-.25.32031c-.042969.066407-.15625.27344-.15625.27344l-.45703.78906c-.61328 1.0469-1.2266 2.2305-2.0039 3.5078l-.003906-.007813c-.82031 1.4023-1.8359 2.6797-3.0078 3.8047-.36328.30078-.78906.59375-1.1797.89062l-.59375.43359-.5.27344-.52344.25-.25.13672-.11328.066406-.066406.046875-.27734.11328c-.55859.16797-1.1289.28125-1.7109.33984-3.6875.30078-6.7617-.22266-9.9922-.17969v-.003906c-1.4414-.0625-2.8867.089844-4.2812.45703-.20312.11328-.48047.20312-.63672.29687-.046874.0625-.11328.10938-.1875.13672.023438.0.0-.18359-.042968-.089843l-.17969.63672c.042969.13281.13281.17969.32031.29688h-.003907c.58203.25391 1.1953.42969 1.8242.52344 1.5703.12891 3.1484.14453 4.7227.042969.84375-.019532 1.6641-.24609 2.4844-.24609h1.3906l1.3008.29688c1.5469.13672 3.0273.27344 4.4844.27344l-.003906-.007812c5.0938-.023438 10.035-1.7344 14.051-4.8711.16016-.13281.29688-.24609.48047-.39453.84375-1.1367 1.6602-2.2305 2.4609-3.3008 2.8242-4.2891 6.207-8.1758 10.062-11.57 2.7305-2.3984 6.2266-3.7383 9.8594-3.7812.66016.070313 1.2266.11328 1.707.18359v.003906c.37109.097656.73828.21875 1.0977.35938.58984.22656.88672.43359.86719.59375s-.36719.27344-1.0039.33984c-.29688.023437-.68359.046875-1.1367.070312-.39453.089844-.89062.17969-1.4141.24609l-.003907.003906c-2.9883.67188-5.7031 2.2383-7.7891 4.4844-3.2773 3.543-6.1719 7.418-8.6289 11.57-.78906 1.1797-1.6133 2.3633-2.457 3.6016-.87109 1.3516-1.8242 2.6523-2.8516 3.8906-.60156.71094-1.2734 1.3594-2.0039 1.9375-.40234.32031-.82812.60938-1.2734.86719l-.34375.20312-.45312.17969c-.039062.003907-.074219.011719-.11328.023438l-.13672.042969-.58984.16016v.003906c-.71094.17188-1.4375.28125-2.1641.31641 1.0625.17969 2.1328.28516 3.2109.32031 1.8672.042969 3.543.042969 5.168-.023438 3.043-.050781 6.0508-.69922 8.8477-1.9062.61719-.34375 1.1797-.70312 1.7539-1.0469.44531-.28125.85547-.60938 1.2305-.98047l.98047-.91016.70312-.82031c.48047-.57031.86719-1.0938 1.2734-1.6172 1.6875-2.207 3.1484-4.4648 4.7617-6.4453h.003907c1.4023-1.8867 3.1016-3.5391 5.0273-4.8945 1.5039-1 3.1797-1.7109 4.9453-2.0938 2.8711-.56641 4.4414-.17969 4.4414.089843.046875.39453-1.4805.70703-3.8477 1.7539h-.003906c-1.3867.64453-2.6719 1.4805-3.8242 2.4805-1.5117 1.3867-2.8203 2.9766-3.8945 4.7227-1.2734 1.9688-2.5742 4.3008-4.2109 6.7617-.43359.63672-.89062 1.3242-1.3477 1.9141l-.67969.89062-.16016.22656-.15625.15625c-.023438.023438-.13672.16016-.13672.16016l-.48047.45703-.003906.003906c-.60547.64844-1.2656 1.25-1.9688 1.7969-.066406.042969-.13672.066406-.20312.11328v.003907c1.3984-.10156 2.7578-.48438 4.0078-1.1211.20312-.11328.39453-.22656.59375-.34375.11328-.17969.20312-.39453.29688-.54688v.003906c.35938-.51953.78906-.98828 1.2734-1.3906.68359-.58203 1.4336-1.0859 2.2305-1.5.75-.82422 1.5273-1.6406 2.2969-2.4844h.003906c1.668-1.7266 3.4414-3.3555 5.3047-4.8711.45703-.39453.91406-.75 1.3477-1.1172.43359-.36719.91016-.61328 1.3438-.91016.43359-.29688.86719-.61328 1.3008-.89063l.66016-.45703.32031-.20312.33984-.22266.18359-.09375-.003907-.003906c3.3398-1.5312 6.7539-2.8906 10.234-4.0742 2.1523-.78125 4.1953-1.8398 6.0742-3.1484 1.2305-.86719 2.0039-1.707 2.3008-1.4844.22656.20703.22656 1.1797-.89062 2.8242l.003907.003907c-1.582 2.0859-3.6133 3.793-5.9414 4.9883-2.7539 1.6406-6.2969 3.0078-9.4727 4.8945-.78906.57031-1.5469 1.1797-2.3203 1.75-.43359.32031-.86719.63672-1.3008.98047l-1.1367 1.0273c-.78906.70313-1.5742 1.3203-2.3633 2.1172-.78906.80078-1.5938 1.5742-2.3945 2.3906-.58984.61328-1.1797 1.2305-1.75 1.8477l-.86719.91016-.43359.45703-.58594.58594h-.003906c-.69531.64844-1.4258 1.2578-2.1914 1.8242l.046875.046875h.003906c.39844.19922.85156.26953 1.2969.20312.86328-.054687 1.707-.25391 2.5039-.59375.21875-.078125.42969-.16797.63672-.26953l.57031-.36719c.45313-.27344.91016-.56641 1.3672-.86328 1.8242-1.2734 3.6641-2.8242 5.6484-4.4453v.003907c2-1.7188 4.1328-3.2812 6.375-4.668.54687-.32031 1.0703-.56641 1.5938-.84375l.88672-.45312.78906-.36719c1.0234-.48047 2.0508-.93359 3.0273-1.3906l-.003906.003907c3.3945-1.4023 6.5195-3.375 9.2461-5.8281 4.2812-4.2812 4.5586-8.8359 5.418-8.6602.30078.070312.63672 1.0469.45703 3.0742h.003906c-.28906 2.8867-1.4062 5.6328-3.2148 7.9023-2.6992 3.1992-6.043 5.7891-9.8125 7.6055-1.0039.54688-2.0273 1.0703-3.0742 1.5938l-.78906.39453-.66016.39453c-.52344.29688-1.0703.57031-1.5469.86719l.003906-.003907c-1.9219 1.3086-3.7695 2.7227-5.5352 4.2344-.29688.22656-.59375.45703-.89062.70703v.003906c.042969.046875.082031.10156.11328.15625.3125.46484.69922.88281 1.1406 1.2266.43359.25.48047.18359.54688.13672v.003906c.4375-.26562.83594-.59766 1.1797-.98047.61328-.65625 1.2305-1.3672 1.8906-2.0703.76562-.72266 1.5703-1.3984 2.4141-2.0273.84375-.70703 1.7227-1.3672 2.6406-1.9688 1.9609-1.2227 4.0273-2.2656 6.1719-3.1211 3.8047-1.1211 7.5391-2.4688 11.184-4.0312 2.4766-1.7031 4.418-4.0703 5.6016-6.832 1.1797-2.4609 1.9688-4.668 2.6406-6.1484.67188-1.4805 1.1602-2.3203 1.5039-2.2305s.47656 1.0234.39453 2.6641c-.13672 2.3789-.55469 4.7344-1.2539 7.0117-1.0195 3.7109-3.2344 6.9844-6.2969 9.3125-.91016.68359-1.8945 1.2539-2.9375 1.7109-.51562.26172-1.0586.47266-1.6172.63672-.47656.16016-.98047.32031-1.4805.50391-2.0156.58594-3.9961 1.2773-5.9414 2.0703-1.8555.73047-3.6523 1.6016-5.3789 2.5977-.53516.31641-1.0508.66797-1.5469 1.0469.78125-.44141 1.5898-.83594 2.4141-1.1797.61328-.26562 1.2461-.48828 1.8945-.66406.56641-.17188 1.1406-.30469 1.7266-.39062 2.457-.33984 4.8906-.82812 7.2891-1.4609 1.8047-.55469 3.5273-1.3516 5.1172-2.3633 1.3008-.90234 2.5469-1.8867 3.7305-2.9375 2.0508-3.0273 2.7109-5.0781 3.3008-5.0781.30078.046875.63672.82031.48047 2.4844h.003906c-.29688 2.168-.98438 4.2695-2.0273 6.1953-.59375 1.2031-1.3242 2.457-1.9688 3.7539-.69141 1.1484-1.168 2.4141-1.4141 3.7344-.058594.375.023438.75391.23047 1.0703.30859.44141.71094.80859 1.1797 1.0703 1.4258.80078 2.9492 1.4219 4.5312 1.8477l1.4375.33984 1.2031.20312c.86719.09375 1.7305.22656 2.5742.25 1.5391.14453 3.0938.046875 4.6016-.29297.30078-.023437.59766-.10938.86328-.25391l.36328-.15625c.058594-.019531.12109-.035157.17969-.046875l.13672-.089844c-.45703-.32031-.88672-.66016-1.3008-.95703h.003906c-1.1016-.55469-2.1719-1.1719-3.207-1.8477-2.5312-1.5547-4.4414-3.9453-5.3984-6.7617-.19922-.71094-.32031-1.4453-.36328-2.1836-.019531-.72266.027344-1.4492.13672-2.1641l.15625-.78906.046875-.20312.042969-.22656.003906-.003907c.007813-.046875.023437-.089843.046875-.13281l.11328-.39453c.15625-.52344.32031-1.0234.47656-1.5234.63672-1.9688 1.25-3.7344 1.707-5.3281.76953-2.4375 1.1562-4.9805 1.1367-7.5352-.11328-1.8906-.24609-3.0547.11328-3.1484.30078-.089843 1.0273.75 1.7773 2.6406 3.0273 8.1562-7.1289 17.32 2.707 23.688l.003906-.003906c2.1016 1.2422 4.2852 2.3281 6.5391 3.2578 4.0078 1.6445 8.2344 2.707 12.547 3.1484 2.3906.27734 4.8047.29297 7.1953.046875-1.7734-.52344-3.5078-1.1172-5.3047-1.6836-2.6836-1.0508-5.2969-2.2578-7.832-3.6211-1.207-.70703-2.5078-1.3672-3.543-2.0742-.50391-.36328-1.0039-.72656-1.5039-1.0703l-.75-.52344-.089843-.066407-.20312-.13672-.003906-.003906c-.027344-.027344-.050782-.058594-.070313-.089844l-.57422-.57422c-1.668-1.8828-2.8359-4.1523-3.3945-6.6016-.76562-3.2383-.89844-6.5977-.39453-9.8867.36719-2.2969.91406-3.4844 1.2305-3.4375.32031.046875.47656 1.3203.70313 3.4844h.003906c.25391 3 .87109 5.9609 1.8359 8.8125.59375 1.7656 1.5938 3.3711 2.9102 4.6914l.25.22656.089843.066406c.023438.023437.78906.48047.78906.48047.52344.32031 1.0469.63672 1.5938.98047 1.0703.63672 2.1172 1.0664 3.207 1.6367l.003906.003906c2.3828 1.1523 4.8242 2.1758 7.3125 3.0742 2.5938.75 5.5781 1.7734 8.3789 2.3633 2.8203.75 5.7383 1.3008 8.4922 1.9141 2.8008.52344 5.418.95703 8.1289 1.5273 2.5742.54297 4.9688 1.0234 7.1758 1.2969v-.007813c.98828.12891 1.9883.18359 2.9844.16406l.29687-.046876c-.21094-.23437-.42969-.45312-.66406-.66406-.39453-.32031-.78906-.61328-1.2031-.91016-5.2383-1.5039-10.043-3.0273-14.828-4.1445l-2.3633-.61328h.003906c-.86328-.22266-1.7109-.51172-2.5273-.86328-.82031-.32031-1.5469-.75-2.2969-1.1172-.68359-.45312-1.3906-.86328-2.0273-1.3203h-.003906c-2.3203-1.7031-4.4102-3.7031-6.2188-5.9453-6.4922-8.1992-7.4219-14.828-6.8516-14.918.72656-.29688 2.8477 5.625 9.4922 12.57v.003907c1.7695 1.8359 3.7422 3.4609 5.8789 4.8477.57031.34375 1.1797.66016 1.7773 1.0039.61328.24609 1.2266.58984 1.8672.78906.64062.23438 1.3008.42188 1.9688.57031.78906.15625 1.5742.34375 2.3633.52344 6.375 1.207 13.57 3.543 20.699 5.3281 1.8242.39453 3.5977.82031 5.3516 1.207v.003906c1.6484.34375 3.3242.55078 5.0078.61328 1.25.058594 2.5-.003906 3.7383-.1875-.43359-.39453-.9375-.74609-1.4375-1.1367l-.72656-.47656-1.0469-.52344h-.003907c-.625-.34375-1.2812-.61719-1.9648-.82031-.56641-.22656-1.25-.45312-1.9688-.67969-1.3242-.43359-2.8008-.86719-4.1016-1.4375-1.3008-.57031-2.4609-1-3.6211-1.4805-3.6172-1.7266-7.0977-3.7266-10.406-5.9883-1.043-.70313-2.0273-1.4922-2.9375-2.3594-.20312-.11328-.43359-.25-.63672-.39453-2.8125-1.6289-5.7148-3.0898-8.6992-4.375-2.1875-.86719-3.4648-1.3906-3.375-1.7266.089844-.33984 1.4141-.45703 3.8047-.18359h.003907c3.4062.62891 6.7188 1.6875 9.8594 3.1484 3.9648 1.7266 8.4023 4.2344 13.324 6.582v-.003906c4.9805 2.707 10.566 4.1094 16.234 4.0781l2.1172-.20703c.70312-.13281 1.3906-.33984 2.0703-.5.69922-.14844 1.3828-.34375 2.0508-.58984.61719-.22656 1.2148-.48828 1.8008-.78906.33594-.17969.66406-.375.98047-.58984-.17969-.11328-.39453-.20312-.58984-.32031l-.16016-.046875-.34375-.066406c-2.5273-.31641-5.082-.41016-7.625-.27344-2.3555-.25-4.6914-.66016-6.9883-1.2344-8.4023-2.0039-13.254-3.8008-13.16-4.4414.066406-.48047 2.4375-.39453 6.3516.042969v.003906c-1.2852-.99219-2.5039-2.0742-3.6445-3.2305-1.3672-1.3477-2.6641-2.6406-3.7773-3.543-1.8789-1.5234-4.1562-2.4688-6.5586-2.7344-3.8477-.48047-5.6484-.66016-5.6484-1.0039.0-.27344 1.6836-.67969 5.8047-.72656 2.8164-.011718 5.5664.84766 7.8711 2.4609 2.8477 1.9141 5.3945 4.9648 8.9922 7.0391h.003906c4.5938 2 9.5977 2.875 14.598 2.5469 1.4805.0 2.9844-.070313 4.5547-.11328.75-.023437 1.5938-.13672 2.3945-.18359.39453-.042968.78906-.089843 1.0469-.13281.066407.007812.13672.003906.19922-.019531zm-12.637-19.309c12.754-8.3125 12.113-22.203 10.773-36.211l-.003906-.003907c-4.8047.5-9.6562-.14062-14.168-1.8711-2.207 5.8281-1.207 12.777-4.6445 18.129-2.5508 3.918-6.3555 6.8086-9.2266 10.406 1.0703.24609 2.1211.54688 3.1484.86719 3.6133 1.0586 7.0586 2.625 10.234 4.6445 1.5508 1.0781 2.875 2.4492 3.8984 4.0352zm-8.3477-43.5c.054688-.32422.15234-.63672.29688-.93359-2.5273-17.969-6.1953-36.027-8.4258-54.109-.089844-.070312-.17969-.16016-.29688-.25.43359 11.66.17969 23.387.43359 34.938.125.1875.23828.38672.34375.58984 4.0078 9.1797 8.3789 20.336-3.1484 25.551-7.5156 3.3945-17.375 3.3711-25.457 3.4844-8.0195.13672-17.855 2.4805-25.711.95703h-.003906c-4.1367-.42578-7.6719-3.168-9.1094-7.0703s-.52734-8.2812 2.3438-11.289c2.7539-3.2305 8.6094-3.9375 12.457-4.4414v.003906c7.5859-.39062 14.676-3.8828 19.609-9.6562-.15625-.38281-.28906-.77734-.39063-1.1797-.1875-.64844-.16797-1.332.046876-1.9688-3.9883-15.145-8.4922-30.402-11.773-45.684-1.6641-7.7188-2.7109-15.781-4.9922-23.316-1.8906-6.2969-4.1641-11.344-3.4844-17.992 1.3008-12.594-4.8711-23.773-1.8438-36.551 3.7305-15.742 10.336-30.836 10.52-47.207-.34375-.046875-.66016-.11328-1.0039-.16016l.003907-.003907c-4.3359-.44922-8.5664-1.6094-12.523-3.4375-2.3945 1.4453-5.0234 2.4609-7.7656 3.0078-.89062 69.363-6.4219 138.68-7.3086 208.05.17578-.003906.34766.003906.52344.023438 1.8594.066406 3.3516 1.5586 3.418 3.418.43359 6.2969-.36719 12.547-.52344 18.809h1.1797c13.461-.066406 28.266-4.2344 41.355-.066406 4.8867-1.082 9.9141-1.3672 14.895-.84375 3.5078-5.3984 10.234-8.9961 11.754-15.262 1.4336-5.9102 1.5273-12.016 4.582-17.41zm-9.9062-77.633c-.29688-16.234 1.25-32.242.36328-48.438-3.4609 8.8789-6.875 17.582-6.0352 27.762.11328.1875.21094.38672.29688.58984 2.207 6.4375 3.832 13.062 4.8516 19.789.1875.078124.36328.17578.52344.29687zm-22.273 79.98c3.7812-.20312 24.711-.089843 21.883-9.8828v-.003907c-.77344-2.6211-1.7188-5.1953-2.8203-7.6992-5.6719-.43359-13.684.84375-18.992-1.8438v.003906c-3.75 4.7383-8.8867 8.1914-14.688 9.8828-4.0078.84375-16.055-.046874-18.035 4.8008-2.0508 5.0352 5.5547 6.1719 8.4922 5.7852 2.6172-.34375 5.2578-.57031 7.8984-.66016 5.4219-.20312 10.844-.13281 16.262-.38281zm17.902-209.17c-2.3555-.33594-4.6797-.85937-6.9492-1.5742-5.2695-1.5547-10.211-4.0508-14.59-7.3672-.375.23047-.79297.37891-1.2266.43359-12.113 1.6836-23.73-1.4141-35.363-4.4648-.046875.0-.070312.023438-.089844.023438-4.1914.39453-8.8164 4.2344-6.1523 8.5117l-.003907.003907c.30469.48828.47656 1.043.50391 1.6172.35547.92188.23438 1.9609-.32031 2.7812-.63672 1.0234-.9375 1.457-.22656 2.1172.67188.625 1.4492 1.125 2.2969 1.4805h.29688c4.0898.46484 8.207-.58984 11.57-2.9609.14453-.089844.29688-.16406.45312-.23047 1.043-.76953 2.4453-.82422 3.543-.13672 6.1953 3.6211 13.211 3.4414 20.074 4.7227 8.3281 1.4844 25.066 9.1836 26.184-4.957zm-15.602-123.25c0-.046874.023438-.066406.023438-.11328h.003906c-.96484-.57812-1.5781-1.5898-1.6445-2.707-.17969-2.4609-.36719-5.082-.63672-7.7227-.45703 3.1484-1.207 4.8945-1.5273 4.8281-.58594-3.0156-.875-6.082-.86719-9.1562-.32422-3.1797-1.0664-6.3047-2.207-9.293-1.293-3.4805-3.6836-6.4414-6.8086-8.4453-.13281-.089844-.27344-.13672-.39453-.22656v-.003906c.6875 1.2812 1.207 2.6445 1.5508 4.0547.64062 2.6914.79297 5.4766.45312 8.2227-.56641 4.5742-1.8672 6.9922-2.2539 6.875-.5-.11328-.042968-2.7539-.15625-6.9922l-.003906.003906c-.050781-2.4492-.44922-4.8828-1.1797-7.2227-.83203-2.8008-2.5078-5.2773-4.8047-7.0859l-.24609-.20313c-.68359-.15625-1.3672-.29687-2.0742-.39453h-.003906c.17188.22266.32422.45703.45703.70703 1.5977 2.9453 2.5586 6.1953 2.8242 9.5391.52344 5.5117-.15625 8.8359-.63672 8.8164-.56641.0-.86719-3.3242-2.0469-8.3594-.58203-2.8633-1.6445-5.6055-3.1523-8.1094-.18359-.30078-.39453-.58203-.63672-.83984-.11328-.13281-.17969-.24609-.32031-.39453l-.52344-.47656-.25-.22656-.15625-.089843c-.13672-.070313-.25-.13672-.36719-.20703v-.003906c-.31641-.15625-.64062-.28906-.97656-.39453-1.6641-.44922-3.3984-.59375-5.1172-.43359-.39844.015625-.79297.070313-1.1797.16406 1.1055 2.6758 1.6719 5.5469 1.6602 8.4453.023438 2.7812-.16797 5.5586-.57031 8.3125-.67969 4.5781-1.1797 7.3086-1.6367 7.332-.45703.023438-.91406-2.8711-.91406-7.4766-.023438-2.3008.0-5.0352-.27344-7.9688l.003906-.003907c-.14062-1.8555-.5-3.6914-1.0703-5.4648-.93359 2.4844-2.1875 4.4883-2.918 6.375-.55859 1.332-.96484 2.7227-1.2031 4.1445-.36719 1.4141-.54688 2.6875-.78906 3.8477-.82031 4.6914-.84375 7.6289-1.3906 7.6992-.39453.042969-1.3008-2.9414-1.1172-7.9688.035156-1.3633.14062-2.7266.32031-4.0781.13672-1.6562.48437-3.2891 1.0352-4.8594.17969-.52344.39453-1.0234.58984-1.5469-.22266.39453-.47656.75-.70313 1.1367-.98828 1.5547-1.7891 3.2227-2.3906 4.9648-1.0469 3.0039-1.6836 6.1367-1.8945 9.3164-.066406 1.3672-.042968 2.6172.0 3.6641.16016 1.0273.16016 1.9375.34375 2.7539.39453 1.5469.52344 2.457.29688 2.5703-.22656.11328-.82031-.61328-1.6836-1.9688h-.003907c-.42188-.95312-.78125-1.9336-1.0703-2.9375-.29297-1.3281-.49609-2.6719-.61328-4.0273-.17578-3.5312.24609-7.0664 1.25-10.457.046874-.16016.11328-.32031.16016-.48047-5.0117 9.7734-4.2344 21.648-1.3242 32.453h.003906c.35938-1.5039 1.0117-2.9258 1.9219-4.1797.95312-1.2383 2.1289-2.2891 3.4648-3.0977 1.4297-.85547 2.9766-1.5 4.5977-1.9102 1.1133-.22266 2.2656-.11719 3.3242.29688.89453.35938 1.7461.82422 2.5273 1.3906.63672.43359 1.3008.88672 2.0742 1.4805.12109.10938.25391.20703.39453.29297.39453-.16016 1.0938-.45703 1.7969-.78906v.003906c.47266-.24609.96875-.44141 1.4805-.58984l.52344-.13672c2.1406-.61328 2.7539 2.207 4.6719 1.8477.67969-.13672 1.2734-1.1797 1.75-1.6172 3.2539-2.9609 7.4766-7.3086 10.953-2.1875l.003906-.003907c.98047 1.7148 1.6953 3.5742 2.1172 5.5078.52344 1.8203.58984 2.207 1.6172 3.1484.95703.88672 2.3203 1.707 3.7344 2.8477.36719.30078.71484.61719 1.0469.95703.29688-.58984.57031-1.1797.82031-1.7734v-.25391c.42578-3.0859 1.0742-6.1328 1.9414-9.1211zm-4.4883 21.293-.78906-5.375h.003906c-.023437-.29297-.14453-.56641-.33594-.78906-.33594-.44531-.74609-.82812-1.2109-1.1367-1.0703-.86719-2.5273-1.6641-4.0312-2.9844-.39453-.35547-.76563-.73828-1.1172-1.1406-.37109-.45703-.69922-.95312-.97656-1.4805-.43359-.91016-.76953-1.8633-1.0039-2.8438-.31641-1.418-.8125-2.7891-1.4766-4.0781-.36719-.47656-.39453-.43359-.48047-.43359s-.089844-.042968-.10938.0c-.019531.042969.042969-.089843-.20703.0l-.65625.25-.003906.003907c-.066407.039062-.12891.085937-.1875.13672-.51172.34375-.94922.78516-1.293 1.2969-1.0391 1.5352-2.3984 2.8242-3.9883 3.7812-1.957.42969-4.0039.023438-5.6484-1.1211-.28516.066406-.55859.16797-.81641.30078-.89453.40234-1.8164.74219-2.7578 1.0234-.4375.066406-.87891.097656-1.3203.089843-.51172-.050781-1.0078-.20312-1.457-.45703-.49609-.27344-.95313-.60938-1.3672-1-.5-.45703-1.1367-.93359-1.7734-1.4141v.003906c-.46484-.375-.96875-.69922-1.5039-.95703-.34375-.17578-.73438-.25-1.1172-.20703-.56641.085938-1.1172.25-1.6367.48047-.68359.24609-1.1797.5-1.7305.72656l-.003906.003907c-.96875.49219-1.8477 1.1484-2.5977 1.9336-1.2695 1.5312-2.0859 3.3828-2.3594 5.3516-.17969.98047-.29688 1.9141-.39453 2.7773.019532.027343.027344.058593.023438.089843.066406.18359.089844.34375.13672.52344.097656.3125.16016.63281.18359.95703.070313 6.8125 1.375 13.559 3.8477 19.906.43359.58984.91016 1.207 1.4102 1.7969.57031.68359 1.1797 1.4141 1.7773 2.1875.67969.75 1.5 1.5 2.2734 2.2969.39453.39453.82031.78906 1.2305 1.2266l.20312.20312.003906.007812c.042969.039063.089844.078125.13672.11328l.16016.11328.66016.52344c.45312.34375.88672.70703 1.3438 1.0508.45703.34375.95703.61328 1.4375.91016 1.8711 1.2578 4.043 2.0039 6.2969 2.1641.56641.0625 1.1445.046875 1.707-.046875.57812-.03125 1.1484-.12109 1.7031-.26562.52344-.16016 1.0703-.32031 1.6406-.45703.63672-.29688 1.3008-.61328 1.9688-.91406 2.3008-1.1367 4.4141-2.6172 6.2695-4.3945 1.7461-1.7031 3.2891-3.6094 4.5938-5.6719 2.2188-3.6172 3.8164-7.582 4.7266-11.727.25-1.1953.45312-2.2891.61719-3.3359zm-15.781-63.398c.70703-3.7344-2.3203-5.8516-6.418-5.9023-4.0078-.066406-7.5625 1.4805-7.5391 5.2578v-.003906c4.6562-.53906 9.3711-.32031 13.957.64844zm-4.8711 149.57v-9.8828c-4.4766-1.6016-8.5312-4.1953-11.863-7.5859-.45703 4.7227-1.3242 9.4453-1.7969 14.188 4.4844 1.2109 9.0625 2.4375 13.66 3.2812zm-25.586 256.29c.13672-5.2383.67969-10.453.63672-15.688-3.5977-.16016-7.1758-.13672-10.773-.089843-.88672 5.2148-.66016 10.586-1.0703 15.895 3.75-.015625 7.4609-.070312 11.219-.11719zm-2.1172-71.801v-.003906c-.11719-.046875-.23047-.097656-.33984-.16016-.52344 6.3984-1.0508 12.801-1.5742 19.199-.84375 9.9023-1.0039 20.242-2.5742 30.125 1.0703-.023438 2.1406.0 3.2109.0.22266-16.395.65234-32.781 1.2891-49.16z"/><path d="m474.39 263.52c.85547 4.6836.89453 9.4766.10938 14.172-.75 3.4648-1.5938 5.5117-2.0938 5.4453-.5-.066406-.66016-2.2969-.58984-5.7852v-.003906c-.070312-4.4023-.47656-8.7969-1.2109-13.137-2.0273-10.09-5.3711-18.172-4.2812-18.652.78125-.41406 5.8086 7.0078 8.0664 17.961z"/><path d="m431.94 254.39c.15625.4375.21875.90234.18359 1.3633-.089844.36719-.22266.71875-.39453 1.0508-.26562.33984-.58984.625-.95703.84375-1.3477.53906-2.7852.81641-4.2344.82031-3.1211.089844-6.3984.82031-6.4219-3.0742.19141-2.2891.52734-4.5625 1.0039-6.8086.15234-1.3164.16016-2.6484.019531-3.9648-.089844-.56641-.13281-1.0898-.20312-1.5469-.11328-.52344-.20312-.95703-.24609-1.3242-.070312-.75.0-1.2031.22656-1.3203.22656-.11328.63672.13281 1.1367.70312l-.003907.003906c.30859.32813.58984.67969.84375 1.0469.3125.55469.59375 1.125.84375 1.707.625 1.5586.93359 3.2227.90625 4.8984.0 1.6406-2.4375 4.9883-.91016 6.3516.68359.63672 1.8672.0 2.6406-.042969 1.0938-.046875 2.2773.22656 3.3945.24609v.003906c.09375-.011719.18359-.011719.27734.0.0625-.0625.14062-.10547.22266-.13672.070313-.27734.30078-.45703.32031-.75.16016-.52344.34375-.89062.57031-.9375.22656-.046875.48438.23047.78125.86719z"/></g></svg>