<svg width="800" height="800" viewBox="0 0 48 48" xmlns="http://www.w3.org/2000/svg"><title>taxi</title><desc>Created with Sketch.</desc><g id="taxi" stroke="none" stroke-width="1" fill="none" fill-rule="evenodd"><g id="编组"><g id="car" transform="translate(4.000000, 11.000000)"><path d="M0 24V16.7096591c0-2.2733909 1.28486268-4.3515269 3.31860205-5.3675045l.68192407-.3406629L6.31046481 3.09193569C6.73255871 1.28116768 8.34671607.0 10.2060289.0H29.8943096c1.8732146.0 3.4955449 1.29998174 3.9038308 3.12815989l2.2050051 7.87333181.6802232.3401254C38.716025 12.3579864 40 14.4355394 40 16.7081367V24c0 1.6568542-1.3431458 3-3 3H35.0031455v1c0 2.209139-1.790861 4-4 4C28.790861 32 27 30.209139 27 28V27H13v1.0002631C13 30.2092568 11.2092568 32 9.00026306 32c-2.20899371.0-3.99973694-1.7907432-3.99973694-3.9997369V27H3c-1.65685425.0-3-1.3431458-3-3z" id="路径" stroke="#000" stroke-width="4" fill="#2F88FF" fill-rule="nonzero" stroke-linejoin="round"/><circle id="椭圆形" fill="#FFF" cx="9.5" cy="19.5" r="2.5"/><circle id="椭圆形" fill="#FFF" cx="30.5" cy="19.5" r="2.5"/></g><rect id="矩形" fill-opacity=".01" fill="#FFF" x="0" y="0" width="48" height="48"/><path d="M18 11H30l-.9911815-4.95590728C28.8868085 5.43404265 28.3998325 5 27.8373941 5H20.1626059C19.6001675 5 19.1131915 5.43404265 18.9911815 6.04409272L18 11z" id="路径" stroke="#000" stroke-width="4" stroke-linecap="round" stroke-linejoin="round"/><path d="M15 23H33" id="路径-13" stroke="#FFF" stroke-width="4" stroke-linecap="round" stroke-linejoin="round"/></g></g></svg>