<svg xmlns="http://www.w3.org/2000/svg" width="800" height="800" viewBox="-1 0 36 36"><title>industry</title><g fill="none" fill-rule="evenodd"><path fill="#ff6e6e" d="M34 19v17H0V14h4V8l8-8v14h5v5h7.326l2.388-11.8h3.643L32.745 19z"/><path fill="#0c0058" d="M27 34v-5h5v5zm0-12h5v5h-5zM19.188 6c-1-1.677 1.633-5.308 6.124-3.529a11.8 11.8.0 003.674 1.4V6a13.3 13.3.0 01-4.9-1.176A4.185 4.185.0 0019.188 6M10 31h5v5h-5zm0-7h5v5h-5zm0-7h5v5h-5zM4 8l8-8v3l-8 8zm3 14H2v-5h5zm0 7H2v-5h5zm0 7H2v-5h5zm17-9h-5v-5h5zm0 7h-5v-5h5z"/></g></svg>