<svg width="800" height="800" viewBox="0 0 24 24" fill="none" xmlns="http://www.w3.org/2000/svg"><path opacity=".5" d="M22 12c0 5.5228-4.4772 10-10 10C6.47715 22 2 17.5228 2 12 2 6.47715 6.47715 2 12 2c5.5228.0 10 4.47715 10 10z" fill="#1C274C"/><path d="M12 17.75C12.4142 17.75 12.75 17.4142 12.75 17V11C12.75 10.5858 12.4142 10.25 12 10.25S11.25 10.5858 11.25 11v6C11.25 17.4142 11.5858 17.75 12 17.75z" fill="#1C274C"/><path d="M12 7C12.5523 7 13 7.44771 13 8S12.5523 9 12 9 11 8.55229 11 8C11 7.44771 11.4477 7 12 7z" fill="#1C274C"/></svg>