<svg height="800" width="800" id="_x35_" xmlns="http://www.w3.org/2000/svg" viewBox="0 0 512 512"><g><g><g><path style="fill:#B2B959;" d="M4.902 56.424C2.206 56.424.0 58.63.0 61.326v63.889c0 2.696 2.206 4.902 4.902 4.902s4.902-2.206 4.902-4.902V61.326C9.803 58.63 7.597 56.424 4.902 56.424z"/><path style="fill:#B2B959;" d="M4.902 151.708c-2.696.0-4.902 2.205-4.902 4.902v63.888c0 2.696 2.206 4.902 4.902 4.902s4.902-2.205 4.902-4.902V156.61C9.803 153.913 7.597 151.708 4.902 151.708z"/><path style="fill:#B2B959;" d="M310.14.0h-37.003c-3.921.0-7.13 3.208-7.13 7.13.0 3.921 3.208 7.13 7.13 7.13h37.003c3.921.0 7.13-3.208 7.13-7.13S314.061.0 310.14.0z"/></g><g><path style="fill:#ACB044;" d="M332.42 17.753v477.045c0 6.203-4.991 11.194-11.194 11.194H17.361c-6.131.0-11.122-4.991-11.122-11.194V17.753c0-6.131 4.991-11.122 11.122-11.122h303.866c6.202.0 11.193 4.99 11.193 11.122z"/><path style="fill:#FFFFFF;" d="M293.536 27.894H45.084c-11.628.0-21.055 9.427-21.055 21.055v414.712c0 11.629 9.427 21.055 21.055 21.055h248.453c11.628.0 21.055-9.427 21.055-21.055V48.95C314.592 37.321 305.165 27.894 293.536 27.894z"/><path style="fill:#777778;" d="M293.536 40.561h-26.762-8.462H45.083c-3.839.0-6.95 3.215-6.95 7.18V392.95c0 3.966 3.112 7.181 6.951 7.181h248.452c3.839.0 6.951-3.215 6.951-7.181V47.742C300.487 43.776 297.375 40.561 293.536 40.561z"/><path style="fill:#A4D1D0;" d="M293.536 45.403H45.083c-1.242.0-2.249 1.04-2.249 2.323v344.45c0 1.283 1.007 2.323 2.249 2.323h248.452c1.242.0 2.249-1.04 2.249-2.323V47.726C295.785 46.443 294.778 45.403 293.536 45.403z"/><g><path style="fill:#FFFFFF;" d="M153.822 56.467c-.428-.927-.998-1.711-1.711-2.353-.785-.641-1.64-1.069-2.638-1.426-.998-.357-2.139-.499-3.28-.499-1.212.0-2.282.142-3.28.499-.998.356-1.854.856-2.638 1.497-.713.642-1.355 1.426-1.783 2.353s-.57 1.996-.57 3.208c0 1.141.143 2.139.57 2.994.356.927.927 1.64 1.569 2.282.641.571 1.355 1.069 2.21 1.355.855.356 1.711.499 2.638.499.356.0.641.0.998-.071.356.0.641-.071.998-.214l-5.561 9.982h5.276l5.632-10.481c.642-1.069 1.141-2.139 1.569-3.208.428-.998.641-2.139.641-3.208C154.464 58.463 154.25 57.394 153.822 56.467zM148.617 62.313c-.641.641-1.426.927-2.424.927-1.07.0-1.925-.356-2.495-.927-.642-.642-.927-1.497-.927-2.638s.285-1.997.927-2.567c.641-.642 1.497-.927 2.495-.927s1.782.285 2.424.927c.713.57.998 1.426.998 2.567C149.616 60.816 149.331 61.671 148.617 62.313z"/><path style="fill:#FFFFFF;" d="M159.74 71.582v4.991h5.561v-4.991H159.74zM159.74 62.384v4.991h5.561v-4.991H159.74z"/><path style="fill:#FFFFFF;" d="M185.264 68.944v-4.492h-4.705v4.492h-5.561l9.126-16.541h-5.276l-9.126 16.541v4.207h10.837v3.422h4.705V73.15h2.424v-4.207H185.264z"/><path style="fill:#FFFFFF;" d="M195.887 52.403l-5.418 4.278v4.777l5.418-4.278v19.393h4.848v-24.17H195.887z"/></g><g><path style="fill:#F0EFEF;" d="M165.92 458.096c-5.819.0-10.536-4.717-10.536-10.536h-18.859c0 16.234 13.161 29.395 29.395 29.395s29.395-13.161 29.395-29.395h-18.859C176.457 453.378 171.739 458.096 165.92 458.096z"/><path style="fill:#E3E2E2;" d="M165.92 418.164c-16.234.0-29.395 13.16-29.395 29.395h18.859c0-5.819 4.717-10.536 10.536-10.536s10.536 4.717 10.536 10.536h18.859c0-16.234-13.16-29.395-29.395-29.395z"/><path style="fill:#E3E2E2;" d="M165.92 458.096c5.819.0 10.536-4.717 10.536-10.536h-21.073C155.384 453.378 160.101 458.096 165.92 458.096z"/></g><g><circle style="fill:#FFFFFF;" cx="152.858" cy="381.271" r="6.582"/><circle style="fill:#C9E8EF;" cx="185.763" cy="381.271" r="6.582"/></g><g><g><path style="fill:#FFFFFF;" d="M274.67 59.461v-5.419h-34.508v21.603h34.508v-5.347h4.278V59.461H274.67zm3.351 9.91h-4.349v5.347H241.09V55.041h32.582v5.347h4.349v8.983z"/></g><polygon style="fill:#FFFFFF;" points="272.295,61.802 272.295,56.424 242.503,56.424 242.503,73.327 272.295,73.327 272.295,67.95 276.602,67.95 276.602,61.802"/></g><g><circle style="fill:#EDC0A8;" cx="120.491" cy="141.652" r="41.406"/><path style="opacity:0.9;fill:#FFFFFF;" d="M140.846 117.283l-4.848.57-24.526 2.995-.571.071-5.775.713v29.089c-1.782-.214-3.707.071-5.632.856-4.278 1.925-6.702 6.06-5.704 9.696.071.285.142.57.285.856.784 1.782 2.282 3.066 4.206 3.636 2.139.713 4.777.641 7.201-.428 3.636-1.64 5.918-4.848 5.989-7.985v-22.815l24.526-2.994v12.619c-1.782-.214-3.708.0-5.633.855-3.778 1.64-6.131 5.062-5.917 8.342.0.784.142 1.64.499 2.352 1.64 3.779 6.773 5.205 11.407 3.208 3.636-1.64 5.918-4.848 5.989-7.985v-33.866L140.846 117.283zM135.998 129.189l-6.559.784-.214.214-17.753 2.139v-2.638l24.526-2.995V129.189z"/></g><g><circle style="fill:#97A1B7;" cx="218.129" cy="141.652" r="41.406"/><path style="opacity:0.9;fill:#FFFFFF;" d="M236.954 119.778v3.351c0 1.497-1.069 2.709-2.424 2.709h-32.797c-1.355.0-2.424-1.212-2.424-2.709v-3.351h-6.061v43.776h6.061v-2.781c0-1.497 1.069-2.709 2.424-2.709h32.797c1.355.0 2.424 1.212 2.424 2.709v2.781h6.061v-43.776H236.954zm-38.999 41.637c0 .428-.356.784-.713.784h-1.996c-.428.0-.713-.356-.713-.784v-1.64c0-.428.286-.784.713-.784h1.996c.357.0.713.356.713.784V161.415zm0-6.203c0 .428-.356.785-.713.785h-1.996c-.428.0-.713-.357-.713-.785v-1.64c0-.428.286-.784.713-.784h1.996c.357.0.713.356.713.784V155.212zm0-6.273c0 .499-.356.855-.713.855h-1.996c-.428.0-.713-.357-.713-.855v-1.569c0-.428.286-.784.713-.784h1.996c.357.0.713.356.713.784V148.939zM197.955 142.735c0 .428-.356.785-.713.785h-1.996c-.428.0-.713-.357-.713-.785v-1.568c0-.499.286-.856.713-.856h1.996c.357.0.713.356.713.856V142.735zM197.955 136.533c0 .428-.356.785-.713.785h-1.996c-.428.0-.713-.357-.713-.785v-1.64c0-.428.286-.784.713-.784h1.996c.357.0.713.356.713.784V136.533zM197.955 130.33c0 .428-.356.785-.713.785h-1.996c-.428.0-.713-.357-.713-.785v-1.64c0-.428.286-.784.713-.784h1.996c.357.0.713.356.713.784V130.33zM197.955 124.056c0 .499-.356.855-.713.855h-1.996c-.428.0-.713-.356-.713-.855v-1.568c0-.428.286-.784.713-.784h1.996c.285.0.642.285.642.642.071.071.071.071.071.143V124.056zm38.999 30.087c0 .356-.214.57-.499.57h-34.721c-1.355.0-2.424-1.212-2.424-2.709v-20.106c0-1.497 1.069-2.781 2.424-2.781h34.721c.286.0.499.285.499.57v24.456zM241.66 161.415c0 .428-.357.784-.713.784h-1.996c-.428.0-.713-.356-.713-.784v-1.64c0-.428.285-.784.713-.784h1.996c.356.0.713.356.713.784V161.415zm0-6.203c0 .428-.357.785-.713.785h-1.996c-.428.0-.713-.357-.713-.785v-1.64c0-.428.285-.784.713-.784h1.996c.356.0.713.356.713.784V155.212zm0-6.273c0 .499-.357.855-.713.855h-1.996c-.428.0-.713-.357-.713-.855v-1.569c0-.428.285-.784.713-.784h1.996c.356.0.713.356.713.784V148.939zM241.66 142.735c0 .428-.357.785-.713.785h-1.996c-.428.0-.713-.357-.713-.785v-1.568c0-.499.285-.856.713-.856h1.996c.356.0.713.356.713.856V142.735zM241.66 136.533c0 .428-.357.785-.713.785h-1.996c-.428.0-.713-.357-.713-.785v-1.64c0-.428.285-.784.713-.784h1.996c.356.0.713.356.713.784V136.533zM241.66 130.33c0 .428-.357.785-.713.785h-1.996c-.428.0-.713-.357-.713-.785v-1.64c0-.428.285-.784.713-.784h1.996c.356.0.713.356.713.784V130.33zM241.66 124.056c0 .499-.357.855-.713.855h-1.996c-.428.0-.713-.356-.713-.855v-1.568c0-.428.285-.784.713-.784h1.996c.356.0.713.356.713.784v1.568z"/></g><g><circle style="fill:#B797A1;" cx="120.491" cy="235.686" r="41.406"/><path style="opacity:0.9;fill:#FFFFFF;" d="M99.327 224.388s-13.86 23.1 7.7 22.587 39.013-22.587 39.013-22.587c-16.94 7.187-37.473 14.895-40.553 11.298C102.407 232.088 99.327 224.388 99.327 224.388z"/></g><g><circle style="fill:#73BADA;" cx="218.129" cy="235.686" r="41.406"/><g><path style="opacity:0.9;fill:#FFFFFF;" d="M219.145 225.4h-2.032c-3.676.0-6.684-3.008-6.684-6.684v-2.032c0-3.676 3.008-6.684 6.684-6.684h2.032c3.676.0 6.684 3.008 6.684 6.684v2.032C225.829 222.392 222.821 225.4 219.145 225.4z"/><path style="opacity:0.9;fill:#FFFFFF;" d="M222.819 230.572h-9.381c-1.973.0-3.461 1.813-3.312 3.955l1.704 24.537c.089 1.284 1.357 2.308 2.82 2.308h6.957c1.463.0 2.731-1.024 2.82-2.308l1.704-24.537C226.28 232.385 224.792 230.572 222.819 230.572z"/></g></g><g><ellipse transform="matrix(1 0.0044 -0.0044 1 1.4464 -0.9549)" style="fill:#5E6776;" cx="219.549" cy="330.976" rx="41.271" ry="40.774"/><path style="opacity:0.9;fill:#FFFFFF;" d="M237.097 349.852l-5.632-15.115.142-.071-.214-.143v-.071l-3.351-9.126-.998-2.638-4.491-12.121c0-.071-.071-.143-.071-.214-.143-.142-.214-.285-.356-.499-.071-.142-.214-.214-.357-.356-.142-.142-.285-.214-.499-.285-.142-.143-.356-.214-.57-.285-.071.0-.143-.071-.214-.071-.142-.071-.214-.071-.285-.071h-1.283c-.071.0-.214.0-.285.071-.071.0-.142.071-.285.071-.214.071-.356.143-.57.285-.142.071-.285.143-.428.285-.142.143-.285.214-.356.356-.143.214-.285.357-.356.499.0.071-.071.143-.143.214l-4.42 12.121-.998 2.638-3.351 9.126-.214.214.071.071-5.561 15.115c-.499 1.355.428 2.78 2.139 3.208.285.143.57.143.927.143 1.283.0 2.567-.713 2.994-1.854l1.283-3.493.855.57 9.34-5.989 9.34 5.989.785-.57 1.283 3.493c.428 1.141 1.711 1.854 3.066 1.854.356.0.641.0.927-.143C236.597 352.632 237.596 351.207 237.097 349.852zm-14.331-20.676.713 1.711-1.568-1.141L222.766 329.176zM219.558 320.335l2.281 6.06-2.281 1.64-2.282-1.64L219.558 320.335zM216.278 329.176l.855.57-1.497 1.141L216.278 329.176zM210.645 344.362l2.282-6.203 3.708 2.353L210.645 344.362zM214.353 335.307l5.205-3.779 5.133 3.779-5.133 3.351L214.353 335.307zM222.481 340.512l3.636-2.353 2.281 6.203L222.481 340.512z"/></g><g><circle style="fill:#8DCB9F;" cx="118.951" cy="330.916" r="41.406"/><g><path style="opacity:0.9;fill:#FFFFFF;" d="M108.777 340.971c-.1-1.203 6.314-2.005 9.521-2.606s2.467-3.26 2.005-6.815c-.362-2.781.054-6.054-3.898-5.854-.476.024-2.516 2.612-3.118 2.93-.601.318 1.303-4.811 1.303-4.811s-7.941 1.264-6.916.519c1.102-.802 3.207-5.613 6.414-4.535.769.258-8.269-3.643-2.706-4.385 3.007-.401 6.915-.902 9.321.902 2.405 1.804 2.793-.039 4.31-.401 2.205-.526 4.811 2.105 5.713 4.811l-3.408 1.687s7.035 4.456 1.1 3.515c-3.204-.508-5.109 1.413-4.908 4.22.059.824.109 7.701.702 7.804 3.221.558 6.815.916 8.719 3.02.851.94-2.205 3.432-9.421 2.718C116.294 342.975 108.877 342.174 108.777 340.971z"/><g style="opacity:0.9;"><g><path style="fill:#FFFFFF;" d="M93.791 308.999v43.848h50.335v-43.848H93.791zm46.2 39.712H97.854v-35.577h42.136v35.577z"/></g><g><path style="fill:#FFFFFF;" d="M93.791 308.999v43.848h50.335v-43.848H93.791zm46.2 39.712H97.854v-35.577h42.136v35.577z"/></g></g></g></g></g></g><path style="opacity:0.07;fill:#040000;" d="M9.91 425.407v75.435c0 6.162 4.996 11.158 11.158 11.158H324.93c6.162.0 11.158-4.996 11.158-11.158V99.228L9.91 425.407z"/></g></svg>