<svg id="_x35_" xmlns="http://www.w3.org/2000/svg" viewBox="0 0 512 512"><g><g><path style="fill:#58635F;" d="M258.753 233.202v188.736c0 .424.0.706.0.706v37.902c0 28.374-23.01 51.454-51.454 51.454H51.454c-7.482.0-14.611-1.623-21.033-4.517-5.788-2.541-11.011-6.211-15.387-10.587s-7.905-9.529-10.446-15.246C1.623 475.227.0 468.098.0 460.546v-37.902s0-.282.0-.706V233.202c0-5.646.282-11.081.776-16.304 1.694-17.222 6.07-32.538 11.928-46.09C37.196 114.201 88.65 88.439 88.65 88.439V28.938h25.48c8.329.0 15.245.0 15.245.0s30.209.0 40.726.0v59.501s51.454 25.762 75.946 82.369c5.858 13.551 10.234 28.868 11.928 46.09C258.47 222.121 258.753 227.556 258.753 233.202z"/><path style="fill:#E13E35;" d="M177.442 9.105v66.7H81.31v-66.7C81.31 4.094 85.404.0 90.415.0h77.922C173.349.0 177.442 4.094 177.442 9.105z"/><rect x="81.31" y="58.936" style="opacity:0.1;fill:#040000;" width="96.132" height="16.869"/><path style="fill:#E13E35;" d="M258.753 251.342v155.703H0V251.342c0-5.576.282-11.011.776-16.304h257.2C258.47 240.331 258.753 245.766 258.753 251.342z"/><g><circle style="fill:#CE4442;" cx="129.376" cy="321.044" r="66.516"/><g><g><rect x="82.208" y="310.039" style="fill:#F8F1DF;" width="94.336" height="30.298"/><rect x="114.227" y="278.02" style="fill:#F8F1DF;" width="30.298" height="94.336"/></g></g></g></g><path style="opacity:0.06;fill:#040000;" d="M246.048 170.808c-3.207-7.412-6.892-14.266-10.848-20.632L0 385.377v21.668 14.893c0 .424.0.706.0.706v37.902c0 7.552 1.623 14.681 4.588 21.104 2.541 5.717 6.07 10.87 10.446 15.246 4.376 4.376 9.599 8.046 15.387 10.587C36.843 510.377 43.972 512 51.454 512h155.845c28.444.0 51.454-23.08 51.454-51.454v-37.902s0-.282.0-.706v-14.893V251.342v-18.14c0-5.646-.282-11.081-.776-16.304C256.282 199.676 251.906 184.359 246.048 170.808z"/></g></svg>