<svg id="_x35_" xmlns="http://www.w3.org/2000/svg" viewBox="0 0 512 512"><g><g><path style="fill:#9E6FAD;" d="M367.337 451.067c0 1.244.0 2.57-.166 3.814.0.249.0.414-.082.663.0.746.0 1.492-.166 2.238-.083.746-.166 1.492-.331 2.238.0.414-.083.829-.166 1.244.0.083.0.248-.083.331-.248 1.409-.497 2.653-.829 3.979-.083.58-.249 1.078-.415 1.575-.248 1.078-.58 2.238-.995 3.233.0.249-.082.414-.165.663-.249.663-.497 1.326-.746 1.907.0.083-.083.166-.083.249-.414.912-.746 1.907-1.243 2.818-.083.249-.166.415-.249.663-.165.331-.331.663-.497.912-.663 1.327-1.326 2.653-1.99 3.897-.083.083-.083.165-.166.248-.249.332-.414.746-.746 1.078-.58 1.078-1.327 2.155-2.073 3.233-.083.083-.083.166-.166.248-.331.498-.663.912-1.078 1.41-.083.083-.083.083-.166.165-.746 1.078-1.658 2.156-2.57 3.15-.082.249-.331.497-.58.663-.663.829-1.41 1.658-2.155 2.404-.332.332-.58.58-.912.829l-.082.083c-.829.912-1.824 1.741-2.736 2.404-.249.249-.497.497-.746.663-1.16.995-2.238 1.907-3.482 2.653-.829.58-1.575 1.16-2.404 1.658-1.327.912-2.736 1.741-4.145 2.488-1.078.58-2.155 1.078-3.233 1.492-1.161.663-2.404 1.161-3.648 1.575-.083.0-.083.083-.166.083-1.326.497-2.735.995-4.062 1.409-1.409.414-2.818.746-4.228 1.078-.829.248-1.741.414-2.653.497-1.16.249-2.321.414-3.482.497-.414.166-.829.166-1.326.166-1.907.248-3.814.331-5.72.331H70.798c-7.958.0-15.585-1.575-22.549-4.394-15.42-6.135-27.855-18.57-33.989-33.99-2.404-5.886-3.897-12.187-4.228-18.736-.166-1.243-.166-2.57-.166-3.814.0-26.943 17.824-30.922 42.28-31.503 2.902-.083 5.886-.083 8.953-.083h245.306c6.466.0 12.767-.082 18.653.083C349.513 420.145 367.337 424.207 367.337 451.067z"/><path style="fill:#9E6FAD;" d="M367.337 41.948v411.109c0 .58-.083 1.243-.166 1.824.0.249.0.414-.082.663.0.166.0.331-.083.497-1.327 6.715-7.295 11.772-14.425 11.772H24.622c-7.544.0-13.762-5.637-14.591-12.933-.166-.58-.166-1.243-.166-1.824V41.948c0-8.124 6.632-.166 14.757-.166H352.58C360.705 41.782 367.337 33.824 367.337 41.948z"/><path style="fill:#FFFFFF;" d="M377.202 9.368v99.233h-.083V85.057H0V9.368C0 4.228 4.228.0 9.451.0h358.3C372.974.0 377.202 4.228 377.202 9.368z"/><rect x="188.586" y="85.068" style="opacity:0.1;fill:#040000;" width=".015" height="23.566"/><rect x="52.107" y="147.514" style="fill:#FFFFFF;" width="272.973" height="292.857"/><rect x="86.474" y="174.026" style="fill:#9E6FAD;" width="204.239" height="19.884"/><rect x="86.474" y="215.539" style="fill:#9E6FAD;" width="204.239" height="19.884"/><rect x="125.751" y="260.47" style="fill:#9E6FAD;" width="125.686" height="19.884"/><rect x="87.947" y="386.017" style="fill:#9E6FAD;" width="201.293" height="19.884"/><rect x="9.882" y="85.068" style="opacity:0.1;fill:#040000;" width="357.423" height="23.566"/><g><path style="fill:#9E6FAD;" d="M174.6 304.053c-15.013.0-27.296 12.283-27.296 27.296v0c0 15.013 12.283 27.296 27.296 27.296h22.783v-54.592H174.6z"/><path style="fill:#EAEAEA;" d="M220.166 304.053h-22.783v54.592h22.783c15.013.0 27.296-12.283 27.296-27.296v0c0-15.013-12.283-27.296-27.296-27.296z"/></g></g><path style="opacity:0.04;fill:#040000;" d="M377.202 9.368v16.746l-.083 58.943h-9.782v368c0 .58-.083 1.243-.166 1.824.0.249.0.414-.082.663.0.166.0.331-.083.497.0 1.326-.166 2.653-.414 3.979.0.414-.083.829-.166 1.244-.249 1.492-.58 2.901-.912 4.31-.083.58-.249 1.078-.415 1.575-.331 1.327-.746 2.653-1.16 3.897-.249.663-.497 1.326-.746 1.907-.497 1.244-.995 2.487-1.575 3.731-.165.331-.331.663-.497.912-.663 1.41-1.409 2.819-2.155 4.145-.249.332-.414.746-.746 1.078-.663 1.161-1.41 2.322-2.239 3.482-.331.498-.663.912-1.078 1.41-.829 1.161-1.741 2.238-2.736 3.316-.082.249-.331.497-.58.663-.995 1.161-2.073 2.238-3.15 3.316-1.078 1.078-2.238 2.155-3.482 3.067-1.16.995-2.238 1.907-3.482 2.653-2.073 1.575-4.228 2.901-6.549 4.145-1.078.58-2.155 1.078-3.233 1.492-1.161.663-2.404 1.161-3.648 1.575-1.409.58-2.819 1.078-4.228 1.492-5.554 1.658-11.357 2.57-17.409 2.57H188.601V0h179.15C372.974.0 377.202 4.228 377.202 9.368z"/></g></svg>