<svg width="800" height="800" viewBox="0 0 1024 1024" class="icon" xmlns="http://www.w3.org/2000/svg"><path d="M512 512m-480 0a480 480 0 10960 0 480 480 0 10-960 0z" fill="#F6F6F6"/><path d="M249.6 294.4c0-25.6 19.2-44.8 44.8-44.8h166.4c32 0 51.2 19.2 51.2 44.8v166.4c0 32-19.2 51.2-44.8 51.2H294.4c-25.6.0-44.8-19.2-44.8-44.8V294.4zm307.2 51.2c0-25.6 19.2-51.2 44.8-51.2h121.6c25.6.0 51.2 19.2 51.2 51.2v121.6c0 25.6-19.2 51.2-51.2 51.2H601.6c-25.6.0-44.8-25.6-44.8-51.2V345.6zm0 262.4c0-25.6 19.2-51.2 51.2-51.2h121.6c25.6.0 51.2 19.2 51.2 44.8v64L672 774.4h-64c-25.6.0-44.8-19.2-44.8-51.2V608z" fill="#BFBFBF"/><path d="M665.6 716.8c0-25.6 19.2-44.8 44.8-44.8h64L665.6 780.8v-64z" fill="#FFF"/><path d="M294.4 601.6c0-25.6 19.2-51.2 51.2-51.2h121.6c25.6 6.4 44.8 25.6 44.8 51.2v121.6c0 25.6-19.2 51.2-51.2 51.2H339.2c-25.6.0-51.2-19.2-51.2-51.2V601.6z" fill="#BFBFBF"/><path d="M294.4 294.4h166.4V320H294.4zm0 51.2h96v25.6h-96z" fill="#FFF"/></svg>