<svg width="800" height="800" viewBox="0 0 1024 1024" class="icon" xmlns="http://www.w3.org/2000/svg"><path d="M952.661333 540.672a170.624 170.624.0 00-241.344.0A170.112 170.112.0 00661.312 661.418667V682.666667" fill="none"/><path d="M835.626667 399.082667C781.845334 246.058667 664.341334 234.176 629.589333 234.176c-8.576.0-13.546667.661333-13.546666.661333l-2.538667 41.856c53.162667 13.312 88.426667 56 104.341333 79.552L348.096 561.642667C348.074667 561.642667 384 597.333333 384 682.666667h212.288l2.048-40.917334C607.829333 526.933333 701.802667 434.816 816.874667 427.456l28.096-1.792-9.344-26.581333z" fill="#FF3D00"/><path d="M77.568 525.589333a191.957333 191.957333.0 01271.530667.0" fill="none"/><path d="M832 533.333333a128 128 0 000 256 128 128 0 000-256zm0 213.333334A85.333333 85.333333.0 11832 576a85.333333 85.333333.0 010 170.666667zM213.333333 533.333333a128 128 0 000 256 128 128 0 000-256zm0 213.333334a85.333333 85.333333.0 110-170.666667 85.333333 85.333333.0 010 170.666667z" fill="#607D8B"/><path d="M832 661.333333m-42.666667.0a42.666667 42.666667.0 1085.333334.0 42.666667 42.666667.0 10-85.333334.0z" fill="#90A4AE"/><path d="M213.333333 661.333333m-42.666666.0a42.666667 42.666667.0 1085.333333.0 42.666667 42.666667.0 10-85.333333.0z" fill="#90A4AE"/><path d="M844.970667 425.664l-9.344-26.581333a312.96 312.96.0 00-24.661334-53.909334A63.786667 63.786667.0 00768 405.333333c0 10.368 2.709333 20.010667 7.082667 28.693334a231.253333 231.253333.0 0141.792-6.570667l28.096-1.792z" fill="#FFC107"/><path d="M684.864 375.082667C663.573333 353.301333 620.48 320 554.666667 320c-86.229333.0-130.197333 62.549333-145.834667 106.666667H341.333333c-14.229333.0-33.024-14.101333-51.2-27.733334-23.765333-17.834667-48.362667-36.266667-76.8-36.266666h-128v42.666666h-8.832L119.168 448H128c120.341333.0 220.074667 113.642667 220.074667 113.642667l336.789333-186.56z" fill="#455A64"/><path d="M725.333333 298.666667h-128" fill="none"/><path d="M213.333333 405.333333c14.229333.0 33.024 14.101333 51.264 27.797334 23.765334 17.792 48.32 36.202666 76.736 36.202666H438.976l-33.642667-42.666666h-64c-14.229333.0-33.024-14.101333-51.2-27.733334-23.765333-17.834667-48.362667-36.266667-76.8-36.266666h-128c-42.666667.0-42.666667 42.666667-42.666666 42.666666h170.666666z" fill="#37474F"/><path d="M295.253333 640l74.112-41.386667c-9.962667-25.130667-21.290667-36.949333-21.290666-36.949333l-145.152 81.066667A21.333333 21.333333.0 00213.333333 682.666667H384c0-16.149333-1.557333-29.973333-3.626667-42.666667h-85.12zm555.84 11.797333L746.858667 443.328c-13.333333 5.269333-26.069333 11.690667-38.101334 19.2L812.928 670.869333a21.290667 21.290667.0 0028.608 9.557334c10.538667-5.290667 14.826667-18.090667 9.557333-28.629334z" fill="#37474F"/></svg>