<svg width="800" height="800" viewBox="-4.5 0 63 63" xmlns="http://www.w3.org/2000/svg"><g id="Group_89" data-name="Group 89" transform="translate(-604 -37)"><path id="Path_120" data-name="Path 120" d="M646.509 78.451 605 91V65l40.294-12.182A2.1 2.1.0 01648 54.827V76.442A2.1 2.1.0 01646.509 78.451z" fill="#ffc2c2" stroke="#333" stroke-linecap="round" stroke-linejoin="round" stroke-width="2"/><path id="Path_121" data-name="Path 121" d="M643 85H615V38h28z" fill="#cbff94" stroke="#333" stroke-miterlimit="10" stroke-width="2"/><path id="Path_122" data-name="Path 122" d="M650.171 99H605V65h45.171A3.829 3.829.0 01654 68.829V95.171A3.829 3.829.0 01650.171 99z" fill="#ffc2c2" stroke="#333" stroke-linecap="round" stroke-linejoin="round" stroke-width="2"/><g id="Group_88" data-name="Group 88"><g id="Group_87" data-name="Group 87"><line id="Line_132" data-name="Line 132" y2="21" transform="translate(629 42)" fill="#fff" stroke="#333" stroke-miterlimit="10" stroke-width="2"/><g id="Group_86" data-name="Group 86"><path id="Path_123" data-name="Path 123" d="M629.092 52.5a3.752 3.752.0 113.875-3.75" fill="none" stroke="#333" stroke-miterlimit="10" stroke-width="2"/><path id="Path_124" data-name="Path 124" d="M629.092 52.5a3.752 3.752.0 11-3.875 3.75" fill="none" stroke="#333" stroke-miterlimit="10" stroke-width="2"/></g></g></g><path id="Path_125" data-name="Path 125" d="M657 87H646a5 5 0 01-5-5h0a5 5 0 015-5h11z" fill="#ffc2c2" stroke="#333" stroke-linecap="round" stroke-linejoin="round" stroke-width="2"/><circle id="Ellipse_28" data-name="Ellipse 28" cx="1" cy="1" r="1" transform="translate(645 81)" fill="#fff" stroke="#333" stroke-linecap="round" stroke-linejoin="round" stroke-width="2"/></g></svg>