<svg height="800" width="800" id="_x35_" xmlns="http://www.w3.org/2000/svg" viewBox="0 0 512 512"><g><path style="fill:#91CFBD;" d="M334.992 18.045c-15.447 11.649-39.757 36.592-56.217 54.065h-.063c-1.709 1.836-3.355 3.545-4.875 5.191-7.724 8.293-12.915 13.991-12.915 13.991L169 88.886s10.066-4.621 25.386-11.459c3.672-1.709 7.723-3.482 11.965-5.381 42.544-19.055 108.7-48.113 128.641-54.001z"/><path style="fill:#91CFBD;" d="M510.29.319c-.316.57-.633 1.203-.886 1.836-.38.696-.697 1.393-1.013 2.152-9.496 19.815-27.349 56.09-38.491 78.628-.253.507-.506.95-.76 1.456-5.318 10.889-8.99 18.233-8.99 18.233-10.636.0-28.552-2.089-47.29-4.748-9.686-1.393-19.625-2.976-28.868-4.495-16.967-2.722-31.78-5.444-39.251-6.711 4.938.127 14.307-1.266 31.02-7.787 1.203-.443 2.406-.95 3.672-1.52 3.672-1.709 7.47-3.735 11.269-6.141 26.715-16.65 55.52-47.924 63.18-55.964 8.673-9.053 17.663-16.017 50.139-15.193 1.076.063 2.279.063 3.419.126C508.391.192 509.341.256 510.29.319z"/><path style="fill:#FFFFFF;" d="M476.928 91.482c0 3.419-3.229 10.825-7.787 19.562-1.076 2.153-2.279 4.431-3.545 6.71-.949 1.773-1.962 3.609-2.975 5.445-6.394 11.269-13.295 22.474-17.283 28.805-1.962 3.229-3.228 5.191-3.228 5.191-16.017 6.267-32.413 11.395-49.697 12.408-14.94.95-30.007.633-45.011.76-6.267.063-12.598.063-18.929.063-10.952.063-21.904.063-32.857.063-8.293.0-18.676.0-30.134-.063-17.663.0-38.111-.063-58.179-.126-5.887.0-11.712.0-17.473-.063h-11.015c-17.473-.063-33.426-.063-45.265-.063-27.665.0-10.762.443-38.427.063-13.358-.19-55.014-1.836-73.183-3.165-4.622-.316-7.66-.697-8.42-.95-5.381-1.963-11.395-6.141-12.978-11.965-.19-.696-.38-1.393-.443-2.152-.253-2.026.0-4.115.633-6.141.76-3.102 2.342-6.204 3.988-8.99.886-1.456 1.773-2.786 2.596-4.052 3.102-4.621 6.52-9.876 10.256-15.067 4.874-6.9 10.382-13.738 16.523-19.055 3.545-3.039 7.217-5.571 11.205-7.28 7.787-3.419 16.523-4.875 24.816-6.204 12.091-1.963 24.247-3.165 36.465-4.178 43.365-3.609 53.241-3.609 87.807-3.609h17.916c15.194-.063 37.668-.126 61.535-.126 35.262-.063 73.563-.063 95.974.063h9.623c13.738.0 27.538.0 41.15 1.203 13.737 1.266 36.592 1.583 48.556 5.825C473.889 86.037 476.928 88.316 476.928 91.482z"/><path style="fill:#91CFBD;" d="M465.595 117.754c-.949 1.773-1.962 3.609-2.975 5.445-6.394 11.269-13.295 22.474-17.283 28.805H.097c-.253-2.026.0-4.115.633-6.141.76-3.102 2.342-6.204 3.988-8.99.886-1.456 1.773-2.786 2.596-4.052 3.102-4.621 6.52-9.876 10.256-15.067H465.595z"/><path style="fill:#6B6C6B;" d="M80.624 98.699l-8.483 17.093-.95 1.962-9.56 19.119H4.718c.886-1.456 1.773-2.786 2.596-4.052 3.102-4.621 6.52-9.876 10.256-15.067 4.874-6.9 10.382-13.738 16.523-19.055H80.624z"/><path style="fill:#84C5AF;" d="M142.488 150.719s154.443 46.722 250.33 75.409c-25.138-33.45-94.267-75.409-94.267-75.409H142.488z"/><path style="fill:#84C5AF;" d="M401.909 117.929c0-5.645.0-8.154 6.763-8.154s91.868 1.882 97.691 2.509c5.824.627 5.636 5.645 5.636 5.645s-73.644 8.154-81.723 8.154C422.198 126.083 401.909 132.983 401.909 117.929z"/><circle style="fill:#FFFFFF;" cx="129.552" cy="117.789" r="20.951"/><circle style="fill:#FFFFFF;" cx="188.776" cy="117.789" r="20.951"/><circle style="fill:#FFFFFF;" cx="248" cy="117.789" r="20.951"/><circle style="fill:#FFFFFF;" cx="307.223" cy="117.789" r="20.951"/><g><path style="fill:#FFFFFF;" d="M268.866 151.575c-6.137-5.786-22.617-22.66-54.176-22.66-7.265.0-17.452 1.841-24.853 4.898v51.217c7.401 3.058 17.588 4.899 24.853 4.899 31.559.0 48.039-16.875 54.176-22.661.306-.613.6-3.924.491-7.847C269.466 155.499 269.173 152.188 268.866 151.575z"/><path style="fill:#E0E0E0;" d="M182.079 138.601c-3.463 4.34-3.463 8.066-3.463 20.82.0 12.755.0 16.481 3.463 20.821 1.682 1.804 4.442 3.417 7.758 4.788v-51.217C186.521 135.184 183.761 136.797 182.079 138.601z"/></g><g><circle style="fill:#F7C5C6;" cx="129.552" cy="117.789" r="18.061"/><circle style="fill:#F7C5C6;" cx="188.776" cy="117.789" r="18.061"/><circle style="fill:#F7C5C6;" cx="248" cy="117.789" r="18.061"/><circle style="fill:#F7C5C6;" cx="307.223" cy="117.789" r="18.061"/></g></g></svg>