<svg width="800" height="800" viewBox="0 0 64 64" xmlns="http://www.w3.org/2000/svg"><g fill="none" fill-rule="evenodd"><polygon fill="#B4DFFB" points="31 7 40 7 49 30 34 30"/><polygon fill="#B4DFFB" points="31 36 40 36 49 59 34 59" transform="matrix(1 0 0 -1 0 95)"/><path fill="#4796E7" d="M4 27H56.9906816C60.3095365 27 63 29.6930342 63 33c0 3.3137085-2.6884199 6-6.0093184 6H4V27z"/><path fill="#FFAF40" d="M57 37c2.209139.0 4-1.790861 4-4s-1.790861-4-4-4v8z"/><polygon fill="#B4DFFB" points="19 31 19 35 1 33" transform="matrix(-1 0 0 1 20 0)"/><polygon fill="#B4DFFB" points="10 19 14.5 19 19 30 11.5 30"/><polygon fill="#B4DFFB" points="10 36 14.5 36 19 47 11.5 47" transform="matrix(1 0 0 -1 0 83)"/></g></svg>