<svg id="_x35_" xmlns="http://www.w3.org/2000/svg" viewBox="0 0 512 512"><g><g><g><circle style="fill:#F5DDB2;" cx="55.093" cy="199.192" r="49.443"/><circle style="fill:#F5DDB2;" cx="77.402" cy="153.987" r="49.443"/><circle style="fill:#F5DDB2;" cx="135.507" cy="203.43" r="49.443"/><circle style="fill:#F5DDB2;" cx="112.303" cy="104.536" r="49.443"/><circle style="fill:#F5DDB2;" cx="211.79" cy="203.43" r="49.443"/><circle style="fill:#F5DDB2;" cx="245.792" cy="94.657" r="49.443"/><circle style="fill:#F5DDB2;" cx="177.279" cy="94.657" r="49.443"/><circle style="fill:#F5DDB2;" cx="196.349" cy="144.1" r="49.443"/><circle style="fill:#F5DDB2;" cx="146.906" cy="153.979" r="49.443"/><circle style="fill:#F5DDB2;" cx="291.698" cy="179.415" r="49.443"/><circle style="fill:#F5DDB2;" cx="346.088" cy="206.255" r="49.443"/><circle style="fill:#F5DDB2;" cx="362.027" cy="187.892" r="49.443"/><circle style="fill:#F5DDB2;" cx="289.511" cy="226.032" r="49.443"/><path style="fill:#F5DDB2;" d="M401.185 124.304c0 1.876-.078 3.751-.312 5.626-.156 1.642-.391 3.283-.703 4.845-.078.548-.157 1.016-.312 1.563-.313 1.485-.704 2.971-1.173 4.377-.547 1.719-1.172 3.438-1.875 5.08-.625 1.642-1.407 3.204-2.266 4.767v.078h-.078c-3.908 7.267-9.456 13.52-16.099 18.209-9.066 6.641-20.163 10.549-32.276 10.549-1.641.0-3.283-.078-4.923-.312-6.565-.468-12.816-2.188-18.443-4.923-2.423-1.094-4.689-2.345-6.877-3.829-.704-.391-1.407-.859-2.032-1.484-2.188-1.485-4.22-3.205-6.096-5.003-9.065-8.83-15.083-20.631-16.411-33.838-.235-1.876-.312-3.751-.312-5.705.0-1.016.0-2.032.156-3.048 1.485-28.993 25.555-52.046 54.939-52.046h.391l14.301 2.032c9.612 2.578 18.131 7.815 24.773 14.769.469.469.938.861 1.328 1.329.391.39.703.703.938 1.094.156.156.313.391.469.547 1.329 1.485 2.423 2.97 3.439 4.532.782 1.095 1.485 2.188 2.11 3.361.313.547.625 1.094.938 1.642 1.563 2.969 2.891 6.095 3.907 9.378.157.547.313 1.093.391 1.641.0.0.078.0.078.078.391 1.251.704 2.501.938 3.829C400.795 116.957 401.185 120.553 401.185 124.304z"/><path style="fill:#F5DDB2;" d="M346.794 74.914c0 26.102-18.208 47.983-42.591 53.609-3.985 1.017-8.206 1.485-12.504 1.485h-.391c-3.439.0-6.799-.39-10.003-1.016-7.815-1.484-15.004-4.61-21.178-8.986-6.408-4.455-11.801-10.238-15.708-16.959-.938-1.407-1.719-2.892-2.423-4.454-3.439-7.191-5.392-15.24-5.392-23.679.0-10.941 3.204-21.101 8.753-29.697 4.767-7.58 11.488-13.911 19.381-18.287 7.971-4.531 17.115-7.111 26.961-7.111 22.429.0 41.732 13.363 50.25 32.588l4.533 16.803C346.715 71.085 346.794 72.96 346.794 74.914z"/><circle style="fill:#F5DDB2;" cx="55.093" cy="136.321" r="55.093"/><circle style="fill:#F5DDB2;" cx="86.064" cy="100.308" r="55.093"/><circle style="fill:#F5DDB2;" cx="141.158" cy="62.967" r="55.093"/><circle style="fill:#F5DDB2;" cx="217.441" cy="55.093" r="55.093"/><circle style="fill:#F5DDB2;" cx="273.736" cy="167.504" r="49.443"/><g><polygon style="fill:#D6A048;" points="88.59,488.164 41.701,488.164 34.902,436.664 19.741,320.848 5.674,214.096 62.879,214.096 66.005,247.388 68.349,272.24 79.603,391.963 87.809,479.646"/><polygon style="fill:#FFFFFF;" points="135.507,488.161 88.589,488.161 62.86,214.121 120.07,214.121"/><polygon style="fill:#D6A048;" points="182.425,488.161 135.507,488.161 120.07,214.121 177.279,214.121"/><polygon style="fill:#FFFFFF;" points="229.343,488.161 182.425,488.161 177.279,214.121 234.489,214.121"/><polygon style="fill:#D6A048;" points="276.261,488.161 229.343,488.161 234.489,214.121 291.698,214.121"/><polygon style="fill:#FFFFFF;" points="323.179,488.161 276.261,488.161 291.698,214.121 348.908,214.121"/><polygon style="fill:#D6A048;" points="370.097,488.161 323.179,488.161 348.908,214.121 406.117,214.121"/></g><rect x="41.701" y="480.818" style="fill:#F2F2F2;" width="328.459" height="31.182"/></g></g><path style="opacity:0.3;fill:#E3991A;" d="M249.102 73.698c0-6.089-4.982-11.07-11.071-11.07-3.305.0-6.248 1.497-8.281 3.812-1.783-3.738-5.572-6.355-9.969-6.355-3.026.0-5.776 1.234-7.779 3.219-2.004-1.985-4.753-3.219-7.779-3.219-6.089.0-11.071 4.982-11.071 11.07.0 5.32 3.803 9.792 8.825 10.838-.234.893-.398 1.812-.398 2.775.0 6.089 4.982 11.07 11.071 11.07 2.978.0 5.68-1.204 7.675-3.134 1.077.352 2.204.592 3.395.592.064.0.124-.018.188-.019 2.017 2.776 5.264 4.607 8.937 4.607 6.089.0 11.071-4.981 11.071-11.07.0-1.211-.246-2.358-.609-3.451C246.737 81.476 249.102 77.869 249.102 73.698z"/><path style="opacity:0.3;fill:#E3991A;" d="M304.453 163.564c2.755 5.736 9.702 8.175 15.438 5.42 3.113-1.495 5.209-4.237 6.077-7.339 3.371 2.715 8.125 3.466 12.267 1.477 2.851-1.369 4.883-3.776 5.872-6.552 2.786.963 5.934.882 8.785-.487 5.736-2.755 8.175-9.702 5.421-15.438-2.407-5.012-8.014-7.504-13.218-6.217-.183-.947-.445-1.887-.881-2.795-2.755-5.736-9.702-8.175-15.438-5.42-2.805 1.347-4.807 3.704-5.813 6.425-1.174.156-2.344.44-3.466.979-.06.029-.109.073-.169.103-3.156-1.702-7.044-1.958-10.504-.296-5.736 2.755-8.176 9.702-5.421 15.438.548 1.141 1.298 2.11 2.135 2.976C303.162 155.166 302.566 159.634 304.453 163.564z"/><path style="opacity:0.3;fill:#E3991A;" d="M74.517 136.069c-3.392 5.968-1.284 13.626 4.684 17.018 3.239 1.841 6.958 2.014 10.241.877-.335 4.657 1.921 9.333 6.231 11.783 2.966 1.686 6.349 2.008 9.418 1.178.858 3.062 2.865 5.803 5.831 7.489 5.968 3.392 13.627 1.285 17.019-4.683 2.964-5.214 1.728-11.717-2.612-15.539.727-.744 1.4-1.554 1.937-2.498 3.392-5.968 1.284-13.626-4.683-17.019-2.919-1.659-6.238-1.984-9.269-1.204-.86-.945-1.831-1.808-2.998-2.471-.063-.036-.132-.052-.195-.086-.43-3.844-2.593-7.448-6.193-9.494-5.968-3.392-13.626-1.285-17.018 4.682-.675 1.187-1.073 2.448-1.326 3.722C81.169 129.763 76.841 131.981 74.517 136.069z"/><path style="opacity:0.06;fill:#040000;" d="M41.701 488.165v5.001 10.237h10.238H370.16V487.93l35.949-273.833h-2.188c1.25-1.954 2.345-4.064 3.36-6.252.313-.782.625-1.563.938-2.344.86-2.266 1.641-4.611 2.11-7.112.234-.86.391-1.719.469-2.579.156-.391.235-.86.235-1.25.0-.156.078-.391.078-.547.078-.703.156-1.407.234-2.032.0-.078.0-.235.0-.313.078-1.25.156-2.501.156-3.751.0-1.407-.078-2.735-.156-4.142-.078-.469-.078-.938-.156-1.407-.078-1.094-.234-2.188-.547-3.282.0-.469-.156-.86-.234-1.328-.234-1.172-.469-2.345-.938-3.517.0-.078.0-.156.0-.234-.078-.234-.078-.547-.234-.782.0-.156-.078-.234-.156-.391-.234-.938-.547-1.797-.938-2.657-.234-.703-.469-1.407-.86-2.11.0-.078.0-.078-.078-.156-.313-.86-.703-1.719-1.172-2.501-.625-1.25-1.25-2.423-2.032-3.595-.625-1.016-1.25-2.032-2.032-2.97-.234-.391-.547-.782-.86-1.172-.703-1.016-1.485-1.954-2.423-2.813-.234-.391-.547-.703-.86-1.016l-.078-.078c-.781-.86-1.485-1.563-2.345-2.266-.234-.313-.547-.625-.86-.86v-.078c.86-1.563 1.641-3.126 2.266-4.767.703-1.641 1.328-3.36 1.875-5.08.469-1.407.86-2.892 1.172-4.376.156-.547.234-1.016.313-1.563.313-1.563.547-3.204.703-4.845.234-1.876.313-3.751.313-5.627.0-3.751-.391-7.346-1.094-10.863-.234-1.328-.547-2.579-.938-3.829.0-.078-.078-.078-.078-.078-.078-.547-.234-1.094-.391-1.641-1.016-3.282-2.344-6.408-3.907-9.378-.313-.547-.625-1.094-.938-1.641-.625-1.172-1.328-2.266-2.11-3.36-1.016-1.563-2.11-3.048-3.438-4.533-.156-.156-.313-.391-.469-.547-.625-.86-1.407-1.641-2.188-2.501l-.078.078-5.001 5.002-53.688 53.688-6.486 6.486-12.66 12.66-12.973 12.973-34.151 34.151-3.126 3.126-.469.469-16.724 16.724-6.252 6.252-14.692 14.692-40.559 40.559-51.344 51.344-47.827 47.827-44.701 44.701L41.701 488.165z"/></g></svg>