<svg id="_x36_" xmlns="http://www.w3.org/2000/svg" viewBox="0 0 512 512"><g><g><polygon style="fill:#FADBAB;" points="416.405,0 416.405,512 415.455,510.258 364.335,469.188 312.264,512 260.273,469.188 208.202,512 156.132,469.188 104.141,512 52.071,469.188 6.489,506.698 0,512 0,0"/><g><path style="fill:#C66C79;" d="M149.326 108.968c-.554-.553-1.108-.791-1.82-.791s-1.345.238-1.899.791c-.475.396-.871 1.425-1.346 3.007-.791 2.532-2.611 3.878-5.46 3.878-2.77.0-5.302-1.347-7.676-4.036-3.244-3.641-6.331-9.892-9.338-18.756-1.266-3.798-2.216-6.489-2.77-8.072-.396-.949-1.266-2.768-2.69-5.539 5.539-.87 9.813-2.849 12.899-6.014 3.165-3.165 4.748-6.568 4.748-10.209.0-.79-.079-1.582-.237-2.294-.554-2.77-2.216-4.906-4.906-6.489-3.403-1.978-7.755-3.008-13.057-3.008-5.619.0-11 1.346-16.143 3.878-5.065 2.612-8.863 5.856-11.395 9.813s-3.799 8.151-3.799 12.741c0 3.561.792 6.568 2.374 8.941 1.266 1.9 2.69 2.85 4.352 2.85.633.0 1.187-.238 1.661-.713.475-.474.712-1.028.712-1.582.0-.554-.158-1.029-.396-1.424-.317-.475-1.029-1.187-2.137-2.137-2.295-1.978-3.482-4.353-3.482-7.122.0-3.641 1.108-7.122 3.324-10.445 2.216-3.403 5.539-6.173 10.05-8.389 4.432-2.295 8.942-3.402 13.611-3.402 3.64.0 6.489.869 8.625 2.689 2.137 1.742 3.166 4.036 3.166 6.806.0 2.216-.554 4.274-1.662 6.093-.554 1.107-1.345 2.137-2.295 3.085-.95.951-1.899 1.662-3.007 2.216-1.899 1.108-4.115 1.661-6.489 1.661-1.029.0-2.216-.157-3.64-.395l3.324-13.137c.553-2.216 1.028-3.877 1.424-4.985-4.194 1.107-7.756 1.661-10.763 1.661l-.554 2.137c1.108.0 1.82.079 2.215.316.396.317.554.712.554 1.266s-.396 2.374-1.187 5.539l-6.172 24.848c-.317 1.425-.792 2.69-1.345 3.72-.554 1.345-1.267 2.294-2.058 3.006-.396.317-1.029.634-1.899 1.03-1.108.474-2.611.949-4.511 1.424l-.633 2.454 1.424-.238c2.532-.475 4.827-.792 6.805-.792 1.266.0 2.928.159 4.906.317 2.216.238 3.957.317 5.065.317s2.691-.158 4.669-.634l.396-2.137c-1.899.475-3.482.634-4.827.634-.792.0-1.978-.079-3.403-.317l3.719-14.719 2.295-8.863c.475-.079.871-.079 1.108-.079l1.108.079c.159.475.554 1.582 1.029 3.324.316.87.633 1.978.95 3.166 1.82 5.935 3.166 10.05 4.036 12.265 1.82 4.431 4.036 8.23 6.489 11.396 2.453 3.165 4.986 5.381 7.597 6.805 2.612 1.346 5.381 2.057 8.23 2.057 3.165.0 5.777-.79 7.834-2.453 1.978-1.661 3.007-3.403 3.007-5.223C150.039 110.076 149.801 109.443 149.326 108.968z"/><path style="fill:#C66C79;" d="M158.664 84.832c3.403-1.978 5.777-3.957 7.122-5.777 1.345-1.899 2.058-3.798 2.058-5.698.0-1.899-.554-3.323-1.662-4.353-1.187-1.028-2.77-1.582-4.827-1.582-6.014.0-11.237 3.561-15.511 10.684-3.877 6.33-5.777 12.582-5.777 18.991.0 3.086.554 5.382 1.662 6.806 1.108 1.424 2.69 2.136 4.827 2.136 5.143.0 11.395-3.481 18.596-10.366l-1.424-1.978c-3.798 2.849-6.648 4.748-8.547 5.618-1.504.713-2.849 1.029-4.036 1.029-1.266.0-2.215-.395-2.928-1.266-.633-.791-.949-2.295-.949-4.353.0-1.503.079-3.006.396-4.589C153.283 87.602 156.924 85.862 158.664 84.832zM151.068 77.314c.95-2.216 2.136-3.878 3.482-4.984 1.029-.792 2.136-1.188 3.244-1.188 1.029.0 1.899.317 2.611 1.109.633.711.95 1.741.95 3.006.0 1.741-.792 3.403-2.453 5.144-2.374 2.453-5.935 4.748-10.762 6.885C148.693 83.883 149.722 80.559 151.068 77.314z"/><path style="fill:#C66C79;" d="M200.922 68.768c-1.108-.87-2.77-1.266-4.986-1.266-3.482.0-6.648 1.029-9.417 3.086-3.561 2.611-6.568 6.409-9.021 11.396-2.532 4.905-3.798 9.733-3.798 14.402.0 2.849.633 5.144 1.82 6.964 1.108 1.899 3.007 2.77 5.619 2.77 4.827.0 10.762-2.77 17.805-8.309l-.87-2.533c-4.828 3.957-8.942 6.014-12.424 6.014-1.424.0-2.612-.634-3.403-1.82-1.108-1.503-1.662-3.64-1.662-6.49.0-3.798.712-7.597 1.978-11.395 1.345-3.798 2.691-6.331 4.115-7.676 1.424-1.266 2.849-1.978 4.352-1.978 1.108.0 2.532.554 4.194 1.503 1.662.95 3.007 1.425 4.036 1.425s1.899-.238 2.453-.87c.633-.555.87-1.266.87-2.216C202.584 70.588 202.03 69.559 200.922 68.768z"/><path style="fill:#C66C79;" d="M225.058 84.832c3.482-1.978 5.856-3.957 7.201-5.777 1.266-1.899 1.978-3.798 1.978-5.698.0-1.899-.554-3.323-1.662-4.353-1.108-1.028-2.77-1.582-4.827-1.582-6.014.0-11.238 3.561-15.51 10.684-1.741 2.848-3.086 5.697-4.036 8.546-1.187 3.482-1.741 6.885-1.741 10.445.0 3.086.554 5.382 1.661 6.806l.079.079c1.108 1.345 2.691 2.057 4.748 2.057 5.143.0 11.395-3.481 18.676-10.366l-1.504-1.978c-3.72 2.849-6.648 4.748-8.547 5.618-1.504.713-2.77 1.029-4.036 1.029s-2.215-.395-2.928-1.266c-.633-.791-.95-2.295-.95-4.353.0-1.503.079-3.006.396-4.589C219.677 87.602 223.317 85.862 225.058 84.832zM217.461 77.314c.95-2.216 2.137-3.878 3.482-4.984 1.108-.792 2.137-1.188 3.245-1.188 1.029.0 1.899.317 2.612 1.109.633.711.95 1.741.95 3.006.0 1.741-.792 3.403-2.453 5.144-2.374 2.453-5.935 4.748-10.683 6.885C215.166 83.883 216.116 80.559 217.461 77.314z"/><path style="fill:#C66C79;" d="M257.503 95.516c-3.957 3.64-6.41 5.539-7.28 5.539-.237.0-.475-.159-.712-.474-.238-.238-.317-.633-.317-1.029.0-2.137 1.583-8.468 4.748-18.993 1.899-6.489 2.849-10.129 2.849-10.921.0-.712-.238-1.345-.792-1.741-.475-.396-1.187-.634-2.136-.634-1.741.0-3.799.713-6.252 2.058-2.453 1.425-5.144 3.719-8.071 6.965l1.899 1.503c2.612-2.533 4.352-4.036 5.065-4.511.791-.474 1.424-.712 2.057-.712.475.0.791.317.791.87.0.555-.079 1.187-.316 1.82-4.431 14.403-6.647 23.503-6.647 27.223.0 1.108.316 2.058.87 2.69.633.634 1.424.95 2.453.95 1.187.0 2.77-.553 4.59-1.582 1.899-1.108 4.827-3.482 8.942-7.36L257.503 95.516zM261.223 49.301c-.633-.554-1.345-.869-2.295-.869-1.187.0-2.216.474-3.086 1.345-.792.95-1.267 2.058-1.267 3.402.0 1.03.317 1.821.871 2.454.633.634 1.345.95 2.215.95 1.187.0 2.137-.474 3.086-1.503.87-.95 1.345-2.137 1.345-3.403C262.093 50.725 261.777 49.934 261.223 49.301z"/><path style="fill:#C66C79;" d="M299.128 69.559c-1.029-1.424-2.295-2.137-3.798-2.137-2.374.0-4.906.871-7.676 2.691-1.662 1.107-4.748 3.878-9.259 8.388.95-3.324 1.583-5.461 1.741-6.409.237-.871.316-1.741.316-2.612.0-.712-.237-1.265-.633-1.661-.475-.317-1.029-.555-1.741-.555-1.978.0-4.274.792-6.964 2.374-2.691 1.503-5.302 3.877-8.072 7.122l1.741 1.741c3.719-3.798 6.172-5.697 7.518-5.697.712.0 1.107.395 1.107 1.187.0.712-.791 4.194-2.295 10.445l-8.072 33.711c-.554 2.611-1.424 4.431-2.453 5.382-1.029 1.028-2.611 1.661-4.906 1.899l-.554 2.216c4.432-.396 8.151-.554 10.921-.554 2.77.0 6.489.158 11.237.554l.554-2.216c-4.036-.475-6.726-1.108-7.993-1.82-.87-.475-1.266-1.266-1.266-2.374.0-.554.158-1.266.396-2.137l3.799-14.719c2.136 1.187 4.194 1.741 6.331 1.741 5.46.0 10.367-3.245 14.877-9.654 4.431-6.489 6.726-13.295 6.726-20.495C300.711 73.12 300.157 70.983 299.128 69.559zM290.344 94.724c-2.691 5.54-5.777 8.309-9.338 8.309-2.453.0-4.827-1.186-7.202-3.561l2.375-9.575c.949-3.798 1.899-6.49 2.928-7.993 1.424-2.137 3.561-4.353 6.331-6.49 1.741-1.345 3.324-2.058 4.748-2.058 1.266.0 2.295.396 3.086 1.266.712.87 1.108 2.216 1.108 3.878C294.38 83.725 293.035 89.185 290.344 94.724z"/><path style="fill:#C66C79;" d="M322.077 73.595h9.179l.712-3.166h-9.18l3.166-12.503-7.043 2.77-2.532 9.733h-7.201l-.791 3.166h7.201l-4.511 17.647c-1.108 4.353-1.662 7.676-1.662 9.813.0 1.741.317 3.086.95 3.877.633.792 1.504 1.187 2.611 1.187 1.266.0 3.086-.553 5.223-1.661 2.216-1.029 6.568-4.036 13.057-8.942l-1.661-2.058c-2.295 1.82-4.669 3.481-7.122 4.906-1.899 1.108-3.324 1.662-4.273 1.662-.554.0-1.029-.158-1.346-.554-.396-.317-.554-.87-.554-1.662.0-1.82.633-4.907 1.899-9.338L322.077 73.595z"/></g><path style="opacity:0.16;fill:#060203;" d="M411.894 11.001l-28.567 5.856c-.554-.792-.87-1.425-1.108-1.821l-.712-1.899c.95-1.029 4.036-3.878 9.179-8.546 1.82-1.662 3.482-3.166 4.985-4.59H380.24c-.95 1.109-1.978 2.454-3.165 3.957-.95-1.424-1.978-2.69-3.086-3.957H363.86c5.382 2.374 9.338 6.331 12.029 11.791.791 1.662 1.504 3.798 2.137 6.41l-24.453 4.986c-4.115.791-7.201 1.346-9.417 1.663 5.144 6.092 8.942 11.553 11.395 16.459l3.957-.711c-.87-1.821-1.266-3.087-1.187-3.957.158-.792.712-1.425 1.582-1.899.95-.396 4.353-1.267 10.209-2.533l46.293-9.654V10.05L411.894 11.001zM414.268 37.747c-.554-1.107-1.345-1.82-2.532-2.216-1.108-.395-2.216-.395-3.245.079-.791.475-1.504 1.03-1.978 1.82-.554.792-1.187 2.533-1.899 5.302-1.424 5.382-4.431 9.18-9.021 11.396-6.093 2.928-12.741 3.877-20.1 2.849-7.28-1.029-14.64-4.273-21.92-9.892-7.28-5.54-12.82-12.187-16.539-19.863-2.928-6.094-3.799-11.554-2.532-16.539 1.266-4.907 4.194-8.468 8.784-10.684h-17.251c-.238 1.03-.475 2.137-.554 3.324-.554 7.281 1.266 15.273 5.539 24.057 4.511 9.416 11 17.33 19.388 23.74 8.388 6.409 16.856 10.128 25.402 11.158 8.626 1.028 16.697-.317 24.294-3.957 5.856-2.85 10.208-6.569 12.978-11.238C415.139 43.524 415.535 40.359 414.268 37.747z"/><g><rect x="54.669" y="159.304" style="fill:#C66C79;" width="307.067" height="23.728"/><rect x="54.669" y="215.134" style="fill:#D2C69B;" width="212.132" height="16.749"/><rect x="54.669" y="256.577" style="fill:#D2C69B;" width="158.932" height="16.749"/><rect x="54.669" y="298.019" style="fill:#D2C69B;" width="158.932" height="16.749"/><rect x="54.669" y="339.461" style="fill:#D2C69B;" width="185.043" height="16.749"/><rect x="280.641" y="256.577" style="fill:#D2C69B;" width="76.399" height="16.749"/><rect x="299.801" y="215.134" style="fill:#D2C69B;" width="57.239" height="16.749"/><rect x="299.801" y="298.019" style="fill:#D2C69B;" width="57.239" height="16.749"/><rect x="290.397" y="339.461" style="fill:#D2C69B;" width="66.643" height="16.749"/></g><rect x="295.099" y="420.904" style="fill:#D2C69B;" width="66.643" height="25.124"/><rect x="31.639" y="402.655" style="fill:#D2C69B;" width="353.127" height="4.187"/></g><polygon style="opacity:0.1;fill:#040000;" points="416.405,0 416.405,512 415.455,510.258 364.335,469.188 312.264,512 260.273,469.188 208.202,512 208.202,0"/></g></svg>