<svg fill="#000" width="800" height="800" viewBox="0 0 24 24" id="receipt-add" data-name="Flat Line" xmlns="http://www.w3.org/2000/svg" class="icon flat-line"><path id="secondary" d="M21 4V18.5a2.5 2.5.0 01-5 0V16H5V4A1 1 0 016 3H20a1 1 0 011 1z" style="fill: rgb(44, 169, 188); stroke-width: 2;"/><path id="primary" d="M13 7v5m2.5-2.5h-5M21 4V18.5a2.5 2.5.0 01-5 0V16H5V4A1 1 0 016 3H20a1 1 0 011 1zM16 18.5V16H3v2.5A2.5 2.5.0 005.5 21h13A2.5 2.5.0 0116 18.5z" style="fill: none; stroke: rgb(0, 0, 0); stroke-linecap: round; stroke-linejoin: round; stroke-width: 2;"/></svg>