<svg height="800" width="800" id="_x35_" xmlns="http://www.w3.org/2000/svg" viewBox="0 0 512 512"><g><path style="fill:#E5AB9E;" d="M45.334 230.381c-18.877.0-20.453.0-31.465.0s-20.453 15.73-7.865 28.318c12.589 12.583 18.883 22.023 18.883 22.023l20.447-50.341z"/><path style="fill:#E5AB9E;" d="M482.717 304.324c-2.777 13.887-10.804 56.007-14.159 66.078-6.294 18.883-12.874 24.192-24.775 31.855-6.548 4.218-13.193 8.208-19.948 12.095l29.033-136.089C468.604 284.305 485.721 289.282 482.717 304.324z"/><g><path style="fill:#EBD0CE;" d="M450.7 277.44c-25.087-9.935-30.914-41.751-56.643-77.882-20.979-29.519-58.382-57.746-108.79-69.141-12.511-2.855-25.794-4.653-39.862-5.197-11.622-.441-22.764-.331-33.445.272-31.414 1.771-58.804 7.872-82.45 17.099-87.129 33.983-123.5 110.541-123.5 170.221.0 41.251 14.73 75.753 37.688 102.663l-.733-.24c8.663 11.018 37.48 51.374 44.515 70.017h67.986v-6.275c11.07 2.193 22.16 3.471 33.042 3.75 7.865.214 15.697.104 23.452-.221 19.221-.805 37.916-3.095 55.202-6.216v8.961h72.451c4.536-11.278 10.837-26.099 17.326-36.786 24.327-11.518 46.228-22.232 66.902-34.1l29.026-136.103C452.14 277.978 451.408 277.719 450.7 277.44z"/><path style="fill:#E5AB9E;" d="M333.254 500.988c-3.147 6.295-7.871 11.012-22.03 11.012s-22.024.0-31.466.0c-9.435.0-12.582-9.442-12.582-20.453.0-1.68.0-3.841.0-6.295h72.437C336.48 493.032 334.183 499.132 333.254 500.988z"/><path style="fill:#E5AB9E;" d="M311.224 500.203c7.495.0 9.559-1.31 10.739-3.147h-42.581c.26 1.538.603 2.557.876 3.147H311.224z"/><path style="fill:#E5AB9E;" d="M155.467 491.547c0 11.012-2.953 20.453-11.811 20.453s-16.242.0-29.531.0c-13.284.0-17.715-4.717-20.668-11.012-.876-1.856-3.03-7.956-5.97-15.736h67.98C155.467 487.705 155.467 489.866 155.467 491.547z"/><path style="fill:#E5AB9E;" d="M142.521 500.203c.253-.662.545-1.687.772-3.147H104.67c1.058 1.927 2.648 3.147 9.455 3.147h28.396z"/></g><circle style="fill:#E79898;" cx="332.664" cy="372.173" r="41.102"/><path style="fill:#F0F0F0;" d="M346.628 299.996c0 16.294 13.205 29.5 29.5 29.5 16.287.0 29.499-13.205 29.499-29.5.0-16.287-13.212-29.499-29.499-29.499C359.834 270.497 346.628 283.708 346.628 299.996z"/><path style="fill:#503D30;" d="M353.228 291.742c0 10.688 8.669 19.35 19.357 19.35s19.356-8.663 19.356-19.35c0-10.694-8.669-19.357-19.356-19.357S353.228 281.048 353.228 291.742z"/><path style="fill:#BC9B8F;" d="M129.511 142.591v12.27h.986c27.618-11.303 60.959-18.124 100.749-18.124 4.51.0 9.111.091 13.712.286 13.854.519 27.351 2.401 40.31 5.516v-12.122c-12.511-2.855-25.794-4.653-39.862-5.198C199.6 123.474 161.203 130.222 129.511 142.591z"/><g><path style="fill:#F0F0F0;" d="M67.157 264.3l-3.965-1.103 3.913 1.278L67.157 264.3l-3.965-1.103 3.913 1.278-.889-.292.882.312.007-.02-.889-.292.882.312c.007-.02.149-.403.415-.961.493-1.057 1.376-2.738 2.564-4.737 2.096-3.517 5.139-8.04 8.916-12.887 5.671-7.281 13.03-15.308 21.388-22.193 8.351-6.911 17.683-12.621 27.177-15.755 7.579-2.518 11.686-10.707 9.168-18.293s-10.707-11.693-18.286-9.175c-11.596 3.854-21.959 9.85-31.096 16.671-13.698 10.252-24.704 22.387-32.764 33.023-4.029 5.334-7.306 10.285-9.824 14.574-1.253 2.155-2.323 4.134-3.219 6.003-.447.941-.856 1.849-1.233 2.784-.37.941-.714 1.888-1.032 3.024-2.135 7.696 2.375 15.671 10.084 17.806C57.054 276.512 65.022 271.996 67.157 264.3z"/></g><path style="fill:#E5AB9E;" d="M303.151 170.708c7.482-11.648 16.463-32.354 26.93-40.122 10.473-7.76 29.914.0 29.914 11.654.0 11.648.0 32.355.0 44.002.0 11.648-32.906 18.118-50.855 11.648C291.186 191.421 303.151 170.708 303.151 170.708z"/><g><path style="fill:#D9B047;" d="M294.56 82.599c0 17.32-5.36 33.419-14.49 46.702-2.55 3.712-5.406 7.202-8.52 10.46-8.683-1.493-17.56-2.414-26.599-2.738-.519-.026-1.038-.052-1.557-.052-4.082-.163-8.163-.234-12.154-.234-6.606.0-13.024.188-19.279.565l-25.723 2.602c-9.721 1.434-18.954 3.322-27.734 5.613-3.42-2.9-6.606-6.113-9.533-9.533-12.245-14.419-19.61-33.042-19.61-53.386.0-45.546 37.053-82.599 82.6-82.599s82.599 37.054 82.599 82.6z"/><g><path style="fill:#EBD59D;" d="M274.781 82.599c0 16.853-6.632 32.121-17.436 43.399-4.088 4.296-8.78 8.001-13.951 10.973-4.082-.163-8.163-.234-12.154-.234-6.606.0-13.024.188-19.279.565l-25.723 2.602c-5.406-2.414-10.408-5.574-14.873-9.37-.681-.571-1.343-1.155-2.005-1.778-.046-.039-.091-.09-.143-.136-3.043-2.835-5.827-5.951-8.254-9.351-.565-.753-1.09-1.557-1.609-2.336-.753-1.129-1.46-2.31-2.122-3.491-.377-.662-.753-1.343-1.084-2.024-.143-.234-.286-.5-.376-.734-.377-.733-.734-1.46-1.064-2.199-.403-.87-.779-1.74-1.11-2.635-.234-.546-.448-1.116-.636-1.661-.357-.961-.688-1.934-.993-2.92-.169-.474-.305-.947-.422-1.441-.143-.448-.26-.895-.383-1.369-.019-.046-.045-.098-.045-.163-.189-.662-.331-1.324-.474-2.011-.117-.441-.208-.922-.279-1.389-.124-.454-.215-.895-.26-1.369v-.02c-.097-.545-.188-1.064-.26-1.609-.097-.52-.168-1.039-.214-1.558-.097-.662-.169-1.324-.214-1.985-.019-.091-.045-.208-.019-.325-.098-.688-.143-1.349-.169-2.037-.072-1.129-.091-2.259-.091-3.394.0-34.69 28.13-62.821 62.821-62.821 1.136.0 2.265.026 3.4.091.682.026 1.344.078 2.025.169.117-.026.24.0.331.026.545.039 1.09.091 1.629.162.098.0.169.0.26.02.591.078 1.181.142 1.771.24.071.0.162.019.234.045.259.026.499.072.759.117.072.0.117.0.188.026.539.071 1.064.188 1.583.312.513.065 1.013.181 1.506.298.688.143 1.35.286 2.011.48.065.0.117.019.162.038.474.124.922.241 1.37.377.493.123.967.266 1.44.428.986.312 1.96.636 2.926.993.539.189 1.11.403 1.649.636.967.383 1.934.779 2.88 1.227.656.286 1.318.617 1.96.948.233.091.493.233.726.376.688.331 1.369.708 2.031 1.084.286.143.545.305.824.474.474.26.922.545 1.37.831.195.117.383.234.571.376.26.163.539.325.798.494.357.233.708.467 1.064.726.234.143.448.286.662.48.493.298.993.681 1.486 1.058.279.188.565.422.85.636 1.155.902 2.291 1.843 3.374 2.809.733.636 1.415 1.298 2.102 1.986.707.681 1.389 1.362 2.051 2.096.071.045.117.124.162.162 10.346 11.212 16.666 26.151 16.666 42.6z"/><path style="fill:#C69A39;" d="M152.697 86.162c0-34.697 28.13-62.827 62.827-62.827 16.437.0 31.401 6.326 42.594 16.664-11.473-12.433-27.903-20.22-46.157-20.22-34.697.0-62.821 28.124-62.821 62.821.0 18.254 7.787 34.685 20.22 46.157-10.337-11.194-16.663-26.152-16.663-42.595z"/></g><g><path style="fill:#C69A39;" d="M238.624 56.377c-.279-.279-.584-.565-.87-.844-.071-.078-.116-.117-.162-.169-4.51-4.01-10.551-6.515-17.092-6.489h-23.737c-2.245.0-4.439.896-6.041 2.505-1.583 1.577-2.504 3.777-2.504 6.035v62.659c0 1.868.59 3.614 1.628 5.009.617.87 1.395 1.596 2.29 2.168 1.324.869 2.926 1.369 4.627 1.369 2.356.0 4.458-.941 6.016-2.479l.026-.02c1.558-1.557 2.498-3.685 2.498-6.047v-19.941H220.5c7.06.0 13.523-2.874 18.124-7.508 4.627-4.62 7.508-11.064 7.508-18.117C246.132 67.447 243.251 60.984 238.624 56.377zM226.541 68.459c1.558 1.558 2.505 3.66 2.505 6.048.0 2.382-.948 4.458-2.505 6.035-1.577 1.557-3.653 2.504-6.041 2.504h-15.197V65.961H220.5c1.914.0 3.64.617 5.055 1.681C225.906 67.875 226.236 68.154 226.541 68.459z"/><path style="fill:#D9B047;" d="M237.755 55.533c-.071-.078-.116-.117-.162-.169-.285-.305-.571-.61-.85-.896-4.627-4.626-11.096-7.501-18.124-7.501h-23.744c-2.245.0-4.465.915-6.041 2.498-1.609 1.603-2.504 3.796-2.504 6.042v62.659c0 2.829 1.369 5.36 3.517 6.917 1.421 1.038 3.14 1.648 5.029 1.648 4.718.0 8.54-3.848 8.54-8.565V98.244h15.204c7.027.0 13.497-2.881 18.124-7.501 4.62-4.627 7.501-11.096 7.501-18.15C244.244 66.078 241.765 60.062 237.755 55.533zm-34.34 8.514h15.204c2.382.026 4.458.947 6.035 2.504.331.331.642.707.902 1.09 1.012 1.389 1.603 3.089 1.603 4.951.0 2.408-.941 4.484-2.504 6.067-1.577 1.557-3.653 2.479-6.035 2.498h-6.658l-6.657-.019h-1.888V64.047z"/></g></g><path style="opacity:0.22;fill:#F0F0F0;" d="M211.961.0v137.302l-25.723 2.602c-9.721 1.434-18.954 3.322-27.734 5.613-3.42-2.9-6.606-6.113-9.533-9.533-12.245-14.419-19.61-33.042-19.61-53.386C129.361 37.053 166.414.0 211.961.0z"/></g></svg>