<svg width="800" height="800" viewBox="0 0 1024 1024" class="icon" xmlns="http://www.w3.org/2000/svg"><path d="M512 512m-480 0a480 480 0 10960 0 480 480 0 10-960 0z" fill="#FFF0C2"/><path d="M537.6 352m-102.4.0a102.4 102.4.0 10204.8.0 102.4 102.4.0 10-204.8.0z" fill="#FFE085"/><path d="M697.6 793.6h-12.8c-12.8.0-25.6-32-38.4-57.6-12.8 6.4-44.8 12.8-83.2 12.8h-25.6c-38.4-6.4-64-6.4-76.8-6.4.0 12.8-6.4 32-25.6 44.8-6.4 6.4-19.2 6.4-32 6.4s-32-6.4-38.4-6.4-6.4-6.4-6.4-12.8v-64c0-25.6-12.8-32-12.8-32-89.6-38.4-128-96-134.4-140.8-6.4-25.6-6.4-38.4.0-44.8 6.4-6.4 12.8-6.4 19.2-6.4h6.4c12.8.0 38.4-6.4 44.8-25.6 6.4-19.2 19.2-25.6 25.6-32h6.4V416c0-25.6-6.4-44.8-12.8-51.2V352c0-6.4 12.8-6.4 19.2-6.4 44.8 6.4 76.8 32 89.6 38.4 44.8-25.6 89.6-38.4 140.8-38.4 32 0 70.4.0 121.6 19.2C819.2 416 806.4 544 806.4 550.4c0 44.8-25.6 83.2-44.8 108.8-12.8 19.2-19.2 57.6-25.6 83.2.0 6.4.0 19.2-6.4 25.6 6.4 19.2-6.4 25.6-32 25.6zm-352-294.4c-6.4.0-12.8 6.4-12.8 12.8s6.4 19.2 19.2 19.2 12.8-6.4 12.8-19.2-6.4-12.8-19.2-12.8z" fill="#FFCA2E"/></svg>