<svg id="Uploaded to svgrepo.com" xmlns="http://www.w3.org/2000/svg" width="800" height="800" viewBox="0 0 32 32"><style>.isometric_een{fill:#F8F7C5;}
.isometric_elf{fill:#72C0AB;}
.isometric_dertien{fill:#225B49;}
.st0{fill:#FF7344;}
.st1{fill:#7BD6C4;}
.st2{fill:#F05A28;}
.st3{fill:#569080;}
.st4{fill:#F29227;}
.st5{fill:#225B49;}
.st6{fill:#BE1E2D;}
.st7{fill:#F28103;}
.st8{fill:#AD9A74;}
.st9{fill:#F2D76C;}
.st10{fill:#F5DF89;}
.st11{fill:#80CCBE;}</style><g><polygon class="isometric_elf" points="19.134,17.867 3,8.894 12.866,3.406 29,12.379"/><path class="isometric_een" d="M19.139 12.412c-1.763 1.018-4.632 1.013-6.406-.012s-1.784-2.68-.02-3.699 4.632-1.013 6.406.012S20.902 11.394 19.139 12.412zM13.658 4.446c-.413-.238-1.08-.239-1.49-.003-.41.237-.408.622.005.86s1.08.239 1.49.003S14.071 4.685 13.658 4.446zm6.095 11.365c-.413-.238-1.08-.239-1.49-.003-.41.237-.408.622.005.86s1.08.239 1.49.003S20.166 16.049 19.753 15.811z"/><polygon class="isometric_dertien" points="28.136,12.86 19.134,17.867 3.864,9.374 3,9.855 3.878,10.343 3,10.831 4.018,11.398 3,11.964 4.018,12.53 3,13.097 4.018,13.663 3,14.23 4.018,14.796 3,15.363 4.018,15.929 3,16.495 4.018,17.062 3,17.628 4.018,18.195 3,18.761 4.018,19.327 3,19.894 4.018,20.46 3,21.027 19.134,30 29,24.512 27.982,23.946 29,23.38 27.982,22.813 29,22.247 27.982,21.68 29,21.114 27.982,20.547 29,19.981 27.982,19.415 29,18.848 27.982,18.282 29,17.715 27.982,17.149 29,16.583 27.982,16.016 29,15.45 27.982,14.883 29,14.317 28.122,13.829 29,13.34"/></g></svg>