<svg width="800" height="800" viewBox="0 0 64 64" xmlns="http://www.w3.org/2000/svg"><g fill="none" fill-rule="evenodd"><path stroke="#979797" stroke-linecap="round" stroke-width="2" d="M14 25c1.6568542.0 3-2.6862915 3-6s-2.3431458-6-4-6-2 2.6862915-2 6 1.3431458 6 3 6zm37 0c1.6568542.0 3-2.6862915 3-6s-2.3431458-6-4-6-2 2.6862915-2 6 1.3431458 6 3 6z"/><rect width="62" height="29" x="1" y="21" fill="#ED9111"/><path fill="#E43535" d="M22.496 40.012C22.496 40.9480047 22.199003 41.7669965 21.605 42.469 21.010997 43.1710035 20.2760044 43.522 19.4 43.522c-1.7640088.0-3.0599959-.839991599999998-3.888-2.52-.9000045-.588002899999999-1.35-1.085998-1.35-1.494C14.162 39.303999 14.2879987 39.1360007 14.54 39.004 15.0320025 38.7399987 15.481998 38.608 15.89 38.608c.8880044.0 1.4819985.527994700000001 1.782 1.584C17.8160007 40.4800014 17.9659992 40.7679986 18.122 41.056 18.2780008 41.3440014 18.4879987 41.488 18.752 41.488c.7080035.0 1.062-.503994999999996 1.062-1.512C19.814 39.0759955 19.6520016 38.4700016 19.328 38.158 19.1839993 38.0259993 18.608005 37.7500021 17.6 37.33 16.795996 36.9939983 16.1480025 36.4180041 15.656 35.602 15.2119978 34.8579963 14.9840001 34.084004 14.972 33.28 14.9599999 31.9839935 15.2839967 30.832005 15.944 29.824c.696003499999998-1.0800054 1.5599948-1.62 2.592-1.62 1.200006.0 2.0759972.479995199999998 2.628 1.44C21.5240018 30.244003 21.7279998 30.9879956 21.776 31.876 21.9080007 32.3320023 21.974 32.7459981 21.974 33.118 21.974 33.3580012 21.9440003 33.5559992 21.884 33.712 21.7039991 34.1560022 21.3500026 34.378 20.822 34.378 20.425998 34.378 20.0660016 34.2340014 19.742 33.946 19.3819982 33.6339984 19.1600004 33.1960028 19.076 32.632 19.0399998 32.439999 19.0789994 32.248001 19.193 32.056 19.3070006 31.863999 19.364 31.7560001 19.364 31.732 19.364 31.7079999 19.3520001 31.6840001 19.328 31.66 19.3400001 31.5999997 19.346 31.5400003 19.346 31.48 19.346 31.1199982 19.1360021 30.9519999 18.716 30.976 18.307998 31.0000001 17.9900011 31.2699974 17.762 31.786 17.557999 32.2300022 17.4679999 32.7399971 17.492 33.316 17.5280002 34.3360051 18.1999935 35.1519969 19.508 35.764 20.5400052 36.2440024 21.253998 36.7179977 21.65 37.186 22.2140028 37.8580034 22.496 38.7999939 22.496 40.012zM33.404 39.328C33.3199996 39.4840008 33.1340014 39.5799998 32.846 39.616 32.8219999 39.616 32.5640025 39.6279999 32.072 39.652 32.1560004 40.1920027 32.4679973 40.863996 33.008 41.668 33.3200016 41.8960011 33.476 42.1959981 33.476 42.568 33.476 43.1560029 33.1160036 43.45 32.396 43.45 31.7119966 43.45 31.2440013 43.2760017 30.992 42.928 30.9079996 42.8079994 30.8540001 42.646001 30.83 42.442 30.83 42.3099993 30.8240001 42.1720007 30.812 42.028 30.7039995 41.9199995 30.3800027 41.2240064 29.84 39.94 28.8559951 40.0840007 27.6440072 40.2879987 26.204 40.552 26.0599993 40.9000017 25.9040008 41.4039967 25.736 42.064 25.7600001 42.1840006 25.772 42.2979995 25.772 42.406 25.772 42.7300016 25.6640011 42.9789991 25.448 43.153 25.2319989 43.3270009 24.9740015 43.414 24.674 43.414 24.3379983 43.414 24.0260014 43.2880013 23.738 43.036 23.4499986 42.7839987 23.306 42.4900017 23.306 42.154 23.306 41.8539985 23.4439986 41.5840012 23.72 41.344 24.6200045 36.7719771 25.7119936 32.9920149 26.996 30.004 26.9719999 29.8599993 26.96 29.7160007 26.96 29.572 26.96 28.971997 27.163998 28.576001 27.572 28.384 27.7400008 28.3119996 27.9559987 28.276 28.22 28.276 28.7240025 28.276 29.1439983 28.3539992 29.48 28.51 29.9120022 28.7260011 30.128 29.0499978 30.128 29.482 30.128 29.878002 30.0200011 30.2319984 29.804 30.544 30.0320011 32.5840102 30.5239962 34.9359867 31.28 37.6 31.3520004 37.5879999 31.5979979 37.5280005 32.018 37.42 32.2700013 37.3479996 32.4619993 37.312 32.594 37.312 32.7500008 37.312 32.8759995 37.3479996 32.972 37.42 33.3920021 37.7440016 33.602 38.1399977 33.602 38.608 33.602 38.8600013 33.5360007 39.0999989 33.404 39.328zm-4.32-1.368C28.879999 37.2039962 28.5560022 35.7520107 28.112 33.604 27.2599957 35.4640093 26.7560008 37.0599933 26.6 38.392L29.084 37.96zm12.492 2.268C41.6480004 40.3720007 41.684 40.5339991 41.684 40.714 41.684 41.0140015 41.5910009 41.3019986 41.405 41.578 41.2189991 41.8540014 41.0030012 42.0369995 40.757 42.127 40.5109988 42.2170005 40.1600023 42.262 39.704 42.262S38.918001 42.2919997 38.714 42.352C38.509999 42.4120003 38.2760013 42.5979984 38.012 42.91 37.7839989 43.1620013 37.3880028 43.3299996 36.824 43.414 36.4759983 43.4620002 36.1220018 43.3420014 35.762 43.054S35.1560007 42.4120021 35.024 41.992C34.9999999 41.9079996 34.988 41.8300004 34.988 41.758 34.988 41.6019992 35.0749991 41.428001 35.249 41.236 35.4230009 41.043999 35.5040001 40.8760007 35.492 40.732l-.756-10.908C34.736 29.7759998 34.6730006 29.6650009 34.547 29.491 34.4209994 29.3169991 34.358 29.1700006 34.358 29.05 34.358 28.8819992 34.4479991 28.7200008 34.628 28.564 34.8800013 28.3359989 35.2399977 28.222 35.708 28.222 36.104002 28.222 36.4849982 28.3059992 36.851 28.474S37.4479995 28.8399989 37.544 29.068C37.6040003 29.2000007 37.634 29.3139995 37.634 29.41 37.634 29.5180005 37.5800005 29.6259995 37.472 29.734 37.3639995 29.8420005 37.3159999 29.9439995 37.328 30.04L37.976 39.976 39.056 39.544C39.2840011 39.4359995 39.5149988 39.3310005 39.749 39.229 39.9830012 39.1269995 40.1779992 39.076 40.334 39.076 40.7660022 39.076 41.179998 39.4599962 41.576 40.228zm7.344-9.864C48.6439986 30.5920011 48.2900022 30.706 47.858 30.706 47.6779991 30.706 47.4680012 30.6880002 47.228 30.652 46.8799983 30.7600005 46.5680014 30.8679995 46.292 30.976c-.672003400000001.2520013-1.1159989.4679991-1.332.648C44.8879996 32.8720062 44.8879996 34.299992 44.96 35.908 45.0320004 35.8599998 45.2119986 35.8120002 45.5 35.764 45.6440007 35.5119987 45.8899983 35.386 46.238 35.386S46.9909977 35.5539983 47.453 35.89C47.9150023 36.2260017 48.146 36.5559984 48.146 36.88 48.146 36.9640004 48.1280002 37.0479996 48.092 37.132 47.9479993 37.4920018 47.7260015 37.7199995 47.426 37.816 47.2459991 37.8760003 46.9820017 37.8910001 46.634 37.861 46.2859983 37.8309998 46.0640005 37.8399998 45.968 37.888 45.6919986 38.0200007 45.356002 38.1759991 44.96 38.356 44.96 39.4360054 44.9959996 40.1319984 45.068 40.444 45.5720025 40.3239994 45.9919983 40.1800008 46.328 40.012 46.3880003 39.9279996 46.4479997 39.8500004 46.508 39.778 46.6280006 39.6459993 46.8439984 39.5919999 47.156 39.616 47.4920017 39.6400001 47.8399982 39.8319982 48.2 40.192 48.5600018 40.5520018 48.74 40.9179981 48.74 41.29 48.74 41.6140016 48.6020014 41.8539992 48.326 42.01S47.5880032 42.2200002 46.94 42.172L45.248 43.018C45.1759996 43.0540002 45.0200012 43.173999 44.78 43.378 44.5999991 43.5340008 44.4380007 43.612 44.294 43.612 44.2459998 43.612 44.1920003 43.6060001 44.132 43.594 43.4959968 43.401999 42.9200026 42.904004 42.404 42.1 42.3679998 42.0399997 42.35 41.9680004 42.35 41.884 42.35 41.8479998 42.4159993 41.6080022 42.548 41.164 42.4159993 37.6719825 42.3919996 33.9520197 42.476 30.004 42.3919996 29.8839994 42.35 29.7640006 42.35 29.644 42.35 29.247998 42.7159963 28.9960005 43.448 28.888 43.6040008 28.8639999 43.8019988 28.9059995 44.042 29.014 44.1980008 29.0980004 44.3479993 29.1759996 44.492 29.248L46.652 28.564C46.7000002 28.5519999 46.8379989 28.4800007 47.066 28.348 47.2220008 28.2519995 47.401999 28.204 47.606 28.204 47.7020005 28.204 47.8159993 28.2159999 47.948 28.24 48.2120013 28.2880002 48.4729987 28.4949982 48.731 28.861 48.9890013 29.2270018 49.118 29.5719984 49.118 29.896 49.118 30.100001 49.0520007 30.2559995 48.92 30.364z"/></g></svg>