<svg id="Uploaded to svgrepo.com" xmlns="http://www.w3.org/2000/svg" width="800" height="800" viewBox="0 0 32 32"><style>.duotone_twee{fill:#555D5E;}
.duotone_een{fill:#0B1719;}
.st0{fill:none;}</style><g><path class="duotone_twee" d="M12 21h8v1h-8V21zM27.5 10h-23c-.275.0-.5.205-.5.48V21h7v-.5c0-.276.224-.5.5-.5h9c.276.0.5.224.5.5V21h7V10.48C28 10.205 27.775 10 27.5 10z"/><path class="duotone_een" d="M28 22v5.492C28 27.767 27.775 28 27.5 28h-23C4.225 28 4 27.767 4 27.492V22h7v.5c0 .276.224.5.5.5h9c.276.0.5-.224.5-.5V22h7zM19.5 5h-7C10.156 5 8 5.758 8 9.996h2C10 6.977 11.146 7 12.5 7h7C20.854 7 22 6.977 22 9.996h2C24 5.758 21.844 5 19.5 5z"/></g></svg>