<svg width="800" height="800" viewBox="0 0 72 72" xmlns="http://www.w3.org/2000/svg"><g fill="none" fill-rule="evenodd"><path d="M36 72c19.882251.0 36-16.117749 36-36 0-19.882251-16.117749-36-36-36-19.882251 365231026e-23-36 16.117749-36 36C24348735e-22 55.882251 16.117749 72 36 72z" fill="#4A4A4A"/><path d="M21.855 43.51c1.826.0 3.508-.625 4.842-1.672l14.906 7.359C41.603 49.227 41.601 49.254 41.601 49.283c0 4.338 3.518 7.856 7.856 7.856 4.337.0 7.855-3.518 7.855-7.856.0-4.337-3.518-7.855-7.855-7.855-2.309.0-4.383.994-5.819 2.578L29.582 37.067C29.664 36.61 29.71 36.139 29.71 35.656 29.71 35.559 29.707 35.463 29.703 35.367l14.541-7.636c1.388 1.23 3.213 1.98 5.213 1.98 4.339.0 7.855-3.517 7.855-7.855.0-4.34-3.518-7.856-7.855-7.856-4.338.0-7.856 3.516-7.856 7.856C41.601 22.18 41.625 22.498 41.662 22.811l-14.129 7.42c-1.43-1.496-3.444-2.43-5.678-2.43-4.338.0-7.855 3.518-7.855 7.855.0 4.338 3.517 7.854 7.855 7.854" fill="#FFF"/></g></svg>