<svg width="800" height="800" viewBox="0 0 1024 1024" class="icon" xmlns="http://www.w3.org/2000/svg"><path d="M879.840018 314.964532H402.910138v-62.165198c0-39.813781-28.073912-76.059321-67.887693-76.059321h-45.948901c-28.954453.0-52.512007 24.799526-52.512007 53.75398s23.557554 53.75398 52.512007 53.753979h29.877997v-26.621018h-29.877997c-14.48081.0-26.256515-12.14328-26.256516-26.621019s11.775705-26.621018 26.256516-26.621018h45.948901c25.332971.0 43.314445 23.077351 43.314445 48.414417v351.924745h24.573248V342.609436h476.928856c14.48081.0 22.727183 13.865455 22.727183 28.343193v98.460909c0 10.663766-5.47881 26.846273-13.4344 33.952037L745.387493 630.471723c-8.294495 7.409858-25.091334 12.136113-36.2138 12.136113H453.17574c-39.813781.0-74.837826 36.425744-74.837826 76.239525v7.818388c-32.76433 6.198602-57.759419 35.625066-57.759419 70.950134.0 39.813781 33.048971 70.559009 72.862752 70.559009 35.325068.0 65.410914-26.934327 71.608491-60.722543h173.174845c6.197578 33.788216 35.625066 60.722543 70.950133 60.722543 39.813781.0 72.204393-31.568432 72.204394-71.382213s-32.390612-73.62145-72.204394-73.62145c-35.325068.0-64.751532 26.943542-70.950133 57.660102h-43.846865v-30.71656h33.788215v-26.621018h-157.67834v26.621018h32.764331v30.71656h-38.202186c-5.41021-24.573248-28.350361-48.755371-62.138576-54.166605v-7.818389c0-25.332971 24.931608-48.594621 50.264578-48.594621h255.997953c17.531988.0 41.506263-7.824532 54.583326-19.496825L906.80199 522.28288c13.666821-12.201641 22.385205-34.553058 22.385205-52.870366v-98.460909c0-28.953429-20.392724-55.987073-49.347177-55.987073zM709.173693 751.668005c25.332971.0 45.948902 20.614907 45.948901 45.948902.0 25.332971-20.614907 45.948902-45.948901 45.948902s-45.948902-20.614907-45.948902-45.948902c.001024-25.332971 20.615931-45.948902 45.948902-45.948902zm-181.349545-1.55221h39.931527v30.71656h-39.931527v-30.71656zm-87.776665 47.501112c0 25.332971-20.614907 45.948902-45.948902 45.948902-25.332971.0-45.948902-20.614907-45.948902-45.948902.0-25.332971 20.614907-45.948902 45.948902-45.948902 25.333995.0 45.948902 20.615931 45.948902 45.948902z" fill="#262626"/><path d="M374.407218 797.616907c0 10.859328 8.833059 19.692386 19.692387 19.692386s19.692386-8.833059 19.692386-19.692386-8.833059-19.692386-19.692386-19.692387-19.692386 8.833059-19.692387 19.692387zM709.173693 817.309293c10.859328.0 19.692386-8.833059 19.692386-19.692386s-8.833059-19.692386-19.692386-19.692387-19.692386 8.833059-19.692387 19.692387 8.834083 19.692386 19.692387 19.692386zM88.577343 369.230454h236.51751v26.621019H88.577343zm64.504776 104.436303h172.012734v26.621019H153.082119zM220.65855 578.10306h104.436303v26.621019H220.65855z" fill="#262626"/><path d="M497.107588 395.851473h24.573248v208.872606h-24.573248zm104.436303.0h26.621019v208.872606h-26.621019zm91.1257939999999.0h26.621018v176.108276h-26.621018zm92.149679.0h26.621019v111.6035h-26.621019z" fill="#FF4C48"/><path d="M442.841666 160.902555c0-7.220439 9.67674-14.879102 16.897179-14.879102H591.020398c7.220439.0 10.523493 7.658662 10.523493 14.879102v116.17822H442.841666V160.902555zM770.48497 277.080775H639.427648v-50.537956c0-7.220439 10.012575-16.01459 17.233014-16.01459h105.025037c7.220439.0 8.79927 8.794151 8.799271 16.01459v50.537956z" fill="#E0E0E0"/></svg>