<svg width="800" height="800" viewBox="0 0 1024 1024" class="icon" xmlns="http://www.w3.org/2000/svg"><path d="M276.5 529.5l499.4 1.8-25.7 148.4H316.9z" fill="#8CAAFF"/><path d="M222.7 356.9 852.3 359.2l-32.4 181.4H273.6z" fill="#FFF"/><path d="M399.4 314.9h55.4v347.3h-55.4zm194 0h55.4v347.3h-55.4z" fill="#333"/><path d="M254.3 544.3v-53.1h538.1v53.1z" fill="#333"/><path d="M207.8 221.1l128.7 463.2c3.8 13.9-4.3 28.2-18.2 32-.1.0-.1 1-.2 1v-1c-14 3.8-28.4-4.5-32.3-18.5L157.1 234.6c-3.8-13.9 4.3-28.2 18.2-32h.2c14-3.8 28.4 4.5 32.3 18.5z" fill="#333"/><path d="M75.6 201.6h107.2c14.7.0 26.6 11.9 26.6 26.6v2.5c0 14.7-11.9 26.6-26.6 26.6H75.6c-14.7.0-26.6-11.9-26.6-26.6v-2.5c.1-14.7 11.9-26.6 26.6-26.6z" fill="#333"/><path d="M301.4 792.8a51.2 48.7.0 10102.4.0 51.2 48.7.0 10-102.4.0z" fill="#333"/><path d="M635.2 792.8a51.2 48.7.0 10102.4.0 51.2 48.7.0 10-102.4.0z" fill="#333"/><path d="M315.6 662.2h429.3c14.7.0 26.8 11.4 27.8 26.1l.1 1.7c.9 14.4-10.1 26.9-24.5 27.8-.5.0-1.1.1-1.6.1H313.9c-14.5.0-26.2-11.7-26.2-26.2.0-.5.0-1.1.1-1.6l.1-1.7c.9-14.8 13.1-26.2 27.7-26.2zM235.4 314.9H845.7c14.7.0 26.6 11.9 26.6 26.6V344c0 14.7-11.9 26.6-26.6 26.6H235.4c-14.7.0-26.6-11.9-26.6-26.6v-2.5c.1-14.7 12-26.6 26.6-26.6z" fill="#333"/><path d="M849.2 317.2l.8.2c15.4 4.1 24.5 19.7 20.4 34.9v.2l-95.6 343.9c-4.2 15.1-20 24-35.3 20l-.8-.2c-15.4-4.1-24.5-19.7-20.4-34.9v-.2l95.6-343.9c4.2-15.2 20-24.1 35.3-20z" fill="#333"/></svg>