<svg height="800" width="800" id="_x35_" xmlns="http://www.w3.org/2000/svg" viewBox="0 0 512 512"><g><g><path style="fill:#CDB183;" d="M512 141.048c0 32.919-19.196 63.288-51.365 87.283v201.036c0 25.57-20.921 46.491-46.491 46.491H126.8c-25.645.0-46.566-20.921-46.566-46.491V224.881c-18.221-14.472-31.869-31.119-39.592-49.19-4.799-11.098-7.348-22.72-7.348-34.643.0-65.537 75.735-120.577 178.465-136.398 8.548-1.35 17.322-2.4 26.245-3.149 11.323-.975 22.87-1.5 34.643-1.5 72.736.0 137.823 19.121 181.764 49.265 18.221 12.522 32.768 26.919 42.667 42.667C506.751 107.229 512 123.801 512 141.048z"/><path style="fill:#F9D899;" d="M478.706 142.472c0 32.994-19.196 63.288-51.365 87.283v201.036c0 21.67-14.997 39.967-35.093 45.066-3.6.974-7.499 1.499-11.398 1.499H93.507c-4.274.0-8.398-.6-12.298-1.725-15.822-4.274-28.269-16.722-32.543-32.544-1.125-3.899-1.725-8.023-1.725-12.297V226.38c-11.173-8.923-20.621-18.596-28.044-28.87C6.748 180.565.0 161.968.0 142.472.0 69.661 93.732 9.748 214.008 2.325c7.874-.525 15.897-.825 23.995-.825h1.35c132.199.0 239.353 63.137 239.353 140.972z"/><path style="fill:#FDFDED;" d="M93.471 442.085c-6.103.0-11.26-5.157-11.26-11.26V209.367l-13.328-10.584c-15.359-12.196-33.667-31.863-33.667-56.298.0-24.309 19.228-49.576 52.754-69.322 39.298-23.145 94.474-36.418 151.384-36.418 56.91.0 112.087 13.274 151.385 36.418 33.526 19.746 52.754 45.013 52.754 69.322.0 25.847-20.245 46.373-37.229 59.042L392.09 212.1v218.725c0 6.103-5.157 11.26-11.26 11.26H93.471z"/><circle style="fill:#F4F2D5;" cx="125.126" cy="126.933" r="19.827"/><circle style="fill:#F4F2D5;" cx="318.995" cy="189.598" r="19.826"/><circle style="fill:#F4F2D5;" cx="333.355" cy="110.614" r="19.826"/><circle style="fill:#F4F2D5;" cx="200.193" cy="200.695" r="19.826"/><circle style="fill:#F4F2D5;" cx="298.759" cy="264.012" r="19.826"/><circle style="fill:#F4F2D5;" cx="233.483" cy="323.413" r="19.827"/><circle style="fill:#F4F2D5;" cx="148.461" cy="291.469" r="19.826"/><circle style="fill:#F4F2D5;" cx="230.623" cy="99.241" r="19.827"/></g><path style="opacity:0.03;fill:#040000;" d="M454.411 49.265c-1.765-1.211-3.619-2.373-5.451-3.548L49.412 445.267c4.798 14.761 16.722 26.293 31.797 30.366 3.899 1.125 8.023 1.725 12.298 1.725h287.344c3.899.0 7.798-.525 11.398-1.499h21.896c25.57.0 46.491-20.921 46.491-46.491V228.331C492.804 204.335 512 173.966 512 141.048c0-17.246-5.249-33.819-14.922-49.115C487.18 76.185 472.633 61.788 454.411 49.265z"/></g></svg>