<svg height="800" width="800" id="_x35_" xmlns="http://www.w3.org/2000/svg" viewBox="0 0 512 512"><g><path style="fill:#EC965C;" d="M511.996 255.996C511.996 397.388 397.384 512 256 512 114.612 512 0 397.388.0 255.996.0 114.613 114.612.0 256 0 397.384.0 511.996 114.613 511.996 255.996z"/><path style="fill:#F8CA7A;" d="M256 463.708c-114.53.0-207.711-93.17-207.711-207.712C48.289 141.469 141.47 48.293 256 48.293c114.542.0 207.711 93.177 207.711 207.704.0 114.541-93.169 207.711-207.711 207.711z"/><path style="fill:#F6BC6F;" d="M54.107 264.725c0-114.534 93.18-207.711 207.707-207.711 70.213.0 132.355 35.056 169.969 88.541C394.984 87.185 329.971 48.293 256 48.293c-114.53.0-207.711 93.177-207.711 207.704.0 44.321 13.996 85.414 37.738 119.17-20.185-32.014-31.92-69.871-31.92-110.442z"/><path style="fill:#F18E68;" d="M196.844 150.298c0 19.278-15.628 34.913-34.9 34.913-19.282.0-34.917-15.635-34.917-34.913.0-19.279 15.636-34.907 34.917-34.907 19.271.0 34.9 15.629 34.9 34.907z"/><path style="fill:#F18E68;" d="M384.969 384.98c0 20.085-16.271 36.364-36.357 36.364-20.085.0-36.37-16.279-36.37-36.364.0-20.086 16.285-36.364 36.37-36.364C368.698 348.617 384.969 364.895 384.969 384.98z"/><path style="fill:#F18E68;" d="M162.915 318.053c0 19.285-15.642 34.914-34.917 34.914-19.278.0-34.906-15.629-34.906-34.914.0-19.271 15.628-34.906 34.906-34.906 19.275.0 34.917 15.635 34.917 34.906z"/><path style="fill:#F18E68;" d="M421.826 203.633c0 16.057-13.029 29.085-29.099 29.085-16.057.0-29.086-13.028-29.086-29.085.0-16.064 13.028-29.093 29.086-29.093C408.798 174.54 421.826 187.569 421.826 203.633z"/><path style="fill:#F18E68;" d="M294.314 287.989c0 13.121-10.628 23.757-23.757 23.757-13.113.0-23.757-10.636-23.757-23.757.0-13.122 10.643-23.757 23.757-23.757C283.686 264.232 294.314 274.868 294.314 287.989z"/><g><path style="fill:#A9A757;" d="M197.83 332.61c0 4.014-3.257 7.271-7.272 7.271-4.028.0-7.286-3.257-7.286-7.271.0-4.022 3.258-7.272 7.286-7.272C194.573 325.338 197.83 328.588 197.83 332.61z"/><circle style="fill:#A9A757;" cx="121.7" cy="241.454" r="7.273"/><path style="fill:#A9A757;" d="M275.385 204.612c0 4.014-3.243 7.271-7.271 7.271-4.015.0-7.272-3.257-7.272-7.271.0-4.022 3.257-7.279 7.272-7.279C272.142 197.333 275.385 200.59 275.385 204.612z"/><path style="fill:#A9A757;" d="M349.085 318.06c0 4.021-3.257 7.278-7.272 7.278-4.014.0-7.271-3.257-7.271-7.278.0-4.014 3.257-7.271 7.271-7.271C345.828 310.789 349.085 314.046 349.085 318.06z"/><path style="fill:#A9A757;" d="M290.428 425.701c0 4.014-3.257 7.271-7.271 7.271s-7.271-3.257-7.271-7.271c0-4.021 3.257-7.278 7.271-7.278S290.428 421.68 290.428 425.701z"/><path style="fill:#A9A757;" d="M378.67 131.884c0 4.014-3.257 7.271-7.272 7.271-4.014.0-7.271-3.257-7.271-7.271.0-4.021 3.257-7.278 7.271-7.278C375.413 124.606 378.67 127.863 378.67 131.884z"/><path style="fill:#A9A757;" d="M212.858 93.092c0 4.014-3.257 7.271-7.272 7.271-4.029.0-7.285-3.257-7.285-7.271.0-4.021 3.257-7.272 7.285-7.272C209.601 85.82 212.858 89.071 212.858 93.092z"/><path style="fill:#A9A757;" d="M411.641 340.367c0 4.014-3.257 7.271-7.271 7.271-4.029.0-7.272-3.257-7.272-7.271.0-4.021 3.243-7.278 7.272-7.278C408.384 333.089 411.641 336.345 411.641 340.367z"/></g><path style="fill:#FDEACD;" d="M304.113 128.87c3.029-11.186-7.971-25.985-25.242-30.679-17.272-4.678-34.257 2.522-37.285 13.708-1.7 6.257 1.857 10.507 8.342 13.857l-3.572 13.136c-1.143 4.25 1.357 8.628 5.601 9.778l24.599 6.679c4.258 1.15 8.629-1.357 9.786-5.6l3.572-13.15C297.199 136.991 302.414 135.127 304.113 128.87z"/><path style="fill:#FDEACD;" d="M234.4 352.324c-12.743-4.957-31.485 6.107-39.128 25.778-7.657 19.678-1.329 40.492 11.414 45.456 7.128 2.771 12.557-.864 17.299-8.057l14.958 5.814c4.857 1.886 10.3-.508 12.171-5.35l10.914-28.028c1.872-4.835-.528-10.285-5.357-12.164l-14.971-5.829C243.058 361.452 241.529 355.088 234.4 352.324z"/><path style="fill:#FDEACD;" d="M390.669 313.824c8.257.086 16.485-10.178 16.6-22.921.129-12.757-7.899-23.164-16.156-23.242-4.615-.051-6.915 3.171-8.057 8.242l-9.7-.093c-3.128-.029-5.7 2.486-5.728 5.622l-.171 18.171c-.029 3.128 2.485 5.7 5.614 5.729l9.714.093C383.827 310.524 386.041 313.781 390.669 313.824z"/><polygon style="fill:#9CCD85;" points="202.415,249.454 168.13,233.475 176.744,215.026 211.015,230.997"/><polygon style="fill:#9CCD85;" points="352.898,171.462 322.471,193.919 310.385,177.526 340.813,155.077"/><polygon style="fill:#9CCD85;" points="144.612,388.138 166.173,404.816 157.187,416.423 135.637,399.738"/></g></svg>