<svg width="800" height="800" viewBox="0 0 72 72" xmlns="http://www.w3.org/2000/svg"><g fill="none" fill-rule="evenodd"><path d="M36 72c19.882251.0 36-16.117749 36-36 0-19.882251-16.117749-36-36-36-19.882251 365231026e-23-36 16.117749-36 36C24348735e-22 55.882251 16.117749 72 36 72z" fill="#FF810F"/><path d="M42.0860128 53.5922927 22.9745951 53.6011499 22.9729497 49.5538824 42.0835447 49.5440929 42.0860128 53.5922927zM55 30.6708298 51.7306912 12 47.7087256 12.6920259l3.2688387 18.6708298L55 30.6708298zM42.5455518 44.3547147 23.5156994 42.616026 23.1410164 46.6470941l19.030205 1.7370572L42.5455518 44.3547147zm1.2554466-5.2815628-18.4550173-4.919234L24.285633 38.0621508l18.4563101 4.9198168 1.0590553-3.9088157zm2.4093479-4.6295108-16.4608999-9.6271776-2.0746249 3.4850693 16.4617226 9.6277603 2.0738022-3.485652zm4.0363041-2.8347655-3.3721468 2.2794433L36.106599 18.2318456l3.3726169-2.2801425L50.2466504 31.6088756zm-4.9150697 8.6695527h3.2483886V60H17V40.2784283h3.2648427V56.8243495h25.066738V40.2784283z" fill="#FFF"/></g></svg>