<svg width="800" height="800" viewBox="0 0 1024 1024" class="icon" xmlns="http://www.w3.org/2000/svg"><path d="M512 512m-480 0a480 480 0 10960 0 480 480 0 10-960 0z" fill="#FEE8EB"/><path d="M345.6 275.2c0-25.6 19.2-51.2 51.2-51.2h236.8c25.6.0 51.2 19.2 51.2 51.2v454.4c0 25.6-19.2 51.2-51.2 51.2H390.4c-25.6.0-51.2-19.2-51.2-51.2V275.2z" fill="#FF6B6A"/><path d="M512 371.2m-96 0a96 96 0 10192 0 96 96 0 10-192 0z" fill="#FFB0B0"/><path d="M512 608m-96 0a96 96 0 10192 0 96 96 0 10-192 0z" fill="#FFB0B0"/><path d="M486.4 774.4h51.2V896h-51.2z" fill="#FE5A59"/></svg>