<svg id="_x35_" xmlns="http://www.w3.org/2000/svg" viewBox="0 0 512 512"><g><g><g><g><path style="fill:#E3E2E2;" d="M284.082 31.115c-.078-.155-.078-.31-.078-.466.0-.156-.078-.389-.078-.623-2.1-15.402-14.313-27.614-29.715-29.715-.389-.078-.778-.078-1.089-.156C252.189.078 251.178.0 250.166.0h-70.087c-17.813.0-32.437 13.458-34.46 30.649.0.156.0.311-.078.466-.078 1.011-.156 2.023-.156 3.112v44.572h138.852V34.227C284.237 33.138 284.16 32.126 284.082 31.115zM180.079 27.382h69.465c3.967.0 7.312 3.267 7.312 7.313v16.724h-84.089V34.694c0-4.045 3.267-7.312 7.31200000000001-7.312z"/></g><g style="opacity:0.06;"><path style="fill:#040000;" d="M284.082 31.115v-.466h-.078c-8.479 1.477-17.424 2.567-26.603 3.422-.156.078-.389.078-.545.078v.078 16.724h-84.089V34.227v-.078c-9.413-.855-18.436-2.022-27.148-3.5h-.078v.466c-.078 1.011-.156 2.023-.156 3.112v44.105h138.852V34.227C284.237 33.138 284.16 32.126 284.082 31.115z"/></g></g><path style="fill:#E9E8E8;" d="M406.598 147.564l-.156 4.978L394.93 448.214c0 34.148-10.89 61.997-37.572 63.71C356.736 512 356.036 512 355.336 512H74.832c-2.879.0-5.601-.311-8.168-.855-12.99-2.879-21.625-12.758-26.603-26.603-3.656-10.346-5.367-22.871-5.367-36.328l-11.668-300.65H406.598z"/><path style="fill:#E9E8E8;" d="M414.921 133.329H14.702c0-4.201.312-8.324 1.011-12.369.778-4.9 2.1-9.644 3.812-14.156.467-1.168.933-2.334 1.478-3.502 3.734-8.633 9.102-16.412 15.636-23.025C47.451 69.465 61.531 61.92 77.321 59.352c3.967-.699 8.09-1.01 12.291-1.01h251.566c1.322.0 2.645.076 3.967.156.855.076 1.633.156 2.411.232 27.459 2.801 50.484 20.303 61.063 44.572.545 1.168 1.011 2.334 1.4 3.502C413.21 115.05 414.921 123.994 414.921 133.329z"/><rect y="103.302" style="fill:#F2F2F2;" width="429.545" height="31.351"/><rect y="103.302" style="fill:#FDFEFE;" width="429.545" height="3.502"/><g><path style="fill:#5D5D5D;" d="M96.597 198.41l30.327-.958c5.168-.163 9.47 4.138 9.573 9.573l4.59 242.725c.101 5.357-3.92 9.8-9.015 9.961l-30.327.958c-5.169.163-9.47-4.138-9.573-9.573l-4.59-242.725C87.481 203.014 91.502 198.571 96.597 198.41z"/><path style="fill:#5D5D5D;" d="M332.993 198.41l-30.327-.958c-5.169-.163-9.47 4.138-9.573 9.573l-4.59 242.725c-.101 5.357 3.92 9.8 9.015 9.961l30.327.958c5.169.163 9.47-4.138 9.573-9.573l4.59-242.725C342.109 203.014 338.088 198.571 332.993 198.41z"/><path style="fill:#5D5D5D;" d="M230.476 197.889h-30.711c-5.03.0-9.108 4.078-9.108 9.107v244.128c0 5.029 4.078 9.107 9.108 9.107h30.711c5.03.0 9.108-4.078 9.108-9.107V206.996c0-5.029-4.078-9.107-9.108-9.107z"/></g></g><g style="opacity:0.1;"><path style="fill:#040000;" d="M407.22 147.564l-.234 5.523-11.435 295.127c0 34.384-10.968 62.386-38.194 63.71C356.736 512 356.036 512 355.336 512H214.228V147.564H407.22z"/><path style="fill:#040000;" d="M430.246 103.302v31.351H214.228V50.951h43.25V34.694c0-.234.0-.389-.078-.623-.233-3.734-3.423-6.69-7.234-6.69h-35.938V0h35.938c1.011.0 2.022.078 2.956.156.389.0.7.0 1.011.078.078.0.078.078.078.078 15.869 1.789 28.315 14.468 30.259 30.26v.078h.078c.078.0.078.0.156.0.0.078.0.078.0.156.078 1.088.156 2.255.156 3.422v.389.078 23.648h56.318c1.322.0 2.645.076 3.967.156.855.076 1.633.156 2.411.232 27.693 2.49 51.029 20.148 61.686 44.572H430.246z"/></g></g></svg>