<svg width="800" height="800" viewBox="0 0 72 72" xmlns="http://www.w3.org/2000/svg"><g fill="none" fill-rule="evenodd"><path d="M36 72c19.882251.0 36-16.117749 36-36 0-19.882251-16.117749-36-36-36-19.882251 365231026e-23-36 16.117749-36 36C24348735e-22 55.882251 16.117749 72 36 72z" fill="#4DC8F1"/><path d="M55.0865399 25.7148754C55.7080938 39.5659738 45.3799204 55.0092879 27.0953855 55.0092879c-5.5609612.0-10.7374318-1.6311366-15.0953855-4.4251806C17.2236474 51.1997641 22.4390388 49.7514374 26.5787999 46.505676 22.2703818 46.4266549 18.6330532 43.5795371 17.3805101 39.6674038 18.9231903 39.9622586 20.4411028 39.876161 21.8269202 39.4999263 17.090373 38.5469556 13.8222026 34.2809966 13.9283503 29.7190034 15.2563762 30.4561404 16.7754681 30.8996019 18.3900929 30.9491375c-4.3862598-2.9296771-5.6281881-8.720625-3.0476191-13.1469851 4.8556686 5.9584255 12.1114551 9.8788147 20.2966239 10.290432C34.2037447 21.9312988 38.8766033 16 45.232493 16c2.8329648.0 5.3923043 1.1947516 7.1873802 3.1089488C54.6631284 18.6678461 56.7707504 17.8481498 58.6731535 16.7194457c-.7347781 2.2998673-2.2963291 4.2305764-4.3296477 5.447737C56.3355447 21.9301194 58.2332301 21.4005602 60 20.6174259c-1.31977 1.9755271-2.9898275 3.7092732-4.9134601 5.0974495" fill="#FFF"/></g></svg>