<svg id="_x35_" xmlns="http://www.w3.org/2000/svg" viewBox="0 0 512 512"><g><g><g><g><polygon style="fill:#4F4B4B;" points="118.429,512 64.9,512 64.9,468.34 170.879,468.34"/><polygon style="fill:#4F4B4B;" points="427.446,512 373.917,512 321.467,468.34 427.446,468.34"/></g><rect x=".5" style="fill:#A8AD75;" width="481.805" height="481.805"/><rect x="48.204" y="47.681" style="fill:#F1F5D3;" width="386.398" height="386.398"/><path style="fill:#395051;" d="M482.305 114.466v69.17h-84.674c-19.034.0-34.585-15.551-34.585-34.585.0-9.517 3.888-18.175 10.161-24.424 6.249-6.273 14.907-10.161 24.424-10.161h84.674z"/><path style="fill:#395051;" d="M482.305 274.272v69.17h-84.674c-19.034.0-34.585-15.551-34.585-34.585.0-9.517 3.888-18.175 10.161-24.424 6.249-6.273 14.907-10.161 24.424-10.161h84.674z"/><g><g><circle style="fill:#A8AD75;" cx="250.464" cy="260.757" r="99.382"/><g><path style="fill:#FFFFFF;" d="M258.384 185.613c-.316-.079-.711-.079-1.027-.079-4.186.0-7.74 3.081-8.214 7.346-.553 4.581 2.764 8.767 7.345 9.32h.948c4.186.0 7.819-3.08 8.293-7.345.079-.316.079-.632.079-1.027C265.809 189.721 262.65 186.087 258.384 185.613zM233.267 194.855c-1.264-3.318-4.423-5.371-7.819-5.371-1.027.0-2.054.158-3.001.553-4.266 1.659-6.398 6.477-4.818 10.821 1.343 3.318 4.502 5.371 7.82 5.371 1.027.0 1.975-.237 3.002-.553 3.317-1.264 5.371-4.423 5.371-7.819C233.82 196.908 233.662 195.882 233.267 194.855zM295.349 202.042c-.553-1.501-1.58-2.764-3.001-3.712-1.501-1.027-3.16-1.501-4.739-1.501-2.686.0-5.292 1.264-6.872 3.633-2.607 3.792-1.659 9.004 2.132 11.611.474.395 1.027.632 1.58.869 1.027.395 2.054.632 3.081.632 2.685.0 5.371-1.264 6.951-3.633 1.027-1.422 1.501-3.081 1.501-4.739C295.981 204.096 295.744 203.069 295.349 202.042zM204.517 210.02c-1.58-1.422-3.554-2.133-5.529-2.133-2.37.0-4.66.948-6.24 2.843-3.08 3.397-2.765 8.689.711 11.769 1.58 1.422 3.554 2.053 5.529 2.053 2.369.0 4.66-.948 6.24-2.764 1.422-1.58 2.132-3.554 2.132-5.529C207.36 213.89 206.413 211.6 204.517 210.02zm111.921 15.323c-1.501-2.843-4.423-4.423-7.425-4.423-1.264.0-2.606.316-3.87.948-4.107 2.133-5.687 7.187-3.475 11.295 1.501 2.843 4.423 4.423 7.425 4.423 1.264.0 2.607-.316 3.87-.948 2.844-1.58 4.423-4.423 4.423-7.424C317.386 227.949 317.07 226.606 316.438 225.343zM186.035 236.637c-.632-.158-1.264-.237-1.896-.237-3.791.0-7.266 2.528-8.135 6.398-1.106 4.502 1.658 9.004 6.081 10.11.711.158 1.343.237 1.975.237 3.792.0 7.188-2.528 8.136-6.398.158-.632.237-1.343.237-1.975C192.432 240.982 189.905 237.585 186.035 236.637zm130.798 15.482c-4.581.079-8.293 3.712-8.293 8.214.0.079.0.079.0.158.0.158.0.237.0.237.0 4.66 3.712 8.372 8.293 8.372 4.66.0 8.373-3.712 8.373-8.372v-.079-.158C325.206 255.831 321.414 252.119 316.833 252.119zM192.275 275.024c-.948-3.87-4.423-6.398-8.215-6.398-.632.0-1.264.079-1.896.237-4.502 1.105-7.187 5.687-6.16 10.11.948 3.791 4.423 6.398 8.135 6.398.632.0 1.343-.079 1.975-.237 3.87-.948 6.398-4.423 6.398-8.136C192.511 276.366 192.432 275.656 192.275 275.024zM313.042 284.66c-1.264-.632-2.607-.948-3.87-.948-3.001.0-5.845 1.579-7.424 4.423-2.133 4.107-.553 9.162 3.554 11.295 1.263.632 2.527.948 3.87.948 3.001.0 5.924-1.58 7.346-4.423.711-1.264 1.027-2.607 1.027-3.949C317.544 289.004 315.885 286.161 313.042 284.66zM205.386 299.983c-1.422-1.58-3.317-2.528-5.213-2.765-.316-.079-.711-.079-1.027-.079-1.975.0-3.949.711-5.529 2.133-1.816 1.659-2.764 3.87-2.764 6.161.0.316.0.711.079 1.027.158 1.579.869 3.238 2.053 4.581 1.659 1.896 3.871 2.843 6.161 2.843 1.975.0 3.949-.711 5.608-2.132 1.816-1.659 2.764-3.949 2.764-6.24C207.518 303.537 206.807 301.563 205.386 299.983zm89.252 11.452c-1.579-2.369-4.186-3.633-6.872-3.633-1.658.0-3.317.474-4.739 1.501-3.791 2.606-4.739 7.819-2.054 11.61 1.58 2.369 4.186 3.633 6.793 3.633 1.659.0 3.318-.474 4.818-1.501 2.29-1.58 3.554-4.186 3.554-6.793C296.139 314.595 295.665 312.936 294.638 311.435zM228.686 316.017c-1.027-.395-2.054-.553-3.001-.553-3.396.0-6.556 2.054-7.819 5.371-1.58 4.266.553 9.083 4.897 10.742.948.395 1.975.553 2.922.553 3.396.0 6.556-2.054 7.819-5.371.395-.948.553-1.975.553-3.001C234.057 320.361 232.003 317.202 228.686 316.017zm37.281 10.584c-.474-4.266-4.107-7.345-8.215-7.345-.395.0-.711.0-1.027.079-4.581.553-7.899 4.739-7.346 9.321.553 4.186 4.186 7.345 8.293 7.345.316.0.711-.079 1.027-.079 4.265-.474 7.346-4.107 7.346-8.293C266.046 327.311 266.046 326.917 265.967 326.601z"/></g><circle style="fill:#E0E0E0;" cx="250.464" cy="260.757" r="40.548"/></g><polygon style="fill:#A8AD75;" points="236.665,164.157 250.952,139.411 265.239,164.157"/><g><polygon style="fill:#99414D;" points="264.833,108.006 250.546,132.752 236.259,108.006"/><circle style="fill:#99414D;" cx="250.546" cy="98.565" r="23.852"/></g><circle style="fill:#FBF2C0;" cx="250.546" cy="98.167" r="7.155"/></g><path style="fill:#C2C1C1;" d="M109.423 375.245c-10.057.0-18.286-8.229-18.286-18.286V143.883c0-10.057 8.229-18.286 18.286-18.286h0c10.057.0 18.286 8.229 18.286 18.286v213.076c0 10.057-8.229 18.286-18.286 18.286z"/><path style="fill:#ABABAB;" d="M109.026 218.618c-14.649.0-26.634-11.986-26.634-26.634v-15.901c0-14.649 11.986-26.635 26.634-26.635h0c14.649.0 26.634 11.986 26.634 26.635v15.901c0 14.649-11.986 26.634-26.634 26.634z"/><circle style="fill:#F1F5D3;" cx="407.172" cy="149.647" r="11.33"/><circle style="fill:#F1F5D3;" cx="407.172" cy="310.05" r="11.33"/></g><polygon style="opacity:0.09;fill:#040000;" points="15.609,481.782 64.9,481.782 64.9,512 118.429,512 154.729,481.782 337.617,481.782 373.917,512 427.446,512 427.446,481.782 482.305,481.782 482.305,343.443 482.305,274.272 482.305,183.636 482.305,114.466 482.305,15.086"/></g><rect y=".698" style="opacity:0.09;fill:#FFFFFF;" width="481.805" height="12.796"/></g></svg>