<svg width="800" height="800" viewBox="0 0 72 72" xmlns="http://www.w3.org/2000/svg"><g fill="none" fill-rule="evenodd"><path d="M36 72c19.882251.0 36-16.117749 36-36 0-19.882251-16.117749-36-36-36-19.882251 365231026e-23-36 16.117749-36 36C24348735e-22 55.882251 16.117749 72 36 72z" fill="#FF0002"/><path d="M31.044 42.269916 31.0425 28.6877416l12.969 6.8145021L31.044 42.269916zM59.52 26.3341627S59.0505 23.003199 57.612 21.5363665C55.7865 19.610299 53.7405 19.6012352 52.803 19.4894477 46.086 19 36.0105 19 36.0105 19H35.9895s-10.0755.0-16.7925.4894477C18.258 19.6012352 16.2135 19.610299 14.3865 21.5363665 12.948 23.003199 12.48 26.3341627 12.48 26.3341627S12 30.2467232 12 34.1577731v3.6678367c0 3.9125605.48 7.8236104.48 7.8236104s.468 3.3309637 1.9065 4.7977963C16.2135 52.3730839 18.612 52.3126583 19.68 52.5135736 23.52 52.8851913 36 53 36 53S46.086 52.9848936 52.803 52.4954459C53.7405 52.3821478 55.7865 52.3730839 57.612 50.4470165c1.4385-1.4668326 1.908-4.7977963 1.908-4.7977963S60 41.7381703 60 37.8256098V34.1577731C60 30.2467232 59.52 26.3341627 59.52 26.3341627z" fill="#FFF"/></g></svg>